<svg xmlns:xlink="http://www.w3.org/1999/xlink" xmlns="http://www.w3.org/2000/svg" style="width:100%;height:100%;" width="103.104"  height="58" ><defs><svg viewBox="0 0 103.104 58" id="svg12523689576"><path d="M 56.123 34.655 C 55.877 36.29 56.728 37.495 58.14 37.514 C 57.975 38.022 57.203 38.535 56.539 38.578 C 56.458 38.583 56.371 38.601 56.296 38.579 C 55.832 38.446 55.574 38.694 55.41 39.072 C 55.148 39.673 54.887 40.276 54.672 40.895 C 54.595 41.116 54.477 41.44 54.829 41.583 C 55.048 41.672 55.243 41.468 55.35 41.06 C 55.405 40.848 55.425 40.627 55.486 40.417 C 55.607 39.994 55.923 39.865 56.318 40.043 C 56.425 40.09 56.556 40.1 56.676 40.1 C 56.94 40.1 57.153 40.164 57.25 40.476 C 56.769 40.562 56.496 40.906 56.25 41.268 C 55.869 41.831 55.465 42.358 54.795 42.604 C 54.755 42.619 54.709 42.653 54.693 42.689 C 54.434 43.291 53.875 43.341 53.336 43.429 C 53.097 43.468 52.853 43.489 52.62 43.55 C 51.817 43.76 51.191 44.151 51.143 45.092 C 50.708 44.861 50.29 43.764 50.512 43.38 C 50.612 43.207 50.824 43.092 51 42.973 C 51.087 42.914 51.209 42.904 51.364 42.857 C 50.239 42.667 49.547 42.889 48.856 43.656 C 48.828 43.584 48.79 43.527 48.788 43.47 C 48.775 42.915 48.955 42.399 49.279 41.976 C 49.409 41.807 49.782 41.736 50.027 41.765 C 50.528 41.822 51.013 42.003 51.513 42.085 C 52.318 42.216 52.825 41.921 53.135 41.168 C 53.449 40.402 53.611 39.602 53.618 38.771 C 53.621 38.368 53.498 38.011 53.202 37.741 C 51.79 36.451 50.989 34.834 50.624 32.98 C 50.617 32.947 50.603 32.916 50.593 32.884 L 50.491 32.884 C 50.486 33.268 50.451 33.655 50.483 34.036 C 50.515 34.424 50.611 34.806 50.683 35.214 C 50.008 35.293 49.363 35.427 48.882 35.935 C 48.368 36.477 48.315 37.096 48.625 37.759 C 48.176 37.853 47.763 37.625 47.44 37.169 C 47.331 37.015 47.151 36.851 46.977 36.814 C 46.347 36.677 45.709 36.567 45.068 36.499 C 44.656 36.454 44.505 36.712 44.675 37.098 C 44.739 37.245 44.846 37.372 44.921 37.515 C 45.011 37.688 45.146 37.866 45.153 38.046 C 45.16 38.243 45.082 38.472 44.967 38.636 C 44.85 38.804 43.964 38.893 43.706 38.802 C 44.073 38.427 44.055 37.982 43.957 37.523 C 43.819 36.877 43.51 36.326 42.966 35.948 C 42.638 35.719 42.268 35.537 41.896 35.386 C 41.286 35.139 40.912 34.772 40.976 34.058 C 41.003 33.75 40.903 33.667 40.494 33.446 C 40.64 33.391 40.764 33.297 40.864 33.317 C 41.158 33.376 41.438 33.52 41.732 33.558 C 42.135 33.609 42.192 33.919 42.33 34.194 C 42.432 34.398 42.581 34.577 42.709 34.767 L 42.777 34.717 C 42.669 34.105 42.578 33.489 42.448 32.881 C 42.373 32.531 42.116 32.316 41.756 32.235 C 41.987 31.927 42.552 31.825 43.057 31.991 C 43.392 32.102 43.507 32.373 43.516 32.694 C 43.526 33.006 43.505 33.318 43.513 33.63 C 43.52 33.858 43.552 34.085 43.626 34.318 C 43.794 33.572 44.349 32.926 44.135 32.089 C 44.17 32.078 44.217 32.051 44.229 32.063 C 44.518 32.322 44.875 32.541 45.069 32.859 C 45.249 33.155 44.987 33.463 44.797 33.733 C 44.628 33.973 44.446 34.218 44.349 34.49 C 44.25 34.767 44.413 34.978 44.699 35.07 C 45.277 35.254 45.862 35.258 46.443 35.101 C 46.787 35.007 46.922 34.757 46.831 34.404 C 46.774 34.181 46.682 33.967 46.601 33.751 C 46.116 32.457 46.651 31.532 48.019 31.31 C 48.298 31.265 48.581 31.243 48.941 31.202 C 47.724 30.705 46.668 30.092 45.824 29.17 C 45.827 29.128 45.83 29.086 45.833 29.045 C 46.442 28.992 47.051 28.939 47.66 28.886 C 47.67 28.865 47.679 28.844 47.689 28.823 C 47.323 28.743 46.96 28.608 46.591 28.595 C 45.32 28.548 44.047 28.538 42.775 28.531 C 42.545 28.53 42.427 28.453 42.268 28.284 C 41.957 27.953 41.585 27.673 41.208 27.414 C 41.096 27.337 40.842 27.339 40.733 27.417 C 40.629 27.491 40.592 27.712 40.593 27.868 C 40.596 28.178 40.673 28.487 40.668 28.796 C 40.662 29.192 40.376 29.418 39.996 29.35 C 39.729 29.302 39.466 29.225 39.21 29.136 C 39.105 29.099 39.024 28.996 38.906 28.903 C 39.848 28.619 40.087 28.137 39.808 27.218 C 39.656 26.714 39.33 26.346 38.91 26.065 C 38.34 25.683 38.13 25.198 38.304 24.518 C 38.367 24.271 38.289 23.988 38.274 23.677 C 38.356 23.698 38.57 23.688 38.627 23.778 C 38.858 24.142 39.283 24.386 39.291 24.898 C 39.297 25.22 39.408 25.53 39.681 25.677 C 39.681 25.153 39.682 24.615 39.681 24.078 C 39.678 23.594 39.566 23.162 39.081 22.912 L 39.115 22.807 C 39.325 22.833 39.536 22.855 39.744 22.887 C 39.833 22.901 39.915 22.951 40.003 22.962 C 40.47 23.021 40.644 23.246 40.562 23.721 C 40.507 24.039 40.422 24.352 40.367 24.671 C 40.254 25.321 40.491 25.765 41.11 26.03 C 41.98 26.402 42.891 26.385 43.807 26.276 C 43.988 26.254 44.166 26.208 44.301 26.182 C 44.226 25.502 44.164 24.853 44.072 24.208 C 44.06 24.125 43.884 23.999 43.79 24.004 C 43.288 24.032 43.069 23.766 42.867 23.337 C 42.491 22.539 41.939 21.852 41.296 21.238 C 41.188 21.135 41.147 20.953 41.096 20.799 C 40.963 20.4 40.903 19.961 40.699 19.603 C 40.447 19.163 40.139 19.218 39.934 19.675 C 39.634 20.345 39.21 20.432 38.685 19.937 C 38.621 19.876 38.518 19.857 38.453 19.797 C 38.32 19.673 38.199 19.535 38.074 19.402 C 38.093 19.38 38.112 19.357 38.132 19.335 C 38.287 19.361 38.442 19.404 38.597 19.41 C 39.125 19.431 39.558 19.123 39.734 18.615 C 39.906 18.121 39.77 17.633 39.328 17.33 C 38.931 17.059 38.7 16.748 38.773 16.233 C 38.796 16.07 38.652 15.884 38.554 15.633 C 38.784 15.717 38.99 15.791 39.194 15.868 C 39.224 15.88 39.243 15.933 39.27 15.936 C 39.891 16.006 39.933 16.509 40.063 16.961 C 40.124 17.17 40.248 17.36 40.41 17.539 C 40.314 16.736 40.977 15.915 40.263 15.117 C 40.395 15.117 40.502 15.09 40.587 15.121 C 40.842 15.217 41.114 15.3 41.326 15.459 C 41.446 15.548 41.526 15.784 41.509 15.941 C 41.481 16.198 41.373 16.449 41.275 16.694 C 41.158 16.986 41.054 17.272 41.173 17.616 C 41.597 17.099 42.431 16.888 42.206 15.985 C 42.533 16.096 42.901 16.564 42.913 16.863 C 42.927 17.233 42.688 17.423 42.394 17.57 C 42.342 17.595 42.29 17.621 42.238 17.646 C 41.671 17.925 41.489 18.29 41.775 18.853 C 41.995 19.284 42.309 19.692 42.658 20.03 C 43.279 20.633 44.057 21.008 44.863 21.31 C 44.95 21.342 45.109 21.335 45.163 21.278 C 46.05 20.348 47.199 19.903 48.379 19.507 C 48.971 19.309 49.566 19.116 50.136 18.867 C 50.789 18.582 51.296 18.119 51.397 17.372 C 51.441 17.042 51.366 16.695 51.343 16.318 C 51.495 16.384 51.694 16.47 51.889 16.555 C 52.031 15.431 50.766 14.606 49.191 14.833 C 49.938 15.01 50.719 15.119 51.273 15.82 C 51.028 15.85 50.84 15.873 50.707 15.889 L 50.886 17.705 C 50.584 17.59 50.351 17.502 50.089 17.402 C 49.858 17.641 49.96 17.958 50.035 18.293 C 49.6 18.366 49.329 18.143 49.089 17.797 C 48.798 18.054 48.808 18.368 48.853 18.689 C 48.392 18.653 48.261 18.521 48.001 17.83 C 47.632 18.056 47.621 18.457 47.504 18.851 C 47.061 18.299 47.363 17.737 47.366 17.226 C 47.831 17.226 48.285 17.253 48.732 17.214 C 48.951 17.195 49.173 17.076 49.371 16.963 C 49.672 16.793 49.85 16.523 49.82 16.163 C 49.788 15.778 49.561 15.535 49.207 15.397 C 48.407 15.084 47.455 15.416 46.914 16.21 C 46.563 15.851 46.186 15.517 46.264 14.885 C 45.939 14.902 45.647 14.918 45.317 14.936 C 45.563 14.318 46.02 13.988 46.636 13.901 C 47.334 13.802 48.038 13.748 48.741 13.691 C 48.935 13.675 49.054 13.619 49.2 13.47 C 49.388 13.279 49.668 13.155 49.931 13.069 C 50.119 13.008 50.357 13.01 50.548 13.066 C 51.093 13.226 51.601 13.102 52.137 13.005 C 52.71 12.903 53.314 12.887 53.897 12.937 C 54.966 13.03 56.031 13.149 57.105 13 L 57.187 13.098 C 56.905 13.36 56.623 13.622 56.306 13.917 C 56.676 13.975 57.02 14.03 57.443 14.096 C 56.548 14.958 55.576 15.449 54.348 15.395 C 54.768 17.121 54.33 18.623 53.226 19.963 C 53.251 19.985 53.275 20.006 53.299 20.027 C 53.496 19.882 53.72 19.763 53.884 19.587 C 54.252 19.189 54.624 18.787 54.933 18.344 C 55.526 17.493 56.302 16.932 57.281 16.598 C 58.549 16.164 59.799 15.68 60.902 14.879 C 60.97 15.391 60.645 16.198 60.01 17.245 C 60.696 17.05 61.393 16.886 62.065 16.652 C 62.737 16.418 63.385 16.115 64.136 15.804 C 64.054 16.229 64.004 16.611 63.905 16.981 C 63.773 17.47 63.577 17.943 63.456 18.435 C 63.23 19.361 63.48 19.815 64.446 20.207 C 64.219 20.368 64.041 20.524 63.837 20.632 C 63.553 20.784 63.246 20.893 62.955 21.035 C 62.039 21.483 61.918 22.393 62.68 23.076 C 62.773 23.16 62.876 23.234 62.987 23.412 C 62.613 23.465 62.241 23.532 61.866 23.567 C 61.59 23.593 61.31 23.562 61.033 23.579 C 60.486 23.614 60.245 23.926 60.435 24.444 C 60.567 24.804 60.811 25.123 61.018 25.452 C 61.056 25.513 61.155 25.536 61.287 25.613 C 60.751 25.827 60.337 25.705 59.923 25.64 C 59.536 25.579 59.152 25.477 58.762 25.456 C 58.23 25.427 57.951 25.759 58.085 26.274 C 58.183 26.655 58.371 27.013 58.545 27.445 C 58.208 27.356 57.869 27.278 57.537 27.174 C 57.229 27.077 56.936 26.932 56.626 26.845 C 55.799 26.611 55.325 27.082 55.542 27.91 C 55.574 28.032 55.626 28.148 55.698 28.351 C 55.457 28.304 55.265 28.273 55.077 28.229 C 54.698 28.14 54.323 28.015 53.94 27.959 C 53.652 27.917 53.416 28.073 53.214 28.346 C 53.456 28.402 53.654 28.44 53.849 28.494 C 54.723 28.735 55.343 29.313 55.828 30.041 C 56.232 30.646 56.579 31.288 56.977 31.897 C 57.21 32.253 57.469 32.599 57.761 32.907 C 58.117 33.283 58.568 33.474 59.189 33.378 C 58.036 32.914 57.827 32.028 57.996 31.009 C 58.151 30.076 58.697 29.423 59.639 29.195 C 60.678 28.944 61.502 29.3 62.131 30.252 C 62.632 29.061 62.959 27.876 63.203 26.67 C 62.696 26.872 62.213 27.065 61.73 27.257 L 61.675 27.168 C 62.797 25.682 63.682 24.068 64.401 22.335 C 64.313 23.343 64.255 24.356 64.133 25.361 C 63.875 27.486 63.448 29.577 62.681 31.585 C 62.352 32.449 62 33.305 61.409 34.035 C 60.335 35.363 58.518 35.841 57 35.175 C 56.697 35.042 56.425 34.838 56.12 34.656 Z M 48.459 20.964 C 48.067 21.4 47.579 21.705 46.952 21.795 C 46.543 21.853 46.128 21.927 45.74 22.061 C 45.272 22.223 44.967 22.596 44.915 22.866 C 45.753 22.634 46.63 22.391 47.492 22.153 C 47.328 22.898 46.88 23.423 46.099 23.669 C 45.817 23.758 45.544 23.9 45.294 24.062 C 44.959 24.278 44.771 24.6 44.762 24.953 L 47.247 23.675 C 47.357 23.955 47.499 24.312 47.674 24.753 C 48.349 23.685 49.226 23.036 50.242 22.576 C 50.797 22.325 51.374 22.097 51.963 21.949 C 53.314 21.609 54.514 21.007 55.563 20.093 C 56.269 19.478 57.085 19.046 57.972 18.754 C 58.52 18.574 59.076 18.417 59.631 18.259 C 60.631 17.974 61.644 17.727 62.54 17.166 C 62.637 17.105 62.736 17.043 62.828 16.974 C 62.91 16.912 62.985 16.841 63.063 16.774 C 61.606 17.431 60.07 17.762 58.544 18.124 C 57.422 18.391 56.315 18.703 55.44 19.497 C 54.272 20.556 52.927 21.221 51.399 21.602 C 50.244 21.891 49.195 22.441 48.381 23.351 C 48.167 23.59 47.984 23.855 47.745 24.16 C 47.726 23.998 47.704 23.889 47.701 23.78 C 47.683 23.007 47.927 22.302 48.427 21.737 C 48.795 21.32 49.268 20.99 49.722 20.66 C 50.208 20.307 50.738 20.016 51.226 19.666 C 51.702 19.324 52.057 18.878 52.213 18.194 C 51.582 19.102 50.742 19.606 49.885 20.093 C 49.344 20.4 48.78 20.547 48.157 20.48 C 47.905 20.453 47.648 20.459 47.395 20.471 C 46.89 20.496 46.4 20.725 46.233 20.965 L 48.458 20.965 Z M 53.278 32.837 C 53.292 32.939 53.303 33.005 53.312 33.071 C 53.452 34.108 53.704 35.111 54.217 36.034 C 54.542 36.618 54.951 37.131 55.563 37.441 C 55.733 37.528 55.924 37.574 56.105 37.639 C 56.119 37.614 56.132 37.588 56.145 37.563 C 55.135 37.013 54.615 36.104 54.314 35.056 C 54.153 34.492 54.057 33.908 53.95 33.33 C 53.801 32.525 53.728 31.701 53.517 30.913 C 53.188 29.687 51.93 28.72 50.756 28.688 C 51.097 29.16 51.072 29.41 50.649 29.825 C 50.476 29.995 50.291 30.155 50.14 30.343 C 49.971 30.553 49.9 30.797 50.036 31.099 C 50.502 30.411 51.608 30.216 51.362 29.089 C 52.339 29.566 52.483 30.386 51.761 31.114 C 51.59 31.286 51.417 31.46 51.274 31.654 C 51.075 31.923 50.99 32.228 51.049 32.404 C 51.217 32.29 51.446 32.153 51.655 31.989 C 52.19 31.57 52.705 31.133 52.669 30.297 C 53.3 31.342 53.291 32.195 52.479 32.924 C 52.266 33.115 52.079 33.342 51.91 33.574 C 51.715 33.844 51.658 34.152 51.739 34.447 C 52.242 33.921 52.745 33.395 53.278 32.837 Z M 63.461 20.263 C 62.974 19.791 62.94 19.224 62.982 18.682 C 62.04 18.803 61.135 18.919 60.224 19.035 C 60.394 19.2 60.553 19.354 60.712 19.508 C 60.696 19.535 60.68 19.562 60.664 19.59 C 60.428 19.562 60.192 19.533 59.956 19.506 C 59.715 19.478 59.474 19.446 59.233 19.425 C 58.98 19.403 58.726 19.378 58.472 19.381 C 58.247 19.384 58.022 19.422 57.797 19.445 C 59.679 19.652 61.456 20.531 63.461 20.263 Z M 61.768 21.659 C 61.052 21.404 60.299 21.136 59.551 20.869 C 59.61 21.096 59.671 21.332 59.758 21.665 C 58.853 21.058 58.026 20.52 57.005 20.391 C 57.66 20.831 58.294 21.263 58.935 21.684 C 59.465 22.032 59.983 22.406 60.544 22.695 C 60.972 22.915 61.459 23.021 61.905 23.173 C 61.854 22.616 61.811 22.144 61.767 21.66 Z M 56.177 21.66 C 56.161 21.69 56.145 21.722 56.129 21.752 C 56.831 22.501 57.503 23.282 58.248 23.986 C 58.711 24.424 59.283 24.748 59.813 25.112 C 59.904 25.174 60.03 25.185 60.088 25.203 C 60.054 24.674 60.022 24.177 59.991 23.703 C 59.423 23.342 58.83 22.965 58.249 22.596 C 58.297 22.829 58.345 23.068 58.394 23.307 C 57.987 23.026 57.664 22.698 57.303 22.417 C 56.947 22.139 56.554 21.91 56.177 21.659 Z M 55.087 23.057 C 55.047 23.09 55.008 23.124 54.968 23.158 C 55.736 24.435 56.319 25.851 57.714 26.768 C 57.594 26.201 57.587 25.725 57.882 25.389 C 57.385 24.887 56.912 24.409 56.454 23.946 C 56.445 24.137 56.434 24.369 56.422 24.641 C 55.952 24.083 55.519 23.571 55.087 23.057 Z M 59.946 33.216 C 60.746 32.947 61.212 31.829 60.825 31.067 C 60.683 30.785 60.45 30.627 60.136 30.624 C 59.805 30.621 59.57 30.794 59.432 31.093 C 59.122 31.766 59.472 32.352 60.337 32.47 C 60.197 32.738 60.069 32.979 59.945 33.216 Z M 55.814 13.618 L 55.793 13.452 C 54.91 13.452 54.026 13.445 53.144 13.456 C 52.876 13.459 52.527 13.432 52.488 13.802 C 52.45 14.164 52.787 14.247 53.053 14.354 C 53.085 14.367 53.12 14.371 53.154 14.376 C 54.169 14.552 55.019 14.175 55.814 13.617 Z M 53.588 24.246 C 53.711 25.547 54.157 26.707 54.974 27.671 C 55.14 27.281 55.298 26.91 55.47 26.503 C 55.274 26.173 55.041 25.78 54.8 25.374 C 54.741 25.612 54.685 25.833 54.629 26.053 C 54.597 26.056 54.564 26.059 54.532 26.062 C 54.217 25.457 53.902 24.851 53.588 24.246 Z M 42.876 26.83 C 42.87 26.846 42.864 26.862 42.858 26.878 C 43.058 26.908 43.257 26.953 43.458 26.966 C 44.236 27.017 44.984 27.004 45.674 26.509 C 46.056 26.234 46.537 26.057 47.001 25.945 C 47.391 25.85 47.404 25.637 47.413 25.312 C 47.281 25.336 47.171 25.332 47.084 25.375 C 46.445 25.689 45.813 26.016 45.175 26.33 C 44.94 26.446 44.705 26.588 44.454 26.634 C 43.934 26.729 43.403 26.768 42.877 26.83 Z M 56.053 31.668 C 56.107 32.775 56.546 33.441 57.461 33.866 C 58.089 34.157 58.728 34.177 59.378 33.891 C 57.707 34.055 56.874 32.949 56.053 31.667 Z M 52.147 27.686 C 52.397 26.638 52.433 25.605 51.935 24.613 C 51.694 25.661 52.078 26.662 52.147 27.686 Z M 44.531 22.289 C 44.607 22.134 44.666 22.015 44.707 21.93 C 43.992 21.527 43.306 21.14 42.572 20.727 C 43.079 21.455 43.706 21.957 44.53 22.289 Z M 61.297 30.089 C 60.762 29.332 59.306 29.396 58.907 30.144 C 58.861 30.23 58.865 30.344 58.846 30.446 C 58.867 30.471 58.888 30.496 58.909 30.521 C 59.616 29.925 60.373 29.617 61.297 30.089 Z M 49.7 27.07 C 50.341 26.432 50.531 25.355 50.045 24.684 C 49.924 25.521 49.811 26.302 49.7 27.07 Z M 49.702 28.775 C 49.338 29.004 48.98 29.21 48.644 29.447 C 48.3 29.689 48.226 29.936 48.317 30.174 C 48.655 29.942 49.01 29.696 49.367 29.456 C 49.608 29.295 49.805 29.118 49.702 28.776 Z M 48.983 31.673 C 48.458 31.65 47.941 31.703 47.495 31.993 C 47.294 32.124 47.146 32.344 46.998 32.541 C 46.962 32.588 47.023 32.707 47.04 32.793 C 47.12 32.771 47.233 32.775 47.274 32.723 C 47.709 32.154 48.31 31.868 48.983 31.673 Z M 51.032 13.778 C 50.652 13.538 50.329 13.392 49.943 13.522 C 49.69 13.608 49.55 13.785 49.547 14.076 C 49.607 14.089 49.666 14.12 49.714 14.109 C 50.126 14.011 50.535 13.904 51.032 13.778 Z M 52.637 36.074 C 52.82 35.818 52.992 35.577 53.164 35.336 C 53.316 35.125 53.407 34.908 53.232 34.613 C 52.981 35.115 52.322 35.397 52.637 36.074 Z M 48.448 19.782 C 48.454 19.833 48.459 19.884 48.465 19.935 C 48.943 19.911 49.444 20.059 49.888 19.779 L 49.877 19.672 C 49.401 19.709 48.924 19.745 48.448 19.782 Z M 47.214 14.694 L 47.202 14.585 C 47.059 14.55 46.915 14.486 46.774 14.492 C 46.694 14.495 46.618 14.612 46.54 14.678 C 46.623 14.74 46.711 14.857 46.788 14.849 C 46.934 14.835 47.072 14.75 47.214 14.694 Z M 10.655 34.444 C 11.138 33.416 11.609 32.413 12.095 31.379 C 12.284 31.488 12.457 31.594 12.636 31.69 C 13.722 32.274 14.835 32.78 16.107 32.76 C 16.268 32.757 16.45 32.767 16.583 32.696 C 16.76 32.6 16.991 32.454 17.029 32.289 C 17.069 32.119 16.96 31.841 16.82 31.72 C 16.601 31.528 16.314 31.398 16.036 31.297 C 15.417 31.072 14.785 30.886 14.162 30.674 C 13.911 30.589 13.665 30.484 13.424 30.373 C 12.221 29.818 11.332 29.011 11.228 27.589 C 11.107 25.943 11.566 24.552 12.995 23.587 C 13.744 23.08 14.58 22.831 15.473 22.791 C 17.255 22.713 18.844 23.342 20.41 24.172 C 19.923 25.14 19.448 26.087 18.952 27.074 C 18.823 27 18.708 26.935 18.593 26.87 C 17.784 26.409 16.94 26.036 16.006 25.922 C 15.748 25.891 15.475 25.916 15.216 25.958 C 14.971 25.997 14.748 26.109 14.693 26.394 C 14.639 26.683 14.717 26.938 14.976 27.084 C 15.256 27.241 15.552 27.375 15.853 27.487 C 16.73 27.812 17.628 28.083 18.488 28.445 C 19.473 28.859 20.273 29.517 20.533 30.607 C 21.014 32.618 20.47 34.482 18.694 35.372 C 17.653 35.895 16.525 36.024 15.38 35.929 C 13.82 35.799 12.337 35.377 10.953 34.63 C 10.862 34.581 10.778 34.522 10.653 34.444 Z M 92.315 25.611 C 92.229 25.686 92.164 25.75 92.092 25.804 C 91.324 26.377 90.555 26.947 89.784 27.521 C 89.024 26.235 87.932 25.722 86.584 26.016 C 85.814 26.184 85.236 26.642 84.885 27.332 C 84.225 28.629 84.204 29.963 84.857 31.265 C 85.577 32.702 87.256 33.189 88.65 32.414 C 89.112 32.157 89.349 31.894 89.725 31.199 C 90.172 31.476 90.618 31.752 91.063 32.03 C 91.514 32.311 91.964 32.593 92.449 32.897 C 92.243 33.429 91.933 33.878 91.523 34.256 C 89.313 36.292 84.8 37.005 82.153 33.084 C 80.081 30.013 80.781 25.93 83.71 23.902 C 85.961 22.343 89.209 22.469 91.208 24.196 C 91.666 24.591 92.038 25.057 92.315 25.611 Z M 33.514 31.2 C 34.413 31.761 35.31 32.323 36.229 32.898 C 35.973 33.538 35.582 34.056 35.058 34.469 C 32.289 36.653 27.796 36.603 25.576 32.477 C 23.996 29.541 24.705 26.062 27.218 24.101 C 29.572 22.264 33.199 22.4 35.216 24.422 C 35.561 24.767 35.832 25.187 36.152 25.591 C 35.246 26.269 34.406 26.896 33.565 27.525 C 32.787 26.229 31.721 25.725 30.366 26.016 C 29.583 26.185 29.003 26.652 28.648 27.358 C 28.007 28.635 27.99 29.948 28.614 31.229 C 29.302 32.643 30.898 33.163 32.299 32.484 C 32.796 32.243 33.049 31.978 33.515 31.2 Z M 74.947 27.529 C 74.642 26.794 74.123 26.318 73.384 26.087 C 71.727 25.57 70.27 26.341 69.77 28.005 C 69.489 28.94 69.488 29.874 69.831 30.795 C 70.242 31.9 70.98 32.654 72.2 32.739 C 73.397 32.823 74.348 32.373 74.893 31.184 L 77.63 32.89 C 77.317 33.667 76.804 34.252 76.142 34.699 C 72.741 36.993 68.296 35.964 66.613 31.67 C 65.257 28.209 66.975 24.325 70.345 23.166 C 72.435 22.447 75.226 22.766 76.857 24.663 C 77.101 24.949 77.301 25.273 77.541 25.605 C 76.655 26.262 75.814 26.887 74.947 27.53 Z" fill="var(--token-bb9eb254-5702-404a-9d47-07d085d7a077, rgb(0, 0, 0)) /* {&quot;name&quot;:&quot;Black&quot;} */"></path></svg></defs><use href="#svg12523689576"></use></svg>