<svg xmlns:xlink="http://www.w3.org/1999/xlink" xmlns="http://www.w3.org/2000/svg" style="width:100%;height:100%;" width="58.712"  height="57.284" ><defs><svg viewBox="0 0 58.712 57.284" id="svg9917660439"><path d="M 20.742 30.459 C 20.689 30.01 20.597 29.513 20.59 29.017 C 20.577 28.139 20.603 27.268 20.636 26.389 C 20.643 26.248 20.736 26.101 20.822 25.974 C 20.975 25.739 21.001 25.518 20.875 25.256 C 20.802 25.109 20.795 24.921 20.756 24.747 C 20.689 24.479 20.623 24.21 20.563 23.936 C 20.55 23.882 20.53 23.828 20.53 23.775 C 20.57 22.414 20.61 21.059 20.656 19.732 C 21.425 19.732 22.188 19.739 22.944 19.732 C 24.151 19.725 25.338 19.611 26.505 19.256 C 26.584 19.229 26.717 19.283 26.777 19.343 C 27.022 19.584 27.247 19.846 27.486 20.094 C 27.824 20.449 28.348 20.53 28.786 20.288 C 28.932 20.208 29.078 20.127 29.237 20.034 C 29.29 20.074 29.349 20.121 29.409 20.168 C 29.886 20.516 30.457 20.496 30.841 20.047 C 31.246 19.571 31.644 19.417 32.294 19.564 C 33.626 19.866 34.992 19.759 36.345 19.618 C 36.511 19.598 36.677 19.598 36.842 19.618 C 37.267 19.672 37.399 19.853 37.413 20.282 C 37.452 21.475 37.505 22.662 37.552 23.855 L 37.552 24.17 C 37.446 24.036 37.393 23.976 37.353 23.902 C 37.174 23.587 36.929 23.372 36.577 23.265 C 36.279 23.171 36.007 22.434 36.166 22.152 C 36.285 21.938 36.464 22.018 36.624 22.099 C 36.816 22.192 37.001 22.3 37.194 22.394 C 37.22 22.373 37.247 22.347 37.267 22.326 C 37.22 22.192 37.167 22.052 37.114 21.897 C 37.393 21.736 37.293 21.562 37.101 21.408 C 36.955 21.294 36.776 21.22 36.61 21.133 C 36.398 21.019 36.179 20.919 35.907 20.784 C 35.748 21.019 35.815 21.354 35.801 21.663 C 35.788 22.119 35.821 22.575 35.815 23.03 C 35.815 23.131 35.708 23.232 35.629 23.319 C 35.417 23.553 35.191 23.781 34.979 24.016 C 34.953 24.049 34.926 24.117 34.899 24.117 C 34.515 24.137 34.462 24.365 34.522 24.693 C 34.535 24.76 34.442 24.861 34.376 24.934 C 34.296 25.022 34.19 25.095 34.09 25.183 C 34.09 24.787 33.779 24.888 33.52 24.867 C 33.156 24.834 33.116 25.082 33.056 25.397 C 32.95 24.847 32.579 24.753 32.168 24.847 C 32.028 24.881 31.949 25.149 31.816 25.343 C 31.617 25.223 31.829 24.686 31.345 24.74 C 31.418 24.351 31.239 24.117 30.961 23.909 C 30.596 23.634 30.41 23.158 29.94 23.004 C 29.906 22.99 29.88 22.89 29.88 22.829 C 29.873 22.554 29.88 22.273 29.88 21.918 C 30.364 21.998 30.815 22.072 31.365 22.159 C 31.246 21.931 31.173 21.797 31.087 21.643 C 31.16 21.602 31.246 21.549 31.378 21.468 C 30.921 21.153 30.563 20.771 30.012 20.711 C 29.608 20.664 29.522 20.744 29.522 21.16 C 29.522 21.696 29.509 22.233 29.528 22.769 C 29.535 23.01 29.442 23.124 29.223 23.205 C 28.991 23.292 28.905 23.158 28.812 22.997 C 28.607 22.655 28.395 22.32 28.196 21.978 C 28.162 21.918 28.169 21.837 28.156 21.757 C 28.534 21.656 28.925 22.005 29.29 21.663 C 29.17 21.555 29.071 21.462 28.938 21.348 C 29.058 21.301 29.164 21.26 29.303 21.207 C 28.952 20.791 28.481 20.704 28.03 20.577 C 27.99 20.563 27.871 20.684 27.857 20.758 C 27.798 21.106 27.758 21.462 27.725 21.817 C 27.685 22.239 27.639 22.655 27.38 23.017 C 27.088 23.433 26.75 23.46 26.485 23.037 C 26.266 22.695 26.06 22.333 25.915 21.951 C 25.789 21.602 25.875 21.529 26.246 21.509 C 26.293 21.509 26.346 21.482 26.392 21.395 L 25.822 21.395 C 25.822 21.234 25.808 21.113 25.828 20.992 C 25.835 20.939 25.888 20.838 25.921 20.838 C 26.206 20.825 26.498 20.831 26.869 20.831 C 26.624 21.019 26.432 21.173 26.796 21.321 C 26.73 21.368 26.677 21.395 26.545 21.482 C 26.81 21.549 27.002 21.596 27.188 21.643 L 27.267 21.542 C 27.168 21.395 27.062 21.247 26.942 21.073 C 27.015 20.979 27.095 20.872 27.227 20.697 C 26.995 20.671 26.816 20.657 26.637 20.63 C 26.365 20.59 26.094 20.57 25.835 20.503 C 25.629 20.449 25.537 20.51 25.523 20.711 C 25.49 21.1 25.47 21.488 25.417 21.871 C 25.391 22.045 25.338 22.246 25.232 22.38 C 24.151 23.654 23.063 24.921 21.963 26.181 C 21.837 26.329 21.631 26.416 21.452 26.517 C 21.26 26.631 21.054 26.731 20.789 26.872 C 21.193 27.475 21.585 28.005 21.916 28.575 C 22.228 29.105 22.486 29.674 22.752 30.231 C 22.798 30.331 22.791 30.466 22.818 30.653 C 22.135 30.6 21.485 30.533 20.742 30.459 Z M 38.115 40.495 C 37.83 39.603 37.061 39.55 36.352 39.429 C 35.848 39.342 35.35 39.262 34.933 38.94 C 34.641 38.718 34.634 38.558 34.933 38.35 C 35.728 37.807 36.61 37.451 37.525 37.197 C 38.871 36.814 40.251 36.66 41.65 36.714 C 43.095 36.768 44.528 36.955 45.907 37.418 C 46.225 37.525 46.497 37.76 46.809 37.894 C 47.18 38.048 47.565 38.162 47.949 38.283 C 47.996 38.296 48.082 38.256 48.122 38.209 C 48.446 37.874 48.864 37.88 49.269 37.934 C 51.205 38.216 53.068 37.981 54.865 37.21 C 54.898 37.197 54.938 37.183 55.038 37.15 C 54.341 38.256 53.274 38.792 52.186 39.436 C 52.392 39.543 52.531 39.637 52.684 39.697 C 53.526 40.026 54.401 39.925 55.27 39.919 C 55.343 39.919 55.422 39.905 55.522 39.952 C 55.349 40.046 55.177 40.14 55.004 40.227 C 54.825 40.321 54.653 40.415 54.467 40.488 C 52.849 41.159 51.158 41.36 49.434 41.159 C 48.135 41.005 46.848 40.723 45.555 40.522 C 44.276 40.321 42.989 40.133 41.703 39.972 C 40.768 39.858 39.866 40.16 38.958 40.321 C 38.686 40.381 38.414 40.435 38.115 40.495 Z M 37.486 41.152 C 37.399 41.467 37.3 41.802 37.22 42.144 C 37.061 42.822 37.147 43.479 37.399 44.109 C 37.492 44.343 37.446 44.504 37.267 44.618 C 37.028 44.772 36.783 44.94 36.511 45.014 C 34.966 45.436 33.394 45.738 31.796 45.852 C 30.874 45.919 29.946 45.999 29.024 45.986 C 27.241 45.959 25.457 45.892 23.706 45.49 C 22.679 45.255 21.658 44.96 20.636 44.692 C 20.57 44.679 20.51 44.652 20.451 44.625 C 19.768 44.31 19.761 44.27 19.841 43.512 C 19.927 42.641 19.98 41.762 20.04 40.891 C 20.046 40.817 20.02 40.743 20.02 40.736 C 20.895 41.159 21.777 41.635 22.699 42.017 C 23.786 42.466 24.927 42.741 26.107 42.801 C 27.34 42.868 28.574 42.949 29.807 42.902 C 30.861 42.862 31.916 42.701 32.95 42.52 C 33.958 42.346 34.959 42.111 35.947 41.836 C 36.478 41.689 36.968 41.387 37.486 41.152 Z M 1.533 39.858 C 3.051 40.079 4.45 39.805 5.71 38.933 L 5.71 38.819 C 5.538 38.772 5.365 38.718 5.186 38.692 C 4.132 38.531 3.171 38.135 2.328 37.471 C 2.262 37.418 2.176 37.384 2.103 37.337 C 2.123 37.311 2.149 37.29 2.169 37.264 C 2.706 37.358 3.237 37.465 3.781 37.532 C 4.696 37.646 5.617 37.72 6.546 37.599 C 7.01 37.539 7.487 37.606 7.965 37.626 C 8.74 37.659 9.483 37.653 10.206 37.23 C 10.584 37.009 11.088 36.969 11.539 36.902 C 12.925 36.707 14.304 36.479 15.696 36.392 C 16.81 36.325 17.944 36.439 19.065 36.486 C 19.9 36.519 20.709 36.707 21.425 37.163 C 21.691 37.331 21.943 37.545 22.148 37.787 C 22.367 38.048 22.327 38.229 22.022 38.37 C 21.604 38.558 21.154 38.692 20.716 38.819 C 20.099 39 19.575 39.268 19.489 40.039 C 19.211 39.986 18.959 39.939 18.707 39.878 C 17.221 39.53 15.716 39.523 14.204 39.61 C 12.109 39.724 10.053 40.086 7.991 40.462 C 6.963 40.649 5.929 40.844 4.895 40.924 C 3.641 41.038 2.527 40.623 1.533 39.858 Z" fill="var(--token-bb9eb254-5702-404a-9d47-07d085d7a077, rgb(0, 0, 0)) /* {&quot;name&quot;:&quot;Black&quot;} */"></path><path d="M 13.654 23.989 L 13.654 23.573 C 14.191 23.741 14.436 24.036 14.47 24.566 C 14.496 25.001 14.775 24.82 15 24.78 C 15.013 24.807 15.027 24.841 15.04 24.867 C 14.45 25.323 13.873 25.806 13.269 26.242 C 12.401 26.865 11.552 27.489 11.015 28.481 C 10.551 27.931 10.816 27.281 10.69 26.631 C 10.431 26.879 10.339 27.154 10.358 27.428 C 10.392 27.911 10.445 28.407 10.564 28.877 C 10.909 30.204 10.491 31.23 9.45 32.054 C 9.052 32.37 8.668 32.705 8.329 33.087 C 7.666 33.838 7.713 34.662 8.13 35.474 C 8.349 35.896 8.787 35.936 9.205 35.923 C 9.443 35.916 9.682 35.862 9.921 35.829 C 10.179 35.795 10.392 35.97 10.484 36.278 C 10.557 36.519 10.465 36.66 10.266 36.721 C 10.146 36.506 10.047 36.292 9.908 36.117 C 9.854 36.057 9.689 36.084 9.583 36.07 C 9.437 36.392 10.319 36.58 9.689 36.888 C 9.516 36.714 9.384 36.54 9.205 36.426 C 9.112 36.365 8.953 36.426 8.82 36.432 C 8.813 36.473 8.807 36.506 8.8 36.546 C 8.88 36.587 8.973 36.62 9.026 36.68 C 9.099 36.761 9.205 36.888 9.191 36.969 C 9.171 37.056 9.026 37.19 8.939 37.183 C 8.535 37.143 8.13 37.089 7.746 36.975 C 7.673 36.955 7.626 36.627 7.666 36.459 C 7.819 35.836 7.573 35.319 7.282 34.817 C 7.129 34.555 6.957 34.314 6.791 34.066 C 6.532 33.677 6.532 33.57 6.93 33.308 C 7.408 32.993 7.786 32.604 7.938 32.034 C 8.057 31.592 8.051 31.169 7.779 30.76 C 7.381 30.157 7.308 29.48 7.481 28.776 C 7.514 28.649 7.534 28.521 7.554 28.394 C 7.527 28.374 7.507 28.347 7.481 28.327 C 7.355 28.407 7.222 28.481 7.096 28.561 C 6.784 28.763 6.499 29.037 6.161 29.165 C 5.524 29.4 5.1 29.098 4.948 28.427 C 4.802 27.797 5.021 27.234 5.273 26.698 C 5.73 25.732 6.227 24.787 6.692 23.828 C 6.89 23.419 7.103 23.004 7.209 22.561 C 7.308 22.152 7.341 21.696 7.288 21.274 C 7.215 20.637 6.526 20.228 5.876 20.422 C 5.478 20.536 5.093 20.731 4.735 20.939 C 4.444 21.106 4.291 21.374 4.238 21.75 C 4.139 22.407 3.754 22.91 3.144 23.205 C 2.978 23.285 2.806 23.346 2.7 23.386 C 2.753 23.037 2.846 22.675 2.852 22.313 C 2.859 21.743 3.217 21.442 3.621 21.193 C 4.165 20.858 4.729 20.557 5.306 20.275 C 5.929 19.967 6.572 19.906 7.129 20.402 C 7.593 20.818 7.726 21.381 7.733 22.005 C 7.739 22.836 7.308 23.486 6.963 24.177 C 6.512 25.075 6.042 25.974 5.624 26.892 C 5.498 27.174 5.485 27.522 5.478 27.837 C 5.465 28.461 5.876 28.749 6.473 28.555 C 6.89 28.414 7.215 28.193 7.388 27.723 C 7.607 27.12 8.011 26.631 8.515 26.222 C 9.099 25.752 9.675 25.263 10.219 24.733 C 10.465 24.492 10.624 24.157 10.796 23.848 C 11.061 23.366 11.293 22.876 11.565 22.347 C 12.076 23.138 12.792 23.587 13.654 23.989 Z M 54.666 23.62 C 54.069 23.567 53.572 23.312 53.34 22.668 C 53.174 22.199 53.048 21.71 52.856 21.247 C 52.578 20.577 52.054 20.201 51.503 20.268 C 50.84 20.342 50.495 20.805 50.283 21.395 C 49.972 22.266 50.184 23.084 50.522 23.895 C 50.88 24.753 51.284 25.598 51.603 26.476 C 51.881 27.247 51.981 28.052 51.808 28.877 C 51.689 29.453 51.338 29.768 50.8 29.896 C 50.462 29.983 50.17 29.896 49.958 29.587 C 49.892 29.487 49.806 29.406 49.693 29.272 C 49.66 29.406 49.64 29.473 49.627 29.54 C 49.527 30.211 49.521 30.908 49.308 31.545 C 49.017 32.423 49.328 33.04 49.912 33.61 C 50.429 34.113 50.422 34.099 50.151 34.783 C 49.919 35.373 49.726 35.976 49.521 36.573 C 49.514 36.593 49.507 36.62 49.507 36.64 C 49.56 37.19 49.289 37.411 48.765 37.431 C 48.619 37.438 48.473 37.572 48.334 37.653 C 48.228 37.713 48.148 37.82 48.035 37.86 C 47.942 37.894 47.777 37.887 47.744 37.834 C 47.691 37.753 47.677 37.599 47.717 37.505 C 47.797 37.324 47.929 37.17 48.042 37.002 C 47.717 36.868 47.624 36.935 47.14 37.619 C 47.014 37.525 47.014 37.525 47.18 36.62 C 46.669 36.633 46.656 37.076 46.517 37.398 C 46.484 37.404 46.444 37.404 46.411 37.411 C 46.378 37.25 46.298 37.089 46.318 36.935 C 46.364 36.62 46.57 36.399 46.895 36.385 C 47.246 36.365 47.598 36.406 47.949 36.426 C 48.354 36.452 48.619 36.271 48.765 35.889 C 48.844 35.675 48.97 35.474 49.07 35.259 C 49.415 34.562 49.381 34.012 48.771 33.496 C 48.466 33.241 48.122 33.033 47.797 32.805 C 47.624 32.685 47.452 32.571 47.273 32.45 C 46.577 31.994 46.417 31.33 46.55 30.553 C 46.649 29.996 46.789 29.433 46.815 28.87 C 46.835 28.434 46.729 27.992 46.643 27.556 C 46.616 27.428 46.484 27.321 46.397 27.201 L 46.298 27.241 C 46.325 27.583 46.344 27.931 46.378 28.367 C 45.715 27.395 44.733 27.033 43.818 26.604 C 43.062 26.248 42.406 25.793 41.902 25.109 C 41.922 25.095 41.948 25.075 41.955 25.082 C 42.419 25.35 42.406 25.337 42.724 24.888 C 43.095 24.351 43.5 23.835 43.904 23.292 C 44.289 23.734 44.05 24.204 43.984 24.646 C 44.574 24.78 45.197 24.304 45.661 23.366 C 45.768 23.547 45.84 23.734 45.966 23.868 C 46.126 24.049 46.331 24.19 46.517 24.351 C 46.557 24.385 46.616 24.412 46.63 24.452 C 46.901 25.216 47.538 25.659 48.088 26.175 C 48.44 26.51 48.791 26.852 49.11 27.214 C 49.415 27.569 49.567 27.992 49.547 28.474 C 49.534 28.883 49.786 29.185 50.21 29.312 C 50.575 29.42 50.966 29.252 51.185 28.93 C 51.47 28.521 51.45 28.072 51.397 27.616 C 51.278 26.577 50.827 25.652 50.422 24.713 C 50.051 23.862 49.753 22.99 49.819 22.031 C 49.859 21.475 49.978 20.939 50.31 20.496 C 50.86 19.752 51.782 19.678 52.478 20.161 C 52.511 20.188 52.564 20.208 52.578 20.241 C 52.816 20.818 53.307 21.147 53.778 21.495 C 54.069 21.71 54.182 22.025 54.268 22.373 C 54.361 22.796 54.52 23.198 54.666 23.62 Z" fill="var(--token-bb9eb254-5702-404a-9d47-07d085d7a077, rgb(0, 0, 0)) /* {&quot;name&quot;:&quot;Black&quot;} */"></path><path d="M 46.842 16.105 C 46.855 15.91 46.875 15.716 46.888 15.522 C 46.868 15.508 46.842 15.495 46.822 15.475 C 46.762 15.535 46.683 15.582 46.643 15.649 C 46.451 15.998 46.238 16.226 45.774 16.219 C 45.177 16.212 44.68 16.527 44.249 16.943 C 44.156 17.037 44.077 17.144 44.01 17.225 C 43.619 17.144 43.559 16.909 43.613 16.594 C 43.957 16.514 44.315 16.454 44.654 16.333 C 44.839 16.266 45.032 16.125 45.144 15.964 C 45.337 15.689 45.463 15.374 45.622 15.079 C 45.595 15.046 45.562 15.019 45.535 14.985 C 45.33 15.039 45.118 15.093 44.919 15.153 C 44.634 15.247 44.368 15.361 44.057 15.207 C 43.971 15.16 43.818 15.274 43.692 15.287 C 43.493 15.314 43.274 15.381 43.095 15.327 C 42.843 15.247 42.85 15.012 43.075 14.858 C 43.208 14.764 43.341 14.663 43.46 14.549 C 43.5 14.509 43.493 14.402 43.467 14.342 C 43.453 14.308 43.347 14.301 43.288 14.315 C 43.115 14.368 42.943 14.442 42.684 14.536 C 42.843 14.127 43.056 13.906 43.387 13.805 C 43.626 13.732 43.884 13.691 44.123 13.611 C 44.362 13.53 44.581 13.416 44.839 13.302 C 44.899 13.483 44.965 13.698 45.058 13.986 C 45.244 13.946 45.476 13.892 45.794 13.819 C 45.522 13.571 45.323 13.396 45.144 13.215 C 45.085 13.155 45.005 13.041 45.025 12.981 C 45.051 12.914 45.171 12.847 45.25 12.833 C 45.615 12.8 45.986 12.766 46.351 12.773 C 46.623 12.78 46.669 12.592 46.703 12.411 C 46.749 12.102 46.915 12.022 47.206 12.022 C 47.518 12.022 47.83 11.942 48.148 11.901 C 47.942 12.223 47.604 12.35 47.26 12.464 C 47.187 12.485 47.094 12.485 47.041 12.525 C 46.921 12.625 46.822 12.746 46.716 12.86 C 46.842 12.9 46.968 12.961 47.1 12.967 C 48.128 13.048 48.798 13.644 49.262 14.516 C 49.401 14.777 49.434 15.093 49.547 15.367 C 49.627 15.555 49.766 15.709 49.879 15.884 C 49.554 16.018 48.818 15.79 48.586 15.441 C 48.42 15.2 48.32 14.905 48.181 14.643 C 48.062 14.409 47.923 14.187 47.75 13.986 C 47.671 14.576 47.744 15.119 48.015 15.615 C 48.228 16.004 48.632 16.165 49.03 16.313 C 49.156 16.36 49.302 16.474 49.342 16.588 C 49.428 16.836 49.481 17.104 49.494 17.365 C 49.514 17.895 49.501 18.431 49.501 18.974 C 49.083 18.76 48.911 18.344 48.798 17.902 C 48.705 17.54 48.672 17.157 48.599 16.782 C 48.579 16.675 48.499 16.574 48.4 16.487 C 48.122 16.997 48.234 17.486 48.38 17.975 C 48.539 18.492 48.745 19.001 48.871 19.524 C 48.924 19.759 48.838 20.034 48.811 20.335 C 48.367 20.081 48.274 19.698 48.221 19.336 C 48.168 18.968 48.208 18.585 48.208 18.116 C 47.909 18.317 47.843 18.559 47.843 18.787 C 47.843 19.196 47.85 19.611 47.916 20.02 C 48.009 20.59 47.996 21.147 47.83 21.703 C 47.77 21.904 47.73 22.112 47.671 22.36 C 47.359 22.172 47.246 21.877 47.266 21.555 C 47.286 21.147 47.392 20.744 47.425 20.335 C 47.445 20.087 47.399 19.832 47.326 19.578 C 46.988 19.879 46.921 20.268 46.855 20.657 C 46.815 20.898 46.762 21.153 46.795 21.388 C 46.901 22.125 46.517 22.689 46.179 23.346 C 45.807 22.655 46.119 21.944 46.013 21.22 C 45.675 21.475 45.555 21.79 45.456 22.112 C 45.303 22.601 45.177 23.097 44.998 23.573 C 44.925 23.768 44.76 23.929 44.634 24.103 L 44.534 24.083 C 44.488 23.875 44.428 23.667 44.408 23.453 C 44.375 23.044 44.342 22.642 44.349 22.233 C 44.355 21.623 44.673 21.187 45.158 20.858 C 45.297 20.764 45.436 20.664 45.529 20.53 C 45.608 20.409 45.628 20.248 45.681 20.107 L 45.582 20.047 C 45.23 20.268 44.879 20.489 44.488 20.738 C 44.541 20.288 44.793 20.047 45.091 19.846 C 45.529 19.551 45.986 19.276 46.397 18.948 C 46.709 18.699 46.742 18.331 46.649 17.855 C 46.225 18.398 45.96 19.008 45.376 19.196 C 45.555 18.827 45.761 18.438 45.933 18.029 C 46.092 17.654 46.331 17.385 46.689 17.178 C 47.014 16.99 47.326 16.755 47.279 16.266 C 47.266 16.112 47.465 15.931 47.584 15.776 C 47.916 15.361 47.73 14.583 47.24 14.368 C 47.206 14.355 47.153 14.368 47.027 14.368 C 47.286 14.992 47.226 15.569 46.855 16.105 Z M 27.605 33.375 C 28.282 33.697 28.925 34.012 29.575 34.3 C 29.88 34.434 30.205 34.522 30.523 34.629 C 30.563 34.642 30.609 34.649 30.649 34.662 C 31.193 34.91 31.723 35.185 32.28 35.4 C 32.804 35.601 33.348 35.735 33.885 35.896 C 34.011 35.93 34.144 35.943 34.362 35.983 C 34.163 36.191 34.024 36.365 33.852 36.513 C 32.771 37.438 31.697 38.377 30.589 39.275 C 30.079 39.691 29.495 40.019 28.952 40.401 C 28.68 40.589 28.428 40.589 28.169 40.388 C 27.46 39.838 26.75 39.295 26.047 38.739 C 25.994 38.692 25.941 38.584 25.954 38.517 C 26.027 38.129 26.094 37.733 26.206 37.351 C 26.293 37.069 26.472 36.821 26.578 36.546 C 26.697 36.238 26.81 35.923 26.863 35.601 C 26.942 35.098 26.976 34.602 27.34 34.18 C 27.506 33.992 27.519 33.684 27.605 33.375 Z M 29.104 38.946 C 28.773 39.295 28.68 39.603 28.819 39.845 C 29.157 39.724 29.217 39.543 29.104 38.946 Z M 28.275 37.74 L 28.116 37.72 C 28.056 37.954 27.99 38.189 27.95 38.424 C 27.937 38.491 28.003 38.564 28.03 38.638 C 28.096 38.591 28.209 38.544 28.216 38.484 C 28.255 38.242 28.262 37.988 28.275 37.74 Z M 27.871 36.332 C 27.533 36.835 27.486 37.156 27.745 37.317 C 27.818 37.002 28.036 36.734 27.871 36.332 Z M 28.593 34.77 C 28.481 35.045 28.375 35.306 28.255 35.601 C 28.693 35.534 28.852 35.098 28.593 34.77 Z M 30.589 37.679 C 30.483 37.914 30.39 38.088 30.324 38.269 C 30.311 38.31 30.351 38.39 30.384 38.437 C 30.397 38.45 30.47 38.444 30.503 38.424 C 30.669 38.323 30.735 37.961 30.589 37.679 Z M 29.429 35.36 C 29.389 35.346 29.349 35.333 29.31 35.313 C 29.21 35.574 29.111 35.836 29.018 36.104 C 29.064 36.124 29.111 36.137 29.157 36.157 C 29.429 35.956 29.383 35.641 29.429 35.36 Z M 29.144 37.834 C 29.528 37.726 29.601 37.498 29.429 37.109 C 29.316 37.398 29.23 37.619 29.144 37.834 Z M 26.73 38.752 C 27.068 38.732 27.174 38.444 27.002 38.001 C 26.903 38.269 26.823 38.504 26.73 38.752 Z M 31.703 37.545 C 31.392 37.914 31.372 37.981 31.504 38.276 C 31.77 38.095 31.763 37.86 31.703 37.545 Z M 30.503 35.923 C 30.47 35.916 30.443 35.903 30.41 35.896 C 30.331 36.097 30.251 36.298 30.138 36.587 C 30.516 36.385 30.563 36.285 30.503 35.923 Z M 31.604 35.581 C 31.564 35.561 31.531 35.547 31.491 35.527 C 31.352 35.722 31.219 35.923 31.272 36.178 C 31.319 36.191 31.359 36.204 31.405 36.218 C 31.465 36.003 31.531 35.795 31.604 35.581 Z" fill="var(--token-bb9eb254-5702-404a-9d47-07d085d7a077, rgb(0, 0, 0)) /* {&quot;name&quot;:&quot;Black&quot;} */"></path><path d="M 38.6 26.302 C 38.6 26.999 38.639 27.703 38.586 28.401 C 38.52 29.265 38.427 30.13 38.261 30.982 C 37.857 33.073 36.783 34.837 35.423 36.419 C 33.58 38.558 31.332 40.207 28.971 41.709 C 28.7 41.883 28.507 41.896 28.262 41.729 C 27.632 41.293 26.995 40.877 26.379 40.428 C 25.291 39.644 24.257 38.799 23.329 37.82 C 21.346 35.722 19.933 33.322 19.489 30.419 C 19.39 29.755 19.423 29.071 19.39 28.401 C 19.376 28.126 19.343 27.844 19.337 27.569 C 19.33 27.127 19.337 26.684 19.337 26.175 C 19.655 26.322 19.887 26.43 20.172 26.564 C 20.159 26.798 20.126 27.073 20.119 27.348 C 20.099 28.756 20.245 30.144 20.577 31.518 C 20.915 32.886 21.465 34.146 22.228 35.319 C 22.957 36.439 23.886 37.384 24.874 38.256 C 25.842 39.114 26.896 39.865 27.917 40.663 C 28.076 40.783 28.242 40.897 28.421 40.985 C 28.501 41.025 28.64 41.011 28.713 40.964 C 30.821 39.57 32.91 38.162 34.641 36.278 C 36.239 34.542 37.353 32.537 37.684 30.164 C 37.824 29.165 37.89 28.153 37.956 27.14 C 37.983 26.718 38.314 26.557 38.507 26.275 C 38.54 26.282 38.573 26.289 38.6 26.302 Z" fill="var(--token-bb9eb254-5702-404a-9d47-07d085d7a077, rgb(0, 0, 0)) /* {&quot;name&quot;:&quot;Black&quot;} */"></path><path d="M 36.856 31.867 C 36.478 33.127 35.914 34.133 35.211 35.078 C 34.701 35.762 34.057 35.588 33.447 35.413 C 32.831 35.239 32.247 34.917 31.657 34.656 C 31.193 34.455 30.762 34.166 30.231 34.18 C 30.158 34.18 30.072 34.146 30.019 34.099 C 29.522 33.677 28.912 33.523 28.328 33.301 C 28.056 33.201 27.798 33.027 27.572 32.839 C 27.3 32.611 27.334 32.41 27.625 32.195 C 27.997 31.927 28.428 31.907 28.832 31.981 C 29.422 32.081 29.979 32.061 30.563 31.947 C 30.981 31.867 31.431 31.961 31.869 31.974 C 31.882 31.974 31.889 31.987 31.902 31.987 L 34.19 32.028 C 34.356 32.028 34.541 31.981 34.681 32.041 C 35.072 32.202 35.43 32.081 35.808 32.001 C 36.126 31.927 36.451 31.914 36.856 31.867 Z M 11.671 18.069 C 11.453 17.935 11.24 17.794 11.002 17.647 C 10.849 18.016 11.075 18.237 11.273 18.411 C 11.572 18.666 11.91 18.88 12.248 19.088 C 12.5 19.249 12.752 19.397 12.799 19.839 C 12.533 19.678 12.328 19.558 12.096 19.424 C 11.956 19.719 12.096 19.946 12.268 20.141 C 12.427 20.322 12.626 20.469 12.805 20.63 C 13.09 20.878 13.223 21.16 13.15 21.569 C 13.057 22.058 13.057 22.561 13.011 23.104 C 12.513 22.896 12.354 22.481 12.208 22.052 C 12.096 21.716 12.016 21.361 11.89 21.033 C 11.758 20.697 11.552 20.416 11.101 20.248 C 11.101 20.496 11.114 20.684 11.101 20.878 C 11.061 21.381 11.041 21.897 10.949 22.394 C 10.882 22.735 10.67 23.03 10.385 23.238 C 10.285 22.521 10.153 21.837 10.113 21.147 C 10.073 20.463 10.126 19.779 10.14 19.068 C 9.735 19.303 9.662 19.725 9.576 20.127 C 9.483 20.536 9.443 20.959 9.331 21.374 C 9.112 20.784 9.019 20.181 9.065 19.571 C 9.112 18.961 9.218 18.358 9.238 17.701 C 9.152 17.828 9.065 17.949 8.986 18.083 C 8.661 18.653 8.489 19.263 8.475 19.926 C 8.469 20.074 8.402 20.228 8.316 20.369 C 8.137 19.464 7.958 18.565 8.283 17.68 C 8.416 17.318 8.648 16.997 8.853 16.668 C 9.046 16.36 9.112 16.051 8.959 15.683 C 8.528 16.44 8.15 17.231 7.375 17.828 C 7.434 17.171 7.494 16.567 7.825 16.071 C 8.15 15.589 8.588 15.186 9.012 14.751 C 8.866 15.3 9.112 15.696 9.443 16.078 C 9.543 16.192 9.603 16.38 9.616 16.534 C 9.642 16.822 9.762 16.795 9.934 16.668 C 10.08 16.554 10.219 16.433 10.418 16.259 C 10.372 16.681 10.617 16.816 10.862 16.97 C 11.26 17.225 11.552 17.58 11.751 18.009 C 11.724 18.016 11.698 18.042 11.671 18.069 Z M 46.835 16.098 C 46.756 16.407 46.669 16.648 46.318 16.822 C 45.675 17.137 45.303 17.741 45.171 18.451 C 45.104 18.793 44.972 19.015 44.634 19.135 C 44.256 19.269 44.249 19.336 44.475 19.625 C 44.355 19.893 44.249 20.161 44.11 20.416 C 44.03 20.563 43.898 20.691 43.785 20.825 C 43.692 20.932 43.593 21.033 43.493 21.133 C 43.613 21.207 43.725 21.287 43.871 21.381 C 43.838 21.824 43.811 22.326 43.745 22.816 C 43.725 22.95 43.573 23.064 43.467 23.178 C 43.122 23.553 42.79 23.942 42.426 24.298 C 42.333 24.385 42.147 24.425 42.021 24.412 C 40.741 24.251 39.66 24.68 38.719 25.531 C 38.387 25.833 38.102 26.195 37.777 26.51 C 37.605 26.678 37.373 26.912 37.161 26.684 C 36.948 26.456 37.167 26.202 37.346 26.021 C 37.492 25.866 37.665 25.752 37.824 25.612 C 37.903 25.545 37.97 25.464 38.036 25.384 C 38.016 25.35 37.996 25.31 37.976 25.276 C 37.738 25.37 37.499 25.471 37.26 25.565 C 37.24 25.551 37.22 25.538 37.194 25.531 C 37.306 25.397 37.406 25.256 37.532 25.136 C 37.618 25.048 37.738 25.008 37.83 24.928 C 37.943 24.834 38.036 24.72 38.142 24.613 C 38.003 24.599 37.87 24.579 37.698 24.559 C 37.93 24.445 38.162 24.298 38.407 24.224 C 39.76 23.842 40.92 23.104 42.001 22.226 C 42.492 21.824 42.936 21.348 43.347 20.858 C 43.613 20.55 43.732 20.148 43.613 19.618 C 42.843 20.711 42.207 21.83 40.973 22.44 C 41.026 21.804 41.265 21.267 41.636 20.845 C 42.213 20.195 42.857 19.598 43.5 19.008 C 44.063 18.492 44.726 18.069 44.985 17.298 C 45.104 16.93 45.303 16.782 45.681 16.755 C 46.152 16.722 46.537 16.48 46.842 16.118 C 46.842 16.105 46.835 16.098 46.835 16.098 Z" fill="var(--token-bb9eb254-5702-404a-9d47-07d085d7a077, rgb(0, 0, 0)) /* {&quot;name&quot;:&quot;Black&quot;} */"></path><path d="M 19.609 23.989 C 19.456 23.982 19.304 23.969 19.138 23.962 C 19.052 24.184 19.204 24.264 19.37 24.284 C 19.542 24.311 19.721 24.271 19.894 24.271 C 20.006 24.271 20.159 24.257 20.232 24.318 C 20.311 24.391 20.338 24.546 20.338 24.666 C 20.338 24.693 20.152 24.767 20.066 24.753 C 19.854 24.713 19.648 24.626 19.443 24.559 C 19.343 24.847 19.476 25.022 19.88 25.142 C 19.953 25.162 20.053 25.136 20.106 25.176 C 20.225 25.256 20.391 25.357 20.411 25.471 C 20.437 25.585 20.345 25.786 20.238 25.853 C 20.139 25.92 19.933 25.92 19.827 25.86 C 19.662 25.766 19.516 25.612 19.396 25.457 C 19.131 25.122 18.826 24.914 18.375 24.861 C 17.898 24.807 17.434 24.619 16.956 24.539 C 16.419 24.445 15.869 24.412 15.325 24.331 C 15.219 24.318 15.046 24.23 15.033 24.157 C 14.947 23.661 14.576 23.453 14.184 23.265 C 13.979 23.165 13.647 23.124 13.594 22.97 C 13.501 22.722 13.588 22.4 13.588 22.112 C 13.588 21.696 13.601 21.274 13.568 20.858 C 13.548 20.671 13.422 20.496 13.329 20.282 C 13.588 20.195 13.488 20.047 13.356 19.859 C 13.057 19.45 12.785 19.028 12.507 18.599 C 12.48 18.559 12.507 18.485 12.507 18.425 C 12.507 18.358 12.533 18.29 12.513 18.237 C 12.361 17.794 11.559 16.842 11.088 16.574 C 11.32 16.574 11.499 16.561 11.678 16.574 C 11.983 16.601 12.208 16.762 12.268 17.07 C 12.427 17.882 12.958 18.351 13.634 18.72 C 14.271 19.068 14.96 19.363 15.378 20.007 C 15.763 20.597 16.134 21.214 16.015 22.031 C 15.796 21.797 15.557 21.582 15.371 21.328 C 15.086 20.945 14.854 20.523 14.576 20.141 C 14.403 19.906 14.198 19.692 13.793 19.598 C 13.906 19.819 13.966 19.967 14.045 20.101 C 14.821 21.535 15.882 22.668 17.308 23.473 C 17.831 23.768 18.362 23.734 18.912 23.728 C 19.151 23.728 19.396 23.775 19.635 23.801 C 19.615 23.882 19.609 23.936 19.609 23.989 Z" fill="var(--token-bb9eb254-5702-404a-9d47-07d085d7a077, rgb(0, 0, 0)) /* {&quot;name&quot;:&quot;Black&quot;} */"></path><path d="M 11.141 13.155 C 11.293 13.504 11.632 13.537 11.87 13.524 C 12.023 13.517 12.155 13.182 12.301 12.987 C 12.6 13.45 13.15 13.483 13.667 13.571 C 14.092 13.638 14.483 13.772 14.715 14.208 C 14.357 14.516 14.158 13.933 13.76 14.08 C 13.873 14.214 13.952 14.348 14.065 14.436 C 14.257 14.583 14.324 14.744 14.171 14.945 C 14.012 15.153 13.82 15.133 13.621 14.992 C 13.031 14.583 12.62 14.59 12.049 15.059 C 11.976 15.119 11.956 15.401 12.029 15.481 C 12.348 15.864 12.673 16.252 13.064 16.554 C 13.322 16.762 13.694 16.822 14.092 16.99 C 13.959 17.131 13.84 17.312 13.674 17.406 C 13.594 17.452 13.322 17.359 13.303 17.285 C 13.124 16.44 12.494 16.232 11.771 16.172 C 11.161 16.125 10.591 16.024 10.213 15.374 C 10.12 15.683 10.053 15.904 9.974 16.179 C 9.404 14.958 9.404 14.958 9.443 14.328 C 9.344 14.254 9.258 14.187 9.145 14.094 C 8.654 14.57 8.13 15.066 7.308 15.066 C 7.567 14.583 7.799 14.134 8.044 13.685 C 8.323 13.182 8.754 12.914 9.311 12.826 C 9.662 12.773 10.034 12.746 10.332 12.418 C 9.921 12.25 9.53 12.096 9.138 11.942 L 9.178 11.881 C 9.477 11.861 9.775 11.848 10.08 11.821 C 10.332 11.801 10.537 11.861 10.637 12.129 C 10.657 12.19 10.703 12.263 10.756 12.277 C 11.201 12.431 11.651 12.572 12.116 12.719 C 11.917 13.142 11.439 12.894 11.141 13.155 Z M 30.682 16.614 C 30.145 17.043 29.635 17.459 29.111 17.882 C 28.726 17.62 28.315 17.345 27.95 17.104 C 28.169 16.708 28.388 16.299 28.64 15.837 C 29.117 15.817 29.694 15.796 30.099 15.193 C 29.389 15.079 28.666 15.488 28.056 14.918 C 28.481 14.496 28.952 14.181 29.502 14 C 29.615 13.966 29.774 14.12 29.913 14.134 C 30.105 14.154 30.337 14.181 30.49 14.087 C 30.755 13.933 30.821 13.618 30.715 13.349 C 30.662 13.209 30.457 13.088 30.298 13.034 C 30.192 13.001 30.006 13.054 29.913 13.135 C 29.707 13.316 29.515 13.329 29.316 13.175 C 28.898 12.853 28.481 12.525 28.09 12.169 C 28.017 12.102 28.03 11.874 28.083 11.754 C 28.587 10.54 30.006 10.339 30.901 11.331 C 31.418 11.908 31.65 12.572 31.65 13.343 C 31.65 13.819 31.504 14.234 31.213 14.61 C 30.994 14.885 30.802 15.186 30.636 15.501 C 30.424 15.877 30.463 16.266 30.682 16.614 Z M 39.647 31.994 C 39.375 31.491 39.893 31.458 40.032 31.203 C 39.607 30.928 39.422 31.29 39.176 31.525 C 39.203 31.176 39.495 30.895 39.8 30.868 C 40.251 30.828 40.635 31.022 41.02 31.223 C 41.404 31.418 41.796 31.592 42.187 31.766 C 42.227 31.786 42.273 31.793 42.313 31.8 C 42.883 31.887 43.109 31.666 42.976 31.102 C 42.91 30.801 42.777 30.512 42.671 30.217 C 42.392 29.446 42.644 28.427 43.261 28.052 C 43.898 27.656 44.574 27.757 45.23 28.039 C 45.27 28.059 45.31 28.085 45.343 28.106 C 46.325 28.615 46.285 29.004 46.172 29.976 C 46.126 30.392 46.073 30.814 45.986 31.223 C 45.953 31.371 45.807 31.498 45.715 31.632 C 45.628 31.531 45.529 31.444 45.456 31.337 C 45.211 30.962 45.032 30.519 44.726 30.211 C 44.382 29.862 43.765 30.157 43.785 30.66 C 43.805 31.21 43.924 31.759 43.997 32.309 C 44.024 32.504 44.05 32.705 44.057 32.906 C 44.063 33.194 43.951 33.254 43.699 33.107 C 43.049 32.725 42.373 32.39 41.61 32.302 C 41.232 32.256 40.847 32.309 40.463 32.289 C 40.343 32.282 40.164 32.229 40.125 32.142 C 40.085 32.068 40.191 31.907 40.251 31.793 C 40.271 31.746 40.35 31.733 40.377 31.692 C 40.41 31.645 40.416 31.578 40.436 31.525 C 40.377 31.511 40.304 31.471 40.264 31.491 C 40.118 31.565 39.979 31.659 39.853 31.759 C 39.793 31.793 39.74 31.88 39.647 31.994 Z M 18.123 30.693 C 18.004 30.385 17.858 30.171 17.52 30.231 C 17.586 30.486 17.904 30.687 17.606 31.015 C 17.526 30.915 17.467 30.807 17.374 30.747 C 17.294 30.693 17.182 30.687 17.082 30.653 C 17.082 30.754 17.049 30.881 17.102 30.942 C 17.255 31.136 17.162 31.23 16.989 31.283 C 16.717 31.364 16.432 31.485 16.16 31.478 C 15.418 31.464 14.828 31.8 14.244 32.195 C 14.019 32.349 13.773 32.477 13.521 32.604 C 13.303 32.711 13.15 32.597 13.17 32.376 C 13.21 32.041 13.283 31.699 13.382 31.377 C 13.468 31.082 13.574 30.807 13.415 30.506 C 13.283 30.258 13.084 30.15 12.838 30.278 C 12.567 30.419 12.315 30.593 12.076 30.787 C 11.797 31.015 11.545 31.283 11.267 31.545 C 10.942 31.129 11.094 30.72 11.128 30.325 C 11.148 30.03 11.22 29.728 11.227 29.433 C 11.24 28.91 11.393 28.729 11.877 28.582 C 12.076 28.521 12.235 28.334 12.414 28.199 C 12.739 27.958 13.037 27.656 13.402 27.489 C 14.039 27.207 14.649 27.65 14.589 28.354 C 14.549 28.803 14.364 29.232 14.264 29.674 C 14.178 30.05 14.085 30.432 14.058 30.814 C 14.025 31.377 14.417 31.632 14.921 31.371 C 15.458 31.089 15.962 30.747 16.485 30.432 C 16.724 30.291 16.956 30.124 17.215 30.05 C 17.434 29.989 17.692 30.003 17.911 30.057 C 18.17 30.144 18.236 30.365 18.123 30.693 Z" fill="var(--token-bb9eb254-5702-404a-9d47-07d085d7a077, rgb(0, 0, 0)) /* {&quot;name&quot;:&quot;Black&quot;} */"></path><path d="M 32.638 17.754 C 32.015 17.821 31.597 18.163 31.266 18.632 C 31.027 18.968 30.802 19.31 30.556 19.638 C 30.298 19.987 29.853 20.013 29.522 19.725 C 29.17 19.417 29.17 19.417 28.845 19.765 C 28.494 20.134 28.229 20.154 27.857 19.806 C 27.566 19.537 27.314 19.222 27.035 18.948 C 26.611 18.532 26.18 18.123 25.709 17.674 C 25.842 17.607 26.007 17.479 26.193 17.432 C 26.836 17.258 27.46 17.318 28.017 17.721 C 28.348 17.962 28.66 18.223 28.965 18.498 C 29.157 18.673 29.27 18.693 29.436 18.458 C 29.853 17.875 30.424 17.479 31.087 17.231 C 31.697 17.003 32.194 17.171 32.638 17.754 Z M 18.859 55.801 C 18.601 55.741 18.375 55.687 18.103 55.62 C 18.176 55.312 18.236 55.017 18.322 54.722 C 18.435 54.326 18.442 53.957 18.282 53.555 C 18.05 52.985 17.898 52.382 17.686 51.718 C 17.599 51.866 17.56 51.939 17.507 52.033 C 17.301 51.96 17.095 51.913 16.91 51.825 C 16.618 51.685 16.485 51.765 16.393 52.08 C 16.114 53.019 15.809 53.951 15.504 54.903 C 15.259 54.829 15.033 54.762 14.768 54.681 C 14.841 54.42 14.901 54.179 14.98 53.937 C 15.212 53.227 15.438 52.516 15.683 51.812 C 15.769 51.564 15.756 51.416 15.464 51.356 C 15.252 51.316 15.046 51.215 14.821 51.135 C 14.874 50.94 14.92 50.753 14.974 50.552 C 15.822 50.833 16.638 51.101 17.454 51.363 C 17.599 51.41 17.752 51.477 17.898 51.483 C 18.408 51.504 18.561 51.825 18.647 52.268 C 18.727 52.677 18.859 53.079 18.992 53.569 C 19.33 53.193 19.628 52.871 19.914 52.536 C 20.371 52.013 20.364 52.013 21.12 52.275 C 20.842 52.57 20.583 52.851 20.318 53.126 C 20.099 53.347 19.887 53.575 19.662 53.79 C 19.323 54.105 19.118 54.474 19.058 54.936 C 19.018 55.211 18.932 55.486 18.859 55.801 Z M 11.771 50.371 C 11.399 51.256 11.028 52.141 10.644 53.059 C 10.425 52.958 10.232 52.865 9.994 52.757 C 10.504 51.544 11.008 50.337 11.532 49.097 C 11.811 49.217 12.089 49.311 12.341 49.466 C 12.427 49.519 12.454 49.714 12.467 49.854 C 12.553 50.84 12.633 51.825 12.712 52.804 C 12.739 52.811 12.765 52.818 12.792 52.818 C 13.163 51.926 13.535 51.041 13.919 50.123 C 14.125 50.216 14.324 50.304 14.569 50.411 C 14.058 51.638 13.555 52.844 13.037 54.071 C 12.785 53.964 12.533 53.897 12.328 53.77 C 12.222 53.703 12.142 53.528 12.129 53.394 C 12.056 52.73 12.016 52.067 11.956 51.403 C 11.93 51.068 11.89 50.726 11.857 50.391 C 11.824 50.377 11.797 50.377 11.771 50.371 Z M 33.56 27.744 C 34.057 27.831 34.071 27.817 34.084 27.368 C 34.084 27.201 34.13 27.033 34.124 26.872 C 34.117 26.711 34.064 26.557 34.031 26.383 L 34.767 26.383 L 34.767 31.572 C 34.568 31.545 34.409 31.518 34.236 31.491 C 34.236 31.049 34.21 30.606 34.243 30.171 C 34.289 29.614 34.316 29.044 34.037 28.575 C 33.772 28.126 33.381 27.75 33.01 27.375 C 32.837 27.201 32.605 27.241 32.406 27.408 C 31.677 28.045 31.213 28.836 31.12 29.808 C 31.073 30.291 31.113 30.781 31.113 31.297 C 31 31.27 30.921 31.257 30.881 31.25 L 30.881 28.95 C 30.881 28.179 30.888 27.408 30.874 26.637 C 30.868 26.389 30.954 26.302 31.199 26.309 C 32.035 26.322 32.87 26.316 33.633 26.316 C 33.6 26.832 33.58 27.281 33.56 27.744 Z M 31.073 27.174 L 31.113 27.174 C 31.113 27.308 31.087 27.449 31.12 27.569 C 31.14 27.65 31.239 27.757 31.312 27.764 C 31.392 27.77 31.544 27.683 31.551 27.623 C 31.584 27.281 31.591 26.939 31.577 26.604 C 31.577 26.537 31.458 26.416 31.392 26.416 C 31.319 26.416 31.206 26.51 31.18 26.584 C 31.12 26.778 31.107 26.979 31.073 27.174 Z M 57.246 43.358 C 57.59 43.224 57.962 43.197 58.313 43.492 C 58.678 43.794 58.837 44.276 58.598 44.685 C 58.327 45.141 57.982 45.55 57.663 45.973 C 57.564 46.1 57.451 46.221 57.319 46.368 C 56.324 45.49 55.336 44.632 54.335 43.753 C 54.719 43.318 55.057 42.882 55.449 42.5 C 55.973 41.99 56.609 41.983 56.974 42.493 C 57.126 42.714 57.146 43.036 57.246 43.358 Z M 57.392 45.396 C 57.564 45.161 57.71 44.974 57.849 44.772 C 58.028 44.504 57.962 44.263 57.75 44.055 C 57.531 43.847 57.279 43.874 57.053 44.042 C 56.914 44.142 56.808 44.296 56.675 44.41 C 56.536 44.538 56.536 44.652 56.675 44.772 C 56.894 44.967 57.12 45.161 57.392 45.396 Z M 55.243 43.499 C 55.508 43.747 55.687 43.941 55.9 44.095 C 55.973 44.149 56.165 44.136 56.225 44.075 C 56.364 43.934 56.51 43.76 56.543 43.586 C 56.569 43.412 56.51 43.163 56.39 43.029 C 56.297 42.929 56.026 42.895 55.9 42.956 C 55.668 43.076 55.488 43.291 55.243 43.499 Z M 14.655 5.733 C 14.755 6.786 13.78 7.456 12.931 7.51 C 11.738 7.584 10.836 6.558 10.823 5.21 C 10.816 4.486 11.114 3.97 11.731 3.635 C 12.401 3.28 13.064 3.219 13.72 3.682 C 14.145 3.983 14.728 4.922 14.655 5.733 Z M 13.893 5.525 C 13.886 5.237 13.681 4.775 13.342 4.372 C 13.024 3.997 12.586 3.903 12.175 4.077 C 11.797 4.238 11.618 4.58 11.605 5.076 C 11.592 5.572 11.791 5.988 12.063 6.377 C 12.334 6.772 12.832 6.96 13.21 6.84 C 13.641 6.699 13.893 6.31 13.893 5.525 Z M 4.981 45.067 C 6.32 45.074 7.209 46.442 6.645 47.682 C 6.3 48.44 5.77 49.023 4.901 49.171 C 4.404 49.258 3.966 49.077 3.582 48.782 C 2.706 48.105 2.56 47.153 3.164 46.214 C 3.681 45.416 4.238 45.067 4.981 45.067 Z M 4.55 48.48 C 4.59 48.473 4.689 48.46 4.782 48.426 C 5.445 48.192 5.83 47.682 6.062 47.039 C 6.214 46.623 6.075 46.274 5.79 46.006 C 5.491 45.718 5.107 45.657 4.716 45.845 C 4.165 46.107 3.807 46.549 3.615 47.119 C 3.376 47.796 3.834 48.48 4.55 48.48 Z M 6.566 6.424 L 6.818 6.933 C 6.446 7.121 6.062 7.248 5.75 7.476 C 5.074 7.959 5.007 8.817 5.544 9.548 C 5.995 10.158 6.818 10.286 7.428 9.843 C 7.567 9.736 7.719 9.642 7.852 9.548 C 7.607 9.173 7.441 8.918 7.242 8.623 C 7.043 8.757 6.864 8.878 6.652 9.018 C 6.539 8.864 6.433 8.723 6.32 8.563 C 6.433 8.482 6.519 8.415 6.612 8.355 C 6.91 8.147 7.209 7.946 7.534 7.718 C 7.892 8.254 8.237 8.764 8.568 9.287 C 8.608 9.354 8.595 9.508 8.548 9.575 C 8.051 10.279 7.381 10.748 6.532 10.842 C 5.69 10.936 4.948 10.379 4.556 9.454 C 4.119 8.408 4.656 7.255 5.803 6.726 C 6.042 6.618 6.287 6.531 6.566 6.424 Z M 43.566 2.636 C 43.838 2.736 44.057 2.817 44.302 2.911 C 44.15 3.313 44.01 3.709 43.858 4.097 C 43.765 4.332 43.792 4.46 44.063 4.533 C 44.428 4.641 44.786 4.795 45.177 4.949 C 45.37 4.433 45.555 3.937 45.748 3.434 C 46 3.528 46.225 3.615 46.47 3.709 C 46.02 4.956 45.582 6.183 45.124 7.443 C 44.879 7.356 44.654 7.275 44.388 7.181 C 44.554 6.726 44.7 6.29 44.872 5.861 C 44.972 5.613 44.945 5.472 44.667 5.398 C 44.395 5.318 44.123 5.217 43.864 5.103 C 43.632 5.003 43.513 5.029 43.433 5.304 C 43.301 5.753 43.122 6.183 42.949 6.659 C 42.711 6.571 42.479 6.484 42.213 6.39 C 42.664 5.13 43.109 3.89 43.566 2.636 Z M 50.184 7.785 C 50.117 8.516 50.051 9.22 49.985 9.964 C 49.7 9.803 49.474 9.682 49.242 9.555 C 49.308 9.186 49.375 8.824 49.428 8.469 C 49.448 8.301 49.494 8.1 49.421 7.973 C 49.315 7.785 49.123 7.644 48.944 7.517 C 48.924 7.503 48.738 7.684 48.665 7.798 C 48.46 8.14 48.267 8.489 48.055 8.878 C 47.836 8.757 47.618 8.643 47.379 8.509 C 48.022 7.342 48.652 6.189 49.295 5.009 C 49.806 5.311 50.31 5.566 50.767 5.881 C 51.125 6.129 51.437 6.457 51.291 6.967 C 51.112 7.57 50.873 7.738 50.184 7.785 Z M 49.11 6.987 C 49.434 7.088 49.713 7.228 50.005 7.255 C 50.409 7.289 50.674 6.766 50.429 6.444 C 50.277 6.243 50.025 6.115 49.806 5.975 C 49.766 5.955 49.613 6.048 49.574 6.122 C 49.415 6.364 49.295 6.625 49.11 6.987 Z M 36.822 3.414 C 36.723 3.957 36.63 4.48 36.531 5.029 C 36.272 4.982 36.04 4.942 35.781 4.889 C 36.013 3.575 36.239 2.274 36.464 0.96 C 37.021 1.067 37.552 1.148 38.076 1.282 C 38.712 1.443 38.958 1.731 38.977 2.234 C 38.997 2.783 38.798 3.045 38.202 3.28 C 38.367 3.963 38.533 4.647 38.712 5.398 C 38.414 5.358 38.188 5.338 37.97 5.284 C 37.917 5.271 37.863 5.157 37.85 5.083 C 37.791 4.768 37.751 4.446 37.684 4.131 C 37.578 3.581 37.413 3.447 36.822 3.414 Z M 37.512 2.924 L 37.578 2.924 C 37.943 2.911 38.162 2.696 38.175 2.348 C 38.188 1.966 37.917 1.751 37.379 1.684 C 36.975 1.63 37.108 1.966 37.035 2.147 C 37.008 2.227 37.008 2.321 36.995 2.408 C 36.929 2.837 36.929 2.837 37.346 2.904 C 37.406 2.918 37.459 2.918 37.512 2.924 Z M 28.653 54.916 C 28.918 55.566 29.177 56.217 29.462 56.921 C 29.204 56.921 28.991 56.941 28.786 56.907 C 28.693 56.894 28.58 56.787 28.547 56.693 C 28.414 56.371 28.322 56.042 28.202 55.721 C 28.149 55.587 28.09 55.419 27.983 55.365 C 27.811 55.271 27.592 55.224 27.393 55.224 C 27.353 55.224 27.274 55.499 27.267 55.647 C 27.247 56.036 27.261 56.425 27.261 56.84 L 26.531 56.84 L 26.531 55.338 C 26.531 54.668 26.545 53.998 26.545 53.327 C 26.545 52.871 26.545 52.871 27.002 52.885 C 27.433 52.898 27.864 52.898 28.288 52.945 C 29.071 53.025 29.489 53.696 29.164 54.373 C 29.058 54.588 28.812 54.748 28.653 54.916 Z M 27.274 54.601 C 27.579 54.601 27.831 54.648 28.05 54.588 C 28.209 54.541 28.401 54.366 28.448 54.205 C 28.494 54.045 28.434 53.723 28.328 53.676 C 28.043 53.542 27.712 53.508 27.393 53.455 C 27.367 53.448 27.281 53.562 27.281 53.622 C 27.267 53.944 27.274 54.259 27.274 54.601 Z M 35.675 56.478 C 35.47 55.178 35.271 53.884 35.065 52.563 C 35.33 52.516 35.563 52.469 35.828 52.422 C 35.914 52.965 36 53.475 36.08 53.984 C 36.106 53.991 36.133 53.998 36.159 54.011 C 36.398 53.629 36.637 53.247 36.869 52.865 C 36.875 52.858 36.882 52.844 36.882 52.831 C 37.074 52.248 37.512 52.067 38.135 52.094 L 37.844 52.536 C 37.552 52.999 37.273 53.461 36.968 53.91 C 36.856 54.078 36.856 54.165 37.008 54.293 C 37.572 54.775 38.122 55.265 38.679 55.754 C 38.739 55.808 38.798 55.855 38.918 55.955 C 38.573 56.016 38.308 56.076 38.029 56.096 C 37.943 56.103 37.83 56.022 37.757 55.955 C 37.28 55.526 36.816 55.084 36.338 54.648 C 36.312 54.621 36.265 54.614 36.173 54.574 C 36.239 55.043 36.305 55.466 36.365 55.888 C 36.438 56.378 36.444 56.378 35.954 56.438 C 35.868 56.465 35.781 56.471 35.675 56.478 Z M 30.457 25.779 L 30.457 29.42 C 30.457 29.969 30.443 30.512 30.457 31.062 C 30.463 31.263 30.39 31.377 30.211 31.431 C 30.052 31.478 29.9 31.545 29.734 31.572 C 29.164 31.659 29.005 31.518 29.011 30.942 C 29.024 29.359 29.038 27.77 29.058 26.188 C 29.064 25.726 29.144 25.652 29.608 25.699 C 29.873 25.719 30.145 25.752 30.457 25.779 Z M 29.515 26.295 L 29.396 26.336 C 28.945 27.147 29.19 28.005 29.223 28.85 L 29.761 28.85 C 29.761 28.146 29.774 27.469 29.747 26.792 C 29.747 26.624 29.601 26.456 29.515 26.295 Z M 17.102 1.905 C 17.361 1.825 17.573 1.758 17.831 1.677 C 18.07 2.616 18.329 3.514 18.528 4.426 C 18.674 5.09 18.335 5.693 17.705 5.921 C 17.374 6.042 16.996 6.142 16.651 6.109 C 15.981 6.055 15.657 5.552 15.471 4.956 C 15.259 4.265 15.08 3.561 14.867 2.871 C 14.801 2.643 14.814 2.515 15.086 2.482 C 15.232 2.468 15.378 2.401 15.544 2.354 C 15.743 3.065 15.928 3.735 16.127 4.406 C 16.187 4.62 16.267 4.828 16.359 5.029 C 16.545 5.412 16.817 5.566 17.148 5.485 C 17.579 5.378 17.845 5.11 17.805 4.687 C 17.759 4.218 17.619 3.756 17.5 3.293 C 17.387 2.844 17.248 2.401 17.102 1.905 Z M 10.796 48.721 C 10.319 49.526 9.894 50.337 9.384 51.081 C 8.873 51.825 8.21 51.886 7.315 51.376 C 6.652 51.001 6.38 50.283 6.731 49.539 C 7.116 48.721 7.6 47.944 8.057 47.119 C 8.303 47.26 8.508 47.374 8.754 47.508 C 8.449 48.044 8.157 48.56 7.865 49.083 C 7.719 49.345 7.573 49.606 7.441 49.874 C 7.255 50.243 7.335 50.612 7.626 50.833 C 7.985 51.101 8.402 51.121 8.661 50.78 C 9.032 50.29 9.331 49.74 9.656 49.211 C 9.828 48.929 9.987 48.641 10.166 48.332 C 10.372 48.467 10.564 48.587 10.796 48.721 Z M 53.154 44.866 C 53.36 44.699 53.539 44.551 53.745 44.39 C 54.315 45.088 54.885 45.751 55.416 46.442 C 55.86 47.032 55.833 47.736 55.396 48.259 C 54.872 48.889 54.149 49.137 53.552 48.829 C 53.26 48.674 53.009 48.42 52.783 48.165 C 52.292 47.608 51.828 47.032 51.331 46.428 C 51.543 46.254 51.729 46.093 51.934 45.919 C 52.412 46.495 52.869 47.052 53.333 47.602 C 53.459 47.756 53.599 47.903 53.751 48.031 C 54.083 48.319 54.374 48.326 54.706 48.064 C 55.018 47.823 55.15 47.454 54.931 47.119 C 54.573 46.563 54.142 46.053 53.738 45.53 C 53.566 45.322 53.373 45.114 53.154 44.866 Z M 26.372 26.242 C 25.934 27.194 25.908 28.119 26.246 29.091 C 25.775 28.997 25.344 28.89 24.907 28.83 C 24.641 28.789 24.363 28.789 24.098 28.836 C 23.793 28.89 23.7 28.749 23.653 28.494 C 23.561 27.978 23.634 27.482 23.793 26.993 C 24.025 26.289 24.025 26.282 24.754 26.242 C 25.053 26.228 25.351 26.235 25.649 26.235 C 25.868 26.242 26.087 26.242 26.372 26.242 Z M 54.328 8.938 C 53.95 8.656 53.592 8.402 53.247 8.127 C 53.075 7.986 52.969 8.026 52.843 8.194 C 52.385 8.797 52.379 8.797 52.995 9.246 C 53.207 9.401 53.42 9.561 53.658 9.736 C 53.546 9.89 53.44 10.037 53.314 10.205 C 52.896 9.91 52.498 9.622 52.067 9.313 C 51.841 9.615 51.629 9.903 51.397 10.225 C 51.848 10.567 52.286 10.896 52.75 11.244 C 52.631 11.412 52.531 11.559 52.405 11.734 C 51.742 11.244 51.079 10.762 50.403 10.265 C 51.172 9.186 51.934 8.127 52.717 7.034 C 53.38 7.517 54.016 7.979 54.673 8.462 C 54.554 8.63 54.447 8.777 54.328 8.938 Z M 40.881 51.349 C 40.92 51.557 40.954 51.732 40.987 51.919 C 40.569 52.027 40.178 52.147 39.78 52.214 C 39.481 52.268 39.408 52.389 39.508 52.663 C 39.581 52.858 39.621 53.066 39.687 53.314 C 40.184 53.2 40.662 53.086 41.166 52.965 C 41.219 53.146 41.265 53.314 41.325 53.508 C 40.821 53.642 40.337 53.776 39.833 53.91 C 39.906 54.232 39.979 54.534 40.045 54.836 C 40.091 55.043 40.217 54.99 40.35 54.956 C 40.808 54.842 41.265 54.728 41.743 54.614 C 41.789 54.822 41.829 55.003 41.869 55.204 C 41.119 55.399 40.397 55.587 39.674 55.761 C 39.607 55.774 39.462 55.687 39.442 55.62 C 39.13 54.407 38.838 53.18 38.533 51.939 C 39.329 51.745 40.091 51.551 40.881 51.349 Z M 25.722 3.923 C 25.842 4.533 25.842 4.527 25.245 4.567 C 24.728 4.6 24.217 4.661 23.706 4.714 C 23.428 4.748 23.329 4.647 23.309 4.346 C 23.242 3.38 23.143 2.421 23.057 1.456 C 23.037 1.248 23.037 1.034 23.023 0.779 C 23.806 0.698 24.575 0.625 25.377 0.544 C 25.404 0.745 25.431 0.92 25.45 1.121 C 24.893 1.168 24.376 1.215 23.826 1.268 C 23.859 1.644 23.886 1.959 23.912 2.314 C 24.436 2.281 24.933 2.24 25.444 2.207 C 25.457 2.408 25.47 2.562 25.484 2.77 C 25 2.817 24.509 2.857 23.978 2.911 C 23.998 3.233 23.998 3.548 24.045 3.863 C 24.058 3.937 24.217 4.051 24.303 4.044 C 24.787 4.017 25.258 3.963 25.722 3.923 Z M 35.403 0.812 C 35.384 1.013 35.364 1.168 35.344 1.376 C 34.939 1.329 34.522 1.302 34.117 1.235 C 33.839 1.188 33.713 1.235 33.693 1.55 C 33.646 2.24 33.633 2.24 34.342 2.314 C 34.362 2.314 34.389 2.321 34.409 2.321 C 34.647 2.361 34.88 2.408 35.158 2.462 C 35.132 2.643 35.112 2.81 35.085 2.998 C 34.661 2.951 34.256 2.924 33.858 2.864 C 33.633 2.83 33.52 2.884 33.527 3.132 C 33.527 3.266 33.514 3.4 33.5 3.534 C 33.461 4.037 33.461 4.03 33.958 4.064 C 34.316 4.091 34.681 4.144 35.065 4.185 L 35.065 4.781 C 34.541 4.728 34.044 4.667 33.54 4.62 C 33.308 4.594 33.076 4.587 32.851 4.56 C 32.698 4.54 32.585 4.493 32.612 4.285 C 32.744 3.152 32.87 2.012 32.996 0.879 C 33.003 0.792 33.023 0.705 33.043 0.564 C 33.825 0.638 34.601 0.725 35.403 0.812 Z M 42.386 2.408 C 42.313 2.589 42.247 2.763 42.2 2.891 C 41.829 2.77 41.477 2.623 41.113 2.555 C 40.973 2.529 40.715 2.656 40.668 2.777 C 40.615 2.897 40.708 3.139 40.814 3.266 C 41.02 3.514 41.278 3.709 41.504 3.937 C 41.882 4.312 41.995 4.795 41.769 5.251 C 41.557 5.673 41.205 5.914 40.708 5.921 C 40.045 5.928 39.773 5.841 39.117 5.351 C 39.19 5.163 39.269 4.976 39.355 4.761 C 39.561 4.902 39.727 5.043 39.919 5.137 C 40.091 5.224 40.297 5.324 40.476 5.304 C 40.655 5.284 40.894 5.157 40.973 5.009 C 41.04 4.889 40.954 4.62 40.847 4.486 C 40.642 4.211 40.37 3.99 40.138 3.742 C 39.806 3.38 39.72 2.958 39.926 2.509 C 40.118 2.073 40.483 1.919 40.947 1.898 C 41.491 1.872 41.935 2.106 42.386 2.408 Z M 28.7 1.081 C 28.348 1.047 28.023 0.98 27.698 1.007 C 27.526 1.02 27.294 1.168 27.214 1.322 C 27.095 1.543 27.294 1.717 27.486 1.818 C 27.758 1.966 28.036 2.093 28.308 2.247 C 28.753 2.488 29.024 2.864 28.965 3.38 C 28.905 3.97 28.514 4.379 27.917 4.466 C 27.566 4.513 27.194 4.466 26.836 4.433 C 26.525 4.406 26.346 4.252 26.478 3.896 C 26.505 3.829 26.491 3.742 26.498 3.635 C 26.651 3.695 26.783 3.769 26.929 3.796 C 27.155 3.843 27.38 3.896 27.605 3.89 C 27.884 3.883 28.136 3.709 28.136 3.44 C 28.136 3.259 27.944 3.038 27.778 2.904 C 27.586 2.743 27.334 2.669 27.108 2.549 C 26.564 2.254 26.326 1.798 26.425 1.268 C 26.511 0.812 27.022 0.41 27.579 0.37 C 27.745 0.356 27.91 0.356 28.076 0.363 C 28.68 0.403 28.772 0.511 28.7 1.081 Z M 48.791 48.862 C 47.962 48.969 47.26 49.251 47.12 50.223 C 47.047 50.746 47.458 51.477 47.949 51.718 C 48.785 52.12 49.381 51.711 49.932 51.048 C 50.038 51.202 50.137 51.323 50.21 51.47 C 50.243 51.53 50.23 51.644 50.19 51.698 C 49.746 52.315 48.619 52.717 47.863 52.523 C 47.014 52.308 46.57 51.685 46.397 50.88 C 46.225 50.062 46.451 49.325 47.16 48.855 C 47.525 48.614 47.976 48.48 48.393 48.332 C 48.625 48.252 48.705 48.366 48.791 48.862 Z M 25.57 56.056 C 25.649 56.632 25.649 56.659 25.099 56.74 C 24.23 56.86 23.441 56.653 22.911 55.888 C 22.427 55.184 22.473 54.4 22.838 53.669 C 23.169 53.005 23.74 52.643 24.502 52.663 C 24.82 52.67 25.145 52.677 25.45 52.757 C 26.007 52.898 26.034 52.979 25.828 53.555 C 25.132 53.193 24.436 53.032 23.786 53.656 C 23.408 54.024 23.262 54.849 23.501 55.338 C 23.952 56.244 24.721 56.25 25.57 56.056 Z M 22.049 1.624 C 21.246 1.489 20.477 1.557 20.126 2.442 C 19.894 3.025 19.98 3.621 20.451 4.084 C 21.127 4.741 21.843 4.493 22.533 4.104 C 22.566 4.131 22.592 4.144 22.599 4.158 C 22.745 4.694 22.752 4.714 22.241 4.929 C 21.604 5.197 20.948 5.204 20.311 4.936 C 19.794 4.714 19.483 4.285 19.337 3.735 C 18.879 1.966 20.053 0.94 21.525 0.967 C 21.558 0.967 21.591 0.98 21.624 0.98 C 22.128 1.007 22.168 1.06 22.049 1.624 Z M 3.728 44.477 C 3.343 43.485 2.812 43.049 2.09 43.117 C 1.513 43.163 0.889 43.74 0.75 44.35 C 0.604 44.994 0.982 45.597 1.831 46.08 C 1.639 46.589 1.48 46.643 1.055 46.314 C 0.034 45.523 -0.145 44.766 0.094 43.854 C 0.439 42.553 2.262 41.729 3.449 42.949 C 3.694 43.197 3.867 43.512 4.072 43.8 C 4.245 44.035 4.178 44.203 3.933 44.323 C 3.873 44.357 3.814 44.41 3.728 44.477 Z M 34.488 53.401 C 33.62 53.18 32.824 53.153 32.386 54.078 C 32.101 54.688 32.207 55.298 32.665 55.774 C 33.268 56.398 33.971 56.19 34.667 55.895 C 34.694 56.002 34.727 56.096 34.747 56.19 C 34.8 56.418 34.734 56.545 34.488 56.626 C 33.653 56.901 32.851 56.907 32.141 56.337 C 31.491 55.814 31.272 54.862 31.584 53.957 C 31.869 53.119 32.526 52.751 33.348 52.677 C 33.659 52.65 33.991 52.677 34.296 52.751 C 34.667 52.844 34.429 53.146 34.488 53.401 Z M 25.543 31.666 C 25.305 31.652 25.046 31.686 24.827 31.612 C 24.157 31.391 23.534 31.612 22.884 31.699 C 22.321 31.773 21.724 31.719 21.154 31.632 C 21.041 31.612 20.981 31.21 20.895 30.982 C 21.028 30.942 21.16 30.841 21.286 30.861 C 22.049 30.955 22.805 31.089 23.58 30.908 C 23.72 30.874 23.899 30.968 24.051 31.009 C 24.787 31.216 25.51 31.022 26.246 30.975 C 26.909 30.928 27.579 30.942 28.249 30.948 C 28.421 30.948 28.64 31.042 28.567 31.27 C 28.534 31.377 28.328 31.464 28.189 31.505 C 27.791 31.619 27.4 31.612 26.976 31.531 C 26.518 31.444 26.021 31.585 25.543 31.625 Z M 19.39 17.875 C 19.522 18.009 19.582 18.083 19.648 18.143 C 19.827 18.29 20.046 18.404 20.172 18.585 C 20.258 18.706 20.252 18.948 20.192 19.095 C 20.159 19.182 19.933 19.236 19.801 19.222 C 19.622 19.209 19.449 19.102 19.27 19.055 C 19.178 19.028 19.065 19.041 18.965 19.041 C 18.985 19.135 18.999 19.229 19.025 19.316 C 19.038 19.37 19.078 19.41 19.111 19.47 C 18.786 19.786 18.448 20.074 18.156 20.396 C 17.851 20.731 17.599 21.106 17.301 21.448 C 17.202 21.562 17.036 21.71 16.916 21.69 C 16.797 21.669 16.651 21.495 16.605 21.354 C 16.485 21.039 16.419 20.697 16.326 20.349 C 17.168 20.101 17.699 19.377 18.329 18.78 C 18.667 18.451 19.052 18.156 19.39 17.875 Z M 41 20.831 C 40.821 21.274 40.648 21.703 40.456 22.192 C 40.091 21.73 39.767 21.307 39.442 20.892 C 39.302 20.717 39.163 20.55 39.004 20.389 C 38.812 20.195 38.706 19.618 38.832 19.383 C 38.958 19.149 38.898 18.981 38.633 19.008 C 38.334 19.035 38.036 19.142 37.751 19.242 C 37.366 19.383 37.074 19.303 37.035 18.994 C 37.001 18.787 37.353 18.425 37.612 18.391 C 37.645 18.384 37.678 18.398 37.711 18.391 C 37.81 18.351 37.917 18.304 38.016 18.264 C 37.923 18.19 37.83 18.116 37.724 18.056 C 37.678 18.029 37.605 18.042 37.512 18.042 C 37.897 17.814 38.182 17.828 38.5 18.183 C 38.805 18.518 39.09 18.88 39.309 19.276 C 39.641 19.873 40.058 20.349 40.675 20.63 C 40.774 20.664 40.861 20.738 41 20.831 Z M 21.127 32.028 C 21.498 32.101 21.823 32.182 22.155 32.222 C 22.321 32.242 22.52 32.242 22.665 32.175 C 23.209 31.914 23.773 31.9 24.35 31.961 C 24.94 32.021 25.523 32.095 26.12 31.927 C 26.438 31.84 26.796 31.914 27.161 31.914 C 27.015 32.403 26.863 32.537 26.465 32.577 C 25.855 32.644 25.245 32.718 24.628 32.785 C 24.542 32.792 24.436 32.805 24.37 32.765 C 23.886 32.497 23.461 32.758 23.01 32.879 C 22.685 32.966 22.341 33.047 22.009 33.047 C 21.465 33.04 21.154 32.671 21.127 32.028 Z M 41.431 51.839 C 41.385 51.711 41.365 51.618 41.318 51.53 C 41.219 51.323 41.298 51.229 41.497 51.162 C 42.306 50.9 43.109 50.639 43.951 50.357 C 44.004 50.485 44.05 50.592 44.09 50.706 C 44.143 50.867 44.123 50.994 43.924 51.028 C 43.871 51.034 43.818 51.061 43.765 51.075 C 43.148 51.276 43.148 51.276 43.361 51.913 C 43.639 52.757 43.904 53.602 44.176 54.433 C 44.143 54.467 44.13 54.494 44.116 54.5 C 43.42 54.742 43.433 54.735 43.215 54.024 C 42.989 53.287 42.75 52.563 42.525 51.825 C 42.452 51.584 42.339 51.497 42.087 51.611 C 41.882 51.705 41.67 51.758 41.431 51.839 Z M 32.3 0.511 C 32.267 0.732 32.247 0.893 32.221 1.081 L 31.226 1.081 C 31.18 2.2 31.133 3.3 31.087 4.399 L 30.404 4.399 L 30.404 2.267 C 30.404 1.932 30.41 1.597 30.424 1.268 C 30.43 1.074 30.337 1.013 30.165 1.02 C 29.926 1.027 29.688 1.02 29.429 1.02 L 29.429 0.39 C 30.384 0.424 31.332 0.464 32.3 0.511 Z M 51.192 51.229 C 50.469 50.102 49.759 49.003 49.03 47.87 C 49.242 47.736 49.454 47.608 49.7 47.448 C 50.296 48.379 50.893 49.298 51.51 50.263 C 51.954 49.982 52.379 49.707 52.829 49.419 C 52.942 49.593 53.042 49.747 53.154 49.928 C 52.505 50.364 51.861 50.793 51.192 51.229 Z M 11.346 7.503 C 11.453 7.691 11.532 7.845 11.638 8.04 C 10.942 8.415 10.259 8.784 9.549 9.166 C 8.933 7.993 8.329 6.84 7.706 5.653 C 7.938 5.519 8.15 5.405 8.382 5.277 C 8.614 5.707 8.827 6.089 9.032 6.478 C 9.304 7 9.583 7.517 9.841 8.046 C 9.934 8.234 10.034 8.221 10.179 8.14 C 10.557 7.926 10.935 7.725 11.346 7.503 Z M 28.58 28.897 C 28.182 28.997 27.831 29.091 27.486 29.178 C 27.148 29.265 26.949 29.158 26.969 28.83 C 27.015 28.112 27.115 27.402 27.227 26.691 C 27.241 26.597 27.433 26.483 27.559 26.463 C 27.758 26.436 27.977 26.503 28.182 26.476 C 28.481 26.443 28.58 26.604 28.587 26.852 C 28.587 27.542 28.58 28.233 28.58 28.897 Z M 26.127 18.84 C 24.356 19.397 22.559 19.424 20.729 19.129 C 20.723 19.015 20.723 18.914 20.716 18.82 C 20.709 18.733 20.683 18.653 20.656 18.532 C 20.902 18.552 21.114 18.585 21.333 18.585 C 22.321 18.572 23.315 18.565 24.303 18.532 C 24.622 18.518 24.933 18.418 25.245 18.351 C 25.696 18.244 25.921 18.358 26.127 18.84 Z M 22.201 34.441 C 22.957 34.307 23.706 34.153 24.462 34.046 C 24.728 34.005 25.006 34.099 25.278 34.106 C 25.523 34.119 25.762 34.113 26.007 34.093 C 26.233 34.072 26.452 34.019 26.677 33.985 C 26.69 34.052 26.704 34.079 26.704 34.093 C 26.558 34.756 26.558 34.743 25.895 34.877 C 25.543 34.951 25.218 34.984 24.847 34.85 C 24.562 34.75 24.204 34.864 23.879 34.91 C 23.567 34.951 23.256 35.045 22.937 35.065 C 22.52 35.085 22.261 34.83 22.201 34.441 Z M 21.704 33.462 C 22.221 33.375 22.712 33.308 23.203 33.208 C 23.64 33.114 24.051 33.053 24.522 33.134 C 25.033 33.221 25.583 33.08 26.113 33.047 C 26.319 33.033 26.531 33 26.737 33.027 C 27.208 33.087 27.254 33.201 27.042 33.67 C 26.757 33.442 26.445 33.482 26.14 33.603 C 25.782 33.751 25.45 33.798 25.059 33.684 C 24.476 33.509 23.912 33.757 23.342 33.885 C 23.03 33.952 22.718 34.032 22.4 34.046 C 21.909 34.052 21.757 33.891 21.704 33.462 Z M 47.485 4.165 C 47.737 4.285 47.942 4.386 48.194 4.506 C 47.664 5.72 47.134 6.92 46.596 8.147 C 46.344 8.026 46.132 7.926 45.887 7.805 C 46.417 6.585 46.948 5.391 47.485 4.165 Z M 35.019 41.595 C 34.926 40.904 34.833 40.22 34.747 39.557 C 35.397 39.697 36.067 39.852 36.73 39.999 C 36.763 40.006 36.789 40.026 36.822 40.039 C 37.306 40.267 37.32 40.448 36.909 40.79 C 36.372 41.239 35.728 41.454 35.019 41.595 Z M 30.722 56.887 L 29.973 56.887 L 29.973 52.952 L 30.722 52.952 Z M 28.64 29.949 C 28.673 30.211 28.7 30.452 28.726 30.687 C 28.149 30.6 27.612 30.486 27.068 30.452 C 26.651 30.425 26.22 30.506 25.795 30.553 C 25.556 30.579 25.324 30.626 25.086 30.647 C 24.535 30.693 24.104 30.553 23.965 29.936 C 23.939 29.822 23.859 29.721 23.793 29.587 C 25.364 30.231 27.009 29.788 28.64 29.949 Z M 31.809 18.994 C 31.922 18.565 32.141 18.458 32.552 18.518 C 33.335 18.639 34.124 18.706 34.919 18.726 C 35.496 18.74 36.08 18.639 36.657 18.592 C 36.663 19.001 36.564 19.149 36.199 19.222 C 34.714 19.537 33.268 19.37 31.809 18.994 Z M 26.312 23.694 C 26.266 24.277 26.226 24.827 26.186 25.35 C 25.682 25.35 25.132 25.357 24.582 25.343 C 24.509 25.343 24.376 25.223 24.383 25.169 C 24.409 24.8 24.436 24.418 24.522 24.063 C 24.582 23.815 24.767 23.674 25.066 23.694 C 25.47 23.714 25.888 23.694 26.312 23.694 Z M 22.314 38.906 C 22.181 39.644 22.049 40.361 21.916 41.105 C 21.2 40.985 20.67 40.562 20.212 40.019 C 20.172 39.972 20.225 39.831 20.265 39.751 C 20.444 39.396 20.809 39.322 21.14 39.215 C 21.505 39.101 21.883 39.02 22.314 38.906 Z" fill="var(--token-bb9eb254-5702-404a-9d47-07d085d7a077, rgb(0, 0, 0)) /* {&quot;name&quot;:&quot;Black&quot;} */"></path><path d="M 37.983 23.895 C 37.93 23.144 37.87 22.394 37.824 21.636 C 37.791 21.113 37.784 20.59 37.771 20.067 C 37.764 19.685 37.85 19.598 38.334 19.524 C 38.361 19.853 38.381 20.174 38.407 20.503 C 38.474 21.421 38.546 22.34 38.593 23.265 C 38.619 23.761 38.527 23.842 37.983 23.895 Z M 27.327 14.871 C 27.095 14.536 26.883 14.234 26.657 13.899 C 27.407 13.846 28.103 13.792 28.799 13.738 L 28.799 13.557 C 27.997 13.497 27.194 13.437 26.365 13.37 C 26.757 13.054 27.128 12.746 27.473 12.471 C 27.924 12.786 28.521 13.209 29.111 13.631 C 28.56 14.013 27.97 14.422 27.327 14.871 Z M 20.113 23.654 C 19.894 23.54 19.735 23.473 19.609 23.379 C 19.536 23.325 19.469 23.211 19.469 23.124 C 19.483 22.38 19.509 21.636 19.542 20.892 C 19.556 20.55 19.582 20.201 19.602 19.812 C 19.788 19.819 19.967 19.832 20.119 19.839 C 20.113 21.12 20.113 22.36 20.113 23.654 Z M 22.904 35.46 C 23.415 35.38 23.899 35.299 24.383 35.232 C 24.502 35.212 24.635 35.199 24.741 35.226 C 25.285 35.393 25.822 35.306 26.399 35.145 C 26.399 35.313 26.432 35.46 26.392 35.588 C 26.359 35.702 26.259 35.856 26.167 35.876 C 25.663 35.99 25.165 36.157 24.615 35.97 C 24.336 35.876 23.978 35.936 23.673 36.017 C 23.428 36.077 23.309 36.023 23.183 35.836 C 23.11 35.715 23.01 35.601 22.904 35.46 Z M 23.912 25.069 C 23.992 25.35 24.137 25.571 23.932 25.813 C 23.222 26.631 23.043 27.583 23.289 28.689 C 22.878 28.387 22.573 28.072 22.394 27.65 C 22.307 27.449 22.327 27.274 22.48 27.073 C 22.911 26.51 23.295 25.92 23.7 25.337 C 23.76 25.25 23.826 25.176 23.912 25.069 Z M 35.244 31.578 L 35.244 26.356 C 35.244 25.913 35.304 25.853 35.728 25.84 L 36.06 25.84 C 36.743 25.853 36.624 25.732 36.736 26.537 C 36.677 26.456 36.63 26.409 36.597 26.356 C 36.478 26.135 36.299 26.021 36.047 26.094 C 35.795 26.168 35.622 26.342 35.596 26.617 C 35.543 27.261 35.483 27.904 35.463 28.548 C 35.443 29.433 35.463 30.311 35.456 31.196 C 35.456 31.337 35.39 31.478 35.357 31.619 C 35.33 31.599 35.284 31.592 35.244 31.578 Z M 23.242 30.579 C 22.937 29.319 22.035 28.421 21.392 27.368 C 21.26 27.147 21.293 27.033 21.505 26.926 C 22.181 27.824 22.858 28.716 23.527 29.614 C 23.58 29.688 23.627 29.762 23.667 29.842 C 23.932 30.439 24.098 30.452 23.242 30.579 Z M 28.58 23.728 C 28.547 23.795 28.534 23.855 28.507 23.868 C 28.017 24.083 28.083 24.525 28.123 24.921 C 28.149 25.209 28.056 25.323 27.791 25.377 C 27.155 25.511 27.102 25.484 27.035 24.834 C 27.029 24.76 27.009 24.68 27.022 24.599 C 27.161 23.634 27.261 23.46 28.58 23.728 Z M 33.388 30.023 C 33.361 29.782 33.242 29.614 33.01 29.708 C 32.857 29.768 32.744 29.936 32.572 30.09 C 32.466 30.03 32.552 29.601 32.207 29.681 C 32.081 29.708 31.975 29.842 31.856 29.922 C 31.756 29.842 31.617 29.721 31.511 29.634 C 31.597 29.581 31.783 29.513 31.79 29.433 C 31.803 29.272 31.717 29.098 31.677 28.957 C 31.737 28.836 31.816 28.709 31.863 28.568 C 31.929 28.374 31.962 28.206 32.24 28.206 C 32.393 28.206 32.545 28.039 32.671 27.958 C 32.658 28.126 32.791 28.206 33.043 28.186 C 33.328 28.166 33.454 28.34 33.5 28.602 C 33.527 28.742 33.6 28.877 33.659 29.024 C 33.381 29.259 33.414 29.46 33.825 29.634 C 33.739 29.695 33.653 29.741 33.58 29.802 C 33.514 29.869 33.461 29.943 33.388 30.023 Z M 33.01 28.93 C 33.321 28.924 33.374 28.736 33.354 28.575 C 33.341 28.474 33.195 28.347 33.089 28.327 C 32.884 28.287 32.731 28.421 32.764 28.635 C 32.778 28.742 32.923 28.83 33.01 28.93 Z M 33.043 29.668 C 33.156 29.52 33.262 29.44 33.282 29.346 C 33.321 29.131 33.156 29.058 33.003 29.098 C 32.91 29.118 32.797 29.265 32.778 29.366 C 32.764 29.433 32.91 29.527 33.043 29.668 Z M 32.499 28.347 C 32.26 28.407 32.002 28.179 31.955 28.555 C 31.929 28.763 32.048 28.85 32.26 28.843 C 32.618 28.83 32.439 28.575 32.499 28.347 Z M 32.227 29.674 C 32.366 29.493 32.512 29.373 32.492 29.306 C 32.459 29.205 32.32 29.091 32.207 29.078 C 32.134 29.071 31.975 29.218 31.969 29.299 C 31.975 29.393 32.101 29.493 32.227 29.674 Z M 23.7 36.526 C 24.118 36.231 24.529 36.359 24.946 36.412 C 25.338 36.459 25.736 36.466 26.12 36.486 C 26.12 36.486 26.087 36.566 26.067 36.647 C 25.901 37.19 25.848 37.21 25.265 37.116 C 25 37.076 24.728 37.076 24.462 37.089 C 24.038 37.116 23.912 36.794 23.7 36.526 Z M 36.816 31.444 L 36.816 26.879 C 37.068 27.368 37.068 27.368 37.074 28.045 C 37.081 28.856 37.101 29.668 37.088 30.479 C 37.081 30.807 37.001 31.129 36.962 31.451 C 36.909 31.451 36.862 31.444 36.816 31.444 Z M 28.647 24.378 C 28.673 24.432 28.719 24.492 28.719 24.546 C 28.719 24.901 28.912 24.995 29.223 24.981 C 29.396 24.975 29.469 24.921 29.495 24.733 C 29.515 24.606 29.641 24.499 29.721 24.378 C 29.787 24.499 29.84 24.626 29.92 24.733 C 29.999 24.841 30.099 24.981 30.205 25.008 C 30.443 25.069 30.642 24.955 30.715 24.707 C 30.755 24.586 30.755 24.452 30.821 24.324 C 30.921 24.606 30.987 24.894 30.841 25.169 C 30.808 25.229 30.676 25.263 30.589 25.263 C 30.006 25.27 29.422 25.256 28.839 25.27 C 28.567 25.276 28.448 25.176 28.467 24.914 C 28.481 24.733 28.514 24.552 28.54 24.378 C 28.58 24.385 28.613 24.378 28.647 24.378 Z M 36.02 24.398 C 36.126 24.586 36.226 24.707 36.279 24.854 C 36.358 25.055 36.451 25.209 36.703 25.183 C 36.968 25.156 36.968 24.968 36.975 24.767 C 36.975 24.7 37.015 24.639 37.055 24.532 C 37.194 24.901 36.942 25.377 36.624 25.39 C 36.139 25.41 35.655 25.41 35.171 25.397 C 34.846 25.384 34.747 25.001 35.006 24.499 C 35.019 24.995 35.231 25.176 35.649 25.109 C 36.04 25.042 35.821 24.68 36.02 24.398 Z" fill="var(--token-bb9eb254-5702-404a-9d47-07d085d7a077, rgb(0, 0, 0)) /* {&quot;name&quot;:&quot;Black&quot;} */"></path><path d="M 29.243 24.68 C 29.018 24.505 28.938 23.882 29.051 23.714 C 29.27 23.392 29.747 23.285 30.112 23.48 C 30.503 23.687 30.55 23.989 30.284 24.613 C 30.218 24.412 30.211 24.15 30.085 24.063 C 29.94 23.962 29.688 23.989 29.495 24.029 C 29.19 24.096 29.164 24.344 29.243 24.68 Z M 36.915 23.969 C 36.796 24.244 36.703 24.452 36.617 24.653 C 36.564 24.505 36.537 24.23 36.451 24.217 C 36.173 24.163 35.874 24.197 35.576 24.197 C 35.549 24.385 35.529 24.552 35.496 24.767 C 35.231 24.412 35.324 23.996 35.675 23.741 C 36.166 23.386 36.604 23.486 36.915 23.969 Z M 31.557 25.726 C 32.048 25.833 32.134 25.786 32.307 25.317 C 32.327 25.256 32.406 25.223 32.459 25.176 C 32.512 25.236 32.612 25.303 32.605 25.35 C 32.579 25.591 32.625 25.746 32.904 25.752 C 33.189 25.759 33.441 25.759 33.467 25.37 C 33.474 25.303 33.553 25.25 33.6 25.183 C 33.653 25.243 33.752 25.303 33.752 25.364 C 33.739 25.632 33.852 25.712 34.104 25.719 C 34.382 25.719 34.429 25.558 34.475 25.33 C 34.508 25.484 34.548 25.638 34.588 25.813 C 33.613 25.813 32.671 25.813 31.723 25.806 C 31.664 25.813 31.617 25.752 31.557 25.726 C 31.564 25.726 31.557 25.726 31.557 25.726 Z M 22.095 27.087 C 21.876 27.006 21.744 26.885 21.909 26.684 C 22.433 26.081 22.97 25.484 23.508 24.888 C 23.534 24.908 23.561 24.934 23.594 24.955 C 23.103 25.659 22.606 26.362 22.095 27.087 Z M 24.701 37.371 C 25.039 37.438 25.384 37.498 25.755 37.572 C 25.669 37.834 25.603 38.048 25.517 38.303 C 25.205 38.015 24.933 37.766 24.661 37.512 C 24.675 37.471 24.688 37.425 24.701 37.371 Z M 15.464 15.864 C 15.027 16.105 14.364 16.065 13.8 15.776 C 14.37 15.468 14.887 15.723 15.464 15.864 Z M 42.061 16.34 C 42.644 16.219 43.062 15.609 43.738 15.77 C 43.208 16.031 42.764 16.567 42.061 16.34 Z M 24.389 29.286 C 25.013 29.151 25.596 29.259 26.16 29.547 C 26.153 29.581 26.153 29.621 26.147 29.654 C 25.557 29.581 24.96 29.513 24.37 29.44 C 24.376 29.393 24.383 29.339 24.389 29.286 Z M 29.913 21.555 C 29.8 21.066 29.853 21.012 30.324 21.133 C 30.45 21.167 30.569 21.207 30.742 21.254 C 30.642 21.328 30.589 21.368 30.516 21.421 C 30.583 21.515 30.649 21.602 30.729 21.716 C 30.443 21.663 30.192 21.609 29.913 21.555 Z M 26.903 26.322 C 26.803 26.738 26.67 27.133 26.624 27.536 C 26.578 27.945 26.611 28.36 26.611 28.81 C 26.319 28.159 26.472 26.952 26.903 26.322 Z M 24.847 25.759 L 26.299 25.759 L 26.299 25.846 L 24.847 25.846 C 24.84 25.819 24.847 25.786 24.847 25.759 Z M 28.733 21.589 C 28.534 21.421 28.096 21.542 28.169 21.093 C 28.182 21.012 28.467 20.979 28.62 20.919 C 28.64 20.952 28.653 20.992 28.673 21.026 C 28.62 21.113 28.574 21.2 28.494 21.334 C 28.587 21.395 28.693 21.455 28.792 21.515 C 28.779 21.542 28.753 21.562 28.733 21.589 Z M 28.501 26 C 28.143 26.121 27.784 26.094 27.426 26.014 L 27.426 25.913 L 28.501 25.913 Z M 36.61 21.857 C 36.431 21.75 36.265 21.663 36.113 21.555 C 36.1 21.542 36.146 21.368 36.179 21.361 C 36.338 21.341 36.504 21.354 36.67 21.354 C 36.65 21.529 36.637 21.649 36.61 21.857 Z M 26.259 23.285 C 25.775 23.339 25.716 23.232 25.862 22.581 C 26.014 22.843 26.127 23.044 26.259 23.285 Z M 37.452 28.608 L 37.452 27.274 L 37.539 27.274 L 37.539 28.615 C 37.512 28.608 37.486 28.608 37.452 28.608 Z M 25.437 22.715 C 25.331 22.916 25.603 23.312 25 23.339 C 25.125 23.071 25.225 22.863 25.324 22.662 C 25.358 22.682 25.397 22.695 25.437 22.715 Z M 13.157 17.915 C 12.978 17.627 12.799 17.332 12.62 17.043 C 12.646 17.03 12.666 17.01 12.693 16.997 L 13.23 17.861 C 13.203 17.875 13.177 17.895 13.157 17.915 Z" fill="var(--token-bb9eb254-5702-404a-9d47-07d085d7a077, rgb(0, 0, 0)) /* {&quot;name&quot;:&quot;Black&quot;} */"></path><path d="M 31.699 26.106 C 31.481 26.138 31.263 26.171 30.941 26.22 C 31.191 25.847 31.344 25.62 31.465 25.457 C 31.497 25.555 31.594 25.83 31.699 26.122 C 31.691 26.106 31.699 26.106 31.699 26.106 Z" fill="var(--token-bb9eb254-5702-404a-9d47-07d085d7a077, rgb(0, 0, 0)) /* {&quot;name&quot;:&quot;Black&quot;} */"></path></svg></defs><use href="#svg9917660439"></use></svg>