<svg xmlns:xlink="http://www.w3.org/1999/xlink" xmlns="http://www.w3.org/2000/svg" style="width:100%;height:100%;" width="71.6"  height="57.284" ><defs><svg viewBox="0 0 71.6 57.284" id="svg11804945512"><path d="M 32.491 6.862 C 32.478 6.748 32.592 6.697 32.656 6.621 C 33.543 5.53 33.568 4.11 32.719 3.007 C 32.187 2.31 31.566 2.133 30.755 2.45 C 30.679 2.475 30.615 2.5 30.526 2.462 C 31.502 1.22 32.783 0.51 34.329 0.294 C 34.392 0.281 34.468 0.32 34.506 0.243 L 35.964 0.243 C 36.458 0.383 36.978 0.421 37.485 0.573 C 38.283 0.801 39.044 1.118 39.855 1.511 C 39.45 1.549 39.095 1.524 38.752 1.575 C 37.396 1.778 36.319 2.412 35.52 3.54 C 35.102 4.136 34.709 4.744 34.291 5.34 C 33.873 5.924 33.378 6.431 32.745 6.773 C 32.656 6.811 32.58 6.874 32.491 6.862 Z M 69.438 28.948 C 69.388 28.948 69.324 28.923 69.274 28.935 C 68.729 28.986 68.298 28.859 67.841 28.492 C 66.561 27.477 64.609 28.34 64.343 29.988 C 64.128 31.281 64.901 32.511 66.13 32.79 C 66.878 32.955 67.537 32.739 68.082 32.219 C 68.247 32.067 68.386 32.016 68.602 32.029 C 68.855 32.042 69.096 32.029 69.388 32.029 C 68.893 32.879 68.196 33.411 67.271 33.601 C 65.598 33.956 63.95 32.955 63.507 31.306 C 63.05 29.658 63.912 27.997 65.535 27.414 C 66.891 26.932 68.475 27.465 69.261 28.656 C 69.312 28.72 69.312 28.834 69.426 28.847 Z M 30.755 22.292 C 29.665 21.468 28.739 20.58 28.435 19.236 C 28.22 18.323 28.397 17.461 28.765 16.624 C 29.069 15.927 29.487 15.293 29.994 14.735 C 31.097 13.543 31.35 12.136 31.059 10.589 C 30.97 10.095 30.856 9.6 30.742 9.119 C 30.704 8.954 30.742 8.89 30.881 8.814 C 32.238 8.142 33.67 7.813 35.178 7.901 C 37.092 8.003 38.828 8.687 40.514 9.524 C 41.516 10.019 42.542 10.424 43.67 10.526 C 45.039 10.64 45.977 10.082 46.484 8.814 C 46.497 8.776 46.509 8.738 46.535 8.687 C 47.942 9.943 48.411 12.047 46.826 13.353 C 46.193 13.873 45.457 14.038 44.646 13.962 C 43.29 13.835 42.099 13.277 40.945 12.605 C 40.033 12.073 39.221 11.401 38.334 10.818 C 36.382 9.55 34.253 9.144 31.959 9.55 C 31.769 9.588 31.718 9.638 31.794 9.841 C 32.263 11.147 32.466 12.491 32.364 13.886 C 32.301 14.761 32.022 15.585 31.642 16.371 C 31.16 17.398 30.742 18.437 30.602 19.579 C 30.501 20.466 30.514 21.354 30.755 22.292 Z" fill="var(--token-bb9eb254-5702-404a-9d47-07d085d7a077, rgb(0, 0, 0)) /* {&quot;name&quot;:&quot;Black&quot;} */"></path><path d="M 27.446 5.188 C 27.472 4.897 27.687 4.681 27.751 4.402 C 27.903 3.857 28.258 3.654 28.803 3.641 C 29.17 3.641 29.538 3.54 29.905 3.489 C 30.083 3.464 30.197 3.337 30.349 3.261 C 30.894 2.957 31.274 3.007 31.718 3.426 C 32.453 4.11 32.618 4.909 32.212 5.847 C 31.819 6.748 31.135 7.432 30.412 8.066 C 30.172 8.269 29.918 8.459 29.665 8.662 C 29.588 8.726 29.525 8.751 29.588 8.878 C 30.184 10.057 30.273 11.287 29.918 12.542 C 29.766 13.087 29.525 13.607 29.246 14.101 C 29.17 14.228 29.107 14.291 28.942 14.266 C 28.055 14.152 27.168 14.063 26.268 13.962 C 26.166 13.949 26.09 13.936 26.078 13.81 C 26.001 13.188 25.925 12.567 25.837 11.883 C 26.28 12.326 26.749 12.288 27.218 12.073 C 27.535 11.933 27.751 11.68 27.801 11.337 C 27.89 10.767 27.814 10.222 27.484 9.727 C 26.889 8.84 25.647 8.916 25.266 9.74 C 25.203 9.879 25.14 9.841 25.026 9.791 C 24.366 9.436 23.999 8.675 24.126 7.889 C 24.138 7.8 24.164 7.724 24.164 7.635 C 24.176 7.331 24.062 7.204 23.758 7.191 L 23.543 7.191 C 24.214 6.507 24.937 5.898 25.875 5.645 C 26.787 5.404 27.548 5.67 28.093 6.519 C 28.448 5.962 28.803 5.442 29.208 4.909 C 28.574 4.732 28.004 4.96 27.446 5.188 Z M 48.335 13.987 C 48.55 14.697 48.664 15.407 48.563 16.117 C 48.373 17.474 47.498 18.336 46.142 18.577 C 44.393 18.881 42.834 18.374 41.414 17.385 C 40.324 16.624 39.45 15.635 38.676 14.558 C 37.992 13.594 37.282 12.631 36.471 11.768 C 36.053 11.325 35.596 10.906 35.115 10.513 C 35.039 10.45 34.937 10.399 34.887 10.272 C 35.47 10.386 35.989 10.615 36.484 10.868 C 37.929 11.591 39.209 12.567 40.426 13.607 C 41.604 14.634 42.948 15.318 44.507 15.572 C 45.179 15.686 45.85 15.686 46.509 15.534 C 47.473 15.318 47.942 14.913 48.335 13.987 Z" fill="var(--token-bb9eb254-5702-404a-9d47-07d085d7a077, rgb(0, 0, 0)) /* {&quot;name&quot;:&quot;Black&quot;} */"></path><path d="M 45.914 19.655 C 45.077 20.377 44.19 21.011 43.138 21.417 C 40.818 22.317 38.258 21.569 36.94 19.617 C 36.471 18.919 36.255 18.159 36.179 17.334 C 36.053 16.041 35.812 14.773 35.33 13.556 C 34.823 12.263 34.075 11.122 32.884 10.209 C 33.239 10.285 33.48 10.399 33.708 10.551 C 34.734 11.185 35.533 12.06 36.255 12.998 C 36.953 13.898 37.523 14.887 38.131 15.851 C 38.943 17.144 39.919 18.273 41.249 19.046 C 42.631 19.845 44.101 20.098 45.673 19.68 C 45.749 19.642 45.838 19.591 45.914 19.655 Z" fill="var(--token-bb9eb254-5702-404a-9d47-07d085d7a077, rgb(0, 0, 0)) /* {&quot;name&quot;:&quot;Black&quot;} */"></path><path d="M 33.087 11.426 C 33.378 11.718 33.581 12.009 33.759 12.326 C 34.418 13.442 34.709 14.659 34.887 15.927 C 35.001 16.713 34.988 17.512 35.039 18.298 C 35.191 20.555 36.623 22.216 38.854 22.672 C 38.993 22.697 39.12 22.723 39.297 22.761 C 38.905 22.938 38.524 23.002 38.144 23.091 C 36.902 23.369 35.66 23.534 34.392 23.306 C 32.808 23.014 31.832 21.886 31.781 20.276 C 31.743 19.224 32.009 18.222 32.415 17.258 C 33.188 15.458 33.416 13.594 33.074 11.667 C 33.099 11.591 33.099 11.528 33.087 11.426 Z M 52.137 32.08 C 52.492 31.18 52.834 30.33 53.164 29.468 C 53.417 28.821 53.671 28.187 53.912 27.541 C 53.975 27.389 54.051 27.325 54.216 27.338 C 54.545 27.351 54.888 27.351 55.23 27.338 C 55.369 27.338 55.42 27.376 55.42 27.528 L 55.42 33.386 C 55.42 33.525 55.382 33.55 55.242 33.563 C 54.507 33.601 54.507 33.601 54.507 32.879 L 54.507 28.39 C 54.406 28.416 54.419 28.504 54.393 28.555 C 53.76 30.14 53.126 31.725 52.505 33.31 C 52.429 33.512 52.327 33.563 52.124 33.563 C 51.934 33.563 51.833 33.512 51.757 33.322 C 51.136 31.737 50.489 30.153 49.868 28.568 C 49.843 28.504 49.818 28.454 49.754 28.39 L 49.754 33.297 C 49.754 33.512 49.691 33.563 49.488 33.55 C 48.842 33.538 48.842 33.55 48.842 32.891 C 48.842 31.129 48.842 29.379 48.829 27.617 C 48.829 27.363 48.905 27.3 49.146 27.313 C 49.437 27.338 49.729 27.338 50.008 27.313 C 50.198 27.3 50.287 27.376 50.35 27.553 C 50.895 28.948 51.44 30.343 51.985 31.75 C 52.036 31.852 52.086 31.953 52.137 32.08 Z M 46.066 6.697 C 45.635 7.8 45.077 8.814 43.797 9.131 C 43.125 9.296 42.479 9.131 41.87 8.84 C 40.869 8.358 39.868 7.889 38.778 7.635 C 38.245 7.521 37.713 7.445 37.105 7.42 C 37.422 7.267 37.675 7.141 37.929 7.001 C 38.372 6.76 38.778 6.469 39.183 6.164 C 39.919 5.607 40.73 5.226 41.68 5.239 C 42.2 5.239 42.669 5.378 43.1 5.67 C 43.417 5.885 43.746 6.088 44.051 6.317 C 44.596 6.722 45.191 6.836 45.85 6.697 C 45.901 6.684 45.964 6.672 46.015 6.672 C 46.015 6.646 46.028 6.659 46.066 6.697 Z M 26.927 52.911 C 24.43 53.164 22.237 51.098 22.326 48.562 C 22.402 46.356 24.126 44.581 26.318 44.442 C 28.498 44.315 30.4 45.849 30.767 48.03 C 30.78 48.144 30.805 48.245 30.818 48.359 L 30.818 49.044 C 30.793 49.158 30.767 49.285 30.755 49.399 C 30.501 51.009 29.183 52.429 27.637 52.771 C 27.586 52.531 27.649 52.277 27.675 52.036 C 27.7 52.023 27.738 52.023 27.725 51.985 C 27.827 52.023 27.903 51.96 27.991 51.922 C 28.6 51.656 29.094 51.263 29.474 50.717 C 29.791 50.261 30.032 49.779 30.057 49.209 C 30.121 48.968 30.121 48.727 30.095 48.473 C 30.095 48.423 30.108 48.359 30.108 48.309 C 29.918 46.825 29.132 45.798 27.713 45.316 C 26.306 44.835 25.013 45.152 23.999 46.242 C 22.947 47.37 22.744 48.689 23.34 50.109 C 23.783 51.174 25.013 52.34 26.939 52.201 C 26.927 52.454 26.927 52.683 26.927 52.911 Z M 40.78 48.347 C 40.869 46.432 42.454 44.746 44.405 44.492 C 47.054 44.15 49.336 46.191 49.247 48.866 C 49.171 51.212 47.105 53.088 44.76 52.936 L 44.596 52.936 C 44.38 52.898 44.165 52.873 43.949 52.835 C 43.556 52.708 43.151 52.569 42.796 52.34 C 41.617 51.58 40.907 50.527 40.78 49.107 C 41.034 49.107 41.262 49.196 41.503 49.247 C 41.604 50.451 42.682 51.732 43.873 52.049 C 44.101 52.176 44.367 52.201 44.621 52.226 C 44.874 52.226 45.128 52.252 45.381 52.226 C 46.788 52.074 48.018 51.06 48.411 49.716 C 48.816 48.359 48.36 46.863 47.27 45.976 C 46.142 45.05 44.596 44.885 43.315 45.583 C 42.187 46.204 41.592 47.193 41.452 48.473 C 41.224 48.423 40.996 48.385 40.78 48.347 Z M 42.53 4.149 C 41.908 4.022 41.3 4.022 40.679 4.123 C 39.754 4.288 38.955 4.719 38.309 5.404 C 37.637 6.126 36.877 6.71 35.913 6.989 C 35.102 7.217 34.266 7.217 33.416 7.242 C 34.646 6.634 35.47 5.632 36.192 4.529 C 36.56 3.958 36.991 3.426 37.548 3.02 C 38.499 2.335 39.5 2.196 40.59 2.665 C 41.376 2.982 41.997 3.515 42.53 4.149 Z M 36.636 33.665 C 34.861 33.665 33.404 32.207 33.416 30.444 C 33.429 28.656 34.861 27.224 36.636 27.224 C 38.436 27.224 39.868 28.656 39.868 30.457 C 39.881 32.219 38.41 33.665 36.636 33.665 Z M 36.623 32.84 C 37.929 32.84 38.955 31.814 38.955 30.482 C 38.968 29.138 37.941 28.061 36.648 28.061 C 35.343 28.061 34.329 29.088 34.316 30.432 C 34.316 31.788 35.305 32.828 36.623 32.84 Z M 5.151 30.241 C 5.595 30.508 5.912 30.85 6.013 31.332 C 6.279 32.498 5.519 33.474 4.264 33.538 C 3.618 33.576 2.959 33.55 2.299 33.55 C 2.16 33.55 2.135 33.5 2.135 33.373 L 2.135 27.515 C 2.135 27.427 2.122 27.325 2.274 27.325 C 2.946 27.351 3.618 27.275 4.289 27.376 C 4.923 27.477 5.392 27.82 5.595 28.466 C 5.798 29.138 5.722 29.734 5.151 30.241 Z M 3.047 31.737 L 3.047 32.549 C 3.047 32.663 3.073 32.714 3.199 32.714 C 3.554 32.701 3.909 32.726 4.264 32.701 C 4.758 32.663 5.126 32.27 5.151 31.775 C 5.177 31.306 4.822 30.875 4.34 30.787 C 3.96 30.71 3.58 30.761 3.199 30.748 C 3.06 30.748 3.047 30.812 3.047 30.926 C 3.06 31.192 3.047 31.471 3.047 31.737 Z M 3.047 29.024 L 3.047 29.747 C 3.047 29.861 3.073 29.924 3.199 29.924 C 3.491 29.912 3.782 29.924 4.061 29.899 C 4.479 29.861 4.758 29.557 4.784 29.138 C 4.809 28.644 4.594 28.327 4.163 28.213 C 3.846 28.137 3.516 28.175 3.187 28.162 C 3.073 28.162 3.047 28.225 3.047 28.314 C 3.06 28.568 3.047 28.796 3.047 29.024 Z M 11.108 33.538 C 11.032 33.55 11.007 33.55 10.994 33.55 C 10.665 33.55 10.31 33.639 10.031 33.512 C 9.752 33.398 9.626 33.018 9.435 32.752 C 8.941 32.08 8.459 31.395 7.927 30.647 L 7.927 32.98 C 7.927 33.538 7.927 33.525 7.357 33.55 C 7.065 33.563 7.014 33.474 7.014 33.195 C 7.027 31.344 7.027 29.493 7.014 27.642 C 7.014 27.363 7.091 27.3 7.357 27.313 C 8.028 27.338 8.7 27.287 9.372 27.351 C 10.487 27.465 11.108 28.137 11.159 29.24 C 11.21 30.305 10.639 30.989 9.549 31.218 C 9.511 31.23 9.473 31.23 9.41 31.256 C 9.968 32.016 10.525 32.764 11.108 33.538 Z M 7.927 29.341 L 7.927 30.381 C 7.927 30.47 7.914 30.546 8.054 30.546 C 8.523 30.533 9.004 30.584 9.461 30.419 C 10.018 30.229 10.285 29.823 10.247 29.252 C 10.209 28.733 9.841 28.34 9.296 28.225 C 8.89 28.137 8.472 28.187 8.066 28.175 C 7.94 28.175 7.914 28.238 7.914 28.34 C 7.927 28.669 7.927 29.012 7.927 29.341 Z M 29.804 30.444 L 29.804 33.297 C 29.804 33.474 29.779 33.55 29.563 33.55 C 28.891 33.538 28.891 33.55 28.891 32.866 C 28.891 32.27 28.879 31.674 28.891 31.078 C 28.891 30.888 28.841 30.85 28.663 30.85 C 27.966 30.863 27.282 30.863 26.585 30.85 C 26.356 30.85 26.331 30.926 26.331 31.116 C 26.344 31.839 26.331 32.574 26.344 33.297 C 26.344 33.487 26.306 33.55 26.103 33.55 C 25.431 33.55 25.431 33.55 25.431 32.891 L 25.431 27.63 C 25.431 27.401 25.482 27.325 25.723 27.338 C 26.356 27.351 26.356 27.338 26.356 27.959 L 26.356 29.785 C 26.356 29.95 26.369 30.038 26.572 30.026 C 27.282 30.013 27.991 30.013 28.701 30.026 C 28.891 30.026 28.904 29.962 28.904 29.798 C 28.891 29.062 28.904 28.327 28.891 27.579 C 28.891 27.376 28.942 27.325 29.145 27.325 C 29.804 27.325 29.804 27.325 29.804 27.972 Z M 31.54 48.347 C 31.794 46.064 33.568 44.429 35.787 44.442 C 37.992 44.442 39.83 46.14 40.007 48.347 L 40.007 49.082 C 39.842 50.882 38.575 52.366 36.864 52.797 C 36.864 52.543 36.826 52.29 36.915 52.036 C 38.233 51.554 39.019 50.629 39.272 49.247 C 39.386 48.993 39.31 48.727 39.323 48.473 C 39.221 46.635 37.688 45.164 35.85 45.152 C 33.923 45.139 32.39 46.559 32.263 48.461 C 32.009 48.423 31.769 48.385 31.54 48.347 Z" fill="var(--token-bb9eb254-5702-404a-9d47-07d085d7a077, rgb(0, 0, 0)) /* {&quot;name&quot;:&quot;Black&quot;} */"></path><path d="M 39.31 48.473 C 39.31 48.727 39.374 48.993 39.259 49.247 C 38.524 49.462 37.954 49.906 37.51 50.515 C 37.181 50.971 36.94 51.466 36.902 52.036 C 36.813 52.277 36.851 52.543 36.851 52.797 L 36.851 53.025 C 37.016 54.394 38.03 55.611 39.323 55.979 C 40.73 56.385 42.187 55.941 43.1 54.838 C 43.582 54.255 43.81 53.558 43.924 52.822 C 44.139 52.86 44.355 52.886 44.57 52.924 C 44.608 53.456 44.431 53.938 44.215 54.394 C 43.62 55.637 42.644 56.486 41.287 56.727 C 38.626 57.196 36.572 55.662 36.167 53.164 C 36.154 53.076 36.129 53 36.116 52.924 L 36.116 52.239 C 36.129 52.188 36.154 52.138 36.154 52.074 C 36.458 50.21 37.523 49.019 39.31 48.473 Z M 27.675 52.049 C 27.649 52.29 27.586 52.531 27.637 52.784 C 27.649 52.898 27.662 53.025 27.675 53.139 C 27.979 54.914 29.525 56.182 31.287 56.119 C 33.112 56.043 34.544 54.673 34.696 52.822 C 34.937 52.809 35.165 52.898 35.394 52.924 C 35.254 54.496 34.456 55.624 33.087 56.372 C 32.44 56.727 31.743 56.753 31.033 56.765 C 29.817 56.791 28.866 56.309 28.055 55.459 C 27.37 54.749 27.015 53.874 26.927 52.898 L 26.927 52.214 C 26.99 51.668 27.117 51.136 27.383 50.641 C 27.979 49.538 28.841 48.79 30.083 48.486 C 30.108 48.727 30.108 48.981 30.045 49.221 C 29.348 49.45 28.777 49.855 28.346 50.451 C 28.004 50.908 27.725 51.402 27.725 51.998 C 27.675 51.985 27.675 52.023 27.675 52.049 Z M 56.497 30.444 L 56.497 27.591 C 56.497 27.401 56.548 27.338 56.751 27.338 C 57.423 27.363 58.094 27.313 58.766 27.376 C 59.856 27.49 60.503 28.187 60.49 29.24 C 60.477 30.292 59.805 31.002 58.703 31.078 C 58.373 31.103 58.031 31.103 57.701 31.091 C 57.461 31.078 57.41 31.167 57.41 31.395 C 57.423 32.042 57.41 32.688 57.423 33.322 C 57.423 33.512 57.372 33.55 57.182 33.55 C 56.497 33.55 56.497 33.563 56.497 32.879 Z M 57.423 29.202 L 57.423 30.102 C 57.423 30.216 57.448 30.279 57.575 30.267 C 57.942 30.254 58.322 30.292 58.69 30.229 C 59.235 30.153 59.565 29.772 59.577 29.24 C 59.59 28.682 59.273 28.314 58.715 28.2 C 58.335 28.124 57.955 28.162 57.575 28.149 C 57.448 28.149 57.41 28.2 57.423 28.314 Z M 23.745 28.961 L 23.492 28.961 C 23.365 28.973 23.302 28.935 23.276 28.783 C 23.213 28.327 22.883 28.061 22.427 28.061 C 22.034 28.061 21.692 28.365 21.616 28.771 C 21.553 29.126 21.717 29.455 22.11 29.62 C 22.44 29.772 22.795 29.874 23.124 30.013 C 24.113 30.419 24.531 31.23 24.29 32.27 C 24.088 33.183 23.264 33.728 22.237 33.652 C 21.337 33.589 20.602 32.853 20.539 31.966 C 20.526 31.763 20.564 31.661 20.779 31.699 L 20.893 31.699 C 21.058 31.699 21.236 31.661 21.362 31.712 C 21.515 31.775 21.451 31.991 21.502 32.13 C 21.654 32.587 21.996 32.828 22.503 32.815 C 22.96 32.79 23.314 32.511 23.403 32.08 C 23.517 31.547 23.365 31.18 22.896 30.964 C 22.541 30.787 22.148 30.672 21.793 30.508 C 20.855 30.077 20.475 29.24 20.817 28.34 C 21.16 27.439 22.072 27.021 23.048 27.313 C 23.707 27.515 24.088 27.972 24.202 28.644 C 24.252 28.897 24.176 28.986 23.923 28.948 C 23.859 28.948 23.809 28.961 23.745 28.961 Z M 56.434 38.749 L 56.434 35.503 C 56.434 35.414 56.371 35.262 56.51 35.249 C 56.713 35.224 56.916 35.199 57.106 35.275 C 57.131 35.287 57.131 35.389 57.131 35.452 L 57.131 39.763 C 57.131 39.928 57.093 39.979 56.916 39.991 C 56.548 40.029 56.333 39.915 56.13 39.586 C 55.483 38.508 54.786 37.456 54.102 36.378 C 54 36.467 54.038 36.581 54.038 36.669 C 54.038 37.684 54.026 38.685 54.038 39.7 C 54.038 39.941 53.962 40.017 53.734 39.979 C 53.671 39.966 53.607 39.966 53.544 39.979 C 53.367 40.004 53.329 39.928 53.329 39.763 L 53.329 35.414 C 53.329 35.262 53.379 35.224 53.531 35.211 C 53.937 35.161 54.178 35.3 54.393 35.668 C 54.976 36.644 55.61 37.595 56.218 38.546 C 56.256 38.609 56.307 38.685 56.358 38.749 Z M 45.622 30.203 C 45.724 30.153 45.736 30.051 45.774 29.975 C 46.155 29.176 46.535 28.378 46.89 27.566 C 46.966 27.401 47.054 27.325 47.245 27.338 C 47.473 27.351 47.714 27.338 47.942 27.338 C 47.98 27.465 47.904 27.541 47.866 27.617 C 47.321 28.771 46.763 29.924 46.205 31.065 C 46.129 31.218 46.091 31.37 46.091 31.547 C 46.104 32.13 46.091 32.726 46.091 33.31 C 46.091 33.487 46.066 33.55 45.863 33.55 C 45.179 33.55 45.141 33.55 45.191 32.879 C 45.28 31.814 45.052 30.85 44.52 29.912 C 44.089 29.151 43.746 28.34 43.353 27.553 C 43.265 27.389 43.265 27.338 43.493 27.313 C 44.076 27.224 44.393 27.439 44.608 27.997 C 44.9 28.771 45.28 29.468 45.622 30.203 Z M 50.02 40.08 C 48.652 40.067 47.561 38.964 47.561 37.595 C 47.561 36.213 48.69 35.123 50.071 35.135 C 51.44 35.148 52.517 36.264 52.505 37.646 C 52.492 38.99 51.377 40.08 50.02 40.08 Z M 50.046 35.782 C 49.032 35.782 48.259 36.581 48.259 37.608 C 48.259 38.635 49.044 39.446 50.046 39.433 C 51.034 39.433 51.82 38.622 51.82 37.62 C 51.82 36.593 51.034 35.782 50.046 35.782 Z M 28.448 40.08 C 27.079 40.08 25.976 38.977 25.976 37.608 C 25.976 36.226 27.079 35.123 28.473 35.135 C 29.829 35.135 30.919 36.238 30.919 37.608 C 30.919 38.964 29.817 40.067 28.448 40.08 Z M 28.448 39.433 C 29.436 39.433 30.222 38.622 30.235 37.62 C 30.235 36.593 29.462 35.769 28.46 35.769 C 27.446 35.769 26.673 36.568 26.661 37.595 C 26.661 38.635 27.446 39.446 28.448 39.433 Z M 15.405 30.863 L 15.405 28.428 C 15.405 28.238 15.355 28.162 15.164 28.175 C 14.936 28.187 14.695 28.175 14.467 28.175 C 14.417 28.175 14.353 28.187 14.328 28.175 C 14.1 27.997 14.265 27.756 14.226 27.541 C 14.201 27.439 14.214 27.338 14.366 27.338 C 15.367 27.338 16.369 27.3 17.37 27.363 C 17.712 27.376 17.446 27.769 17.509 27.972 C 17.547 28.073 17.522 28.187 17.357 28.187 C 17.091 28.175 16.838 28.2 16.571 28.175 C 16.369 28.162 16.318 28.238 16.331 28.428 C 16.343 30.038 16.331 31.649 16.343 33.246 C 16.343 33.512 16.267 33.576 16.014 33.563 C 15.418 33.55 15.418 33.563 15.418 32.967 C 15.405 32.257 15.405 31.56 15.405 30.863 Z M 40.742 30.47 L 40.742 27.617 C 40.742 27.414 40.768 27.338 40.996 27.338 C 41.655 27.351 41.655 27.338 41.655 27.985 L 41.655 32.409 C 41.655 32.638 41.693 32.739 41.959 32.726 C 42.504 32.701 43.037 32.726 43.582 32.714 C 43.746 32.714 43.822 32.739 43.822 32.942 C 43.822 33.55 43.835 33.55 43.214 33.55 L 40.971 33.55 C 40.793 33.55 40.73 33.5 40.73 33.322 C 40.742 32.371 40.742 31.42 40.742 30.47 Z M 38.436 39.991 C 38.79 39.053 39.133 38.153 39.475 37.265 C 39.716 36.644 39.957 36.036 40.172 35.402 C 40.261 35.161 40.426 35.237 40.578 35.224 C 40.73 35.224 40.869 35.186 40.945 35.402 C 41.49 36.86 42.035 38.318 42.593 39.763 C 42.669 39.966 42.606 39.991 42.428 39.991 C 41.934 39.991 41.934 39.991 41.769 39.535 C 41.668 39.269 41.566 39.015 41.478 38.749 C 41.44 38.622 41.376 38.571 41.237 38.571 C 40.78 38.584 40.324 38.584 39.868 38.571 C 39.728 38.571 39.678 38.622 39.627 38.749 C 39.513 39.078 39.374 39.408 39.259 39.75 C 39.196 39.928 39.12 40.017 38.917 39.991 C 38.778 39.979 38.626 39.991 38.436 39.991 Z M 40.59 36.2 L 40.54 36.2 C 40.362 36.746 40.172 37.278 39.995 37.823 C 39.957 37.937 40.02 37.95 40.109 37.95 L 40.996 37.95 C 41.11 37.95 41.148 37.912 41.11 37.798 C 40.945 37.265 40.768 36.733 40.59 36.2 Z M 14.214 39.991 C 14.556 39.104 14.873 38.242 15.202 37.392 C 15.456 36.733 15.709 36.074 15.95 35.402 C 16.039 35.161 16.191 35.224 16.356 35.224 C 16.508 35.224 16.647 35.173 16.736 35.402 C 17.281 36.86 17.826 38.318 18.384 39.763 C 18.46 39.966 18.409 39.991 18.219 39.991 C 17.725 39.991 17.737 39.991 17.56 39.535 C 17.459 39.269 17.357 39.015 17.268 38.749 C 17.23 38.622 17.167 38.571 17.028 38.571 C 16.571 38.584 16.115 38.584 15.659 38.571 C 15.519 38.571 15.456 38.622 15.418 38.749 C 15.304 39.078 15.164 39.395 15.063 39.725 C 15 39.941 14.886 40.017 14.657 39.991 C 14.518 39.979 14.391 39.991 14.214 39.991 Z M 16.369 36.2 C 16.343 36.2 16.331 36.2 16.305 36.188 C 16.128 36.707 15.95 37.24 15.773 37.76 C 15.722 37.899 15.786 37.937 15.912 37.937 C 16.191 37.937 16.47 37.925 16.749 37.937 C 16.901 37.937 16.926 37.887 16.888 37.76 C 16.711 37.24 16.533 36.72 16.369 36.2 Z M 36.192 38.812 C 35.685 39.776 34.544 40.27 33.492 40.004 C 32.39 39.725 31.604 38.723 31.604 37.582 C 31.604 36.441 32.377 35.465 33.518 35.186 C 34.57 34.932 35.71 35.44 36.23 36.429 C 35.85 36.378 35.495 36.53 35.165 36.2 C 34.684 35.719 34.075 35.642 33.454 35.883 C 32.795 36.137 32.415 36.644 32.326 37.329 C 32.187 38.47 33.049 39.459 34.126 39.421 C 34.494 39.408 34.836 39.294 35.089 39.028 C 35.292 38.812 35.52 38.774 35.787 38.787 C 35.913 38.825 36.04 38.812 36.192 38.812 Z M 24.81 36.467 C 24.62 36.517 24.506 36.441 24.455 36.188 C 24.392 35.909 24.113 35.757 23.796 35.782 C 23.53 35.795 23.302 35.997 23.226 36.251 C 23.15 36.543 23.238 36.796 23.517 36.936 C 23.796 37.075 24.088 37.164 24.366 37.291 C 25.026 37.582 25.304 37.988 25.292 38.673 C 25.279 39.446 24.747 40.017 23.973 40.067 C 23.162 40.131 22.529 39.636 22.389 38.876 C 22.351 38.66 22.376 38.559 22.643 38.571 C 22.896 38.584 23.086 38.546 23.137 38.914 C 23.188 39.281 23.517 39.459 23.885 39.433 C 24.24 39.421 24.493 39.193 24.569 38.85 C 24.645 38.444 24.544 38.178 24.189 38.013 C 23.885 37.874 23.568 37.76 23.264 37.62 C 22.693 37.354 22.414 36.822 22.529 36.226 C 22.655 35.579 23.137 35.161 23.796 35.135 C 24.442 35.11 24.975 35.465 25.14 36.048 C 25.266 36.441 25.254 36.467 24.81 36.467 Z M 21.236 36.467 C 21.071 36.492 20.932 36.479 20.881 36.2 C 20.83 35.909 20.551 35.769 20.234 35.782 C 19.956 35.795 19.715 35.997 19.651 36.264 C 19.575 36.555 19.677 36.809 19.968 36.936 C 20.272 37.075 20.589 37.177 20.893 37.316 C 21.451 37.57 21.73 38.001 21.717 38.622 C 21.717 39.421 21.198 39.991 20.412 40.055 C 19.588 40.118 18.954 39.636 18.802 38.863 C 18.764 38.622 18.827 38.559 19.068 38.559 C 19.334 38.559 19.499 38.559 19.563 38.901 C 19.613 39.269 19.943 39.446 20.323 39.421 C 20.678 39.395 20.932 39.18 21.008 38.825 C 21.096 38.432 20.97 38.153 20.627 37.988 C 20.323 37.849 20.006 37.734 19.702 37.595 C 19.119 37.329 18.853 36.796 18.967 36.175 C 19.094 35.554 19.575 35.135 20.222 35.11 C 20.868 35.085 21.4 35.44 21.565 36.023 C 21.692 36.441 21.667 36.467 21.236 36.467 Z M 18.587 30.432 L 18.587 27.579 C 18.587 27.401 18.625 27.338 18.815 27.338 C 19.499 27.338 19.499 27.325 19.499 28.01 L 19.499 33.272 C 19.499 33.474 19.461 33.563 19.233 33.55 C 18.587 33.538 18.587 33.55 18.587 32.891 Z M 62.429 30.444 L 62.429 33.297 C 62.429 33.474 62.404 33.563 62.201 33.55 C 61.529 33.55 61.529 33.55 61.529 32.866 L 61.529 27.604 C 61.529 27.389 61.58 27.325 61.808 27.325 C 62.442 27.338 62.442 27.325 62.442 27.972 Z M 13.136 30.444 C 13.136 31.395 13.124 32.346 13.136 33.297 C 13.136 33.512 13.073 33.55 12.87 33.55 C 12.224 33.538 12.224 33.55 12.224 32.891 L 12.224 27.604 C 12.224 27.376 12.287 27.325 12.503 27.325 C 13.136 27.338 13.136 27.325 13.136 27.946 Z M 44.304 37.937 C 44.304 38.546 44.291 39.154 44.304 39.75 C 44.304 39.953 44.253 40.004 44.051 39.991 C 43.594 39.979 43.594 39.991 43.594 39.535 L 43.594 36.124 C 43.594 35.921 43.556 35.82 43.341 35.858 C 43.239 35.871 43.138 35.845 43.037 35.858 C 42.745 35.909 42.656 35.782 42.682 35.503 C 42.694 35.3 42.72 35.211 42.961 35.224 C 43.632 35.237 44.304 35.237 44.976 35.224 C 45.166 35.224 45.229 35.262 45.229 35.465 C 45.217 35.858 45.229 35.858 44.824 35.858 C 44.481 35.858 44.317 36.023 44.317 36.365 C 44.304 36.885 44.304 37.405 44.304 37.937 Z" fill="var(--token-bb9eb254-5702-404a-9d47-07d085d7a077, rgb(0, 0, 0)) /* {&quot;name&quot;:&quot;Black&quot;} */"></path><path d="M 40.007 49.069 L 40.007 48.334 C 40.261 48.334 40.514 48.334 40.768 48.347 C 40.996 48.385 41.211 48.423 41.44 48.461 C 41.566 48.499 41.693 48.537 41.807 48.587 C 43.455 49.247 44.418 50.439 44.608 52.226 C 44.355 52.188 44.089 52.176 43.86 52.049 C 43.784 50.882 42.758 49.652 41.49 49.247 C 41.249 49.183 41.021 49.095 40.768 49.107 C 40.527 49.019 40.273 49.031 40.007 49.069 Z M 31.54 48.347 C 31.781 48.385 32.009 48.423 32.25 48.461 L 32.592 48.575 C 34.151 49.12 35.343 50.654 35.394 52.214 C 35.14 52.201 34.899 52.15 34.658 52.049 C 34.532 51.225 34.164 50.527 33.543 49.969 C 33.175 49.64 32.77 49.348 32.276 49.247 C 32.047 49.133 31.794 49.095 31.54 49.082 C 31.3 49.006 31.046 49.057 30.793 49.044 L 30.793 48.359 C 31.059 48.309 31.3 48.347 31.54 48.347 Z" fill="var(--token-bb9eb254-5702-404a-9d47-07d085d7a077, rgb(0, 0, 0)) /* {&quot;name&quot;:&quot;Black&quot;} */"></path><path d="M 31.553 49.082 C 31.807 49.095 32.06 49.133 32.288 49.247 C 32.554 50.629 33.34 51.567 34.671 52.036 C 34.899 52.15 35.153 52.188 35.406 52.201 C 35.647 52.201 35.901 52.214 36.141 52.214 L 36.141 52.898 C 35.901 52.962 35.647 52.911 35.406 52.924 C 35.178 52.898 34.95 52.809 34.709 52.822 C 34.671 52.746 34.595 52.759 34.544 52.733 C 32.783 52.138 31.781 50.92 31.553 49.082 Z M 46.725 37.646 L 46.725 39.75 C 46.725 39.941 46.687 40.004 46.484 40.004 C 46.015 39.991 46.015 40.004 46.015 39.548 L 46.015 35.516 C 46.015 35.287 46.066 35.186 46.307 35.224 C 46.383 35.237 46.459 35.237 46.535 35.224 C 46.7 35.199 46.738 35.275 46.738 35.427 C 46.725 36.175 46.725 36.91 46.725 37.646 Z M 37.688 37.646 C 37.688 38.343 37.675 39.04 37.688 39.75 C 37.688 39.941 37.65 40.004 37.447 40.004 C 36.978 39.991 36.978 40.004 36.978 39.548 L 36.978 35.516 C 36.978 35.287 37.041 35.186 37.269 35.224 C 37.346 35.237 37.422 35.237 37.498 35.224 C 37.662 35.199 37.7 35.275 37.7 35.427 C 37.688 36.175 37.688 36.91 37.688 37.646 Z M 45.914 19.655 C 45.888 19.642 45.876 19.629 45.888 19.604 L 45.901 19.604 C 45.914 19.629 45.914 19.642 45.914 19.655 Z M 23.568 7.191 C 23.568 7.204 23.555 7.217 23.555 7.229 C 23.517 7.191 23.555 7.204 23.568 7.191 Z M 32.478 6.862 C 32.466 6.874 32.466 6.887 32.453 6.9 C 32.428 6.849 32.453 6.849 32.478 6.862 Z M 27.446 5.175 C 27.434 5.175 27.421 5.188 27.408 5.188 L 27.408 5.163 C 27.421 5.175 27.434 5.188 27.446 5.175 Z" fill="var(--token-bb9eb254-5702-404a-9d47-07d085d7a077, rgb(0, 0, 0)) /* {&quot;name&quot;:&quot;Black&quot;} */"></path></svg></defs><use href="#svg11804945512"></use></svg>