<svg xmlns:xlink="http://www.w3.org/1999/xlink" xmlns="http://www.w3.org/2000/svg" style="width:100%;height:100%;" width="100"  height="56" ><defs><svg viewBox="0 0 99.524 55.852" id="svg12135478925"><path d="M 19.328 35.008 L 19.328 35.008 M 31.232 41.675 L 31.123 41.675 L 31.123 42.05 C 31.144 42.052 31.173 42.054 31.237 42.054 C 31.388 42.054 31.496 41.979 31.496 41.856 C 31.496 41.734 31.394 41.675 31.231 41.675 Z" fill="var(--token-bb9eb254-5702-404a-9d47-07d085d7a077, rgb(0, 0, 0)) /* {&quot;name&quot;:&quot;Black&quot;} */"></path><path d="M 31.255 41.179 C 30.735 41.179 30.301 41.594 30.301 42.127 C 30.301 42.66 30.735 43.071 31.255 43.071 C 31.774 43.071 32.206 42.659 32.206 42.127 C 32.206 41.595 31.774 41.179 31.255 41.179 Z M 31.798 42.665 L 31.526 42.665 L 31.291 42.22 C 31.266 42.222 31.242 42.223 31.219 42.223 C 31.182 42.223 31.148 42.223 31.123 42.222 L 31.123 42.485 L 31.269 42.485 L 31.269 42.664 L 30.787 42.664 L 30.787 42.485 L 30.921 42.485 L 30.921 41.675 L 30.787 41.675 L 30.787 41.495 L 31.242 41.495 C 31.512 41.495 31.705 41.61 31.705 41.849 C 31.705 42 31.612 42.115 31.483 42.167 L 31.663 42.485 L 31.797 42.485 L 31.797 42.664 Z" fill="var(--token-bb9eb254-5702-404a-9d47-07d085d7a077, rgb(0, 0, 0)) /* {&quot;name&quot;:&quot;Black&quot;} */"></path><path d="M 29.83 11.731 C 30.891 11.731 31.445 12.229 31.812 13.274 C 31.967 13.721 32.102 14.53 33.124 14.756 C 34.389 15.031 35.093 15.43 35.496 16.043 C 35.819 16.534 35.81 17.309 35.67 17.777 C 35.535 18.246 35.435 18.539 35.827 18.968 C 36.166 19.339 36.399 19.944 36.103 20.743 C 35.81 21.543 35.021 22.242 33.496 22.324 C 32.771 22.363 31.731 22.218 31.792 21.856 C 31.812 21.74 31.88 21.644 32.156 21.334 C 32.346 21.114 32.475 20.785 32.518 20.47 C 32.584 19.969 32.34 19.466 31.939 19.031 C 31.721 18.797 31.656 18.579 31.793 18.15 C 31.931 17.721 31.967 17.466 31.967 16.959 C 31.967 16.335 31.555 15.528 30.852 15.307 C 29.989 15.034 29.046 15.184 28.301 15.829 C 28.301 15.829 27.636 15.36 27.636 14.444 C 27.636 13.528 28.595 11.732 29.83 11.732 Z M 21.825 28.101 C 20.436 27.509 19.836 25.794 19.836 25.794 C 19.151 25.853 18.494 25.82 17.581 25.325 C 16.39 24.685 15.514 23.031 15.455 21.802 C 15.395 20.572 16.15 20.099 16.915 19.476 C 17.681 18.85 17.523 18.267 17.348 17.818 C 17.173 17.368 17.049 17.042 17.248 16.511 C 17.523 15.79 18.319 15.483 18.994 15.534 C 19.707 15.594 20.344 15.964 20.344 15.964 C 18.719 17.663 18.906 19.929 19.435 21.411 C 19.963 22.894 21.629 24.122 23.275 24.687 C 24.921 25.254 26.567 25.118 26.567 25.118 C 26.665 26.073 26.109 27.161 25.637 27.551 C 24.291 28.665 22.796 28.513 21.825 28.1 Z M 24.952 28.331 C 24.922 29.082 24.608 31.268 23.384 31.977 C 22.876 32.275 21.737 32.448 20.62 32.02 C 19.502 31.588 18.971 30.838 18.678 30.517 C 18.122 29.897 17.377 29.134 15.543 28.857 C 13.815 28.595 12.293 27.869 12.56 25.99 C 12.787 24.364 14.377 23.983 15.257 24.008 C 15.384 24.013 15.623 24.114 15.698 24.231 C 15.912 24.567 16.397 25.251 16.976 25.611 C 17.761 26.1 18.677 26.261 19.561 26.265 C 19.561 26.265 19.976 28.061 21.402 28.664 C 22.57 29.155 23.883 28.96 24.951 28.332 Z M 31.616 19.339 C 32.124 20.004 31.91 20.939 31.616 21.329 C 31.322 21.719 30.712 22.401 29.479 22.519 C 28.245 22.637 28.008 22.459 28.008 22.459 C 28.008 22.459 28.881 21.919 29.505 20.84 C 29.909 20.147 30.125 19.343 29.929 18.58 C 29.646 17.47 28.477 17.154 27.988 17.154 C 27.988 17.154 28.205 16.199 28.931 15.848 C 29.653 15.497 30.439 15.535 30.849 15.75 C 31.534 16.108 31.653 16.803 31.441 17.582 C 31.226 18.364 31.106 18.675 31.616 19.339 Z M 28.935 18.012 C 29.615 18.788 29.52 19.838 28.855 21.009 C 28.19 22.179 27.254 22.452 26.648 22.413 C 26.039 22.374 25.799 22.295 25.521 22.167 C 25.521 22.167 26.622 22.089 27.3 21.295 C 27.78 20.736 27.714 20.005 27.432 19.525 C 27.26 19.239 26.982 19.015 26.777 18.889 C 26.295 18.591 25.402 18.481 24.933 18.656 C 24.933 18.656 25.678 17.35 27.186 17.35 C 27.912 17.35 28.503 17.526 28.935 18.012 Z M 24.952 21.446 C 24.481 21.173 24.307 20.657 24.344 20.121 C 24.375 19.672 24.601 19.164 24.954 18.85 C 25.097 19.657 25.555 19.807 25.745 19.85 C 25.91 19.889 26.137 19.898 26.42 19.84 C 26.782 19.767 26.967 20.018 27.001 20.274 C 27.021 20.425 27.009 20.883 26.609 21.255 C 26.252 21.585 25.422 21.718 24.952 21.445 Z M 25.411 16.887 C 24.022 17.335 22.756 18.256 22.022 19.753 C 21.382 21.056 21.61 22.406 21.649 22.739 C 21.689 23.07 21.64 23.241 21.443 23.105 C 20.223 22.252 19.582 20.729 19.582 19.496 C 19.582 18.618 19.768 17.919 20.277 17.022 C 20.79 16.126 21.532 15.697 22.246 15.497 C 22.803 15.342 23.561 15.36 23.561 15.36 C 23.795 15.068 24.454 14.761 24.932 14.737 C 26.531 14.655 27.471 15.834 27.912 16.687 C 27.382 16.608 26.244 16.617 25.411 16.887 Z M 25.167 24.606 C 22.756 24.508 21.954 23.415 22.05 21.623 C 22.161 19.592 23.873 17.995 25.108 17.428 C 23.599 19.71 23.784 21.119 24.324 21.953 C 24.817 22.715 25.93 23.026 26.929 23.067 C 27.933 23.106 29.596 22.891 29.87 22.832 C 30.146 22.772 30.164 22.909 30.066 22.968 C 29.97 23.026 27.578 24.702 25.167 24.606 Z M 26.851 26.48 C 27.23 25.628 27.014 25.054 26.873 24.665 C 29.184 24.451 30.596 23.162 30.83 22.949 C 31.065 22.733 31.34 22.637 31.712 22.597 C 32.318 22.533 33.762 22.754 34.301 23.612 C 34.781 24.377 34.585 25.489 34.113 26.248 C 33.526 27.201 32.6 27.346 32.144 27.357 C 31.69 27.368 31.492 27.507 31.42 27.884 C 31.272 28.649 30.999 29.33 30.293 29.682 C 29.689 29.983 28.227 30.186 27.325 29.326 C 26.42 28.471 26.531 27.203 26.851 26.48 Z M 19.578 10.553 C 20.204 10.568 20.715 10.717 21.263 10.851 C 21.813 10.988 22.229 11.016 22.502 10.99 C 22.885 10.956 23.421 10.855 23.833 10.564 C 24.159 10.333 24.739 10.099 25.185 10.053 C 25.678 10.007 26.146 10.094 26.44 10.212 C 27.359 10.578 27.795 11.361 27.773 12.397 C 27.75 13.528 27.206 14.407 27.009 14.6 C 26.813 14.795 26.577 14.776 26.244 14.659 C 25.91 14.541 25.481 14.348 24.872 14.348 C 24.264 14.348 23.693 14.599 23.343 14.951 C 23.343 14.951 22.462 14.91 21.855 15.145 C 21.247 15.381 21.031 15.518 20.876 15.615 C 20.876 15.615 20.236 15.584 19.66 15.302 C 18.99 14.976 17.524 13.975 17.524 12.512 C 17.524 11.05 18.781 10.536 19.578 10.553 Z M 12.84 16.803 C 12.653 16.439 12.438 15.834 12.632 14.976 C 12.786 14.312 13.585 12.961 15.271 12.961 C 16.404 12.961 18.055 13.624 18.328 15.261 C 18.328 15.261 17.201 14.761 16.583 15.535 C 16.036 16.22 16.404 17.078 16.542 17.526 C 16.679 17.975 16.792 18.388 16.679 18.774 C 16.552 19.208 16.337 19.482 15.581 19.945 C 14.923 20.352 14.757 21.041 14.721 21.487 C 14.651 22.308 14.938 23.182 15.563 23.669 C 15.563 23.669 14.592 24.046 13.544 23.633 C 12.385 23.174 11.741 22.187 11.741 20.96 C 11.741 19.734 12.446 19.067 12.683 18.813 C 12.917 18.559 13.172 18.152 13.172 17.741 C 13.172 17.331 12.948 17.022 12.84 16.804 Z M 31.255 43.256 C 30.621 43.256 30.117 42.756 30.117 42.128 C 30.117 41.5 30.621 40.997 31.255 40.997 C 31.889 40.997 32.392 41.498 32.392 42.128 C 32.392 42.757 31.893 43.256 31.255 43.256 Z M 36.312 38.101 C 36.155 38.101 35.888 38.067 35.887 38.067 C 35.887 38.069 36.367 39.415 36.154 41.096 C 36.154 41.1 36.153 41.103 36.153 41.106 C 36.14 41.193 36.095 41.264 36.04 41.293 C 35.967 41.334 35.874 41.299 35.816 41.124 C 35.71 40.811 35.397 40.264 34.638 39.875 C 33.883 39.483 33.464 39.459 33.176 39.431 C 33.176 39.431 33.154 39.455 33.154 39.613 C 33.154 39.787 33.03 39.777 32.837 39.744 C 32.312 39.651 30.878 39.17 30.093 38.341 C 30.093 38.341 30.017 38.599 29.84 38.657 C 29.84 38.657 29.272 38.636 28.916 37.663 C 28.649 36.927 28.258 35.057 27.452 34.461 C 26.763 33.955 25.749 33.731 24.788 33.971 C 24.059 34.149 23.041 34.56 22.623 34.822 C 22.624 34.822 22.801 34.799 23.08 34.783 C 23.701 34.746 24.826 34.74 25.607 35.086 C 26.475 35.47 26.96 36.05 27.171 36.431 C 27.217 36.515 27.25 36.59 27.271 36.65 C 27.361 36.915 27.354 36.957 27.108 36.994 L 27.086 36.997 L 27.082 36.997 C 26.976 37.013 26.905 37.027 26.88 37.057 C 26.858 37.085 26.877 37.126 26.948 37.195 C 27.018 37.264 26.948 37.195 26.949 37.196 C 26.97 37.216 26.996 37.24 27.028 37.267 C 27.231 37.438 27.739 37.917 28 38.489 C 28.067 38.636 28.119 38.788 28.145 38.944 C 28.164 39.056 28.173 39.117 28.148 39.147 C 28.123 39.176 28.065 39.173 27.95 39.158 C 27.793 39.139 27.696 39.158 27.793 39.354 C 27.807 39.381 27.823 39.416 27.842 39.459 C 27.961 39.728 28.167 40.302 28.226 40.992 C 28.244 41.226 28.226 41.303 28.065 41.343 C 27.993 41.362 27.914 41.445 27.87 41.621 C 27.869 41.627 27.868 41.632 27.867 41.638 L 27.862 41.658 C 27.856 41.688 27.851 41.72 27.847 41.755 C 27.84 41.808 27.836 41.867 27.835 41.933 C 27.833 42.114 27.854 42.342 27.912 42.629 C 27.934 42.744 27.964 42.847 27.998 42.94 C 28.114 43.257 28.284 43.456 28.391 43.591 C 28.397 43.598 28.402 43.606 28.407 43.613 C 28.458 43.687 28.474 43.756 28.458 43.807 C 28.457 43.809 28.457 43.811 28.456 43.813 C 28.455 43.816 28.453 43.819 28.452 43.822 C 28.45 43.827 28.447 43.831 28.444 43.835 C 28.444 43.836 28.443 43.837 28.442 43.839 C 28.438 43.844 28.434 43.848 28.43 43.852 L 28.427 43.856 L 28.423 43.859 L 28.423 43.859 C 28.388 43.887 28.331 43.898 28.253 43.885 C 27.865 43.815 26.334 43.436 25.393 42.148 C 25.393 42.148 25.274 42.246 25.158 42.325 C 25.04 42.402 25.02 42.432 24.825 42.352 C 24.629 42.275 24.1 41.885 23.904 41.554 C 23.904 41.554 23.845 41.583 23.709 41.641 C 23.57 41.701 23.451 41.727 23.337 41.611 C 23.219 41.495 22.396 40.449 22.494 39.437 C 22.494 39.437 22.364 39.424 22.189 39.377 C 22.163 39.372 22.094 39.313 22.073 39.231 C 21.998 38.944 21.867 38.215 22.204 37.578 C 22.559 36.914 22.559 36.398 22.483 36.073 C 22.413 35.771 22.062 35.534 21.797 35.433 C 21.427 35.29 21.366 35.375 21.15 35.472 C 20.935 35.571 18.584 36.915 17.467 37.618 L 17.467 37.619 L 17.467 37.618 C 17.467 37.618 17.464 37.649 17.52 37.694 C 17.629 37.779 17.956 37.909 18.946 37.955 C 19.048 37.96 19.147 37.965 19.244 37.972 C 19.836 38.01 20.355 38.086 20.794 38.311 C 21.203 38.521 21.543 38.86 21.808 39.418 C 22.277 40.413 22.138 41.193 22.118 41.447 C 22.115 41.506 22.097 41.55 22.068 41.577 L 22.066 41.578 C 22.064 41.581 22.061 41.582 22.058 41.584 C 22.056 41.585 22.055 41.587 22.053 41.588 C 22.049 41.59 22.046 41.593 22.041 41.595 C 22.04 41.595 22.039 41.596 22.038 41.597 C 22.002 41.613 21.956 41.61 21.905 41.584 C 21.868 41.565 21.843 41.554 21.825 41.553 C 21.787 41.552 21.787 41.599 21.787 41.719 C 21.787 41.811 21.77 42.3 21.638 42.862 C 21.517 43.373 21.301 43.944 20.912 44.329 C 20.853 44.388 20.811 44.413 20.759 44.406 C 20.694 44.398 20.614 44.34 20.47 44.238 C 20.465 44.234 20.46 44.231 20.455 44.227 C 20.455 44.227 20.235 44.665 20.032 45.063 C 20.016 45.095 20 45.126 19.984 45.156 C 19.871 45.378 19.768 45.574 19.721 45.655 C 19.718 45.659 19.716 45.663 19.714 45.667 C 19.64 45.791 19.592 45.835 19.551 45.806 C 19.55 45.805 19.548 45.803 19.547 45.802 C 19.544 45.8 19.542 45.798 19.54 45.795 C 19.538 45.794 19.537 45.792 19.535 45.79 C 19.532 45.785 19.528 45.78 19.524 45.775 C 19.503 45.739 19.484 45.68 19.464 45.598 C 19.377 45.231 19.23 44.758 18.876 44.368 C 18.522 43.977 18.269 43.393 18.212 43.256 C 18.212 43.256 18.114 43.45 18.016 43.547 C 17.918 43.646 17.898 43.646 17.741 43.51 C 17.586 43.373 16.966 42.657 16.957 41.524 C 16.955 41.427 16.904 41.391 16.828 41.448 C 16.75 41.505 16.549 41.58 16.469 41.327 C 16.391 41.072 16.456 40.511 16.796 39.804 C 17.043 39.301 17.279 39.062 17.153 38.653 C 17.153 38.653 17.04 38.368 16.744 38.239 C 16.711 38.227 16.602 38.224 16.531 38.263 C 16.148 38.482 14.819 39.277 13.544 40.545 C 13.388 40.703 13.161 40.936 12.721 40.661 C 12.155 40.308 11.516 39.83 10.549 39.438 C 9.734 39.11 9.528 38.925 9.606 38.711 C 9.684 38.496 9.956 38.496 10.313 38.535 C 10.663 38.576 11.934 39.016 14.268 37.851 C 14.348 37.815 14.485 37.737 14.466 37.54 C 14.446 37.347 14.485 36.584 14.485 36.409 C 14.485 36.233 14.622 36.157 14.779 36.313 C 14.938 36.467 15.258 36.824 15.601 36.995 C 15.72 37.054 15.916 37.131 16.15 37.015 C 16.385 36.896 18.583 35.472 18.679 35.433 C 18.679 35.433 18.212 35.141 17.565 35.2 C 16.916 35.259 15.456 35.338 14.25 34.789 C 13.781 34.576 12.908 33.938 12.683 33.658 C 12.601 33.562 12.551 33.383 12.84 33.268 C 12.937 33.23 12.995 33.19 12.86 33.074 C 12.721 32.958 12.153 32.372 12.153 31.552 C 12.153 31.454 12.192 31.182 12.466 31.239 C 12.466 31.239 12.183 30.857 11.996 30.107 C 11.957 29.952 12.076 29.777 12.231 29.837 C 12.231 29.837 11.728 28.996 11.617 28.277 C 11.606 28.202 11.64 28.14 11.695 28.104 C 11.695 28.104 11.694 28.103 11.693 28.103 C 11.693 28.103 11.699 28.099 11.71 28.095 C 11.758 28.069 11.818 28.062 11.878 28.081 C 11.88 28.082 11.882 28.083 11.885 28.083 C 11.887 28.084 11.89 28.085 11.892 28.086 C 11.92 28.097 11.948 28.114 11.975 28.141 C 11.977 28.143 11.98 28.144 11.982 28.146 C 12.121 28.282 12.329 28.506 12.752 28.69 C 12.813 28.716 12.877 28.741 12.947 28.766 C 13.108 28.823 13.264 28.873 13.433 28.916 C 13.712 28.986 14.027 29.038 14.466 29.076 C 15.319 29.146 16.672 29.472 17.456 29.997 C 17.95 30.331 18.813 31.165 19.039 32.023 C 19.096 32.234 19.14 32.459 19.17 32.676 C 19.221 33.038 19.231 33.38 19.198 33.608 C 19.161 33.859 19.144 34.25 19.201 34.592 C 19.202 34.6 19.204 34.607 19.205 34.615 C 19.209 34.638 19.213 34.662 19.218 34.685 C 19.222 34.702 19.226 34.718 19.23 34.734 C 19.233 34.747 19.236 34.761 19.239 34.773 C 19.242 34.783 19.245 34.793 19.249 34.803 C 19.27 34.878 19.297 34.949 19.329 35.011 C 19.329 35.011 20.847 33.936 21.657 32.793 C 21.657 32.793 23.258 33.255 24.589 31.715 C 24.589 31.715 24.819 32.584 25.415 32.93 C 25.72 33.109 26.054 33.252 26.56 33.261 C 26.637 33.262 26.716 33.261 26.799 33.257 C 26.804 33.257 26.809 33.257 26.814 33.256 C 26.823 33.255 26.833 33.255 26.842 33.254 C 26.97 33.245 27.109 33.228 27.259 33.203 C 27.277 33.2 27.296 33.197 27.315 33.193 C 27.323 33.192 27.331 33.19 27.34 33.189 C 27.418 33.174 27.499 33.158 27.582 33.139 L 27.584 33.139 C 28.736 32.879 29.598 32.724 30.536 32.724 C 31.475 32.724 33.87 32.77 35.834 35.212 C 35.893 35.285 36.035 35.548 35.982 35.631 C 35.944 35.689 35.845 35.675 35.659 35.665 C 35.643 35.663 35.626 35.662 35.608 35.662 C 35.608 35.662 35.712 35.826 35.849 36.093 C 36.018 36.421 36.238 36.905 36.378 37.432 C 36.414 37.569 36.445 37.708 36.468 37.849 C 36.482 37.927 36.482 37.99 36.459 38.034 C 36.436 38.079 36.391 38.103 36.313 38.103 Z M 36.652 26.187 C 36.408 26.464 36.045 26.746 36.163 27.317 C 36.281 27.903 36.582 29.233 34.877 30.129 C 34.263 30.456 33.84 30.91 33.655 31.473 C 33.446 32.099 32.882 32.464 31.684 32.287 C 30.489 32.109 29.223 32.232 27.793 32.585 C 26.362 32.934 25.711 32.512 25.286 31.784 C 25.147 31.55 24.971 30.966 25.011 30.186 C 25.05 29.405 25.366 28.45 26.03 27.92 C 26.126 27.843 26.264 27.884 26.264 28.117 C 26.264 28.351 26.332 30.501 29.074 30.501 C 30.117 30.501 32.028 30.067 32.183 27.863 C 32.183 27.863 33.664 28.006 34.603 26.464 C 35.246 25.41 35.213 24.085 34.817 23.479 C 34.377 22.802 33.828 22.675 33.828 22.675 C 33.987 22.597 34.377 22.422 34.751 22.363 C 35.381 22.262 36.551 22.069 37.178 22.871 C 37.809 23.669 37.609 25.086 36.652 26.187 Z" fill="var(--token-bb9eb254-5702-404a-9d47-07d085d7a077, rgb(0, 0, 0)) /* {&quot;name&quot;:&quot;Black&quot;} */"></path><path d="M 17.455 29.994 C 17.949 30.328 18.812 31.162 19.038 32.02 C 19.095 32.232 19.139 32.457 19.169 32.674 C 19.139 32.457 19.095 32.232 19.038 32.02 C 18.812 31.162 17.949 30.328 17.455 29.994 C 16.671 29.469 15.318 29.144 14.465 29.073 C 14.027 29.036 13.71 28.983 13.432 28.913 C 13.71 28.983 14.026 29.036 14.465 29.073 C 15.318 29.144 16.671 29.469 17.455 29.994 Z M 19.539 45.793 C 19.539 45.793 19.536 45.79 19.535 45.788 C 19.536 45.79 19.538 45.791 19.539 45.793 Z M 27.862 41.657 M 27.87 41.62 C 27.869 41.626 27.868 41.631 27.867 41.637 C 27.868 41.631 27.869 41.626 27.87 41.62 Z M 27.085 36.996 L 27.083 36.996 M 28.455 43.812 C 28.454 43.815 28.452 43.818 28.451 43.821 C 28.453 43.818 28.454 43.815 28.455 43.812 Z M 20.031 45.061 C 20.234 44.663 20.454 44.225 20.454 44.225 C 20.46 44.228 20.465 44.232 20.47 44.236 C 20.465 44.232 20.459 44.228 20.454 44.224 C 20.454 44.224 20.234 44.663 20.031 45.061 Z M 20.758 44.404 C 20.81 44.41 20.853 44.386 20.912 44.326 C 21.301 43.941 21.517 43.37 21.638 42.859 C 21.517 43.37 21.3 43.941 20.911 44.326 C 20.852 44.386 20.81 44.41 20.757 44.404 Z M 19.713 45.665 C 19.716 45.66 19.718 45.657 19.72 45.653 C 19.767 45.571 19.87 45.375 19.984 45.154 C 19.87 45.376 19.767 45.571 19.72 45.653 C 19.718 45.657 19.716 45.66 19.714 45.665 Z M 19.616 40.965 C 19.682 41.257 19.732 41.538 19.767 41.804 C 19.733 41.532 19.684 41.251 19.616 40.965 Z M 11.877 28.079 C 11.818 28.06 11.758 28.067 11.71 28.092 C 11.74 28.08 11.806 28.059 11.877 28.079 Z M 12.752 28.688 C 12.329 28.504 12.121 28.28 11.981 28.144 C 11.979 28.142 11.977 28.141 11.974 28.138 C 11.977 28.141 11.979 28.142 11.981 28.144 C 12.117 28.281 12.327 28.504 12.752 28.688 Z M 28.429 43.851 L 28.426 43.855 M 27.314 33.19 C 27.322 33.189 27.33 33.187 27.339 33.186 C 27.33 33.188 27.322 33.189 27.314 33.19 Z M 19.239 34.77 C 19.241 34.781 19.245 34.791 19.248 34.801 Z M 26.798 33.254 C 26.803 33.254 26.808 33.254 26.813 33.253 C 26.808 33.253 26.803 33.253 26.798 33.254 Z M 22.066 41.576 C 22.063 41.579 22.06 41.58 22.058 41.582 C 22.06 41.58 22.063 41.578 22.066 41.576 Z M 19.2 34.589 C 19.201 34.597 19.203 34.604 19.204 34.612 C 19.202 34.604 19.201 34.597 19.2 34.589 Z M 11.884 28.081 C 11.884 28.081 11.889 28.083 11.892 28.084 C 11.889 28.083 11.886 28.082 11.884 28.081 Z M 19.217 34.681 C 19.221 34.698 19.225 34.715 19.229 34.731 C 19.225 34.715 19.221 34.698 19.217 34.681 Z M 35.848 36.089 C 35.71 35.822 35.607 35.658 35.607 35.658 C 35.607 35.658 35.71 35.822 35.848 36.089 Z M 14.749 31.606 L 14.73 31.592 C 14.595 31.492 14.318 31.286 13.972 30.966 C 14.205 31.183 14.458 31.396 14.73 31.592 C 14.737 31.597 14.743 31.602 14.749 31.606 Z M 12.221 28.778 C 12.234 28.8 12.283 28.886 12.366 29.017 C 12.318 28.939 12.269 28.86 12.221 28.778 Z M 15.946 32.502 C 16.133 32.637 16.456 32.863 17.161 33.348 C 16.502 32.892 16.167 32.659 15.946 32.502 Z M 28.443 43.834 C 28.443 43.834 28.442 43.836 28.441 43.838 C 28.442 43.836 28.443 43.835 28.443 43.834 Z M 30.535 32.721 C 31.477 32.721 33.869 32.766 35.832 35.209 C 35.891 35.282 36.034 35.545 35.98 35.627 C 35.943 35.686 35.844 35.671 35.658 35.661 C 35.844 35.671 35.943 35.686 35.98 35.627 C 36.033 35.544 35.891 35.282 35.832 35.208 C 33.869 32.766 31.477 32.72 30.535 32.72 C 29.593 32.72 28.734 32.876 27.582 33.136 L 27.581 33.136 L 27.582 33.136 C 28.734 32.876 29.596 32.72 30.535 32.72 Z M 27.258 33.2 C 27.108 33.226 26.969 33.242 26.841 33.251 C 26.923 33.246 27.008 33.238 27.098 33.226 C 27.15 33.218 27.203 33.21 27.258 33.2 Z M 21.905 41.581 C 21.868 41.563 21.843 41.552 21.825 41.551 C 21.843 41.552 21.868 41.563 21.905 41.582 C 21.956 41.607 22.002 41.611 22.038 41.595 C 22.002 41.611 21.956 41.607 21.905 41.582 Z M 19.244 37.969 C 19.146 37.963 19.047 37.958 18.946 37.953 C 17.956 37.907 17.628 37.777 17.52 37.692 C 17.628 37.777 17.955 37.907 18.946 37.953 C 19.047 37.958 19.146 37.963 19.244 37.969 Z M 21.807 39.417 C 22.276 40.411 22.138 41.191 22.117 41.445 C 22.114 41.504 22.096 41.548 22.067 41.574 C 22.096 41.548 22.114 41.504 22.117 41.445 C 22.137 41.191 22.276 40.411 21.807 39.416 C 21.542 38.858 21.202 38.519 20.793 38.309 C 21.202 38.519 21.542 38.858 21.807 39.417 Z M 28.457 43.805 C 28.474 43.755 28.458 43.686 28.406 43.612 C 28.457 43.686 28.473 43.755 28.457 43.805 Z M 28 38.488 C 27.739 37.915 27.231 37.436 27.028 37.266 C 26.996 37.239 26.97 37.216 26.949 37.195 C 26.97 37.215 26.996 37.239 27.028 37.266 C 27.231 37.437 27.739 37.916 28.001 38.488 Z M 27.911 42.628 C 27.854 42.341 27.833 42.112 27.835 41.932 C 27.833 42.112 27.854 42.341 27.911 42.628 Z M 27.95 39.157 C 27.793 39.138 27.696 39.157 27.793 39.353 C 27.807 39.38 27.823 39.415 27.842 39.458 C 27.823 39.415 27.807 39.38 27.793 39.353 C 27.696 39.157 27.793 39.138 27.95 39.157 C 28.065 39.172 28.123 39.175 28.148 39.146 C 28.123 39.175 28.065 39.172 27.95 39.157 Z M 26.948 37.194 M 36.154 41.095 C 36.154 41.099 36.153 41.102 36.152 41.105 L 36.154 41.095 C 36.367 39.414 35.887 38.068 35.886 38.066 C 35.886 38.064 36.367 39.413 36.154 41.095 Z M 26.88 37.056 C 26.904 37.026 26.976 37.012 27.082 36.996 C 26.976 37.012 26.905 37.026 26.88 37.056 Z M 36.467 37.845 C 36.48 37.923 36.48 37.987 36.457 38.03 C 36.48 37.987 36.48 37.923 36.467 37.845 Z M 25.607 35.085 C 26.474 35.469 26.96 36.049 27.17 36.43 C 26.96 36.049 26.474 35.469 25.607 35.084 C 24.825 34.738 23.701 34.745 23.079 34.781 C 23.701 34.745 24.825 34.738 25.607 35.085 Z M 19.551 45.804 C 19.551 45.804 19.548 45.801 19.546 45.8 C 19.548 45.801 19.549 45.803 19.551 45.804 Z M 24.843 39.503 C 25.537 41.338 26.825 42.641 26.878 42.694 C 26.825 42.639 25.526 41.293 24.843 39.503 Z M 22.052 41.586 C 22.049 41.588 22.045 41.59 22.041 41.593 C 22.045 41.59 22.049 41.589 22.052 41.586 Z" fill="var(--token-bb9eb254-5702-404a-9d47-07d085d7a077, rgb(0, 0, 0)) /* {&quot;name&quot;:&quot;Black&quot;} */"></path><path d="M 26.813 33.253 C 26.822 33.252 26.832 33.252 26.841 33.25 C 26.832 33.251 26.822 33.252 26.813 33.253 Z M 36.04 41.292 C 36.095 41.263 36.14 41.192 36.153 41.105 C 36.139 41.191 36.095 41.262 36.04 41.292 Z M 26.798 33.254 C 26.715 33.258 26.636 33.259 26.559 33.258 C 26.635 33.26 26.714 33.258 26.798 33.254 Z M 36.312 38.099 C 36.154 38.099 35.886 38.066 35.886 38.066 C 35.886 38.066 36.154 38.1 36.311 38.1 C 36.389 38.1 36.435 38.075 36.457 38.03 C 36.435 38.074 36.389 38.099 36.311 38.099 Z M 27.258 33.2 C 27.276 33.197 27.295 33.194 27.314 33.19 C 27.295 33.194 27.276 33.197 27.258 33.2 Z M 35.848 36.089 C 36.016 36.417 36.236 36.9 36.376 37.427 C 36.236 36.9 36.017 36.417 35.848 36.089 Z M 27.339 33.186 C 27.416 33.171 27.497 33.155 27.581 33.136 C 27.497 33.155 27.416 33.171 27.339 33.186 Z M 35.607 35.658 C 35.625 35.659 35.642 35.66 35.658 35.661 C 35.642 35.66 35.625 35.659 35.607 35.658 Z M 32.79 36.12 C 33.885 37.249 34.461 38.256 35.043 39.232 C 34.464 38.253 33.886 37.249 32.79 36.12 Z M 20.758 44.404 C 20.693 44.395 20.613 44.338 20.47 44.235 C 20.613 44.338 20.693 44.395 20.758 44.404 Z M 20.031 45.061 C 20.015 45.093 19.999 45.124 19.984 45.154 C 19.999 45.124 20.015 45.093 20.031 45.061 Z M 19.523 45.773 C 19.527 45.778 19.531 45.783 19.534 45.788 C 19.531 45.783 19.527 45.778 19.523 45.772 Z M 22.041 41.592 C 22.041 41.592 22.039 41.594 22.038 41.594 C 22.039 41.594 22.04 41.593 22.041 41.592 Z M 19.546 45.8 C 19.546 45.8 19.541 45.796 19.539 45.793 C 19.541 45.796 19.544 45.798 19.546 45.8 Z M 19.551 45.804 C 19.592 45.832 19.64 45.789 19.713 45.665 C 19.64 45.786 19.591 45.831 19.551 45.804 Z M 21.787 41.716 C 21.787 41.808 21.771 42.297 21.638 42.859 C 21.771 42.297 21.787 41.808 21.787 41.716 C 21.787 41.596 21.787 41.549 21.825 41.55 C 21.787 41.548 21.787 41.595 21.787 41.715 Z M 22.058 41.582 C 22.058 41.582 22.054 41.585 22.052 41.586 C 22.054 41.585 22.056 41.584 22.058 41.582 Z M 17.519 37.692 C 17.463 37.647 17.466 37.616 17.466 37.616 L 17.466 37.617 C 17.466 37.622 17.469 37.652 17.52 37.692 Z M 19.244 37.969 C 19.836 38.008 20.354 38.084 20.793 38.309 C 20.355 38.084 19.836 38.007 19.244 37.969 Z M 22.067 41.574 L 22.066 41.576 M 19.767 41.804 C 19.946 43.23 19.716 44.377 19.712 44.391 L 19.712 44.392 C 19.712 44.392 19.972 43.346 19.767 41.803 Z M 19.616 40.965 C 19.612 40.949 19.609 40.934 19.606 40.919 C 19.342 39.791 18.933 39.105 18.553 38.688 C 18.9 39.078 19.275 39.708 19.554 40.722 C 19.576 40.803 19.597 40.884 19.616 40.965 Z M 11.693 28.1 L 11.695 28.101 C 11.7 28.098 11.705 28.095 11.71 28.092 C 11.699 28.097 11.693 28.101 11.693 28.101 Z M 19.328 35.008 C 19.296 34.946 19.27 34.876 19.248 34.801 C 19.27 34.876 19.296 34.946 19.328 35.008 Z M 13.433 28.913 C 13.263 28.87 13.107 28.821 12.946 28.763 C 13.108 28.82 13.263 28.87 13.433 28.913 Z M 11.877 28.079 C 11.877 28.079 11.882 28.08 11.884 28.081 C 11.882 28.08 11.879 28.08 11.877 28.079 Z M 19.197 33.605 C 19.16 33.856 19.143 34.247 19.2 34.589 C 19.143 34.247 19.16 33.856 19.197 33.605 C 19.23 33.377 19.22 33.035 19.169 32.673 C 19.22 33.035 19.23 33.377 19.197 33.605 Z M 19.229 34.732 C 19.232 34.745 19.235 34.758 19.239 34.77 C 19.235 34.758 19.232 34.745 19.229 34.732 Z M 11.892 28.084 C 11.92 28.096 11.948 28.114 11.975 28.138 C 11.951 28.115 11.923 28.096 11.892 28.084 Z M 19.205 34.612 C 19.209 34.635 19.213 34.659 19.217 34.681 C 19.213 34.659 19.209 34.635 19.205 34.612 Z M 19.328 35.008 M 17.161 33.348 C 17.18 33.361 17.199 33.375 17.218 33.388 C 18.374 34.186 18.797 34.562 18.881 34.64 C 18.797 34.561 18.376 34.182 17.219 33.388 C 17.199 33.374 17.18 33.361 17.162 33.348 Z M 14.749 31.606 C 15.522 32.185 15.566 32.233 15.946 32.502 C 15.6 32.252 15.72 32.311 14.749 31.606 Z M 12.218 28.772 C 12.218 28.772 12.218 28.773 12.218 28.774 C 12.219 28.776 12.22 28.777 12.221 28.779 C 12.219 28.775 12.218 28.773 12.218 28.773 Z M 13.972 30.966 C 13.172 30.217 12.616 29.411 12.366 29.017 C 12.913 29.892 13.506 30.533 13.972 30.966 Z M 28.148 39.146 C 28.173 39.117 28.164 39.056 28.145 38.943 C 28.119 38.788 28.068 38.634 28 38.488 C 28.067 38.634 28.119 38.788 28.145 38.943 C 28.164 39.055 28.173 39.116 28.148 39.146 Z M 27.835 41.932 M 28.065 41.341 C 27.993 41.361 27.914 41.444 27.87 41.62 C 27.914 41.444 27.993 41.361 28.065 41.342 C 28.226 41.302 28.244 41.224 28.226 40.991 C 28.167 40.302 27.961 39.727 27.842 39.458 C 27.961 39.727 28.167 40.301 28.226 40.991 C 28.244 41.225 28.226 41.302 28.065 41.342 Z M 23.079 34.781 C 22.801 34.798 22.624 34.821 22.623 34.821 C 22.623 34.821 22.8 34.798 23.079 34.781 Z M 26.949 37.195 L 26.948 37.194 M 27.107 36.993 L 27.085 36.996 L 27.107 36.993 C 27.353 36.956 27.36 36.914 27.271 36.649 C 27.25 36.589 27.217 36.514 27.17 36.43 C 27.216 36.514 27.249 36.589 27.271 36.649 C 27.361 36.914 27.354 36.956 27.108 36.993 Z M 26.948 37.194 C 26.877 37.125 26.858 37.084 26.88 37.056 C 26.858 37.084 26.877 37.125 26.948 37.194 Z M 28.451 43.82 M 27.866 41.637 L 27.862 41.657 M 28.406 43.612 C 28.402 43.605 28.396 43.598 28.391 43.59 C 28.283 43.455 28.113 43.256 27.997 42.939 C 28.113 43.256 28.283 43.455 28.391 43.59 C 28.396 43.597 28.402 43.604 28.406 43.612 Z M 28.457 43.805 C 28.457 43.805 28.456 43.81 28.455 43.812 C 28.456 43.81 28.457 43.808 28.457 43.805 Z M 27.084 36.996 L 27.082 36.996 M 28.422 43.857 L 28.425 43.854 C 28.424 43.855 28.422 43.856 28.421 43.857 L 28.422 43.857 Z M 28.441 43.837" fill="var(--token-bb9eb254-5702-404a-9d47-07d085d7a077, rgb(0, 0, 0)) /* {&quot;name&quot;:&quot;Black&quot;} */"></path><path d="M 35.095 39.319 C 35.078 39.29 35.06 39.261 35.043 39.232 L 35.095 39.319 C 35.095 39.319 33.359 37.129 31.83 35.687 C 30.278 34.219 28.794 33.831 28.085 33.598 C 29.99 33.911 31.294 34.662 32.486 35.818 C 31.294 34.662 29.989 33.91 28.085 33.597 C 27.802 33.536 26.546 33.258 26.546 33.258 L 26.559 33.258 C 26.053 33.248 25.719 33.105 25.414 32.926 C 24.818 32.58 24.588 31.711 24.588 31.711 C 23.256 33.252 21.656 32.79 21.656 32.79 C 20.846 33.933 19.328 35.007 19.328 35.007 L 18.897 34.655 C 18.897 34.655 18.891 34.649 18.88 34.639 C 18.891 34.649 18.897 34.655 18.897 34.655 L 17.625 33.891 C 17.625 33.891 16.293 33.115 14.946 32.134 C 13.164 30.837 12.243 28.829 12.218 28.774 C 12.218 28.774 12.218 28.773 12.217 28.772 C 12.141 28.643 11.844 28.177 11.694 28.101 C 11.639 28.137 11.605 28.199 11.616 28.274 C 11.727 28.993 12.23 29.834 12.23 29.834 C 12.075 29.775 11.956 29.95 11.995 30.105 C 12.182 30.855 12.465 31.236 12.465 31.236 C 12.191 31.179 12.152 31.451 12.152 31.55 C 12.152 32.37 12.72 32.956 12.859 33.071 C 12.994 33.187 12.936 33.228 12.839 33.265 C 12.55 33.381 12.6 33.56 12.682 33.655 C 12.908 33.936 13.78 34.573 14.249 34.786 C 15.455 35.335 16.915 35.256 17.564 35.197 C 18.211 35.138 18.678 35.43 18.678 35.43 C 18.582 35.469 16.384 36.893 16.149 37.013 C 15.915 37.129 15.719 37.051 15.6 36.993 C 15.257 36.821 14.937 36.465 14.778 36.31 C 14.621 36.154 14.484 36.232 14.484 36.406 C 14.484 36.58 14.445 37.344 14.465 37.538 C 14.484 37.734 14.347 37.812 14.267 37.848 C 11.933 39.014 10.662 38.573 10.312 38.532 C 9.954 38.493 9.682 38.493 9.605 38.708 C 9.528 38.923 9.733 39.107 10.547 39.435 C 11.515 39.828 12.154 40.306 12.72 40.659 C 13.16 40.934 13.387 40.699 13.543 40.543 C 14.818 39.274 16.147 38.48 16.53 38.261 C 16.601 38.221 16.71 38.224 16.743 38.236 C 17.039 38.365 17.152 38.651 17.152 38.651 C 17.278 39.059 17.042 39.299 16.795 39.801 C 16.455 40.508 16.39 41.069 16.468 41.324 C 16.548 41.577 16.749 41.502 16.827 41.446 C 16.902 41.389 16.954 41.424 16.956 41.522 C 16.965 42.654 17.585 43.37 17.74 43.507 C 17.897 43.644 17.917 43.644 18.015 43.545 C 18.113 43.448 18.211 43.253 18.211 43.253 C 18.269 43.391 18.521 43.975 18.875 44.366 C 19.229 44.755 19.376 45.229 19.463 45.595 C 19.483 45.678 19.502 45.736 19.523 45.772 C 19.524 45.763 19.593 44.97 19.712 44.392 C 19.712 44.369 19.736 42.537 19.531 41.69 C 18.858 38.909 17.591 38.06 17.591 38.06 C 17.591 38.06 18.047 38.136 18.552 38.689 C 18.042 38.116 17.591 38.06 17.591 38.06 C 17.591 38.06 17.396 37.965 17.465 37.618 L 17.465 37.617 C 18.582 36.914 20.933 35.57 21.148 35.471 C 21.364 35.374 21.425 35.289 21.795 35.432 C 22.06 35.534 22.411 35.77 22.481 36.072 C 22.557 36.397 22.557 36.913 22.202 37.577 C 21.865 38.214 21.996 38.944 22.071 39.23 C 22.092 39.312 22.161 39.371 22.187 39.376 C 22.362 39.423 22.492 39.436 22.492 39.436 C 22.394 40.448 23.217 41.494 23.335 41.61 C 23.449 41.725 23.567 41.699 23.707 41.64 C 23.844 41.582 23.902 41.553 23.902 41.553 C 24.098 41.883 24.627 42.274 24.823 42.351 C 25.018 42.431 25.038 42.401 25.156 42.324 C 25.272 42.245 25.391 42.147 25.391 42.147 C 26.331 43.435 27.863 43.814 28.251 43.884 C 28.328 43.897 28.385 43.886 28.421 43.858 C 28.409 43.853 27.657 43.533 26.879 42.696 C 26.877 42.695 26.214 42.323 25.36 41.221 C 24.504 40.121 24.136 37.954 23.883 37.23 C 23.47 36.061 22.668 35.292 22.668 35.292 C 22.668 35.292 23.912 35.965 24.587 38.692 C 24.59 38.705 24.594 38.718 24.597 38.73 C 24.594 38.718 24.591 38.705 24.588 38.692 C 23.924 35.965 22.669 35.292 22.669 35.292 C 22.517 35.143 22.419 34.917 22.622 34.821 C 23.04 34.559 24.058 34.148 24.787 33.97 C 25.748 33.73 26.762 33.954 27.45 34.46 C 28.257 35.056 28.648 36.926 28.915 37.662 C 29.271 38.634 29.839 38.656 29.839 38.656 C 30.016 38.598 30.092 38.34 30.092 38.34 C 30.877 39.169 32.312 39.65 32.836 39.743 C 33.029 39.776 33.153 39.786 33.153 39.612 C 33.153 39.454 33.175 39.43 33.175 39.43 C 33.463 39.458 33.881 39.482 34.637 39.874 C 35.396 40.263 35.709 40.81 35.815 41.122 C 35.873 41.298 35.965 41.333 36.039 41.292 C 36.027 41.299 36.013 41.303 36 41.305 C 36 41.305 35.524 40.042 35.094 39.319 Z M 19.659 15.301 C 20.236 15.583 20.875 15.614 20.875 15.614 C 21.03 15.518 21.247 15.38 21.855 15.145 C 22.462 14.91 23.343 14.95 23.343 14.95 C 23.692 14.598 24.266 14.347 24.872 14.347 C 25.478 14.347 25.909 14.541 26.244 14.659 C 26.577 14.775 26.813 14.795 27.009 14.6 C 27.205 14.406 27.749 13.527 27.772 12.396 C 27.795 11.361 27.359 10.577 26.439 10.211 C 26.146 10.093 25.677 10.007 25.184 10.053 C 24.739 10.098 24.158 10.332 23.833 10.563 C 23.42 10.855 22.884 10.956 22.502 10.99 C 22.228 11.015 21.812 10.987 21.263 10.851 C 20.714 10.716 20.203 10.567 19.577 10.552 C 18.78 10.536 17.523 11.049 17.523 12.512 C 17.523 13.974 18.99 14.975 19.659 15.301 Z M 28.301 15.828 C 29.046 15.184 29.989 15.033 30.852 15.306 C 31.555 15.527 31.967 16.334 31.967 16.958 C 31.967 17.466 31.932 17.721 31.793 18.15 C 31.656 18.578 31.721 18.796 31.939 19.03 C 32.34 19.466 32.584 19.968 32.518 20.47 C 32.475 20.784 32.346 21.114 32.156 21.333 C 31.88 21.644 31.812 21.739 31.792 21.855 C 31.731 22.217 32.771 22.362 33.496 22.324 C 35.021 22.242 35.81 21.543 36.103 20.743 C 36.399 19.944 36.166 19.338 35.827 18.968 C 35.435 18.538 35.535 18.246 35.67 17.776 C 35.81 17.309 35.819 16.534 35.496 16.043 C 35.093 15.429 34.389 15.031 33.124 14.755 C 32.102 14.529 31.967 13.72 31.812 13.274 C 31.445 12.229 30.891 11.731 29.83 11.731 C 28.596 11.731 27.636 13.525 27.636 14.443 C 27.636 15.361 28.301 15.828 28.301 15.828 Z" fill="var(--token-bb9eb254-5702-404a-9d47-07d085d7a077, rgb(0, 0, 0)) /* {&quot;name&quot;:&quot;Black&quot;} */"></path><path d="M 34.751 22.362 C 34.377 22.421 33.987 22.596 33.828 22.674 C 33.828 22.674 34.377 22.8 34.817 23.478 C 35.213 24.084 35.246 25.409 34.603 26.463 C 33.664 28.005 32.183 27.862 32.183 27.862 C 32.028 30.066 30.117 30.5 29.074 30.5 C 26.332 30.5 26.264 28.349 26.264 28.116 C 26.264 27.883 26.126 27.842 26.03 27.919 C 25.366 28.449 25.049 29.404 25.011 30.185 C 24.971 30.965 25.147 31.55 25.286 31.783 C 25.711 32.511 26.362 32.933 27.793 32.584 C 29.222 32.231 30.489 32.108 31.684 32.285 C 32.883 32.463 33.446 32.098 33.655 31.472 C 33.84 30.909 34.263 30.456 34.877 30.128 C 36.582 29.232 36.281 27.902 36.163 27.316 C 36.045 26.744 36.408 26.463 36.652 26.186 C 37.609 25.085 37.809 23.668 37.178 22.87 C 36.552 22.068 35.381 22.261 34.751 22.362 Z M 21.402 28.663 C 19.977 28.06 19.561 26.265 19.561 26.265 C 18.677 26.261 17.761 26.1 16.976 25.61 C 16.397 25.25 15.913 24.567 15.698 24.231 C 15.623 24.113 15.384 24.012 15.257 24.008 C 14.377 23.983 12.787 24.363 12.56 25.989 C 12.293 27.868 13.815 28.594 15.543 28.857 C 17.377 29.134 18.122 29.896 18.678 30.516 C 18.971 30.837 19.502 31.588 20.62 32.02 C 21.737 32.448 22.875 32.274 23.384 31.976 C 24.608 31.268 24.922 29.081 24.952 28.331 C 23.884 28.96 22.57 29.154 21.403 28.663 Z M 11.741 20.959 C 11.741 22.186 12.384 23.173 13.543 23.632 C 14.591 24.045 15.562 23.668 15.562 23.668 C 14.937 23.181 14.651 22.307 14.721 21.486 C 14.756 21.04 14.922 20.351 15.58 19.944 C 16.336 19.481 16.551 19.207 16.679 18.773 C 16.792 18.387 16.679 17.974 16.542 17.525 C 16.403 17.077 16.035 16.219 16.583 15.534 C 17.2 14.76 18.328 15.26 18.328 15.26 C 18.055 13.623 16.404 12.96 15.271 12.96 C 13.585 12.96 12.786 14.31 12.632 14.975 C 12.438 15.833 12.653 16.438 12.839 16.802 C 12.948 17.021 13.172 17.332 13.172 17.74 C 13.172 18.148 12.916 18.558 12.682 18.811 C 12.445 19.065 11.741 19.728 11.741 20.959 Z" fill="var(--token-bb9eb254-5702-404a-9d47-07d085d7a077, rgb(0, 0, 0)) /* {&quot;name&quot;:&quot;Black&quot;} */"></path><path d="M 26.568 25.118 C 26.568 25.118 24.922 25.254 23.275 24.688 C 21.629 24.122 19.963 22.894 19.435 21.411 C 18.906 19.929 18.72 17.663 20.345 15.964 C 20.345 15.964 19.707 15.594 18.994 15.534 C 18.319 15.483 17.523 15.79 17.249 16.511 C 17.049 17.042 17.173 17.369 17.349 17.819 C 17.524 18.268 17.681 18.851 16.916 19.476 C 16.151 20.1 15.396 20.572 15.455 21.803 C 15.514 23.031 16.391 24.685 17.582 25.325 C 18.495 25.82 19.151 25.853 19.837 25.794 C 19.837 25.794 20.437 27.51 21.826 28.101 C 22.797 28.514 24.292 28.666 25.638 27.552 C 26.11 27.162 26.666 26.075 26.568 25.119 Z" fill="var(--token-bb9eb254-5702-404a-9d47-07d085d7a077, rgb(0, 0, 0)) /* {&quot;name&quot;:&quot;Black&quot;} */"></path><path d="M 24.932 14.736 C 24.453 14.76 23.795 15.067 23.56 15.36 C 23.56 15.36 22.802 15.342 22.246 15.497 C 21.532 15.697 20.789 16.125 20.276 17.021 C 19.768 17.919 19.581 18.618 19.581 19.495 C 19.581 20.728 20.223 22.252 21.443 23.105 C 21.639 23.24 21.689 23.07 21.648 22.738 C 21.609 22.406 21.382 21.055 22.022 19.753 C 22.756 18.255 24.022 17.334 25.41 16.887 C 26.244 16.616 27.381 16.608 27.911 16.687 C 27.47 15.833 26.53 14.655 24.932 14.736 Z" fill="var(--token-bb9eb254-5702-404a-9d47-07d085d7a077, rgb(0, 0, 0)) /* {&quot;name&quot;:&quot;Black&quot;} */"></path><path d="M 29.869 22.83 C 29.596 22.89 27.932 23.105 26.928 23.066 C 25.93 23.025 24.817 22.714 24.323 21.952 C 23.783 21.119 23.598 19.709 25.107 17.427 C 23.872 17.994 22.16 19.591 22.049 21.622 C 21.953 23.414 22.756 24.507 25.166 24.605 C 27.577 24.7 29.97 23.024 30.065 22.966 C 30.163 22.908 30.145 22.77 29.869 22.83 Z" fill="var(--token-bb9eb254-5702-404a-9d47-07d085d7a077, rgb(0, 0, 0)) /* {&quot;name&quot;:&quot;Black&quot;} */"></path><path d="M 24.932 18.655 C 25.401 18.48 26.294 18.59 26.776 18.888 C 26.981 19.014 27.259 19.238 27.431 19.525 C 27.714 20.005 27.779 20.736 27.299 21.295 C 26.621 22.088 25.52 22.166 25.52 22.166 C 25.798 22.294 26.038 22.373 26.647 22.413 C 27.253 22.451 28.189 22.178 28.854 21.008 C 29.519 19.837 29.614 18.787 28.933 18.011 C 28.501 17.525 27.911 17.349 27.185 17.349 C 25.676 17.349 24.931 18.655 24.931 18.655 Z" fill="var(--token-bb9eb254-5702-404a-9d47-07d085d7a077, rgb(0, 0, 0)) /* {&quot;name&quot;:&quot;Black&quot;} */"></path><path d="M 27.001 20.274 C 26.967 20.019 26.782 19.767 26.42 19.84 C 26.137 19.899 25.91 19.89 25.745 19.85 C 25.555 19.807 25.097 19.657 24.954 18.851 C 24.601 19.165 24.375 19.672 24.344 20.121 C 24.307 20.658 24.481 21.173 24.952 21.446 C 25.422 21.72 26.252 21.586 26.609 21.256 C 27.01 20.885 27.021 20.426 27.001 20.275 Z M 30.848 15.749 C 30.439 15.534 29.653 15.497 28.93 15.848 C 28.204 16.198 27.987 17.153 27.987 17.153 C 28.477 17.153 29.646 17.47 29.929 18.58 C 30.124 19.343 29.909 20.146 29.505 20.84 C 28.88 21.918 28.007 22.459 28.007 22.459 C 28.007 22.459 28.244 22.637 29.479 22.518 C 30.711 22.401 31.322 21.719 31.615 21.328 C 31.91 20.938 32.124 20.003 31.615 19.338 C 31.105 18.675 31.226 18.364 31.44 17.581 C 31.652 16.802 31.534 16.108 30.848 15.749 Z M 27.324 29.326 C 28.226 30.185 29.688 29.982 30.293 29.681 C 30.998 29.33 31.272 28.649 31.42 27.883 C 31.492 27.507 31.69 27.368 32.143 27.356 C 32.599 27.345 33.526 27.2 34.113 26.248 C 34.585 25.489 34.781 24.377 34.3 23.611 C 33.761 22.753 32.318 22.533 31.711 22.596 C 31.34 22.636 31.064 22.732 30.83 22.949 C 30.596 23.162 29.183 24.45 26.873 24.665 C 27.013 25.053 27.229 25.627 26.851 26.479 C 26.53 27.203 26.419 28.47 27.324 29.326 Z M 36.467 37.845 C 36.443 37.705 36.412 37.565 36.376 37.428 C 36.236 36.901 36.017 36.417 35.848 36.09 C 35.71 35.823 35.607 35.658 35.607 35.658 C 35.624 35.659 35.642 35.66 35.658 35.661 C 35.844 35.671 35.943 35.686 35.98 35.627 C 36.033 35.544 35.891 35.282 35.832 35.209 C 33.869 32.766 31.477 32.721 30.535 32.721 C 29.594 32.721 28.734 32.876 27.582 33.136 L 27.581 33.136 C 27.496 33.155 27.416 33.171 27.338 33.186 C 27.33 33.187 27.322 33.189 27.314 33.19 C 27.295 33.194 27.276 33.197 27.257 33.2 C 27.203 33.209 27.149 33.218 27.097 33.225 C 27.007 33.237 26.922 33.245 26.84 33.25 C 26.831 33.251 26.822 33.252 26.812 33.253 C 26.807 33.253 26.803 33.253 26.797 33.254 C 26.714 33.258 26.635 33.26 26.559 33.258 L 26.546 33.258 C 26.546 33.258 27.801 33.536 28.084 33.598 C 29.989 33.911 31.293 34.662 32.485 35.818 C 32.591 35.92 32.692 36.021 32.788 36.121 C 33.885 37.249 34.463 38.254 35.042 39.232 C 35.059 39.261 35.077 39.29 35.094 39.319 C 35.524 40.042 36 41.305 36 41.305 C 36.014 41.303 36.027 41.298 36.039 41.292 C 36.094 41.262 36.138 41.19 36.152 41.105 C 36.152 41.101 36.153 41.098 36.153 41.095 C 36.366 39.412 35.886 38.065 35.886 38.065 C 35.886 38.065 36.153 38.099 36.311 38.099 C 36.389 38.099 36.435 38.074 36.457 38.03 C 36.48 37.986 36.48 37.922 36.467 37.845 Z M 17.592 38.059 C 17.592 38.059 18.043 38.116 18.553 38.688 C 18.933 39.105 19.342 39.791 19.606 40.919 C 19.609 40.934 19.613 40.95 19.616 40.965 C 19.684 41.251 19.733 41.532 19.767 41.804 C 19.972 43.346 19.712 44.392 19.712 44.392 L 19.712 44.392 C 19.593 44.971 19.524 45.763 19.523 45.772 C 19.527 45.778 19.531 45.783 19.534 45.788 C 19.536 45.79 19.537 45.791 19.539 45.793 C 19.541 45.796 19.544 45.798 19.546 45.8 C 19.547 45.802 19.549 45.803 19.55 45.804 C 19.59 45.831 19.639 45.786 19.712 45.665 C 19.715 45.66 19.717 45.657 19.719 45.653 C 19.766 45.571 19.869 45.375 19.983 45.154 C 19.998 45.124 20.014 45.093 20.03 45.061 C 20.233 44.663 20.453 44.225 20.453 44.225 C 20.459 44.229 20.464 44.232 20.469 44.236 C 20.612 44.338 20.692 44.396 20.757 44.405 C 20.809 44.412 20.852 44.386 20.911 44.327 C 21.3 43.942 21.516 43.371 21.637 42.86 C 21.769 42.298 21.786 41.809 21.786 41.717 C 21.786 41.597 21.786 41.551 21.824 41.552 C 21.842 41.553 21.867 41.564 21.904 41.582 C 21.955 41.608 22.001 41.611 22.037 41.595 C 22.038 41.595 22.039 41.594 22.04 41.593 C 22.044 41.591 22.048 41.589 22.052 41.587 C 22.054 41.586 22.055 41.584 22.057 41.583 C 22.06 41.581 22.063 41.579 22.065 41.577 L 22.067 41.575 C 22.096 41.548 22.114 41.504 22.117 41.446 C 22.137 41.191 22.276 40.412 21.807 39.417 C 21.542 38.859 21.202 38.52 20.793 38.31 C 20.354 38.085 19.835 38.008 19.243 37.97 C 19.146 37.964 19.046 37.959 18.945 37.953 C 17.955 37.908 17.627 37.777 17.519 37.692 C 17.468 37.652 17.465 37.623 17.465 37.617 C 17.396 37.964 17.591 38.059 17.591 38.059 Z M 12.218 28.773 C 12.218 28.773 12.218 28.774 12.218 28.774 C 12.218 28.773 12.218 28.772 12.218 28.772 C 12.218 28.772 12.219 28.775 12.221 28.778 C 12.268 28.86 12.317 28.939 12.366 29.017 C 12.615 29.411 13.172 30.216 13.972 30.966 C 14.318 31.286 14.594 31.492 14.73 31.592 L 14.748 31.606 C 15.719 32.311 15.6 32.252 15.946 32.502 C 16.167 32.659 16.502 32.892 17.161 33.348 C 17.18 33.361 17.198 33.374 17.218 33.388 C 18.375 34.182 18.796 34.561 18.879 34.64 C 18.891 34.65 18.896 34.655 18.896 34.655 L 19.327 35.008 C 19.295 34.946 19.269 34.875 19.247 34.8 L 19.238 34.77 C 19.234 34.757 19.231 34.744 19.228 34.731 C 19.224 34.715 19.22 34.698 19.216 34.681 C 19.212 34.659 19.208 34.635 19.203 34.612 C 19.202 34.604 19.2 34.597 19.199 34.589 C 19.143 34.247 19.159 33.856 19.196 33.605 C 19.229 33.377 19.219 33.035 19.169 32.673 C 19.139 32.456 19.095 32.232 19.037 32.02 C 18.811 31.162 17.948 30.328 17.455 29.993 C 16.671 29.469 15.317 29.143 14.465 29.072 C 14.026 29.035 13.71 28.983 13.432 28.913 C 13.262 28.87 13.106 28.82 12.945 28.763 C 12.876 28.739 12.811 28.714 12.75 28.687 C 12.327 28.504 12.116 28.281 11.98 28.144 C 11.978 28.142 11.976 28.14 11.973 28.138 C 11.948 28.113 11.92 28.095 11.891 28.084 C 11.888 28.083 11.885 28.082 11.883 28.081 C 11.881 28.08 11.878 28.079 11.876 28.078 C 11.804 28.058 11.739 28.079 11.709 28.092 C 11.703 28.095 11.698 28.098 11.694 28.101 C 11.844 28.177 12.141 28.643 12.217 28.772 Z M 22.669 35.292 C 22.669 35.292 23.924 35.964 24.588 38.692 L 24.597 38.73 C 24.665 38.996 24.748 39.254 24.843 39.503 C 25.526 41.293 26.825 42.639 26.878 42.694 L 26.879 42.695 C 27.658 43.532 28.41 43.852 28.421 43.857 C 28.422 43.856 28.424 43.855 28.425 43.854 L 28.428 43.851 C 28.433 43.847 28.437 43.842 28.441 43.837 C 28.442 43.836 28.442 43.835 28.443 43.834 C 28.446 43.83 28.448 43.825 28.45 43.82 C 28.452 43.818 28.453 43.815 28.454 43.812 C 28.455 43.81 28.456 43.808 28.456 43.805 C 28.472 43.755 28.456 43.687 28.405 43.612 C 28.4 43.604 28.395 43.597 28.39 43.589 C 28.282 43.455 28.112 43.255 27.996 42.939 C 27.962 42.846 27.932 42.742 27.91 42.627 C 27.853 42.341 27.831 42.112 27.834 41.931 C 27.835 41.866 27.838 41.807 27.845 41.753 C 27.849 41.719 27.854 41.686 27.861 41.656 L 27.865 41.637 C 27.867 41.631 27.868 41.625 27.869 41.619 C 27.913 41.443 27.992 41.36 28.063 41.341 C 28.225 41.301 28.243 41.224 28.225 40.99 C 28.165 40.301 27.959 39.726 27.84 39.457 C 27.822 39.414 27.805 39.379 27.792 39.352 C 27.694 39.156 27.792 39.137 27.949 39.156 C 28.063 39.171 28.122 39.174 28.146 39.145 C 28.171 39.116 28.162 39.055 28.143 38.942 C 28.118 38.787 28.066 38.633 27.999 38.487 C 27.737 37.914 27.229 37.436 27.026 37.265 C 26.994 37.238 26.968 37.215 26.947 37.194 L 26.946 37.193 C 26.875 37.124 26.856 37.083 26.878 37.055 C 26.902 37.025 26.974 37.011 27.08 36.995 L 27.083 36.995 L 27.106 36.992 C 27.351 36.955 27.359 36.913 27.269 36.648 C 27.248 36.588 27.215 36.513 27.168 36.429 C 26.958 36.048 26.472 35.468 25.605 35.084 C 24.823 34.738 23.699 34.744 23.077 34.781 C 22.798 34.797 22.62 34.82 22.62 34.82 C 22.417 34.916 22.515 35.142 22.667 35.291 Z" fill="var(--token-bb9eb254-5702-404a-9d47-07d085d7a077, rgb(0, 0, 0)) /* {&quot;name&quot;:&quot;Black&quot;} */"></path><path d="M 24.597 38.73 C 24.664 38.994 24.747 39.253 24.843 39.503 C 24.748 39.254 24.665 38.996 24.597 38.73 Z M 26.878 42.694 L 26.879 42.695" fill="var(--token-bb9eb254-5702-404a-9d47-07d085d7a077, rgb(0, 0, 0)) /* {&quot;name&quot;:&quot;Black&quot;} */"></path><path d="M 31.255 40.996 C 30.621 40.996 30.117 41.497 30.117 42.127 C 30.117 42.756 30.621 43.255 31.255 43.255 C 31.889 43.255 32.391 42.755 32.391 42.127 C 32.391 41.499 31.893 40.996 31.255 40.996 Z M 31.255 43.071 C 30.735 43.071 30.301 42.659 30.301 42.127 C 30.301 41.595 30.735 41.179 31.255 41.179 C 31.774 41.179 32.206 41.594 32.206 42.127 C 32.206 42.66 31.774 43.071 31.255 43.071 Z" fill="var(--token-bb9eb254-5702-404a-9d47-07d085d7a077, rgb(0, 0, 0)) /* {&quot;name&quot;:&quot;Black&quot;} */"></path><path d="M 31.484 42.167 C 31.612 42.116 31.705 42 31.705 41.849 C 31.705 41.611 31.512 41.495 31.243 41.495 L 30.788 41.495 L 30.788 41.675 L 30.922 41.675 L 30.922 42.485 L 30.788 42.485 L 30.788 42.665 L 31.27 42.665 L 31.27 42.485 L 31.124 42.485 L 31.124 42.222 C 31.148 42.224 31.182 42.224 31.22 42.224 C 31.243 42.224 31.267 42.222 31.291 42.22 L 31.527 42.665 L 31.798 42.665 L 31.798 42.486 L 31.664 42.486 L 31.484 42.168 Z M 31.237 42.054 C 31.173 42.054 31.144 42.052 31.123 42.05 L 31.123 41.675 L 31.232 41.675 C 31.394 41.675 31.496 41.734 31.496 41.856 C 31.496 41.979 31.389 42.054 31.238 42.054 Z M 89.934 21.086 C 89.419 21.081 88.903 21.091 88.388 21.069 C 88.118 21.057 88.05 21.149 88.051 21.412 C 88.06 24.207 88.088 27.002 88.046 29.796 C 88.02 31.558 87.565 33.199 86.254 34.489 C 85.408 35.322 84.373 35.791 83.211 36.003 C 81.918 36.238 80.631 36.227 79.355 35.9 C 77.377 35.394 76.025 34.192 75.359 32.258 C 75.044 31.342 74.932 30.392 74.934 29.425 C 74.937 26.764 74.93 24.103 74.942 21.442 C 74.944 21.144 74.86 21.053 74.565 21.069 C 74.14 21.092 73.714 21.071 73.288 21.078 C 73.104 21.081 73.024 21.016 73.026 20.826 C 73.031 20.099 73.036 19.372 73.024 18.646 C 73.02 18.356 73.207 18.393 73.384 18.393 C 75.277 18.393 77.172 18.39 79.065 18.396 C 79.371 18.397 79.78 18.329 79.953 18.493 C 80.109 18.641 80.013 19.06 80.017 19.359 C 80.022 19.829 80.011 20.299 80.022 20.768 C 80.027 20.994 79.958 21.088 79.716 21.079 C 79.223 21.063 78.73 21.084 78.237 21.072 C 78.007 21.067 77.921 21.144 77.921 21.38 C 77.927 24.063 77.904 26.747 77.935 29.43 C 77.947 30.475 78.14 31.501 78.866 32.333 C 79.683 33.269 80.761 33.499 81.938 33.413 C 82.737 33.355 83.471 33.119 84.065 32.545 C 84.718 31.914 85.062 31.109 85.077 30.242 C 85.13 27.27 85.113 24.297 85.127 21.324 C 85.128 21.133 85.061 21.069 84.873 21.072 C 84.38 21.08 83.887 21.065 83.394 21.079 C 83.158 21.086 83.047 21.028 83.051 20.766 C 83.065 20.073 83.06 19.379 83.053 18.686 C 83.051 18.475 83.123 18.387 83.345 18.388 C 85.541 18.396 87.737 18.398 89.933 18.402 L 89.933 21.085 Z M 49.939 33.154 C 49.939 34.014 49.935 34.817 49.942 35.622 C 49.944 35.853 49.814 35.865 49.639 35.865 C 48.62 35.862 47.6 35.864 46.581 35.864 C 45.449 35.864 44.318 35.855 43.186 35.871 C 42.888 35.876 42.798 35.782 42.805 35.489 C 42.822 34.732 42.81 33.973 42.81 33.17 L 44.753 33.17 L 44.753 21.075 C 44.206 21.075 43.681 21.061 43.158 21.08 C 42.894 21.09 42.802 21.007 42.807 20.741 C 42.821 20.059 42.819 19.377 42.807 18.695 C 42.804 18.459 42.895 18.388 43.124 18.389 C 45.398 18.395 47.673 18.364 49.947 18.404 C 51.421 18.43 52.862 18.681 54.152 19.471 C 55.839 20.503 56.527 22.051 56.417 23.973 C 56.301 25.984 55.254 27.386 53.475 28.279 C 53.387 28.324 53.301 28.375 53.18 28.444 C 53.315 28.695 53.441 28.939 53.576 29.177 C 54.261 30.391 54.958 31.599 55.629 32.822 C 55.775 33.088 55.941 33.178 56.233 33.161 C 56.658 33.137 57.084 33.163 57.51 33.151 C 57.72 33.145 57.813 33.203 57.808 33.431 C 57.797 34.147 57.799 34.862 57.806 35.578 C 57.808 35.795 57.721 35.87 57.506 35.869 C 56.352 35.862 55.198 35.872 54.045 35.854 C 53.913 35.852 53.725 35.737 53.663 35.621 C 52.767 33.953 51.888 32.276 51.004 30.601 C 50.802 30.216 50.61 29.826 50.386 29.454 C 50.326 29.353 50.171 29.254 50.057 29.251 C 49.398 29.234 48.737 29.254 48.077 29.244 C 47.851 29.24 47.783 29.325 47.784 29.536 C 47.79 30.653 47.792 31.771 47.783 32.889 C 47.781 33.097 47.853 33.161 48.055 33.158 C 48.668 33.15 49.281 33.155 49.94 33.155 Z M 47.787 23.854 C 47.787 24.535 47.78 25.217 47.788 25.898 C 47.799 26.837 47.649 26.69 48.612 26.709 C 49.562 26.727 50.506 26.739 51.423 26.393 C 52.892 25.839 53.643 24.464 53.203 22.963 C 52.928 22.028 52.182 21.574 51.292 21.312 C 50.254 21.007 49.187 21.096 48.127 21.07 C 47.863 21.063 47.776 21.14 47.781 21.408 C 47.796 22.223 47.787 23.038 47.786 23.853 Z M 69.106 28.601 L 64.015 28.601 C 64.004 28.732 63.99 28.829 63.99 28.927 C 63.989 30.223 63.995 31.52 63.984 32.817 C 63.982 33.075 64.047 33.171 64.321 33.16 C 64.869 33.14 65.419 33.164 65.968 33.15 C 66.198 33.144 66.286 33.21 66.281 33.451 C 66.268 34.144 66.267 34.837 66.28 35.53 C 66.286 35.8 66.18 35.87 65.924 35.869 C 63.739 35.861 61.554 35.859 59.369 35.869 C 59.064 35.87 58.955 35.778 58.964 35.467 C 58.985 34.786 58.978 34.103 58.966 33.422 C 58.963 33.213 59.031 33.148 59.234 33.151 C 59.792 33.161 60.35 33.154 60.935 33.154 C 60.943 33.014 60.954 32.906 60.954 32.798 C 60.955 29.02 60.951 25.242 60.961 21.464 C 60.962 21.161 60.891 21.047 60.573 21.067 C 60.149 21.094 59.721 21.063 59.296 21.076 C 59.046 21.084 58.962 20.987 58.967 20.742 C 58.979 20.083 58.989 19.422 58.965 18.764 C 58.952 18.419 59.122 18.389 59.396 18.39 C 62.69 18.395 65.984 18.392 69.278 18.392 C 70.029 18.392 70.78 18.4 71.53 18.387 C 71.773 18.383 71.868 18.449 71.866 18.705 C 71.857 20.169 71.858 21.634 71.865 23.098 C 71.866 23.327 71.8 23.409 71.557 23.405 C 70.807 23.39 70.056 23.393 69.306 23.407 C 69.067 23.411 68.991 23.327 68.996 23.097 C 69.006 22.505 68.993 21.913 69.003 21.32 C 69.006 21.103 68.927 21.026 68.709 21.027 C 67.23 21.033 65.751 21.034 64.272 21.027 C 64.042 21.026 63.987 21.124 63.988 21.33 C 63.993 22.794 63.998 24.258 63.985 25.723 C 63.983 26.014 64.116 26.047 64.353 26.046 C 65.81 26.039 67.266 26.05 68.723 26.034 C 69.036 26.031 69.123 26.129 69.114 26.432 C 69.093 27.143 69.107 27.855 69.107 28.602 Z" fill="var(--token-bb9eb254-5702-404a-9d47-07d085d7a077, rgb(0, 0, 0)) /* {&quot;name&quot;:&quot;Black&quot;} */"></path></svg></defs><use href="#svg12135478925"></use></svg>