<svg xmlns:xlink="http://www.w3.org/1999/xlink" xmlns="http://www.w3.org/2000/svg" style="width:100%;height:100%;" width="60.144"  height="22.914" ><defs><svg viewBox="0 0 60.144 22.914" id="svg9086169949"><path d="M 60.286 10.762 C 60.215 12.707 60.215 14.651 59.295 16.387 C 57.597 19.72 54.837 21.941 51.087 22.705 C 44.365 24.025 38.138 19.581 37.219 12.915 C 36.369 6.805 40.827 1.042 47.125 0.139 C 51.795 -0.486 56.535 1.736 58.87 5.624 C 58.87 5.694 58.941 5.694 58.941 5.833 C 57.526 6.527 56.111 7.221 54.625 7.985 C 53.493 6.249 51.936 5.138 49.884 4.791 C 48.327 4.513 46.842 4.791 45.497 5.485 C 42.738 6.944 41.322 10.068 42.101 12.984 C 42.95 16.109 45.568 18.123 48.823 18.123 C 51.441 18.123 54.271 16.526 54.696 14.72 L 48.823 14.72 L 48.823 10.693 C 52.644 10.762 56.394 10.762 60.286 10.762 Z" fill="var(--token-bb9eb254-5702-404a-9d47-07d085d7a077, rgb(0, 0, 0)) /* {&quot;name&quot;:&quot;Black&quot;} */"></path><path d="M 18.751 22.566 L 18.751 0.417 L 28.94 0.417 C 30.143 0.417 31.416 0.555 32.549 1.042 C 34.459 1.805 35.803 3.125 36.369 5.069 C 37.077 7.43 36.865 9.721 35.379 11.873 C 34.6 12.984 33.468 13.748 32.195 14.165 L 31.558 14.373 C 33.681 17.15 35.733 19.858 37.855 22.566 L 32.265 22.566 C 31.982 22.566 31.77 22.497 31.629 22.219 C 29.93 19.789 28.162 17.359 26.463 14.929 C 26.251 14.651 26.039 14.512 25.756 14.581 L 23.775 14.581 L 23.775 22.566 Z M 23.704 10.901 C 25.544 10.832 27.383 10.832 29.223 10.693 C 30.85 10.554 31.699 9.651 31.841 8.054 C 32.053 5.902 31.275 4.444 28.94 4.236 C 27.454 4.097 25.897 4.166 24.411 4.166 L 23.704 4.166 Z M 0 22.497 L 0 0.417 L 10.048 0.417 C 11.25 0.417 12.524 0.555 13.656 0.972 C 15.991 1.875 17.406 3.541 17.831 6.041 C 18.255 8.61 17.831 11.04 15.708 12.845 C 14.364 14.026 12.666 14.512 10.897 14.581 C 9.128 14.651 7.359 14.581 5.59 14.581 L 5.024 14.581 C 5.024 14.79 4.953 14.929 4.953 15.137 L 4.953 22.08 C 4.953 22.497 4.812 22.566 4.458 22.566 C 2.972 22.497 1.486 22.497 0 22.497 Z M 4.953 10.762 C 6.722 10.762 8.491 10.832 10.26 10.762 C 10.755 10.762 11.321 10.554 11.817 10.276 C 12.949 9.651 13.373 8.263 13.161 6.735 C 12.878 5.416 12.1 4.652 10.826 4.374 C 10.614 4.305 10.331 4.236 10.118 4.236 C 8.774 4.166 7.5 4.166 6.227 4.166 L 4.953 4.166 Z M 60.356 22.08 C 60.356 22.705 59.861 23.191 59.224 23.191 C 58.587 23.191 58.092 22.636 58.092 22.08 C 58.092 21.455 58.658 20.969 59.224 20.969 C 59.861 20.9 60.356 21.386 60.356 22.08 Z M 59.224 22.983 C 59.719 22.983 60.144 22.566 60.144 22.011 C 60.144 21.525 59.719 21.108 59.224 21.108 C 58.658 21.108 58.234 21.525 58.304 22.08 C 58.304 22.566 58.729 22.983 59.224 22.983 Z" fill="var(--token-bb9eb254-5702-404a-9d47-07d085d7a077, rgb(0, 0, 0)) /* {&quot;name&quot;:&quot;Black&quot;} */"></path><path d="M 59.436 22.289 L 59.578 22.289 C 59.578 22.08 59.719 21.803 59.649 21.664 C 59.436 21.317 59.083 21.455 58.658 21.525 C 58.8 21.941 58.587 22.358 58.8 22.775 L 58.941 22.775 C 59.012 22.636 59.012 22.497 59.083 22.289 C 59.295 22.497 59.507 22.636 59.649 22.844 L 59.719 22.775 C 59.578 22.497 59.507 22.358 59.436 22.289 Z M 59.295 21.941 L 58.87 21.941 L 58.87 21.664 L 59.295 21.664 C 59.578 21.733 59.295 21.941 59.295 21.941 Z" fill="var(--token-bb9eb254-5702-404a-9d47-07d085d7a077, rgb(0, 0, 0)) /* {&quot;name&quot;:&quot;Black&quot;} */"></path></svg></defs><use href="#svg9086169949"></use></svg>