<svg xmlns:xlink="http://www.w3.org/1999/xlink" xmlns="http://www.w3.org/2000/svg" style="width:100%;height:100%;" viewBox="0 0 719 720" preserveAspectRatio="none" width="719" height="720"><defs><svg id="svg1308392916_4666" data-name="Layer 2" viewBox="0 0 718.56 719.75"><defs><style>.cls-1{fill:#000;stroke-width:0}</style></defs><g id="svg1308392916_4666_Layer_1-2" data-name="Layer 1"><path class="cls-1" d="M358.8 719.75C160.89 719.47-.35 557.36 0 359.02.35 161.64 162.28-.12 359.39 0c198.64.12 359.56 162.1 359.16 361.53-.39 197.46-162.11 358.49-359.75 358.22Zm-140.27-406.9c1.07 29.95-13.37 44.03-40.61 42.37-10.35-.63-19.36-4.08-26-12.12-5.86-7.11-8.63 0-12.3 2.28-5.29 3.29-2.16 6.35.8 9.07 18.31 16.86 39.86 18.83 62.44 12.09 19.06-5.69 30.99-23.58 31.56-45.45.41-15.85.54-31.73-.02-47.56-1.01-28.49-24.09-50.01-52.13-49.28-28.03.73-50.19 23.32-50.42 51.39-.23 28.26 21.47 51.21 49.45 52.22 13.89.5 25.71-4.86 37.22-15Zm315.4 170c2.39 17.67-3.64 30.91-16.5 37.68-14.79 7.78-35.54 5.73-47.77-6.68-6.69-6.79-10.31-2.99-14.53 1.12-5.9 5.74.82 8.5 3.8 10.9 18.74 15.08 40.03 17.08 61.87 9.01 19.36-7.15 28.42-23.14 29.62-43 1.01-16.68.98-33.52.05-50.21-1.6-28.46-25.41-49.37-53.5-48.1-28.59 1.28-49.91 24.81-48.96 54.01.94 28.65 23.08 49.25 52.09 49.21 13.16-.02 23.71-5.77 33.83-13.94Zm42.56-248.14c0-15.02-.26-30.05.12-45.06.16-6.48-1.54-9.32-8.56-9.17-6.52.14-7.87 3.09-7.76 8.77.24 13.3.02 26.61.09 39.91.04 6.61-1.52 9.07-7.88 4.19-9.61-7.36-20.79-10.13-32.72-8.77-28.76 3.28-47.53 26.12-45.79 55.3 1.6 26.84 24.04 47.86 51.16 47.92 27.87.07 50.22-21.78 51.22-50.61.49-14.15.08-28.32.12-42.49Zm-245.3 215.54c11.16 0 22.35-.6 33.45.18 9.57.68 11.86-3.01 10.74-11.85-3.25-25.54-21.29-43.14-46.8-44.98-25.85-1.87-47.19 13.37-53.75 38.39-6.55 24.95 4.03 49.46 25.78 59.73 23.42 11.06 52.05 4.45 66.53-14.29 6.83-8.84 1.01-10.9-5.28-13.26-5.35-2.01-6.08 3.55-8.39 6.08-19.06 20.98-54.33 14.79-63.36-11.04-2.36-6.75-1.24-9.33 6.33-9.06 11.57.41 23.16.11 34.75.11Zm-219.8 0c11.16 0 22.34-.46 33.46.16 7.93.44 11.19-2.2 9.95-10.1-.6-3.8-.67-7.72-1.68-11.4-6.29-22.67-27.26-36.84-51.96-35.34-25.02 1.52-44.07 19.34-47.5 44.43-3.52 25.75 8.67 47.37 31.37 55.68 23.52 8.61 51.39.34 63.34-18.23 3.29-5.11 1.91-6.75-2.65-9.66-6.49-4.12-8.62-.06-12.19 4.02-18.27 20.87-53.24 15.66-62.85-8.99-2.96-7.6-1.84-11.11 7.25-10.68 11.13.52 22.31.12 33.47.12Zm135.53-174.07c.05 29.06 22.45 51.76 51.04 51.71 28.43-.05 51.68-23 51.98-51.31.3-28.79-23.59-52.75-52.22-52.35-28.93.4-50.84 22.81-50.8 51.95Zm113.68.2c.1 28.87 22.67 51.51 51.32 51.51 28.38 0 51.42-23.01 51.58-51.51.16-29.06-23.16-52.34-52.23-52.13-28.53.2-50.77 23.09-50.67 52.13Zm200.95 120.57c12.72 29.08 24.79 57.43 37.54 85.47 5.25 11.55-1.98 18.88-7.62 26.47-5.65 7.61-14.7 8.32-21.99 3.76-7.87-4.93-8.16.58-10.47 4.94-3.45 6.51.93 8.07 5.67 9.87 18.32 6.97 35.27.53 44.43-19.42 16.46-35.8 31.67-72.18 47.31-108.35.39-.9-.2-2.23-.3-3.1-10.84-3.7-15.74.94-19.38 10.63-7.74 20.62-16.59 40.83-26.24 64.22-10.16-23.32-19.69-43.29-27.5-63.91-4.03-10.62-9.59-14.23-21.46-10.57Zm-391.88 62.89h-.05c0 9 .29 18.01-.1 27-.26 6.03 1.7 8.39 7.96 8.4 6.38.01 7.97-2.6 7.84-8.51-.32-14.99-.18-30-.09-45 .12-20.8 10.06-32.53 27.71-32.92 18.21-.4 29.55 11.8 29.81 32.44.19 15.43.27 30.86-.05 46.29-.14 6.82 3.5 7.55 8.88 7.64 5.77.1 7.34-2.6 7.23-7.87-.39-18.41.45-36.91-1.01-55.23-1.9-23.92-21.64-39.62-46.16-38.53-23.82 1.06-40.95 18.05-41.91 41.88-.33 8.13-.05 16.28-.05 24.43Zm219.73 1.72h-.22c0 7.27-.07 14.54.02 21.81.07 5.67-2.04 12.24 8.08 12.04 9.36-.19 7.3-6.28 7.35-11.47.12-12.83-.14-25.67.09-38.49.4-21.91 9.38-32.05 31.29-34.2 6.39-.63 7.64-2.96 7.79-8.64.19-7.29-4.16-6.97-9.15-7.01-24.57-.19-43.15 16.63-45.15 41.58-.65 8.07-.1 16.24-.1 24.37Z" stroke-width="0px"></path><path class="cls-1" d="M219.09 275.95c.05 20.98-15.92 37.66-35.9 37.5-19.99-.16-36.03-17.25-35.63-37.96.4-20.31 16.13-36.72 35.44-36.95 19.87-.24 36.04 16.52 36.09 37.4Zm244.64 168.67c.26-21.03 16.37-37.04 36.72-36.49 19.47.53 34.91 17.03 34.93 37.34.02 20.31-16.99 37.8-36.43 37.48-19.93-.33-35.48-17.26-35.21-38.33Zm97.48-168.49c-.08 20.72-16.42 37.44-36.41 37.28-19.88-.17-35.58-17.22-35.21-38.23.36-20.34 16.12-36.59 35.54-36.66 19.82-.07 36.16 16.97 36.09 37.62ZM323.74 436.42c-9.42 0-18.83-.15-28.25.05-5.87.13-6.57-2.31-4.31-7.02 6.02-12.54 15.53-20.23 29.68-21.35 14.21-1.12 26.39 2.55 34.1 15.59 5.8 9.81 4.28 12.56-6.83 12.7-8.13.1-16.26.02-24.4.02Zm-220.14 0c-9.02 0-18.04-.13-27.05.04-5.55.1-8.43-1.08-5.31-7.3 6.49-12.95 16.43-20.62 31.27-21.18 14.41-.55 26.16 3.95 33.28 17.36 3.79 7.15 4.58 12.09-6.44 11.21-8.53-.68-17.17-.14-25.75-.14Zm158.93-161.25c.37-20.33 16.18-36.62 35.54-36.62 19.81 0 36.17 17.13 36 37.73-.17 20.85-16.4 37.4-36.46 37.18-19.88-.22-35.47-17.22-35.08-38.28Zm148.77 38.28c-19.85-.24-35.7-17.53-35.17-38.35.52-20.33 16.46-36.63 35.76-36.56 19.88.07 36.05 17.1 35.89 37.8-.16 20.81-16.42 37.35-36.48 37.11Z" stroke-width="0px"></path></g></svg></defs><use href="#svg1308392916_4666"></use></svg>