<svg xmlns:xlink="http://www.w3.org/1999/xlink" xmlns="http://www.w3.org/2000/svg" style="width:100%;height:100%;" width="48"  height="56" ><defs><svg viewBox="0 0 47.972 55.852" id="svg12787664887"><path d="M 0 14.581 L 0 3.828 C 0 3.549 0.035 3.288 0.035 3.01 C 0.035 2.853 0.121 2.784 0.26 2.766 C 1.957 2.419 3.672 2.036 5.369 1.705 C 6.806 1.427 8.244 1.201 9.681 1.009 C 11.118 0.8 12.539 0.644 13.976 0.487 C 15.067 0.365 16.158 0.278 17.249 0.226 C 19.137 0.122 21.025 0.017 22.912 0 C 24.973 -0.017 27.051 0.035 29.112 0.122 C 30.48 0.174 31.849 0.296 33.217 0.418 C 34.498 0.539 35.78 0.661 37.044 0.835 C 38.655 1.061 40.265 1.288 41.859 1.583 C 43.781 1.931 45.669 2.366 47.591 2.749 C 47.799 2.784 47.851 2.888 47.851 3.08 C 47.868 4.611 47.92 6.142 47.92 7.673 C 47.937 11.101 47.937 14.511 47.92 17.939 C 47.92 20.305 47.92 22.671 47.833 25.02 C 47.799 26.134 47.591 27.247 47.4 28.344 C 46.794 31.632 45.651 34.712 44.075 37.652 C 42.361 40.854 40.196 43.707 37.668 46.3 C 34.169 49.901 30.169 52.79 25.701 55.051 C 25.164 55.33 24.627 55.591 24.09 55.869 C 23.986 55.921 23.899 55.921 23.778 55.869 C 20.037 54.112 16.556 51.972 13.404 49.292 C 9.542 46.004 6.252 42.228 3.845 37.722 C 2.217 34.677 1.056 31.475 0.416 28.083 C 0.156 26.708 0.035 25.351 0.035 23.959 L 0.035 14.581 Z M 1.178 18.234 L 1.264 18.234 L 1.264 23.333 C 1.264 25.003 1.385 26.656 1.732 28.291 C 2.477 31.736 3.706 34.99 5.473 38.052 C 7.62 41.758 10.374 44.96 13.578 47.779 C 16.678 50.493 20.107 52.72 23.83 54.477 C 23.899 54.512 24.021 54.495 24.09 54.477 C 27.276 52.946 30.255 51.102 32.992 48.892 C 36.802 45.83 40.006 42.228 42.447 37.983 C 45.097 33.355 46.638 28.396 46.656 23.002 C 46.673 19.661 46.673 16.338 46.673 12.997 C 46.673 12.423 46.638 11.849 46.621 11.275 C 46.621 11.083 46.535 10.996 46.344 10.962 C 43.209 10.3 40.075 9.691 36.906 9.309 C 35.312 9.117 33.719 8.943 32.126 8.804 C 30.775 8.682 29.407 8.595 28.039 8.543 C 26.151 8.473 24.263 8.456 22.358 8.456 C 21.302 8.456 20.228 8.543 19.171 8.595 C 17.994 8.665 16.799 8.717 15.621 8.804 C 14.27 8.926 12.92 9.065 11.569 9.239 C 9.906 9.465 8.244 9.691 6.598 9.987 C 4.884 10.283 3.187 10.666 1.472 10.996 C 1.108 11.066 1.195 11.066 1.195 11.362 C 1.178 13.624 1.178 15.938 1.178 18.234 Z M 41.131 5.777 L 41.097 5.777 L 41.097 8.143 C 41.097 8.23 41.079 8.334 41.218 8.352 C 41.703 8.439 42.188 8.543 42.673 8.595 C 43.106 8.647 43.573 8.386 43.677 8.021 C 43.902 7.325 43.85 6.664 43.365 6.072 C 43.261 5.951 43.261 5.881 43.365 5.759 C 43.487 5.603 43.608 5.429 43.66 5.237 C 43.712 5.063 43.694 4.854 43.66 4.68 C 43.573 4.054 43.296 3.549 42.69 3.323 C 42.344 3.201 41.98 3.114 41.616 3.045 C 41.149 2.958 41.149 2.958 41.131 3.445 Z M 31.398 1.723 C 31.381 1.757 31.381 1.775 31.381 1.792 L 31.329 6.942 C 31.329 7.064 31.381 7.099 31.485 7.099 C 31.658 7.099 31.831 7.116 32.004 7.134 C 32.16 7.151 32.23 7.116 32.23 6.96 C 32.23 6.664 32.247 6.386 32.264 6.09 C 32.264 5.777 32.264 5.446 32.282 5.133 C 32.282 5.063 32.368 4.941 32.403 4.941 C 32.472 4.941 32.559 4.994 32.628 5.063 C 32.68 5.115 32.697 5.202 32.714 5.272 C 32.836 5.759 32.957 6.264 33.095 6.751 C 33.182 7.099 33.407 7.273 33.754 7.273 C 34.083 7.273 34.1 7.256 34.031 6.925 C 33.892 6.246 33.736 5.55 33.598 4.872 C 33.58 4.767 33.598 4.628 33.667 4.541 C 33.823 4.28 33.944 4.019 33.944 3.723 L 33.944 3.045 C 33.927 2.54 33.667 2.158 33.199 1.984 C 32.593 1.775 31.987 1.757 31.398 1.723 Z M 28.177 4.646 C 28.454 4.646 28.593 4.802 28.645 5.011 C 28.783 5.533 28.922 6.055 29.078 6.577 C 29.199 6.96 29.216 6.977 29.632 6.977 L 29.718 6.977 C 30.013 6.977 30.047 6.925 29.978 6.647 C 29.822 5.968 29.684 5.272 29.528 4.593 C 29.511 4.506 29.493 4.385 29.545 4.332 C 29.874 3.863 29.892 3.341 29.874 2.801 C 29.857 2.21 29.511 1.723 28.922 1.636 C 28.471 1.566 27.987 1.583 27.536 1.549 C 27.363 1.531 27.294 1.583 27.294 1.775 L 27.294 6.681 C 27.294 6.751 27.294 6.821 27.311 6.908 L 27.64 6.908 C 28.004 6.908 28.177 6.734 28.177 6.368 Z M 10.062 4.907 C 10.079 5.359 10.097 6.09 10.149 6.803 C 10.183 7.377 10.772 7.864 11.344 7.778 C 11.967 7.691 12.348 7.29 12.59 6.751 C 12.625 6.699 12.625 6.629 12.625 6.56 C 12.642 5.446 12.677 4.332 12.694 3.236 C 12.694 2.958 12.677 2.679 12.66 2.401 C 12.66 2.262 12.608 2.175 12.435 2.227 C 12.313 2.262 12.175 2.279 12.036 2.279 C 11.863 2.297 11.811 2.366 11.811 2.54 C 11.794 3.636 11.759 4.75 11.725 5.846 C 11.725 6.107 11.69 6.368 11.638 6.629 C 11.621 6.716 11.534 6.821 11.447 6.873 C 11.24 6.977 10.98 6.803 10.945 6.577 C 10.928 6.386 10.911 6.194 10.911 6.003 L 10.911 3.654 C 10.911 3.341 10.893 3.045 10.876 2.732 C 10.859 2.453 10.824 2.419 10.547 2.471 C 10.443 2.488 10.356 2.523 10.252 2.523 C 10.114 2.54 10.062 2.61 10.062 2.766 Z M 6.841 5.846 L 6.875 5.846 L 6.875 7.169 C 6.875 7.917 7.534 8.404 8.14 8.265 C 8.763 8.125 9.369 7.586 9.387 6.977 C 9.421 5.916 9.404 4.854 9.387 3.793 C 9.387 3.428 9.248 3.08 8.884 2.94 C 7.863 2.523 6.997 3.184 6.91 4.106 C 6.841 4.68 6.858 5.272 6.841 5.846 Z M 34.602 2.088 C 34.585 2.14 34.568 2.158 34.568 2.175 C 34.585 3.532 34.585 4.872 34.62 6.229 C 34.637 7.151 35.295 7.534 35.884 7.604 C 36.265 7.638 36.594 7.551 36.871 7.238 C 37.131 6.925 37.183 6.56 37.183 6.194 L 37.183 2.923 C 37.183 2.593 37.027 2.401 36.715 2.332 C 36.317 2.245 36.282 2.262 36.282 2.679 C 36.265 3.776 36.265 4.889 36.247 5.985 C 36.247 6.159 36.23 6.316 36.195 6.49 C 36.178 6.577 36.109 6.664 36.04 6.699 C 35.814 6.803 35.451 6.56 35.451 6.316 C 35.416 5.324 35.399 4.315 35.364 3.323 L 35.364 2.123 C 35.087 2.123 34.845 2.105 34.602 2.088 Z M 37.858 5.115 C 37.875 5.655 37.875 6.194 37.927 6.734 C 37.979 7.308 38.274 7.725 38.811 7.951 C 39.347 8.178 39.85 8.125 40.231 7.656 C 40.3 7.569 40.369 7.447 40.369 7.343 C 40.387 6.734 40.404 6.125 40.404 5.516 C 40.421 5.081 40.421 5.081 39.988 5.011 C 39.954 5.011 39.919 4.994 39.884 4.994 C 39.365 4.924 39.33 4.941 39.192 5.463 C 39.14 5.637 39.157 5.742 39.365 5.777 C 39.434 5.794 39.538 5.916 39.555 5.985 C 39.573 6.264 39.573 6.56 39.555 6.855 C 39.555 7.029 39.451 7.116 39.295 7.186 C 39.14 7.256 39.018 7.203 38.949 7.082 C 38.863 6.942 38.759 6.786 38.759 6.647 C 38.741 5.724 38.759 4.785 38.759 3.863 C 38.759 3.671 38.811 3.515 39.018 3.48 C 39.209 3.445 39.417 3.549 39.486 3.741 C 39.538 3.845 39.555 3.967 39.573 4.089 C 39.607 4.385 39.659 4.437 39.936 4.454 C 39.988 4.454 40.04 4.472 40.092 4.472 C 40.352 4.472 40.421 4.419 40.421 4.158 C 40.421 3.393 39.884 2.732 39.14 2.61 C 38.551 2.523 37.979 2.871 37.927 3.515 C 37.893 4.054 37.875 4.593 37.858 5.115 Z M 4.156 5.881 C 3.949 5.916 3.758 5.968 3.568 5.985 C 3.256 6.02 3.117 6.194 3.065 6.473 C 3.048 6.542 3.048 6.612 3.031 6.664 C 2.979 6.821 3.048 6.873 3.204 6.89 C 3.273 6.908 3.394 6.995 3.394 7.029 C 3.394 7.395 3.377 7.76 3.325 8.125 C 3.29 8.334 3.083 8.456 2.858 8.439 C 2.684 8.421 2.563 8.299 2.563 8.056 C 2.563 7.134 2.563 6.212 2.58 5.289 C 2.58 5.133 2.667 4.959 2.771 4.837 C 2.858 4.75 3.031 4.698 3.152 4.715 C 3.325 4.733 3.377 4.889 3.377 5.063 C 3.377 5.133 3.36 5.22 3.394 5.272 C 3.429 5.324 3.498 5.394 3.55 5.394 C 3.723 5.376 3.897 5.342 4.053 5.272 C 4.104 5.255 4.174 5.185 4.191 5.115 C 4.278 4.524 4.156 4.054 3.533 3.845 C 3.204 3.741 2.892 3.776 2.615 3.967 C 2.078 4.298 1.766 4.75 1.766 5.411 L 1.766 8.647 C 1.766 8.7 1.766 8.752 1.784 8.787 C 2.009 9.03 2.234 9.274 2.58 9.326 C 3.221 9.413 4.087 8.787 4.139 8.143 C 4.208 7.412 4.191 6.681 4.208 5.951 C 4.174 5.951 4.174 5.933 4.156 5.881 Z M 14.288 6.455 C 14.288 6.438 14.27 6.42 14.27 6.403 L 14.27 3.097 C 14.27 3.045 14.288 2.993 14.322 2.958 C 14.651 2.645 14.911 2.732 15.015 3.184 C 15.015 3.201 15.015 3.236 15.032 3.271 C 15.067 3.48 15.188 3.584 15.379 3.567 C 15.5 3.567 15.621 3.567 15.725 3.515 C 15.794 3.497 15.881 3.41 15.898 3.341 C 16.02 2.627 15.535 1.897 14.738 1.914 C 13.941 1.931 13.439 2.471 13.37 3.271 C 13.352 3.549 13.318 3.845 13.318 4.124 C 13.318 4.872 13.318 5.62 13.387 6.368 C 13.456 7.186 14.27 7.621 15.015 7.256 C 15.223 7.151 15.396 7.029 15.587 6.89 C 15.673 6.821 15.76 6.699 15.812 6.577 C 15.968 6.212 15.968 5.829 15.985 5.411 C 15.742 5.446 15.535 5.481 15.327 5.516 C 15.119 5.533 15.05 5.655 15.05 5.846 C 15.032 6.42 14.946 6.507 14.374 6.455 C 14.322 6.473 14.305 6.455 14.288 6.455 Z M 17.37 3.984 L 17.37 2.662 C 17.37 2.627 17.457 2.593 17.526 2.575 C 17.751 2.558 17.994 2.558 18.219 2.523 C 18.323 2.506 18.444 2.436 18.479 2.349 C 18.565 2.14 18.6 1.914 18.669 1.653 C 17.925 1.688 17.232 1.705 16.539 1.74 L 16.539 7.186 C 16.643 7.169 16.73 7.169 16.799 7.151 C 17.284 7.099 17.751 7.064 18.236 7.012 C 18.323 6.995 18.461 6.96 18.479 6.908 C 18.548 6.664 18.6 6.42 18.652 6.177 L 17.353 6.177 L 17.353 4.959 C 17.353 4.924 17.44 4.872 17.492 4.854 C 17.734 4.802 17.977 4.767 18.219 4.715 C 18.271 4.698 18.375 4.663 18.375 4.628 C 18.409 4.367 18.409 4.124 18.427 3.845 C 18.063 3.897 17.734 3.932 17.37 3.984 Z M 26.809 1.531 C 26.064 1.444 25.354 1.444 24.627 1.444 L 24.627 6.803 L 25.978 6.803 C 26.601 6.803 26.601 6.803 26.757 6.194 C 26.792 6.055 26.774 5.985 26.601 5.985 C 26.376 5.985 26.151 5.968 25.926 5.951 L 25.458 5.951 L 25.458 4.576 L 26.514 4.576 C 26.514 4.35 26.497 4.124 26.514 3.915 C 26.532 3.741 26.463 3.689 26.307 3.706 C 26.03 3.723 25.735 3.706 25.458 3.706 L 25.458 2.314 L 26.341 2.314 C 26.497 2.314 26.584 2.262 26.636 2.123 C 26.688 1.949 26.74 1.775 26.809 1.531 Z M 21.146 1.531 C 20.713 1.549 20.349 1.549 19.985 1.601 C 19.414 1.688 19.12 1.966 18.998 2.54 C 18.877 3.097 18.946 3.602 19.397 4.019 C 19.622 4.228 19.83 4.437 20.037 4.646 C 20.193 4.82 20.366 4.994 20.505 5.202 C 20.747 5.585 20.557 5.985 20.107 6.02 L 19.951 6.02 C 19.293 6.038 19.293 6.038 19.171 6.681 C 19.137 6.821 19.171 6.89 19.31 6.89 C 19.656 6.873 20.02 6.89 20.366 6.855 C 20.574 6.838 20.782 6.803 20.955 6.699 C 21.544 6.333 21.717 5.237 21.267 4.698 C 20.973 4.35 20.661 4.054 20.349 3.723 C 20.245 3.619 20.124 3.497 20.037 3.393 C 19.847 3.149 19.864 2.853 19.968 2.593 C 20.037 2.384 20.28 2.453 20.436 2.401 C 20.522 2.366 20.644 2.384 20.73 2.349 C 20.799 2.332 20.903 2.279 20.921 2.227 C 20.99 2.018 21.059 1.792 21.146 1.531 Z M 43.919 3.497 C 43.954 3.636 43.971 3.706 43.989 3.758 C 44.231 4.524 44.474 5.289 44.699 6.055 C 44.803 6.42 44.889 6.786 44.924 7.151 C 44.959 7.708 44.959 8.265 44.959 8.821 C 44.959 9.117 44.959 9.117 45.253 9.187 C 45.773 9.309 45.79 9.291 45.79 8.752 C 45.773 7.691 45.825 6.647 46.309 5.672 C 46.327 5.637 46.344 5.585 46.361 5.533 C 46.483 5.168 46.621 4.802 46.725 4.437 C 46.794 4.193 46.76 4.141 46.517 4.089 C 46.361 4.054 46.206 4.037 46.067 4.037 C 45.998 4.037 45.911 4.106 45.894 4.158 C 45.755 4.506 45.651 4.872 45.513 5.237 C 45.478 5.324 45.444 5.411 45.392 5.55 C 45.34 5.394 45.288 5.289 45.253 5.185 C 45.114 4.767 44.993 4.35 44.855 3.932 C 44.82 3.845 44.768 3.741 44.699 3.723 C 44.456 3.636 44.214 3.584 43.919 3.497 Z M 21.406 2.384 L 21.821 2.384 C 22.323 2.366 22.341 2.366 22.341 2.888 C 22.358 4.106 22.358 5.307 22.358 6.525 C 22.358 6.612 22.375 6.716 22.375 6.803 L 23.207 6.803 L 23.207 2.297 L 23.674 2.297 C 24.159 2.279 24.159 2.279 24.107 1.792 C 24.073 1.514 24.038 1.479 23.761 1.462 C 23.363 1.462 22.964 1.462 22.566 1.479 C 22.323 1.479 22.081 1.514 21.839 1.549 C 21.769 1.566 21.665 1.636 21.648 1.688 C 21.544 1.897 21.475 2.14 21.406 2.384 Z M 5.68 3.288 C 5.438 3.341 5.247 3.393 5.04 3.41 C 4.832 3.428 4.815 3.515 4.815 3.706 C 4.832 5.324 4.849 6.96 4.849 8.578 C 4.849 8.647 4.849 8.7 4.866 8.804 C 5.282 8.717 5.68 8.665 6.079 8.578 C 6.598 8.473 6.65 8.369 6.425 7.864 C 6.373 7.743 6.287 7.691 6.131 7.708 C 5.992 7.725 5.854 7.743 5.663 7.778 Z" fill="var(--token-bb9eb254-5702-404a-9d47-07d085d7a077, rgb(0, 0, 0)) /* {&quot;name&quot;:&quot;Black&quot;} */"></path><path d="M 27.051 10.161 C 27.155 10.161 27.259 10.144 27.363 10.144 C 28.333 10.179 29.303 10.213 30.273 10.283 C 31.242 10.335 32.212 10.422 33.182 10.509 C 34.325 10.614 35.468 10.735 36.594 10.892 C 38.083 11.101 39.555 11.31 41.027 11.571 C 42.309 11.797 43.59 12.075 44.872 12.319 C 45.011 12.354 45.045 12.406 45.045 12.545 C 45.028 16.373 45.028 20.201 44.993 24.011 C 44.959 26.325 44.508 28.57 43.833 30.762 C 42.638 34.659 40.698 38.157 38.17 41.341 C 37.875 41.724 37.564 42.089 37.269 42.454 C 37.235 42.507 37.113 42.541 37.061 42.541 C 33.927 41.88 30.827 41.08 27.813 40.018 C 25.06 39.061 22.375 37.965 19.83 36.521 C 17.717 35.338 15.742 33.946 14.063 32.189 C 12.313 30.379 11.032 28.309 10.564 25.786 C 10.443 25.125 10.46 24.446 10.443 23.767 C 10.374 21.175 11.066 18.791 12.452 16.616 C 13.023 15.712 13.768 14.929 14.565 14.215 C 14.599 14.18 14.634 14.163 14.686 14.128 C 14.703 14.111 14.721 14.111 14.807 14.076 C 14.738 14.233 14.703 14.337 14.634 14.441 C 14.132 15.19 13.768 16.007 13.491 16.86 C 13.075 18.095 12.885 19.365 12.902 20.688 C 12.937 22.689 13.335 24.585 14.184 26.395 C 14.755 27.63 15.621 28.639 16.591 29.561 C 18.461 31.336 20.609 32.711 22.895 33.859 C 23.865 34.346 24.869 34.781 25.856 35.251 C 25.96 35.303 26.082 35.321 26.185 35.355 C 26.185 35.338 26.203 35.321 26.22 35.303 C 26.168 35.251 26.116 35.216 26.064 35.164 C 25.077 34.346 24.073 33.581 23.12 32.728 C 21.89 31.615 20.886 30.327 20.124 28.848 C 19.449 27.508 19.241 26.099 19.362 24.62 C 19.449 23.611 19.708 22.671 20.228 21.819 C 20.747 20.984 21.423 20.288 22.22 19.696 C 22.289 19.644 22.358 19.609 22.462 19.592 C 22.41 19.696 22.341 19.8 22.289 19.905 C 21.821 20.618 21.492 21.384 21.336 22.236 C 21.094 23.628 21.336 24.968 21.908 26.238 C 22.497 27.526 23.38 28.587 24.523 29.422 C 24.679 29.527 24.835 29.614 24.99 29.718 C 25.094 29.788 25.181 29.753 25.233 29.631 C 25.32 29.422 25.423 29.196 25.527 28.987 C 26.168 27.7 27.173 26.778 28.368 26.029 C 28.783 25.768 29.216 25.577 29.649 25.351 C 29.718 25.316 29.805 25.299 29.926 25.316 C 29.84 25.438 29.77 25.577 29.684 25.699 C 28.87 26.795 28.212 27.961 27.709 29.231 C 27.276 30.31 27.034 31.406 27.034 32.572 C 27.034 32.972 27.086 33.355 27.103 33.755 C 27.121 33.981 27.259 34.068 27.45 34.137 C 28.212 34.364 28.974 34.59 29.701 34.868 C 31.329 35.46 32.663 36.452 33.702 37.861 C 33.806 37.983 33.892 38.018 34.031 37.965 C 34.845 37.722 35.589 37.374 36.195 36.782 C 36.559 36.417 36.819 35.982 37.027 35.529 C 37.096 35.373 37.183 35.216 37.269 35.042 L 37.338 35.042 C 37.373 35.147 37.408 35.234 37.425 35.338 C 37.477 35.756 37.39 36.156 37.269 36.539 C 37.235 36.643 37.217 36.747 37.165 36.887 C 37.287 36.852 37.356 36.834 37.425 36.8 C 38.897 36.069 39.746 34.485 39.365 32.85 C 39.313 32.624 39.174 32.398 39.053 32.206 C 38.932 32.015 38.845 31.806 38.845 31.562 C 38.845 31.354 38.828 31.145 38.811 30.936 C 38.793 30.832 38.776 30.727 38.741 30.623 C 38.724 30.571 38.655 30.501 38.603 30.484 C 38.568 30.484 38.499 30.553 38.464 30.605 C 38.36 30.814 38.256 31.006 38.17 31.214 C 38.083 31.388 37.979 31.458 37.771 31.406 C 37.321 31.301 36.871 31.319 36.421 31.406 C 36.126 31.458 36.144 31.458 36.074 31.18 C 36.022 30.936 35.953 30.675 35.728 30.449 L 35.555 30.797 C 35.468 31.006 35.364 31.232 35.295 31.441 C 35.174 31.754 34.966 31.945 34.671 32.084 C 33.65 32.554 32.593 32.885 31.468 32.937 L 31.294 32.937 C 31.294 32.798 31.277 32.676 31.277 32.537 C 31.19 31.545 31.364 30.588 31.883 29.718 C 31.952 29.614 32.004 29.579 32.126 29.579 C 33.407 29.718 34.671 29.596 35.884 29.161 C 36.265 29.022 36.628 28.848 36.957 28.622 C 37.65 28.152 37.997 27.439 38.101 26.604 C 38.152 26.221 37.875 25.821 37.46 25.664 C 37.148 25.56 36.836 25.473 36.507 25.42 C 35.97 25.316 35.572 25.02 35.26 24.585 C 35.174 24.463 35.139 24.324 35.122 24.185 C 35.104 24.115 35.174 24.028 35.243 23.976 C 35.278 23.959 35.382 23.994 35.433 24.028 C 35.624 24.15 35.797 24.289 35.97 24.411 C 36.126 24.516 36.299 24.533 36.473 24.463 C 36.594 24.411 36.715 24.394 36.819 24.324 C 37.096 24.15 37.373 24.168 37.685 24.237 C 38.101 24.342 38.533 24.394 38.966 24.446 C 39.244 24.463 39.503 24.376 39.728 24.202 C 39.867 24.098 39.884 23.994 39.78 23.854 C 39.261 23.159 38.603 22.602 37.962 22.028 C 37.304 21.453 36.663 20.879 36.022 20.288 C 35.918 20.183 35.814 20.061 35.728 19.922 C 36.403 20.061 36.992 20.462 37.633 20.74 C 37.72 20.409 37.668 20.114 37.616 19.835 C 37.564 19.505 37.39 19.244 37.148 19.035 C 36.646 18.6 36.109 18.2 35.589 17.8 C 35.451 17.695 35.382 17.608 35.399 17.417 C 35.607 15.746 34.897 14.476 33.719 13.38 C 33.615 13.276 33.494 13.189 33.373 13.084 C 33.355 13.084 33.338 13.102 33.321 13.102 C 33.373 13.554 33.407 13.989 33.459 14.441 C 33.442 14.441 33.425 14.441 33.39 14.459 C 33.373 14.424 33.338 14.407 33.321 14.372 C 32.576 12.806 31.294 11.814 29.77 11.118 C 28.939 10.735 28.09 10.44 27.19 10.266 C 27.121 10.248 27.069 10.213 27.017 10.196 C 27.051 10.196 27.051 10.179 27.051 10.161 Z M 40.542 24.829 C 40.508 24.829 40.473 24.829 40.438 24.846 C 40.404 24.951 40.369 25.055 40.317 25.159 C 40.144 25.438 39.936 25.681 39.642 25.821 C 39.365 25.96 39.192 26.169 39.14 26.464 C 39.088 26.673 39.053 26.899 38.984 27.108 C 38.828 27.561 38.637 28.013 38.464 28.448 C 38.43 28.518 38.378 28.587 38.482 28.674 C 38.811 28.935 39.122 29.196 39.451 29.457 C 39.573 29.561 39.676 29.544 39.746 29.387 C 40.04 28.761 40.352 28.152 40.612 27.508 C 40.854 26.882 40.958 26.238 40.785 25.56 C 40.716 25.316 40.629 25.072 40.542 24.829 Z" fill="var(--token-bb9eb254-5702-404a-9d47-07d085d7a077, rgb(0, 0, 0)) /* {&quot;name&quot;:&quot;Black&quot;} */"></path><path d="M 13.56 10.666 C 13.439 10.735 13.335 10.788 13.214 10.857 C 12.435 11.257 11.603 11.623 10.859 12.075 C 8.209 13.711 6.529 16.077 5.594 19.017 C 5.282 19.992 5.092 21.001 5.005 22.028 L 5.005 22.323 C 5.074 22.219 5.126 22.167 5.161 22.097 C 5.594 21.279 6.027 20.479 6.442 19.644 C 7.239 18.095 8.33 16.808 9.664 15.712 C 10.287 15.19 11.032 14.859 11.742 14.511 L 11.777 14.546 C 11.725 14.615 11.673 14.668 11.621 14.737 C 10.789 15.607 10.027 16.512 9.387 17.539 C 8.157 19.539 7.343 21.697 7.066 24.028 C 6.72 26.847 7.135 29.561 8.261 32.171 C 9.231 34.416 10.582 36.382 12.244 38.174 C 14.998 41.149 18.254 43.446 21.787 45.395 C 24.315 46.769 26.93 47.953 29.597 48.997 C 29.684 49.031 29.77 49.066 29.926 49.136 C 29.736 49.292 29.58 49.431 29.407 49.536 C 28.212 50.267 27.017 50.997 25.822 51.711 C 25.25 52.059 24.661 52.355 24.073 52.685 C 23.969 52.737 23.882 52.737 23.778 52.685 C 20.869 51.189 18.115 49.431 15.587 47.344 C 11.95 44.351 8.919 40.854 6.616 36.747 C 5.092 34.05 4.001 31.18 3.377 28.135 C 3.1 26.76 2.927 25.386 2.909 23.994 C 2.892 20.183 2.858 16.355 2.823 12.545 C 2.823 12.354 2.858 12.284 3.065 12.249 C 5.213 11.884 7.36 11.484 9.508 11.136 C 10.789 10.927 12.071 10.788 13.352 10.631 L 13.56 10.631 Z M 29.199 18.739 C 29.095 18.565 29.008 18.443 28.904 18.252 C 29.13 18.269 29.303 18.287 29.459 18.304 C 30.844 18.53 32.16 18.913 33.442 19.505 C 33.546 19.557 33.598 19.592 33.563 19.713 C 33.459 20.061 33.58 20.392 33.719 20.705 L 34.238 21.958 C 34.273 22.062 34.273 22.184 34.29 22.306 C 34.273 22.323 34.238 22.323 34.221 22.341 C 34.117 22.236 34.013 22.149 33.909 22.045 C 33.754 21.871 33.598 21.68 33.459 21.488 C 33.338 21.314 33.199 21.279 32.992 21.314 C 31.329 21.593 29.77 21.349 28.402 20.322 C 28.004 20.027 27.692 19.609 27.363 19.226 C 27.225 19.07 27.259 18.965 27.484 18.93 C 27.917 18.878 28.35 18.843 28.801 18.791 C 28.922 18.774 29.043 18.756 29.199 18.739 Z" fill="var(--token-bb9eb254-5702-404a-9d47-07d085d7a077, rgb(0, 0, 0)) /* {&quot;name&quot;:&quot;Black&quot;} */"></path><path d="M 21.89 42.959 C 21.89 42.681 21.908 42.437 22.098 42.193 C 22.133 42.141 22.133 42.002 22.098 41.95 C 21.925 41.654 21.925 41.323 21.96 40.993 C 22.012 40.627 22.323 40.384 22.739 40.384 C 23.155 40.384 23.449 40.61 23.518 40.993 C 23.57 41.323 23.553 41.637 23.38 41.932 C 23.311 42.054 23.311 42.176 23.397 42.28 C 23.622 42.576 23.657 42.889 23.588 43.255 C 23.484 43.707 23.103 44.02 22.67 43.986 C 22.289 43.951 21.908 43.533 21.89 43.116 Z M 23.085 41.376 C 23.051 41.254 23.016 41.115 22.964 41.01 C 22.86 40.819 22.704 40.801 22.549 40.941 C 22.323 41.149 22.289 41.271 22.445 41.55 C 22.514 41.689 22.601 41.828 22.791 41.758 C 22.982 41.706 23.085 41.567 23.085 41.376 Z M 23.085 42.924 C 23.033 42.785 22.999 42.663 22.93 42.541 C 22.86 42.437 22.739 42.385 22.618 42.472 C 22.427 42.611 22.393 42.82 22.41 43.029 C 22.41 43.203 22.549 43.324 22.704 43.377 C 22.756 43.394 22.878 43.377 22.895 43.342 C 22.964 43.22 23.016 43.063 23.085 42.924 Z M 26.636 40.401 C 26.965 40.366 27.225 40.488 27.363 40.784 C 27.536 41.115 27.502 41.463 27.328 41.776 C 27.173 42.054 27.173 42.037 27.363 42.315 C 27.606 42.681 27.588 43.098 27.432 43.481 C 27.311 43.794 26.913 43.968 26.549 43.933 C 26.185 43.899 25.839 43.551 25.804 43.185 C 25.804 43.133 25.839 43.063 25.874 43.046 C 26.012 42.959 26.255 43.029 26.341 43.185 C 26.411 43.307 26.497 43.446 26.688 43.411 C 26.878 43.359 26.965 43.22 26.947 43.046 C 26.947 42.924 26.93 42.785 26.913 42.663 C 26.895 42.507 26.792 42.402 26.636 42.385 C 26.463 42.367 26.411 42.28 26.411 42.124 C 26.411 41.985 26.428 41.88 26.618 41.845 C 26.913 41.793 27.086 41.219 26.913 40.975 C 26.809 40.836 26.653 40.836 26.549 40.975 C 26.497 41.045 26.463 41.149 26.393 41.202 C 26.324 41.271 26.22 41.358 26.116 41.376 C 25.943 41.41 25.856 41.306 25.891 41.149 C 25.96 40.941 26.012 40.732 26.151 40.575 C 26.255 40.453 26.463 40.436 26.618 40.366 C 26.636 40.366 26.636 40.384 26.636 40.401 Z M 24.679 40.384 C 24.852 40.401 25.025 40.401 25.198 40.419 C 25.458 40.453 25.51 40.506 25.458 40.784 C 25.371 41.202 25.285 41.602 25.181 42.019 C 25.042 42.576 24.921 43.116 24.765 43.672 C 24.731 43.777 24.661 43.916 24.575 43.933 C 24.315 44.003 24.211 43.881 24.28 43.62 C 24.471 42.82 24.661 42.037 24.852 41.236 C 24.921 40.941 24.904 40.923 24.592 40.906 C 24.471 40.906 24.35 40.906 24.228 40.888 C 24.125 40.871 23.986 40.888 24.003 40.732 C 24.021 40.575 24.038 40.401 24.246 40.401 C 24.384 40.401 24.523 40.401 24.679 40.384 C 24.679 40.401 24.679 40.401 24.679 40.384 Z M 21.042 43.916 L 20.626 43.916 L 20.626 43.672 C 20.609 42.959 20.574 42.228 20.557 41.515 C 20.557 41.358 20.505 41.254 20.332 41.236 C 20.28 41.236 20.193 41.132 20.193 41.062 C 20.176 40.993 20.193 40.871 20.245 40.836 C 20.401 40.697 20.574 40.593 20.747 40.471 C 20.973 40.332 21.077 40.366 21.077 40.627 L 21.077 43.846 C 21.059 43.864 21.042 43.899 21.042 43.916 Z M 41.98 7.638 C 41.997 7.134 41.876 6.629 41.98 6.142 C 42.638 6.212 42.88 6.42 42.88 7.203 C 42.88 7.569 42.707 7.708 42.344 7.691 C 42.24 7.673 42.118 7.656 41.98 7.638 Z M 42.811 4.75 L 42.811 4.767 C 42.811 5.237 42.534 5.446 42.084 5.289 C 42.049 5.272 41.997 5.202 41.997 5.168 C 41.98 4.854 41.963 4.559 41.963 4.245 C 41.963 4.019 42.032 3.967 42.24 4.037 C 42.638 4.141 42.811 4.35 42.811 4.75 Z M 32.282 4.054 L 32.282 2.662 C 33.095 2.732 33.13 2.94 33.113 3.48 C 33.113 3.984 32.87 4.124 32.282 4.054 Z M 28.108 2.836 C 28.108 2.453 28.142 2.419 28.454 2.419 C 28.887 2.436 29.026 2.558 29.078 2.993 C 29.095 3.167 29.078 3.358 29.026 3.515 C 28.974 3.741 28.506 3.897 28.316 3.758 C 28.264 3.723 28.246 3.654 28.229 3.584 C 28.212 3.532 28.194 3.462 28.194 3.41 C 28.16 3.201 28.125 2.975 28.108 2.836 Z M 7.707 5.724 C 7.707 5.202 7.689 4.698 7.707 4.176 C 7.707 4.037 7.793 3.897 7.88 3.793 C 7.984 3.671 8.122 3.602 8.296 3.671 C 8.469 3.741 8.486 3.88 8.486 4.037 L 8.486 6.925 C 8.486 7.047 8.399 7.169 8.313 7.273 C 8.209 7.395 8.07 7.447 7.897 7.377 C 7.724 7.308 7.707 7.151 7.707 7.012 Z" fill="var(--token-bb9eb254-5702-404a-9d47-07d085d7a077, rgb(0, 0, 0)) /* {&quot;name&quot;:&quot;Black&quot;} */"></path></svg></defs><use href="#svg12787664887"></use></svg>