<svg xmlns:xlink="http://www.w3.org/1999/xlink" xmlns="http://www.w3.org/2000/svg" style="width:100%;height:100%;" width="46.54"  height="57.284" ><defs><svg viewBox="0 0 46.54 57.284" id="svg11207491829"><g transform="translate(12.675 0.134)"><path d="M 16.588 5.984 C 16.712 5.428 16.841 4.931 17.028 4.449 C 17.154 4.126 17.297 3.811 17.484 3.517 C 17.6 3.333 17.729 3.159 17.911 3.032 C 18.147 2.868 18.357 2.908 18.51 3.147 C 18.634 3.339 18.682 3.558 18.716 3.778 C 18.799 4.33 18.77 4.881 18.699 5.432 C 18.669 5.667 18.621 5.901 18.586 6.136 C 18.578 6.193 18.546 6.253 18.584 6.311 C 18.65 6.32 18.68 6.265 18.724 6.238 C 18.804 6.189 18.879 6.13 18.963 6.092 C 19.289 5.945 19.583 6.114 19.622 6.467 C 19.644 6.661 19.608 6.848 19.54 7.031 C 19.448 7.279 19.299 7.496 19.158 7.717 C 18.929 8.077 18.797 8.464 18.81 8.892 C 18.814 9.023 18.811 9.153 18.811 9.308 C 18.541 9.182 18.346 8.979 18.142 8.744 C 18.058 8.957 17.911 9.059 17.714 9.105 C 17.765 9.333 17.891 9.508 18.034 9.67 C 18.57 10.276 19.562 10.535 20.332 10.27 C 20.683 10.149 20.969 9.94 21.163 9.626 C 21.362 9.306 21.26 9.056 20.888 8.966 C 20.558 8.886 20.237 8.943 19.924 9.064 C 19.846 9.094 19.78 9.153 19.664 9.155 C 20.355 8.217 20.743 7.18 20.902 6.045 C 20.96 6.109 20.964 6.183 20.979 6.253 C 21.081 6.727 21.27 7.159 21.607 7.522 C 21.739 7.665 21.887 7.788 22.089 7.894 C 22.256 7.337 22.246 6.788 22.17 6.21 C 22.674 6.239 23.166 6.245 23.627 5.98 C 23.633 6.07 23.601 6.129 23.579 6.191 C 22.781 8.355 21.985 10.519 21.185 12.682 C 21.028 13.106 20.912 13.533 20.979 13.987 C 21.005 14.159 21.047 14.329 21.088 14.532 C 14.912 13.008 8.748 13.007 2.568 14.531 C 2.562 14.416 2.606 14.318 2.63 14.219 C 2.746 13.747 2.685 13.291 2.518 12.841 C 2.224 12.048 1.932 11.254 1.64 10.461 C 1.12 9.054 0.6 7.648 0.08 6.242 C 0.057 6.178 0.037 6.113 0 6.005 C 0.482 6.25 0.965 6.251 1.477 6.194 C 1.392 6.765 1.395 7.319 1.545 7.866 C 2.037 7.713 2.414 7.142 2.728 6.101 C 2.92 7.205 3.297 8.235 4.007 9.179 C 3.837 9.114 3.717 9.065 3.594 9.02 C 3.378 8.942 3.153 8.924 2.924 8.936 C 2.836 8.941 2.753 8.96 2.672 8.99 C 2.407 9.09 2.32 9.29 2.44 9.543 C 2.549 9.771 2.725 9.947 2.937 10.084 C 3.46 10.419 4.027 10.437 4.608 10.277 C 5.186 10.117 5.629 9.787 5.889 9.244 C 5.909 9.204 5.939 9.164 5.921 9.1 C 5.733 9.065 5.594 8.951 5.503 8.744 C 5.307 8.984 5.099 9.181 4.827 9.317 C 4.802 9.197 4.827 9.107 4.833 9.016 C 4.859 8.592 4.774 8.192 4.553 7.823 C 4.446 7.644 4.329 7.471 4.227 7.29 C 4.097 7.059 4.004 6.815 4.012 6.545 C 4.025 6.108 4.37 5.914 4.755 6.129 C 4.862 6.19 4.959 6.268 5.072 6.346 C 5.102 6.284 5.079 6.229 5.068 6.175 C 4.921 5.464 4.848 4.748 4.9 4.023 C 4.92 3.754 4.961 3.489 5.081 3.242 C 5.252 2.888 5.51 2.835 5.81 3.092 C 5.977 3.235 6.101 3.413 6.211 3.6 C 6.58 4.232 6.803 4.917 6.972 5.622 C 6.995 5.719 7.018 5.816 7.043 5.912 C 7.044 5.917 7.056 5.919 7.079 5.93 C 7.123 5.856 7.168 5.781 7.215 5.705 C 7.277 5.606 7.351 5.517 7.451 5.452 C 7.637 5.333 7.859 5.372 8.018 5.554 C 8.174 5.731 8.219 5.948 8.237 6.173 C 8.258 6.413 8.225 6.65 8.18 6.883 C 8.074 7.444 8.166 7.967 8.457 8.458 C 8.472 8.485 8.482 8.513 8.507 8.568 C 8.193 8.572 7.941 8.441 7.665 8.325 C 7.645 8.41 7.633 8.49 7.608 8.566 C 7.581 8.648 7.511 8.703 7.457 8.768 C 7.406 8.83 7.478 8.863 7.513 8.896 C 7.815 9.18 8.171 9.368 8.583 9.437 C 10.041 9.681 10.826 8.722 11.021 7.733 C 11.028 7.698 11.046 7.66 11.018 7.625 C 10.62 7.63 10.176 7.805 9.315 8.303 C 9.575 7.196 9.528 6.116 9.225 4.985 C 9.738 5.583 10.345 5.913 11.103 6.059 C 10.946 5.229 10.629 4.503 10.114 3.841 C 11.714 4.174 12.236 4.173 13.529 3.833 C 13.021 4.505 12.694 5.224 12.543 6.061 C 13.289 5.912 13.894 5.598 14.381 5.051 C 14.119 6.131 14.059 7.209 14.338 8.335 C 13.806 7.935 13.248 7.703 12.628 7.604 C 12.616 8.273 13.201 9.086 13.88 9.343 C 14.619 9.622 15.614 9.476 16.217 8.803 C 16.169 8.732 16.088 8.68 16.048 8.597 C 16.008 8.515 16 8.424 15.984 8.322 C 15.713 8.442 15.46 8.564 15.176 8.571 C 15.132 8.511 15.179 8.477 15.199 8.442 C 15.498 7.934 15.572 7.393 15.457 6.82 C 15.403 6.549 15.373 6.274 15.428 5.996 C 15.457 5.851 15.501 5.713 15.59 5.593 C 15.785 5.332 16.087 5.315 16.311 5.551 C 16.418 5.664 16.481 5.805 16.587 5.984 Z M 12.428 11.362 C 12.428 11.087 12.424 10.811 12.431 10.535 C 12.434 10.423 12.392 10.389 12.281 10.392 C 11.977 10.398 11.672 10.397 11.368 10.392 C 11.258 10.39 11.217 10.426 11.217 10.537 C 11.221 11.08 11.222 11.624 11.217 12.168 C 11.216 12.283 11.263 12.31 11.37 12.308 C 11.675 12.304 11.98 12.302 12.284 12.308 C 12.395 12.311 12.434 12.277 12.431 12.165 C 12.424 11.897 12.429 11.629 12.429 11.362 Z M 7.433 12.499 C 7.616 12.169 7.79 11.855 7.968 11.541 C 8.002 11.48 7.98 11.443 7.936 11.403 L 7.131 10.667 C 6.946 10.998 6.771 11.312 6.595 11.624 C 6.561 11.683 6.583 11.721 6.627 11.762 C 6.89 12.002 7.151 12.242 7.433 12.5 Z M 16.523 10.665 C 16.24 10.926 15.981 11.169 15.717 11.407 C 15.644 11.473 15.683 11.528 15.717 11.588 C 15.853 11.83 15.988 12.073 16.126 12.313 C 16.159 12.37 16.171 12.446 16.257 12.473 C 16.506 12.243 16.755 12.011 17.009 11.783 C 17.078 11.721 17.09 11.67 17.041 11.586 C 16.87 11.294 16.708 10.996 16.523 10.665 Z M 3.466 11.233 C 3.344 11.258 3.223 11.283 3.1 11.307 C 3.003 11.326 2.999 11.384 3.024 11.46 C 3.056 11.554 3.086 11.649 3.116 11.744 C 3.259 12.188 3.402 12.632 3.543 13.077 C 3.574 13.177 3.611 13.239 3.739 13.193 C 3.839 13.156 3.951 13.148 4.059 13.129 C 4.125 13.117 4.152 13.087 4.127 13.017 C 4.086 12.902 4.051 12.784 4.014 12.668 C 3.874 12.23 3.734 11.793 3.596 11.355 C 3.575 11.289 3.57 11.212 3.465 11.233 Z M 20.017 13.212 C 20.057 13.214 20.079 13.188 20.092 13.147 C 20.105 13.103 20.121 13.06 20.134 13.016 C 20.297 12.506 20.461 11.996 20.622 11.486 C 20.669 11.339 20.663 11.333 20.519 11.299 C 20.428 11.278 20.335 11.267 20.245 11.242 C 20.138 11.212 20.093 11.251 20.062 11.352 C 19.948 11.725 19.826 12.095 19.707 12.467 C 19.651 12.641 19.592 12.816 19.537 12.99 C 19.521 13.041 19.497 13.103 19.576 13.121 C 19.719 13.155 19.865 13.181 20.017 13.212 Z M 14.202 10.88 C 13.901 10.882 13.65 11.136 13.659 11.43 C 13.667 11.72 13.908 11.955 14.201 11.959 C 14.499 11.963 14.757 11.712 14.757 11.42 C 14.757 11.126 14.502 10.878 14.202 10.881 Z M 9.989 11.409 C 9.985 11.106 9.738 10.87 9.435 10.88 C 9.144 10.889 8.907 11.13 8.906 11.417 C 8.905 11.713 9.154 11.959 9.454 11.958 C 9.757 11.957 9.993 11.715 9.989 11.409 Z M 18.373 12.311 C 18.632 12.32 18.844 12.128 18.848 11.875 C 18.853 11.636 18.657 11.432 18.412 11.423 C 18.155 11.415 17.939 11.612 17.933 11.86 C 17.927 12.096 18.128 12.301 18.372 12.311 Z M 5.713 11.864 C 5.711 11.615 5.522 11.427 5.271 11.424 C 5.013 11.421 4.809 11.62 4.81 11.872 C 4.812 12.124 5.019 12.317 5.28 12.311 C 5.531 12.304 5.715 12.114 5.713 11.864 Z M 16.899 23.673 C 16.933 23.739 17 23.762 17.058 23.796 C 17.136 23.843 17.182 23.887 17.153 23.997 C 17.12 24.128 17.221 24.209 17.335 24.259 C 17.444 24.307 17.561 24.318 17.679 24.32 C 17.86 24.321 18.04 24.32 18.22 24.332 C 18.416 24.347 18.605 24.397 18.756 24.533 C 18.726 24.603 18.661 24.577 18.613 24.59 C 18.428 24.641 18.354 24.726 18.351 24.919 C 18.349 24.995 18.363 25.072 18.364 25.149 C 18.371 25.435 18.285 25.684 18.034 25.905 C 18.023 25.719 18.051 25.557 17.959 25.412 C 17.922 25.675 17.862 25.923 17.642 26.129 C 17.623 25.944 17.702 25.771 17.578 25.613 C 17.384 25.712 17.197 25.824 16.991 25.895 C 16.972 25.902 16.944 25.922 16.943 25.938 C 16.925 26.098 16.787 26.211 16.788 26.388 C 16.79 26.613 16.649 26.771 16.4 26.851 C 16.424 26.731 16.495 26.634 16.473 26.52 C 16.46 26.455 16.448 26.406 16.366 26.394 C 16.201 26.37 16.058 26.284 15.912 26.212 C 15.52 26.017 15.141 26.048 14.775 26.274 C 14.657 26.347 14.546 26.435 14.435 26.518 C 14.231 26.672 14.017 26.792 13.745 26.731 C 13.654 26.71 13.619 26.764 13.585 26.83 C 13.531 26.932 13.56 27.039 13.57 27.16 C 13.35 27.018 13.288 26.826 13.323 26.597 C 13.362 26.34 13.277 26.178 13.054 26.094 C 12.994 26.072 12.949 26.106 12.899 26.128 C 12.793 26.176 12.767 26.291 12.698 26.381 C 12.6 26.097 12.649 25.915 12.861 25.744 C 13.02 25.616 13.031 25.574 12.956 25.38 C 12.953 25.373 12.95 25.365 12.947 25.359 C 12.909 25.289 12.96 25.174 12.843 25.149 C 12.739 25.126 12.643 25.161 12.559 25.226 C 12.543 25.239 12.521 25.244 12.48 25.263 C 12.529 25.013 12.659 24.86 12.892 24.8 C 12.968 24.781 13.038 24.768 13.102 24.714 C 13.238 24.6 13.398 24.589 13.567 24.633 C 13.728 24.675 13.871 24.754 14.011 24.84 C 14.648 25.231 15.32 25.263 16.014 25.014 C 16.081 24.99 16.183 24.986 16.181 24.881 C 16.178 24.769 16.112 24.702 16.004 24.663 C 15.647 24.534 15.269 24.518 14.899 24.469 C 14.579 24.427 14.264 24.369 13.988 24.193 C 13.708 24.015 13.622 23.808 13.685 23.486 C 13.691 23.457 13.692 23.427 13.698 23.373 C 13.612 23.398 13.541 23.416 13.472 23.44 C 12.837 23.661 12.28 24.014 11.751 24.415 C 11.398 24.683 11.061 24.971 10.695 25.222 C 10.438 25.398 10.176 25.567 9.889 25.692 C 9.586 25.823 9.272 25.906 8.918 25.886 C 8.962 25.623 8.994 25.368 8.873 25.119 C 8.811 25.184 8.833 25.258 8.826 25.324 C 8.804 25.535 8.738 25.727 8.613 25.901 C 8.586 25.939 8.558 25.976 8.537 26.017 C 8.425 26.233 8.477 26.366 8.732 26.481 C 8.34 26.981 7.825 26.911 7.286 26.8 C 7.283 26.975 7.324 27.141 7.294 27.317 C 7.225 27.305 7.202 27.246 7.17 27.202 C 6.728 26.605 6.11 26.314 5.383 26.214 C 5.15 26.182 4.916 26.163 4.683 26.137 C 4.585 26.126 4.5 26.12 4.46 26.244 C 4.434 26.325 4.361 26.393 4.278 26.414 C 4.102 26.457 3.953 26.549 3.795 26.627 C 3.594 26.727 3.403 26.672 3.234 26.532 C 3.262 26.477 3.305 26.496 3.339 26.489 C 3.447 26.465 3.556 26.438 3.603 26.325 C 3.621 26.28 3.415 26.044 3.348 26.03 C 2.975 25.949 2.703 25.744 2.506 25.421 C 2.374 25.203 2.242 25.186 2.013 25.309 C 1.79 25.427 1.588 25.409 1.406 25.252 C 1.245 25.113 1.148 25.116 1.006 25.269 C 0.977 25.3 0.954 25.336 0.915 25.387 C 0.846 25.152 0.91 24.969 1.082 24.839 C 1.181 24.764 1.249 24.689 1.271 24.57 C 1.289 24.467 1.419 24.417 1.426 24.324 C 1.434 24.231 1.337 24.151 1.333 24.046 C 1.33 23.989 1.369 23.911 1.3 23.877 C 1.221 23.838 1.131 23.853 1.049 23.887 C 0.984 23.914 0.934 23.964 0.88 24.019 C 0.871 23.721 1.057 23.504 1.344 23.486 C 1.456 23.479 1.557 23.466 1.654 23.41 C 1.738 23.362 1.833 23.359 1.928 23.362 C 1.974 23.364 2.02 23.37 2.062 23.337 C 2.189 23.237 2.184 23.135 2.051 23.041 C 1.984 22.995 1.904 22.997 1.831 22.969 C 2.027 22.808 2.271 22.802 2.464 22.969 C 2.542 23.035 2.62 23.087 2.718 23.119 C 2.88 23.172 2.961 23.305 3.018 23.453 C 3.079 23.614 3.083 23.784 3.094 23.952 C 3.1 24.037 3.098 24.121 3.107 24.205 C 3.142 24.518 3.306 24.707 3.618 24.792 C 3.961 24.885 4.302 24.835 4.641 24.77 C 4.994 24.702 5.336 24.594 5.682 24.462 C 5.738 24.577 5.79 24.687 5.847 24.795 C 5.872 24.842 5.893 24.903 5.953 24.807 C 5.985 24.757 6.013 24.818 6.025 24.849 C 6.166 25.214 6.337 25.571 6.359 25.97 C 6.36 25.981 6.372 25.992 6.395 26.029 C 6.568 25.596 6.969 25.381 7.25 25.057 C 7.3 25.104 7.242 25.156 7.301 25.214 C 7.706 24.955 8.029 24.61 8.313 24.21 C 8.388 24.302 8.343 24.412 8.403 24.515 C 8.789 24.085 9.019 23.594 9.115 23.031 C 9.238 23.092 9.235 23.215 9.333 23.281 C 9.422 23.15 9.419 22.995 9.453 22.853 C 9.481 22.734 9.493 22.611 9.501 22.488 C 9.516 22.274 9.509 22.315 9.702 22.275 C 10.123 22.19 10.548 22.117 10.973 22.051 C 11.902 21.906 12.837 21.801 13.778 21.814 C 14.647 21.825 15.513 21.888 16.376 22.004 C 17.478 22.153 18.579 22.157 19.66 21.844 C 20.045 21.733 20.41 21.579 20.74 21.351 C 20.914 21.23 21.07 21.091 21.194 20.921 C 21.279 20.805 21.3 20.678 21.243 20.55 C 21.184 20.416 21.057 20.373 20.915 20.369 C 20.555 20.359 20.218 20.455 19.888 20.579 C 19.383 20.769 18.882 20.962 18.365 21.118 C 17.637 21.338 16.898 21.505 16.136 21.546 C 15.249 21.593 14.388 21.455 13.556 21.154 C 13.282 21.056 13.036 20.904 12.832 20.696 C 12.758 20.621 12.687 20.543 12.643 20.41 C 12.739 20.459 12.806 20.493 12.873 20.527 C 12.993 20.587 13.12 20.626 13.254 20.633 C 13.374 20.639 13.394 20.611 13.359 20.502 C 13.109 19.722 13.395 19.086 14.153 18.742 C 14.514 18.579 14.899 18.517 15.289 18.476 C 15.648 18.438 16.01 18.46 16.366 18.391 C 16.45 18.375 16.535 18.36 16.617 18.336 C 17.18 18.174 17.421 17.886 17.466 17.321 C 17.826 17.694 17.763 18.162 17.293 18.609 C 17.493 18.706 17.537 18.706 17.989 18.613 C 17.828 18.976 17.475 19.078 16.768 18.964 C 16.79 19.067 16.916 19.192 17.144 19.339 C 16.902 19.434 16.667 19.384 16.433 19.321 C 16.072 19.223 15.719 19.095 15.343 19.049 C 14.922 18.998 14.53 19.07 14.172 19.289 C 13.816 19.507 13.672 19.835 13.746 20.211 C 13.793 20.446 13.94 20.604 14.148 20.641 C 14.297 20.667 14.43 20.637 14.531 20.519 C 14.632 20.401 14.637 20.269 14.576 20.13 C 14.559 20.091 14.52 20.062 14.524 19.997 C 14.693 20 14.822 20.079 14.924 20.198 C 15.02 20.309 15.1 20.433 15.188 20.55 C 15.309 20.712 15.441 20.861 15.68 20.945 C 15.612 20.731 15.541 20.536 15.656 20.315 C 15.862 20.626 16.114 20.866 16.519 20.956 C 16.455 20.812 16.36 20.694 16.384 20.546 C 16.404 20.549 16.423 20.545 16.431 20.553 C 16.814 20.893 17.263 20.916 17.731 20.8 C 18.384 20.637 19.015 20.406 19.642 20.166 C 20.052 20.009 20.471 19.887 20.919 19.901 C 21.054 19.905 21.185 19.923 21.311 19.969 C 21.712 20.115 21.883 20.481 21.74 20.883 C 21.636 21.175 21.433 21.397 21.195 21.59 C 20.721 21.974 20.165 22.195 19.578 22.35 C 19.443 22.385 19.306 22.415 19.153 22.451 C 19.461 22.565 19.747 22.569 20.037 22.422 C 20.55 22.164 21.086 22.081 21.654 22.151 C 21.786 22.168 21.92 22.169 22.053 22.148 C 22.262 22.115 22.328 22.073 22.639 21.798 C 22.601 22.13 22.527 22.301 22.247 22.689 C 22.424 22.681 22.524 22.552 22.675 22.488 C 22.669 22.772 22.533 22.977 22.342 23.173 C 22.499 23.308 22.547 23.509 22.687 23.658 C 22.804 23.783 22.807 23.95 22.759 24.117 C 22.702 24.099 22.696 24.049 22.67 24.016 C 22.543 23.857 22.521 23.87 22.326 23.946 C 22.173 24.007 22.112 24.108 22.07 24.244 C 22.028 24.376 21.975 24.504 21.94 24.638 C 21.883 24.857 21.904 25.061 22.069 25.24 C 22.18 25.36 22.264 25.5 22.334 25.647 C 22.467 25.928 22.434 26.102 22.213 26.331 C 22.116 26.431 22.122 26.58 22.227 26.7 C 22.284 26.766 22.361 26.801 22.452 26.84 C 22.167 26.932 21.969 26.886 21.819 26.677 C 21.753 26.583 21.686 26.545 21.574 26.548 C 21.46 26.551 21.37 26.484 21.288 26.418 C 21.211 26.451 21.189 26.525 21.135 26.568 C 21.052 26.632 20.963 26.672 20.856 26.672 C 20.797 26.672 20.737 26.617 20.681 26.68 C 20.621 26.747 20.593 26.826 20.599 26.913 C 20.604 26.987 20.619 27.06 20.631 27.148 C 20.408 27.041 20.3 26.876 20.313 26.648 C 20.32 26.536 20.323 26.437 20.231 26.355 C 20.21 26.336 20.191 26.301 20.191 26.274 C 20.193 26.144 20.132 26.097 20 26.069 C 19.83 26.033 19.759 25.888 19.737 25.719 C 19.544 25.727 19.465 25.856 19.398 26.002 C 19.292 25.77 19.334 25.549 19.525 25.399 C 19.627 25.318 19.729 25.248 19.802 25.132 C 19.87 25.024 20.004 24.991 20.13 24.976 C 20.286 24.957 20.442 24.949 20.598 24.935 C 20.874 24.909 20.97 24.794 20.939 24.523 C 20.92 24.369 20.855 24.228 20.808 24.082 C 20.673 23.659 20.675 23.5 20.826 23.086 C 20.72 23.086 20.65 23.151 20.578 23.199 C 20.389 23.326 20.221 23.477 20.062 23.635 C 19.638 24.054 19.125 24.156 18.55 24.081 C 18.082 24.019 17.632 23.893 17.184 23.756 C 17.089 23.727 16.994 23.701 16.902 23.675 Z M 19.391 45.968 C 19.288 45.7 19.349 45.477 19.569 45.329 C 19.654 45.272 19.721 45.21 19.778 45.123 C 19.869 44.982 20.03 44.95 20.188 44.931 C 20.335 44.914 20.485 44.914 20.632 44.894 C 20.875 44.862 20.957 44.759 20.939 44.521 C 20.934 44.46 20.919 44.4 20.903 44.341 C 20.88 44.259 20.854 44.179 20.826 44.099 C 20.704 43.752 20.636 43.404 20.849 43.036 C 20.721 43.059 20.649 43.116 20.574 43.165 C 20.405 43.278 20.249 43.408 20.11 43.554 C 19.651 44.035 19.083 44.125 18.451 44.032 C 18.015 43.967 17.597 43.844 17.177 43.721 C 17.119 43.704 17.064 43.665 16.995 43.693 C 17.006 43.755 17.064 43.765 17.105 43.793 C 17.156 43.827 17.168 43.863 17.161 43.927 C 17.145 44.095 17.193 44.166 17.342 44.231 C 17.452 44.278 17.568 44.283 17.687 44.284 C 17.921 44.284 18.157 44.269 18.389 44.325 C 18.527 44.358 18.652 44.408 18.743 44.488 C 18.752 44.534 18.745 44.543 18.726 44.545 C 18.402 44.589 18.325 44.673 18.357 45.003 C 18.386 45.302 18.322 45.567 18.123 45.797 C 18.109 45.814 18.09 45.828 18.072 45.842 C 18.067 45.846 18.058 45.844 18.035 45.846 C 18.011 45.689 18.068 45.515 17.941 45.343 C 17.923 45.641 17.858 45.891 17.634 46.109 C 17.626 45.916 17.699 45.74 17.577 45.578 C 17.388 45.673 17.212 45.789 17.009 45.851 C 16.979 45.86 16.945 45.873 16.941 45.906 C 16.923 46.066 16.785 46.179 16.787 46.355 C 16.789 46.583 16.64 46.732 16.394 46.825 C 16.423 46.699 16.493 46.603 16.47 46.49 C 16.458 46.427 16.454 46.368 16.369 46.36 C 16.217 46.344 16.087 46.268 15.957 46.199 C 15.517 45.97 15.098 46.013 14.696 46.286 C 14.593 46.355 14.5 46.439 14.398 46.511 C 14.204 46.647 14.002 46.766 13.748 46.699 C 13.654 46.674 13.624 46.726 13.587 46.789 C 13.531 46.883 13.564 46.985 13.549 47.083 C 13.357 46.975 13.281 46.802 13.32 46.566 C 13.329 46.506 13.366 46.453 13.354 46.387 C 13.338 46.305 13.123 46.061 13.033 46.058 C 12.903 46.053 12.82 46.14 12.758 46.243 C 12.739 46.274 12.739 46.319 12.692 46.329 C 12.6 46.07 12.646 45.889 12.845 45.724 C 13.025 45.573 13.03 45.56 12.943 45.324 C 12.918 45.255 12.954 45.152 12.865 45.121 C 12.755 45.082 12.65 45.122 12.559 45.192 C 12.542 45.205 12.52 45.211 12.486 45.228 C 12.487 45.13 12.523 45.056 12.569 44.986 C 12.646 44.872 12.758 44.81 12.888 44.764 C 13.151 44.67 13.393 44.476 13.7 44.643 C 13.809 44.702 13.921 44.756 14.029 44.82 C 14.671 45.202 15.342 45.229 16.035 44.973 C 16.095 44.95 16.185 44.942 16.179 44.848 C 16.172 44.75 16.125 44.679 16.023 44.64 C 15.757 44.537 15.478 44.504 15.198 44.471 C 14.927 44.439 14.654 44.415 14.39 44.337 C 14.223 44.288 14.064 44.225 13.927 44.12 C 13.711 43.956 13.606 43.748 13.677 43.475 C 13.686 43.439 13.703 43.402 13.669 43.354 C 13.525 43.364 13.393 43.43 13.26 43.485 C 12.67 43.728 12.142 44.071 11.647 44.462 C 11.213 44.804 10.786 45.153 10.31 45.438 C 10.008 45.619 9.691 45.767 9.339 45.829 C 9.2 45.854 9.061 45.862 8.911 45.847 C 8.966 45.584 8.986 45.332 8.868 45.081 C 8.808 45.152 8.83 45.225 8.824 45.291 C 8.803 45.503 8.734 45.695 8.611 45.869 C 8.593 45.894 8.573 45.919 8.558 45.945 C 8.418 46.18 8.457 46.319 8.719 46.457 C 8.56 46.692 8.331 46.796 8.062 46.842 C 7.8 46.886 7.55 46.819 7.277 46.763 C 7.29 46.945 7.315 47.11 7.296 47.28 C 7.214 47.281 7.198 47.211 7.166 47.168 C 6.698 46.544 6.048 46.255 5.283 46.172 C 5.073 46.149 4.861 46.136 4.652 46.11 C 4.565 46.099 4.504 46.101 4.467 46.197 C 4.446 46.251 4.4 46.311 4.35 46.336 C 4.136 46.441 3.923 46.551 3.698 46.625 C 3.529 46.68 3.359 46.629 3.208 46.464 C 3.344 46.454 3.459 46.449 3.547 46.369 C 3.599 46.322 3.616 46.288 3.569 46.217 C 3.477 46.078 3.371 45.985 3.195 45.947 C 2.933 45.89 2.733 45.728 2.587 45.507 C 2.557 45.461 2.53 45.415 2.497 45.371 C 2.353 45.18 2.233 45.156 2.016 45.273 C 1.787 45.397 1.582 45.375 1.391 45.206 C 1.252 45.083 1.168 45.081 1.037 45.203 C 0.994 45.243 0.961 45.295 0.915 45.353 C 0.837 45.129 0.907 44.951 1.07 44.812 C 1.16 44.735 1.252 44.676 1.265 44.546 C 1.275 44.434 1.427 44.383 1.423 44.28 C 1.421 44.188 1.337 44.106 1.33 44.001 C 1.317 43.826 1.226 43.776 1.06 43.846 C 0.995 43.874 0.94 43.917 0.89 43.977 C 0.854 43.715 1.043 43.478 1.311 43.456 C 1.438 43.445 1.554 43.429 1.669 43.371 C 1.751 43.329 1.848 43.31 1.943 43.326 C 2.07 43.347 2.114 43.251 2.146 43.174 C 2.181 43.089 2.092 43.044 2.03 43 C 1.971 42.958 1.898 42.956 1.831 42.935 C 2.022 42.774 2.256 42.766 2.453 42.928 C 2.538 42.998 2.62 43.057 2.728 43.091 C 2.88 43.141 2.957 43.27 3.012 43.41 C 3.07 43.555 3.079 43.709 3.089 43.862 C 3.094 43.938 3.092 44.015 3.097 44.092 C 3.123 44.514 3.355 44.75 3.789 44.793 C 4.168 44.83 4.539 44.772 4.904 44.678 C 5.161 44.612 5.415 44.535 5.669 44.429 C 5.745 44.51 5.757 44.624 5.819 44.709 C 5.849 44.75 5.848 44.9 5.964 44.768 C 5.986 44.744 6.012 44.789 6.023 44.816 C 6.165 45.189 6.345 45.551 6.356 46.008 C 6.462 45.857 6.532 45.736 6.623 45.631 C 6.713 45.526 6.82 45.434 6.925 45.342 C 7.034 45.246 7.14 45.146 7.232 45.038 C 7.299 45.071 7.237 45.137 7.308 45.172 C 7.715 44.92 8.031 44.568 8.315 44.176 C 8.382 44.267 8.345 44.369 8.401 44.478 C 8.794 44.052 9.013 43.56 9.118 42.991 C 9.234 43.057 9.236 43.186 9.337 43.255 C 9.443 43.011 9.454 42.755 9.497 42.505 C 9.502 42.475 9.506 42.443 9.503 42.413 C 9.496 42.307 9.547 42.269 9.652 42.251 C 10.045 42.185 10.435 42.101 10.829 42.038 C 12.045 41.844 13.268 41.738 14.502 41.8 C 15.214 41.836 15.921 41.916 16.628 42 C 17.72 42.13 18.802 42.096 19.856 41.748 C 20.221 41.627 20.564 41.461 20.867 41.223 C 20.983 41.131 21.086 41.026 21.177 40.91 C 21.272 40.79 21.302 40.657 21.244 40.521 C 21.183 40.374 21.04 40.336 20.894 40.335 C 20.657 40.332 20.425 40.371 20.201 40.443 C 19.986 40.514 19.773 40.589 19.562 40.67 C 18.657 41.019 17.735 41.31 16.77 41.45 C 16.075 41.55 15.381 41.553 14.69 41.418 C 14.329 41.348 13.966 41.287 13.623 41.151 C 13.292 41.02 12.987 40.853 12.755 40.579 C 12.725 40.544 12.7 40.505 12.674 40.467 C 12.661 40.449 12.65 40.428 12.671 40.394 C 12.888 40.496 13.1 40.638 13.358 40.586 C 13.392 40.542 13.373 40.506 13.358 40.472 C 13.047 39.736 13.448 39.113 13.983 38.797 C 14.297 38.611 14.648 38.534 15.005 38.477 C 15.377 38.418 15.755 38.426 16.129 38.391 C 16.309 38.374 16.486 38.343 16.658 38.29 C 17.191 38.127 17.429 37.83 17.466 37.239 C 17.632 37.486 17.707 37.713 17.689 37.969 C 17.671 38.238 17.488 38.406 17.281 38.575 C 17.531 38.72 17.76 38.624 18.013 38.563 C 17.893 38.818 17.689 38.912 17.458 38.964 C 17.225 39.018 16.993 38.967 16.744 38.923 C 16.807 39.149 16.989 39.209 17.172 39.29 C 16.972 39.382 16.785 39.368 16.603 39.327 C 16.397 39.28 16.195 39.221 15.994 39.157 C 15.716 39.069 15.432 39.013 15.142 39.003 C 14.714 38.989 14.319 39.1 13.997 39.392 C 13.731 39.633 13.655 39.979 13.784 40.299 C 13.868 40.507 14.037 40.619 14.255 40.612 C 14.518 40.603 14.68 40.371 14.588 40.128 C 14.567 40.074 14.535 40.025 14.502 39.96 C 14.703 39.966 14.841 40.058 14.952 40.194 C 15.044 40.308 15.125 40.431 15.212 40.548 C 15.333 40.711 15.478 40.844 15.707 40.928 C 15.605 40.708 15.544 40.51 15.656 40.277 C 15.863 40.593 16.117 40.832 16.531 40.926 C 16.45 40.779 16.367 40.66 16.383 40.514 C 16.404 40.514 16.422 40.508 16.43 40.515 C 16.827 40.868 17.29 40.882 17.775 40.755 C 18.389 40.596 18.984 40.386 19.574 40.157 C 19.895 40.033 20.221 39.927 20.565 39.88 C 20.776 39.852 20.986 39.85 21.195 39.901 C 21.71 40.026 21.926 40.453 21.711 40.928 C 21.583 41.209 21.372 41.424 21.128 41.61 C 20.727 41.916 20.27 42.114 19.787 42.255 C 19.585 42.314 19.38 42.36 19.125 42.425 C 19.383 42.509 19.599 42.504 19.816 42.463 C 19.932 42.441 20.04 42.394 20.144 42.341 C 20.538 42.144 20.957 42.074 21.396 42.102 C 21.498 42.108 21.6 42.109 21.701 42.117 C 22.063 42.146 22.39 42.089 22.627 41.771 C 22.618 42.1 22.458 42.361 22.269 42.641 C 22.449 42.631 22.538 42.503 22.665 42.457 C 22.668 42.702 22.614 42.821 22.35 43.145 C 22.505 43.28 22.558 43.485 22.7 43.64 C 22.807 43.759 22.811 43.922 22.757 44.079 C 22.696 44.055 22.689 43.995 22.655 43.956 C 22.614 43.909 22.567 43.869 22.509 43.843 C 22.431 43.808 22.403 43.893 22.347 43.907 C 22.173 43.952 22.105 44.078 22.063 44.234 C 22.03 44.352 21.979 44.465 21.947 44.584 C 21.884 44.81 21.901 45.022 22.072 45.208 C 22.177 45.322 22.258 45.455 22.326 45.594 C 22.47 45.887 22.441 46.064 22.213 46.298 C 22.119 46.395 22.126 46.55 22.228 46.668 C 22.28 46.728 22.355 46.755 22.42 46.798 C 22.221 46.901 21.993 46.864 21.848 46.675 C 21.766 46.567 21.679 46.514 21.546 46.509 C 21.443 46.505 21.362 46.439 21.274 46.372 C 21.142 46.559 20.988 46.669 20.753 46.626 C 20.666 46.609 20.638 46.695 20.617 46.759 C 20.58 46.871 20.6 46.984 20.648 47.1 C 20.415 47.006 20.307 46.857 20.314 46.626 C 20.317 46.51 20.333 46.401 20.229 46.312 C 20.188 46.277 20.179 46.217 20.178 46.162 C 20.177 46.11 20.16 46.076 20.101 46.066 C 19.881 46.03 19.758 45.899 19.739 45.681 C 19.52 45.745 19.517 45.747 19.395 45.968 Z M 7.306 35.167 C 7.615 35.017 7.834 34.766 8.056 34.519 C 8.147 34.417 8.227 34.306 8.316 34.195 C 8.381 34.283 8.344 34.385 8.399 34.481 C 8.611 34.28 8.745 34.041 8.87 33.796 C 8.994 33.55 9.058 33.283 9.12 33.01 C 9.238 33.069 9.232 33.205 9.342 33.267 C 9.443 32.997 9.474 32.725 9.499 32.454 C 9.509 32.334 9.547 32.281 9.67 32.257 C 11.148 31.975 12.633 31.753 14.145 31.8 C 14.936 31.825 15.722 31.898 16.507 32 C 17.548 32.135 18.586 32.122 19.605 31.84 C 20.007 31.729 20.388 31.571 20.732 31.336 C 20.894 31.225 21.037 31.096 21.161 30.945 C 21.267 30.815 21.312 30.671 21.237 30.517 C 21.166 30.374 21.022 30.354 20.875 30.353 C 20.548 30.349 20.239 30.428 19.938 30.542 C 19.288 30.785 18.639 31.032 17.966 31.213 C 17.13 31.437 16.284 31.578 15.415 31.519 C 14.797 31.477 14.188 31.373 13.606 31.155 C 13.258 31.024 12.943 30.842 12.716 30.54 C 12.693 30.51 12.677 30.475 12.639 30.41 C 12.897 30.497 13.105 30.663 13.37 30.591 C 13.404 30.556 13.375 30.52 13.362 30.489 C 13.094 29.847 13.34 29.303 13.807 28.929 C 14.095 28.699 14.439 28.595 14.794 28.526 C 15.125 28.462 15.46 28.434 15.798 28.426 C 16.127 28.419 16.453 28.384 16.765 28.265 C 17.097 28.139 17.348 27.937 17.433 27.581 C 17.456 27.488 17.457 27.389 17.469 27.287 C 17.822 27.734 17.767 28.132 17.284 28.602 C 17.529 28.729 17.767 28.637 18.012 28.581 C 17.797 28.956 17.606 29.011 16.746 28.952 C 16.806 29.151 16.982 29.219 17.198 29.321 C 16.934 29.378 16.731 29.374 16.525 29.325 C 16.182 29.246 15.856 29.108 15.506 29.055 C 15.152 29 14.805 28.999 14.465 29.125 C 14.264 29.2 14.083 29.303 13.94 29.463 C 13.709 29.719 13.679 30.012 13.789 30.324 C 13.851 30.5 13.989 30.594 14.172 30.625 C 14.469 30.674 14.693 30.409 14.586 30.133 C 14.566 30.083 14.535 30.038 14.501 29.974 C 14.708 29.979 14.849 30.078 14.962 30.218 C 15.054 30.332 15.133 30.457 15.222 30.574 C 15.339 30.729 15.477 30.86 15.71 30.939 C 15.651 30.813 15.608 30.718 15.595 30.615 C 15.583 30.513 15.606 30.417 15.638 30.301 C 15.782 30.428 15.865 30.596 16.014 30.702 C 16.16 30.806 16.31 30.893 16.522 30.934 C 16.449 30.786 16.36 30.673 16.385 30.531 C 16.404 30.531 16.423 30.525 16.43 30.531 C 16.829 30.885 17.296 30.892 17.777 30.769 C 18.399 30.609 19.001 30.393 19.598 30.161 C 19.948 30.025 20.306 29.919 20.683 29.881 C 20.898 29.86 21.107 29.877 21.308 29.949 C 21.705 30.091 21.878 30.444 21.747 30.837 C 21.652 31.125 21.459 31.345 21.231 31.537 C 20.776 31.92 20.238 32.144 19.669 32.303 C 19.512 32.346 19.353 32.381 19.197 32.439 C 19.418 32.522 19.643 32.52 19.867 32.462 C 19.957 32.439 20.043 32.399 20.127 32.359 C 20.5 32.179 20.892 32.092 21.308 32.112 C 21.426 32.118 21.543 32.117 21.66 32.126 C 22.035 32.156 22.386 32.123 22.628 31.773 C 22.608 32.116 22.463 32.393 22.239 32.661 C 22.426 32.662 22.526 32.527 22.675 32.462 C 22.672 32.749 22.529 32.953 22.343 33.153 C 22.503 33.291 22.553 33.499 22.696 33.653 C 22.805 33.771 22.804 33.935 22.756 34.093 C 22.742 34.088 22.725 34.087 22.72 34.08 C 22.655 33.975 22.578 33.814 22.457 33.863 C 22.325 33.917 22.136 33.948 22.094 34.15 C 22.061 34.306 21.984 34.453 21.94 34.608 C 21.88 34.825 21.899 35.03 22.062 35.211 C 22.181 35.344 22.273 35.496 22.347 35.659 C 22.452 35.894 22.421 36.153 22.221 36.307 C 22.1 36.399 22.114 36.568 22.235 36.688 C 22.287 36.738 22.353 36.776 22.434 36.835 C 22.225 36.9 22.039 36.889 21.915 36.751 C 21.784 36.607 21.644 36.523 21.453 36.495 C 21.39 36.487 21.333 36.434 21.257 36.392 C 21.148 36.573 20.995 36.674 20.772 36.636 C 20.668 36.618 20.636 36.7 20.613 36.772 C 20.575 36.885 20.596 36.999 20.642 37.114 C 20.404 37.016 20.295 36.864 20.311 36.621 C 20.319 36.507 20.313 36.414 20.227 36.329 C 20.196 36.299 20.18 36.245 20.179 36.202 C 20.175 36.119 20.143 36.086 20.057 36.069 C 19.901 36.038 19.784 35.949 19.755 35.785 C 19.735 35.672 19.67 35.696 19.602 35.727 C 19.497 35.774 19.442 35.868 19.399 35.977 C 19.281 35.736 19.342 35.497 19.561 35.345 C 19.644 35.287 19.722 35.237 19.771 35.141 C 19.823 35.041 19.932 35.003 20.04 34.971 C 20.201 34.923 20.365 34.933 20.529 34.924 C 20.886 34.904 21.006 34.746 20.918 34.407 C 20.882 34.265 20.83 34.129 20.786 33.989 C 20.687 33.68 20.661 33.373 20.852 33.047 C 20.723 33.07 20.646 33.127 20.568 33.179 C 20.368 33.316 20.192 33.481 20.018 33.646 C 19.655 33.99 19.222 34.109 18.727 34.071 C 18.216 34.033 17.728 33.897 17.24 33.753 C 17.153 33.727 17.07 33.677 16.941 33.691 C 16.999 33.733 17.036 33.764 17.076 33.789 C 17.14 33.827 17.184 33.863 17.156 33.953 C 17.114 34.088 17.202 34.169 17.312 34.228 C 17.418 34.287 17.535 34.293 17.654 34.291 C 17.889 34.286 18.125 34.283 18.356 34.332 C 18.507 34.364 18.659 34.399 18.77 34.546 C 18.724 34.552 18.694 34.556 18.665 34.56 C 18.429 34.601 18.345 34.7 18.35 34.937 C 18.351 35.006 18.363 35.075 18.364 35.144 C 18.369 35.425 18.276 35.667 18.045 35.883 C 18.007 35.696 18.066 35.513 17.936 35.334 C 17.93 35.629 17.87 35.877 17.649 36.101 C 17.623 35.914 17.691 35.749 17.584 35.593 C 17.38 35.68 17.196 35.811 16.981 35.873 C 16.92 36.025 16.802 36.152 16.794 36.328 C 16.781 36.592 16.663 36.732 16.396 36.813 C 16.421 36.75 16.448 36.699 16.461 36.644 C 16.505 36.468 16.461 36.41 16.283 36.352 C 16.18 36.32 16.079 36.274 15.983 36.223 C 15.51 35.97 15.066 36.031 14.642 36.334 C 14.579 36.379 14.517 36.427 14.456 36.476 C 14.245 36.648 14.019 36.778 13.728 36.708 C 13.645 36.688 13.62 36.745 13.589 36.799 C 13.531 36.9 13.552 37.007 13.569 37.12 C 13.349 36.981 13.276 36.804 13.325 36.55 C 13.371 36.313 13.279 36.149 13.048 36.078 C 12.955 36.049 12.888 36.111 12.82 36.166 C 12.759 36.215 12.765 36.311 12.676 36.348 C 12.598 36.091 12.651 35.881 12.869 35.714 C 13.017 35.601 13.028 35.545 12.957 35.366 C 12.952 35.352 12.945 35.338 12.941 35.324 C 12.86 35.081 12.817 35.063 12.589 35.18 C 12.562 35.195 12.537 35.213 12.509 35.231 C 12.522 35.001 12.637 34.85 12.862 34.788 C 12.961 34.761 13.049 34.729 13.135 34.667 C 13.287 34.558 13.462 34.579 13.631 34.63 C 13.774 34.673 13.9 34.751 14.027 34.828 C 14.668 35.211 15.338 35.246 16.03 34.983 C 16.092 34.96 16.182 34.954 16.179 34.862 C 16.175 34.766 16.131 34.691 16.029 34.651 C 15.726 34.532 15.405 34.511 15.088 34.469 C 14.84 34.437 14.59 34.413 14.35 34.337 C 14.215 34.293 14.086 34.24 13.969 34.161 C 13.722 33.991 13.597 33.771 13.682 33.468 C 13.689 33.44 13.689 33.41 13.692 33.379 C 13.619 33.344 13.564 33.384 13.509 33.403 C 12.804 33.643 12.194 34.043 11.617 34.496 C 11.25 34.784 10.889 35.079 10.496 35.333 C 10.162 35.549 9.816 35.741 9.417 35.825 C 9.255 35.859 9.094 35.864 8.914 35.865 C 8.964 35.594 8.987 35.338 8.87 35.092 C 8.834 35.112 8.831 35.142 8.831 35.173 C 8.827 35.457 8.735 35.71 8.568 35.946 C 8.405 36.177 8.453 36.319 8.723 36.477 C 8.328 36.947 7.828 36.906 7.296 36.776 C 7.26 36.95 7.338 37.123 7.283 37.29 C 7.213 37.278 7.196 37.221 7.166 37.181 C 6.701 36.554 6.046 36.27 5.285 36.178 C 5.084 36.154 4.88 36.142 4.677 36.123 C 4.579 36.114 4.5 36.109 4.452 36.228 C 4.405 36.348 4.287 36.42 4.16 36.437 C 4.052 36.451 3.975 36.5 3.89 36.556 C 3.671 36.703 3.436 36.677 3.213 36.471 C 3.373 36.46 3.522 36.45 3.601 36.308 C 3.615 36.281 3.591 36.267 3.581 36.248 C 3.489 36.075 3.344 35.989 3.149 35.943 C 2.914 35.888 2.735 35.733 2.598 35.537 C 2.562 35.486 2.532 35.432 2.495 35.383 C 2.347 35.185 2.237 35.162 2.016 35.281 C 1.796 35.399 1.585 35.382 1.406 35.235 C 1.35 35.188 1.326 35.092 1.223 35.115 C 1.129 35.136 1.049 35.181 0.99 35.259 C 0.967 35.29 0.947 35.321 0.925 35.354 C 0.848 35.139 0.898 34.945 1.085 34.806 C 1.169 34.744 1.243 34.691 1.255 34.578 C 1.267 34.457 1.426 34.397 1.424 34.291 C 1.421 34.195 1.332 34.104 1.328 33.99 C 1.322 33.837 1.256 33.797 1.105 33.842 C 1.062 33.856 1.02 33.88 0.981 33.904 C 0.944 33.927 0.912 33.956 0.87 33.988 C 0.886 33.694 1.05 33.491 1.31 33.465 C 1.444 33.452 1.568 33.436 1.69 33.374 C 1.764 33.336 1.856 33.328 1.943 33.341 C 1.992 33.348 2.031 33.343 2.069 33.304 C 2.183 33.191 2.176 33.096 2.035 33.014 C 1.97 32.977 1.896 32.955 1.821 32.925 C 2.109 32.771 2.277 32.786 2.509 32.987 C 2.55 33.022 2.582 33.065 2.642 33.076 C 2.874 33.12 2.969 33.289 3.032 33.489 C 3.08 33.639 3.08 33.792 3.091 33.945 C 3.096 34.014 3.093 34.083 3.1 34.152 C 3.133 34.512 3.332 34.72 3.697 34.79 C 3.98 34.845 4.259 34.814 4.537 34.766 C 4.924 34.699 5.298 34.588 5.667 34.44 C 5.738 34.509 5.741 34.613 5.8 34.678 C 5.839 34.721 5.813 34.912 5.968 34.771 C 5.984 34.756 6.016 34.817 6.031 34.853 C 6.178 35.215 6.34 35.573 6.355 35.972 C 6.44 35.962 6.443 35.897 6.469 35.855 C 6.557 35.708 6.662 35.575 6.793 35.463 C 6.934 35.342 7.073 35.218 7.202 35.084 C 7.302 34.98 7.252 35.119 7.278 35.137 C 7.262 35.154 7.257 35.173 7.279 35.188 C 7.28 35.189 7.296 35.172 7.305 35.164 Z" fill="var(--token-bb9eb254-5702-404a-9d47-07d085d7a077, rgb(0, 0, 0)) /* {&quot;name&quot;:&quot;Black&quot;} */"></path><path d="M 12.059 13.523 C 13.298 13.511 14.518 13.568 15.734 13.683 C 17.528 13.852 19.301 14.145 21.051 14.567 C 21.562 14.69 21.872 15.013 21.922 15.501 C 21.996 16.231 21.338 16.751 20.724 16.637 C 20.256 16.55 19.793 16.434 19.327 16.337 C 18.255 16.113 17.173 15.949 16.084 15.83 C 14.47 15.654 12.852 15.583 11.229 15.622 C 8.662 15.683 6.126 15.991 3.634 16.606 C 2.967 16.771 2.453 16.399 2.295 15.966 C 2.084 15.388 2.398 14.769 3.009 14.598 C 3.536 14.45 4.073 14.344 4.61 14.239 C 5.714 14.02 6.828 13.85 7.948 13.732 C 9.319 13.588 10.695 13.511 12.058 13.524 Z M 21.91 52.129 C 21.988 52.164 22.063 52.197 22.138 52.232 C 23.162 52.71 23.641 53.639 23.526 54.697 C 23.413 55.75 22.597 56.598 21.55 56.806 C 21.349 56.846 21.148 56.858 20.943 56.858 C 19.628 56.858 18.312 56.86 16.997 56.86 C 16.744 56.86 16.768 56.879 16.768 56.639 C 16.768 54.474 16.767 52.309 16.768 50.144 C 16.768 49.913 16.752 49.684 16.688 49.461 C 16.549 48.973 16.279 48.603 15.754 48.46 C 15.732 48.454 15.708 48.448 15.689 48.436 C 15.66 48.419 15.647 48.395 15.654 48.36 C 15.659 48.33 15.682 48.322 15.703 48.32 C 15.758 48.315 15.813 48.314 15.868 48.314 C 17.433 48.314 19 48.315 20.566 48.312 C 21.034 48.312 21.485 48.379 21.905 48.595 C 23.136 49.228 23.176 50.582 22.719 51.367 C 22.568 51.626 22.354 51.825 22.101 51.986 C 22.037 52.026 21.955 52.044 21.91 52.129 Z M 19.513 55.956 C 19.833 55.944 20.218 55.985 20.6 55.932 C 21.21 55.847 21.679 55.576 21.877 54.966 C 21.937 54.782 21.951 54.591 21.948 54.397 C 21.939 53.575 21.431 52.991 20.602 52.886 C 19.894 52.796 19.179 52.866 18.467 52.847 C 18.384 52.845 18.359 52.885 18.36 52.959 C 18.362 53.105 18.36 53.251 18.36 53.396 L 18.36 55.723 C 18.36 55.971 18.341 55.956 18.605 55.956 L 19.513 55.956 Z M 18.359 50.542 C 18.359 50.949 18.358 51.356 18.36 51.762 C 18.36 51.921 18.364 51.924 18.529 51.925 C 19.069 51.926 19.609 51.936 20.149 51.922 C 20.708 51.908 21.113 51.643 21.342 51.137 C 21.496 50.796 21.516 50.44 21.436 50.078 C 21.335 49.622 21.045 49.34 20.596 49.206 C 20.46 49.165 20.321 49.145 20.179 49.145 C 19.624 49.142 19.068 49.144 18.512 49.136 C 18.383 49.135 18.356 49.185 18.357 49.298 C 18.362 49.713 18.359 50.127 18.359 50.541 Z M 8.412 48.351 C 7.891 48.818 7.474 49.34 7.169 49.943 C 7.112 49.936 7.108 49.895 7.099 49.86 C 7.009 49.504 6.756 49.324 6.408 49.253 C 6.263 49.223 6.115 49.206 5.965 49.207 C 5.119 49.209 4.274 49.207 3.428 49.207 C 3.226 49.207 3.224 49.209 3.223 49.408 C 3.223 50.183 3.223 50.959 3.223 51.734 C 3.223 51.943 3.216 51.93 3.432 51.93 L 6.275 51.93 C 6.329 51.93 6.384 51.934 6.439 51.93 C 6.548 51.922 6.574 51.975 6.557 52.071 C 6.521 52.276 6.528 52.484 6.525 52.691 C 6.522 52.847 6.52 52.851 6.351 52.851 C 5.404 52.852 4.456 52.851 3.508 52.852 C 3.192 52.853 3.224 52.807 3.223 53.137 C 3.222 53.981 3.223 54.826 3.223 55.67 C 3.223 55.914 3.203 55.897 3.448 55.897 C 4.724 55.897 6.001 55.899 7.277 55.891 C 7.445 55.89 7.55 55.935 7.64 56.075 C 7.813 56.347 8.023 56.592 8.294 56.861 L 1.866 56.861 C 1.827 56.861 1.787 56.858 1.748 56.861 C 1.653 56.869 1.626 56.82 1.631 56.736 C 1.635 56.674 1.631 56.613 1.631 56.552 C 1.631 54.402 1.631 52.252 1.632 50.103 C 1.632 49.816 1.598 49.536 1.492 49.268 C 1.336 48.875 1.072 48.588 0.647 48.467 C 0.633 48.463 0.617 48.461 0.602 48.456 C 0.557 48.44 0.509 48.425 0.52 48.364 C 0.53 48.314 0.575 48.318 0.612 48.315 C 0.651 48.312 0.691 48.314 0.73 48.314 C 3.22 48.314 5.711 48.314 8.201 48.315 C 8.261 48.315 8.324 48.298 8.412 48.352 Z" fill="var(--token-bb9eb254-5702-404a-9d47-07d085d7a077, rgb(0, 0, 0)) /* {&quot;name&quot;:&quot;Black&quot;} */"></path><path d="M 15.782 55.475 C 15.812 55.698 15.831 55.904 15.868 56.107 C 15.89 56.232 15.849 56.305 15.746 56.375 C 15.232 56.724 14.676 56.98 14.067 57.121 C 12.79 57.414 11.54 57.323 10.358 56.761 C 8.884 56.059 8.061 54.879 7.884 53.283 C 7.746 52.039 8.052 50.904 8.845 49.914 C 9.536 49.051 10.458 48.542 11.543 48.321 C 12.542 48.117 13.534 48.148 14.506 48.485 C 14.951 48.64 15.368 48.848 15.751 49.118 C 15.822 49.168 15.884 49.212 15.883 49.316 C 15.877 49.892 15.879 50.468 15.878 51.044 C 15.878 51.064 15.878 51.089 15.84 51.099 C 15.791 51.103 15.792 51.059 15.785 51.023 C 15.585 49.902 14.819 49.348 13.729 49.183 C 13.198 49.103 12.666 49.106 12.144 49.243 C 11.186 49.494 10.451 50.04 10.002 50.907 C 9.413 52.048 9.378 53.231 9.914 54.396 C 10.396 55.444 11.269 56.039 12.42 56.229 C 13.018 56.328 13.623 56.303 14.222 56.216 C 14.727 56.143 15.176 55.93 15.574 55.615 C 15.633 55.568 15.679 55.5 15.782 55.475 Z M 8.138 38.039 C 8.272 37.96 8.38 37.847 8.522 37.778 C 8.729 37.677 8.844 37.653 9.055 37.684 C 9.044 37.755 8.97 37.767 8.933 37.815 C 8.854 37.918 8.814 38.03 8.831 38.158 C 8.851 38.318 8.959 38.433 9.112 38.456 C 9.271 38.482 9.375 38.418 9.455 38.248 C 9.465 38.227 9.473 38.206 9.484 38.186 C 9.486 38.18 9.496 38.178 9.511 38.169 C 9.656 38.333 9.666 38.544 9.716 38.746 C 9.803 38.732 9.75 38.635 9.823 38.613 C 9.899 38.69 9.907 38.799 9.936 38.897 C 9.956 38.967 9.979 39.007 10.063 38.982 C 10.227 38.931 10.371 38.994 10.508 39.072 C 10.657 39.156 10.807 39.238 11.013 39.29 C 10.765 39.415 10.609 39.592 10.464 39.784 C 10.354 39.93 10.184 39.927 9.987 39.864 C 10.152 40.483 10.199 41.078 10.085 41.684 C 9.976 41.67 9.953 41.546 9.828 41.525 C 9.865 41.888 9.851 42.244 9.749 42.597 C 9.641 42.559 9.638 42.418 9.502 42.405 C 9.455 42.888 9.319 43.34 9.002 43.742 C 8.946 43.638 8.979 43.534 8.892 43.456 C 8.699 43.932 8.394 44.316 7.946 44.616 C 7.933 44.502 7.924 44.42 7.909 44.296 C 7.798 44.431 7.721 44.541 7.628 44.636 C 7.532 44.736 7.418 44.819 7.315 44.913 C 7.213 45.007 7.116 45.105 7.006 45.212 C 6.914 44.772 6.605 44.409 6.67 43.912 C 6.531 43.996 6.524 44.128 6.428 44.211 C 6.272 43.973 6.201 43.717 6.153 43.456 C 6.106 43.202 6.094 42.946 6.161 42.676 C 6.011 42.711 5.994 42.851 5.879 42.893 C 5.783 42.421 5.885 41.981 6.061 41.548 C 5.945 41.534 5.883 41.623 5.777 41.637 C 5.852 41.263 6.018 40.939 6.213 40.625 C 6.103 40.575 6.025 40.678 5.908 40.647 C 6.084 40.053 6.422 39.558 6.852 39.096 C 6.58 39.025 6.485 38.845 6.472 38.596 C 6.464 38.426 6.361 38.283 6.266 38.112 C 6.491 38.165 6.693 38.153 6.895 38.154 C 7.05 38.154 7.181 38.215 7.288 38.318 C 7.415 38.238 7.477 38.112 7.602 38.052 C 7.647 38.108 7.576 38.169 7.625 38.238 C 7.781 38.083 7.921 37.913 8.12 37.79 C 8.154 37.871 8.089 37.934 8.095 38.002 C 8.082 38.022 8.073 38.048 8.092 38.064 C 8.117 38.084 8.127 38.056 8.139 38.04 Z M 9.073 41.281 C 8.871 41.166 8.686 41.201 8.504 41.217 C 8.434 41.223 8.366 41.244 8.296 41.247 C 8.188 41.251 8.119 41.192 8.092 41.091 C 8.072 41.013 8.029 40.919 8.177 40.914 C 8.188 40.914 8.206 40.894 8.206 40.884 C 8.207 40.705 8.3 40.688 8.454 40.727 C 8.559 40.754 8.577 40.651 8.585 40.578 C 8.594 40.498 8.521 40.497 8.47 40.506 C 8.265 40.541 8.082 40.505 7.925 40.365 C 7.919 40.36 7.912 40.357 7.905 40.353 C 7.83 40.309 7.785 40.34 7.768 40.414 C 7.752 40.484 7.749 40.556 7.844 40.578 C 7.98 40.611 8.059 40.67 7.975 40.819 C 7.962 40.842 7.983 40.864 8.001 40.877 C 8.092 40.941 8.033 40.997 7.992 41.05 C 7.935 41.124 7.863 41.157 7.767 41.123 C 7.683 41.094 7.623 41.033 7.555 40.982 C 7.405 40.87 7.251 40.769 7.008 40.764 C 7.304 40.926 7.32 41.162 7.281 41.416 C 7.271 41.484 7.253 41.551 7.243 41.619 C 7.206 41.878 7.179 42.137 7.292 42.374 C 7.359 42.403 7.362 42.314 7.427 42.328 C 7.456 42.517 7.442 42.723 7.579 42.891 C 7.792 42.801 7.891 42.61 8.006 42.432 C 8.049 42.483 8.013 42.549 8.072 42.587 C 8.234 42.469 8.339 42.32 8.407 42.146 C 8.46 42.01 8.499 41.869 8.547 41.732 C 8.628 41.494 8.754 41.301 9.072 41.283 Z M 7.488 39.452 C 7.419 39.506 7.457 39.566 7.471 39.618 C 7.49 39.683 7.523 39.743 7.517 39.816 C 7.504 39.985 7.543 40.035 7.698 40.051 C 7.791 40.06 7.884 40.065 7.977 40.064 C 8.065 40.064 8.065 40.06 8.081 39.909 C 7.93 39.999 7.837 39.937 7.756 39.809 C 7.678 39.687 7.582 39.576 7.488 39.451 Z M 8.529 40.034 C 8.487 40.077 8.484 40.118 8.501 40.151 C 8.549 40.242 8.899 40.37 8.996 40.34 C 9.035 40.328 9.071 40.314 9.071 40.268 C 9.071 40.17 9.146 40.123 9.208 40.067 C 9.251 40.027 9.309 39.994 9.306 39.898 C 9.173 39.956 9.044 40.002 8.927 40.068 C 8.781 40.151 8.647 40.192 8.529 40.034 Z M 10.341 39.249 C 10.281 39.209 10.221 39.19 10.158 39.198 C 10.086 39.206 10.025 39.237 9.989 39.306 C 9.951 39.381 9.965 39.447 10.04 39.48 C 10.106 39.509 10.139 39.457 10.151 39.398 C 10.17 39.298 10.258 39.279 10.341 39.249 Z M 6.855 38.39 C 6.962 38.45 6.962 38.539 6.946 38.635 C 6.939 38.674 6.95 38.712 7 38.72 C 7.042 38.727 7.074 38.711 7.098 38.676 C 7.141 38.61 7.131 38.547 7.093 38.483 C 7.044 38.402 6.967 38.377 6.855 38.39 Z M 9.728 28.786 C 9.787 28.747 9.759 28.679 9.813 28.63 C 9.903 28.701 9.904 28.811 9.933 28.906 C 9.954 28.974 9.979 29.012 10.063 28.994 C 10.252 28.953 10.417 29.022 10.572 29.12 C 10.691 29.195 10.819 29.253 10.957 29.286 C 10.971 29.366 10.896 29.367 10.858 29.393 C 10.74 29.472 10.632 29.562 10.558 29.681 C 10.432 29.884 10.262 29.968 9.987 29.875 C 10.15 30.491 10.2 31.088 10.087 31.692 C 9.969 31.694 9.952 31.54 9.816 31.542 C 9.874 31.817 9.845 32.09 9.808 32.362 C 9.796 32.443 9.772 32.521 9.753 32.606 C 9.639 32.573 9.636 32.43 9.504 32.413 C 9.458 32.899 9.319 33.352 8.998 33.762 C 8.95 33.659 8.975 33.56 8.897 33.463 C 8.699 33.938 8.401 34.324 7.95 34.625 C 7.935 34.519 7.924 34.435 7.913 34.351 C 7.762 34.503 7.639 34.664 7.478 34.791 C 7.314 34.921 7.152 35.053 7.01 35.24 C 6.91 34.787 6.61 34.418 6.665 33.916 C 6.536 34.013 6.518 34.135 6.426 34.24 C 6.157 33.738 6.063 33.232 6.151 32.678 C 6.025 32.726 5.988 32.841 5.903 32.904 C 5.825 32.627 5.746 32.481 6.041 31.553 C 5.95 31.553 5.888 31.623 5.808 31.642 C 5.803 31.411 5.895 31.184 6.218 30.627 C 6.164 30.587 6.116 30.628 6.067 30.641 C 6.024 30.653 5.979 30.665 5.9 30.687 C 6.081 30.071 6.419 29.575 6.854 29.109 C 6.736 29.062 6.626 29.026 6.561 28.927 C 6.499 28.834 6.489 28.727 6.478 28.62 C 6.459 28.442 6.36 28.294 6.26 28.105 C 6.45 28.177 6.614 28.165 6.778 28.159 C 6.973 28.151 7.151 28.19 7.296 28.333 C 7.412 28.251 7.48 28.12 7.612 28.061 C 7.644 28.123 7.572 28.185 7.634 28.251 C 7.78 28.085 7.931 27.926 8.123 27.797 C 8.154 27.908 8.059 27.986 8.095 28.096 C 8.375 27.875 8.643 27.638 9.055 27.686 C 9.041 27.763 8.973 27.782 8.939 27.824 C 8.829 27.963 8.793 28.111 8.864 28.276 C 8.917 28.401 9.018 28.471 9.154 28.477 C 9.292 28.482 9.393 28.416 9.447 28.288 C 9.461 28.254 9.459 28.212 9.508 28.176 C 9.665 28.349 9.66 28.58 9.73 28.785 Z M 7.581 32.905 C 7.785 32.811 7.895 32.636 7.993 32.452 C 8.059 32.488 8.015 32.557 8.062 32.601 C 8.232 32.494 8.337 32.336 8.409 32.156 C 8.46 32.028 8.498 31.895 8.541 31.764 C 8.623 31.516 8.743 31.308 9.091 31.302 C 8.881 31.187 8.704 31.196 8.525 31.229 C 8.433 31.247 8.34 31.266 8.246 31.252 C 8.133 31.236 8.103 31.149 8.079 31.056 C 8.059 30.973 8.073 30.927 8.171 30.924 C 8.207 30.923 8.212 30.888 8.212 30.855 C 8.212 30.737 8.291 30.721 8.387 30.728 C 8.417 30.73 8.449 30.747 8.478 30.741 C 8.565 30.727 8.583 30.655 8.586 30.586 C 8.59 30.507 8.519 30.506 8.468 30.516 C 8.252 30.557 8.069 30.501 7.901 30.368 C 7.828 30.31 7.784 30.358 7.768 30.428 C 7.75 30.509 7.756 30.579 7.865 30.6 C 7.981 30.623 8.055 30.68 7.984 30.81 C 7.973 30.83 7.964 30.857 7.985 30.873 C 8.123 30.977 8.01 31.046 7.944 31.109 C 7.86 31.189 7.768 31.15 7.687 31.095 C 7.611 31.042 7.541 30.98 7.463 30.929 C 7.34 30.849 7.217 30.764 7.026 30.796 C 7.264 30.913 7.311 31.098 7.293 31.309 C 7.284 31.416 7.259 31.521 7.245 31.627 C 7.208 31.89 7.176 32.153 7.3 32.399 C 7.367 32.404 7.363 32.318 7.433 32.336 C 7.452 32.528 7.444 32.732 7.58 32.906 Z M 7.46 29.43 C 7.429 29.633 7.577 29.77 7.49 29.924 C 7.486 29.932 7.5 29.952 7.508 29.965 C 7.565 30.062 7.984 30.126 8.068 30.049 C 8.088 30.03 8.113 30.002 8.1 29.968 C 8.087 29.934 8.058 29.924 8.026 29.941 C 7.906 30.006 7.842 29.938 7.779 29.849 C 7.686 29.72 7.586 29.596 7.459 29.43 Z M 9.334 29.891 C 9.165 29.97 9.038 30.023 8.917 30.088 C 8.776 30.163 8.645 30.208 8.532 30.045 C 8.477 30.118 8.479 30.181 8.542 30.215 C 8.652 30.273 8.767 30.321 8.885 30.362 C 8.944 30.383 9.048 30.371 9.052 30.32 C 9.064 30.14 9.256 30.094 9.334 29.891 Z M 10.343 29.266 C 10.255 29.208 10.186 29.207 10.117 29.221 C 10.04 29.238 9.995 29.289 9.975 29.36 C 9.959 29.418 9.982 29.469 10.039 29.492 C 10.092 29.513 10.137 29.485 10.144 29.433 C 10.158 29.33 10.239 29.295 10.343 29.265 Z M 6.825 28.4 C 6.951 28.47 6.965 28.545 6.948 28.636 C 6.938 28.685 6.954 28.734 7.01 28.739 C 7.072 28.744 7.106 28.698 7.121 28.643 C 7.157 28.514 7.06 28.421 6.825 28.4 Z M 8.129 18.077 C 8.209 18.018 8.289 17.956 8.372 17.901 C 8.578 17.767 8.794 17.664 9.057 17.71 C 9.046 17.782 8.976 17.798 8.939 17.842 C 8.82 17.983 8.792 18.169 8.87 18.315 C 8.934 18.434 9.034 18.497 9.174 18.493 C 9.305 18.49 9.396 18.428 9.445 18.309 C 9.459 18.275 9.468 18.239 9.488 18.178 C 9.662 18.365 9.657 18.596 9.729 18.798 C 9.789 18.76 9.759 18.689 9.817 18.643 C 9.92 18.745 9.903 18.897 9.978 19.027 C 10.376 18.879 10.618 19.257 11.019 19.311 C 10.774 19.454 10.612 19.607 10.483 19.798 C 10.371 19.963 10.191 19.946 9.988 19.907 C 10.155 20.518 10.198 21.113 10.085 21.72 C 9.969 21.701 9.945 21.568 9.821 21.55 C 9.877 21.914 9.841 22.268 9.755 22.631 C 9.642 22.6 9.635 22.454 9.508 22.425 C 9.473 22.669 9.442 22.909 9.354 23.137 C 9.269 23.359 9.17 23.573 8.995 23.779 C 8.952 23.672 8.972 23.565 8.898 23.481 C 8.7 23.953 8.407 24.348 7.967 24.631 C 7.895 24.546 7.964 24.441 7.879 24.341 C 7.768 24.521 7.64 24.679 7.481 24.809 C 7.32 24.941 7.151 25.067 7.013 25.26 C 6.908 24.805 6.608 24.435 6.666 23.947 C 6.531 24.021 6.528 24.155 6.424 24.251 C 6.151 23.761 6.067 23.249 6.148 22.699 C 6.021 22.743 5.994 22.867 5.901 22.922 C 5.793 22.591 5.821 22.342 6.049 21.585 C 5.948 21.556 5.887 21.667 5.782 21.654 C 5.81 21.47 5.885 21.304 5.953 21.134 C 6.019 20.97 6.122 20.825 6.204 20.669 C 6.103 20.603 6.023 20.71 5.933 20.686 C 5.975 20.321 6.205 19.925 6.822 19.152 C 6.812 19.093 6.756 19.094 6.717 19.077 C 6.585 19.016 6.505 18.91 6.494 18.773 C 6.477 18.562 6.405 18.372 6.291 18.191 C 6.777 18.129 7.03 18.168 7.304 18.346 C 7.409 18.272 7.477 18.152 7.594 18.087 C 7.657 18.137 7.567 18.207 7.634 18.261 C 7.775 18.124 7.901 17.968 8.069 17.857 C 8.081 17.85 8.098 17.851 8.114 17.848 C 8.152 17.919 8.085 17.979 8.094 18.048 C 8.084 18.066 8.074 18.089 8.092 18.103 C 8.117 18.119 8.123 18.094 8.13 18.077 Z M 7.003 20.8 C 7.288 20.942 7.319 21.161 7.286 21.404 C 7.276 21.48 7.259 21.555 7.248 21.631 C 7.206 21.897 7.178 22.164 7.297 22.418 C 7.354 22.428 7.366 22.352 7.428 22.367 C 7.458 22.554 7.441 22.76 7.583 22.922 C 7.794 22.823 7.897 22.642 7.999 22.469 C 8.058 22.509 8.01 22.578 8.068 22.62 C 8.263 22.489 8.371 22.297 8.447 22.084 C 8.495 21.955 8.528 21.819 8.577 21.691 C 8.661 21.476 8.794 21.315 9.077 21.332 C 8.953 21.221 8.817 21.23 8.687 21.235 C 8.578 21.24 8.47 21.264 8.362 21.278 C 8.252 21.293 8.154 21.273 8.108 21.162 C 8.071 21.072 8.02 20.968 8.185 20.938 C 8.195 20.936 8.209 20.916 8.209 20.904 C 8.206 20.726 8.314 20.73 8.446 20.759 C 8.56 20.783 8.572 20.687 8.586 20.617 C 8.601 20.546 8.539 20.516 8.483 20.531 C 8.265 20.587 8.083 20.531 7.916 20.393 C 7.882 20.365 7.827 20.344 7.792 20.395 C 7.75 20.457 7.733 20.568 7.792 20.58 C 7.988 20.622 8.024 20.734 7.991 20.899 C 8.105 20.978 8.025 21.043 7.972 21.105 C 7.906 21.18 7.82 21.185 7.738 21.142 C 7.669 21.107 7.611 21.053 7.548 21.008 C 7.397 20.9 7.246 20.792 7.003 20.8 Z M 7.49 19.486 C 7.442 19.655 7.558 19.799 7.501 19.96 C 7.496 19.976 7.53 20.013 7.554 20.03 C 7.708 20.131 7.882 20.094 8.049 20.085 C 8.078 20.084 8.108 20.031 8.1 19.993 C 8.092 19.96 8.053 19.949 8.024 19.965 C 7.9 20.032 7.841 19.954 7.779 19.869 C 7.685 19.74 7.587 19.614 7.49 19.487 Z M 9.307 19.925 C 9.165 19.99 9.043 20.039 8.927 20.101 C 8.784 20.177 8.647 20.237 8.526 20.056 C 8.484 20.144 8.472 20.204 8.559 20.243 C 8.657 20.287 8.753 20.346 8.857 20.37 C 8.947 20.392 9.067 20.42 9.08 20.258 C 9.084 20.195 9.144 20.157 9.189 20.116 C 9.238 20.071 9.306 20.037 9.307 19.925 Z M 10.357 19.297 C 10.149 19.204 10.005 19.24 9.974 19.378 C 9.961 19.437 9.98 19.487 10.039 19.509 C 10.092 19.528 10.134 19.504 10.145 19.451 C 10.166 19.346 10.237 19.303 10.357 19.296 Z M 6.808 18.408 C 6.951 18.48 6.968 18.566 6.947 18.669 C 6.939 18.706 6.951 18.746 7 18.755 C 7.055 18.766 7.085 18.733 7.108 18.691 C 7.137 18.639 7.131 18.588 7.105 18.538 C 7.053 18.441 6.971 18.401 6.808 18.409 Z" fill="var(--token-bb9eb254-5702-404a-9d47-07d085d7a077, rgb(0, 0, 0)) /* {&quot;name&quot;:&quot;Black&quot;} */"></path><path d="M 5.146 33.634 C 5.003 33.533 4.921 33.414 4.846 33.292 C 4.72 33.088 4.636 32.864 4.549 32.643 C 4.451 32.392 4.351 32.142 4.204 31.914 C 4.053 31.678 3.869 31.473 3.632 31.325 C 3.554 31.339 3.558 31.407 3.527 31.447 C 3.401 31.607 3.232 31.673 3.031 31.617 C 2.931 31.589 2.843 31.589 2.742 31.621 C 2.482 31.703 2.271 31.596 2.132 31.319 C 2.237 31.322 2.332 31.364 2.431 31.341 C 2.524 31.32 2.593 31.291 2.571 31.175 C 2.552 31.073 2.598 30.979 2.623 30.882 C 2.653 30.763 2.679 30.643 2.665 30.518 C 2.64 30.283 2.522 30.117 2.288 30.039 C 2.2 30.01 2.106 29.989 2.025 29.946 C 1.752 29.803 1.569 29.6 1.582 29.273 C 1.588 29.128 1.543 29.086 1.401 29.078 C 1.282 29.07 1.193 29.132 1.102 29.193 C 1.117 28.909 1.353 28.706 1.641 28.729 C 1.696 28.733 1.75 28.755 1.803 28.753 C 1.897 28.749 1.997 28.745 1.979 28.602 C 1.973 28.553 1.999 28.498 2.018 28.448 C 2.075 28.298 2.049 28.229 1.905 28.161 C 1.813 28.117 1.714 28.113 1.596 28.142 C 1.827 27.864 2.125 27.82 2.364 28.04 C 2.499 28.164 2.69 28.129 2.822 28.25 C 2.868 28.293 3.048 28.085 3.027 28.008 C 2.993 27.891 2.909 27.814 2.8 27.75 C 3.049 27.667 3.289 27.768 3.394 28.007 C 3.442 28.113 3.492 28.212 3.56 28.306 C 3.639 28.416 3.671 28.544 3.63 28.678 C 3.59 28.81 3.548 28.942 3.499 29.071 C 3.334 29.513 3.431 29.9 3.747 30.242 C 3.927 30.437 4.145 30.586 4.373 30.722 C 4.735 30.938 5.118 31.113 5.504 31.28 C 5.713 31.37 5.69 31.37 5.646 31.546 C 5.621 31.648 5.575 31.75 5.592 31.863 C 5.662 31.884 5.693 31.797 5.771 31.813 C 5.739 32.074 5.672 32.335 5.685 32.602 C 5.696 32.862 5.731 33.117 5.801 33.371 C 5.914 33.341 5.904 33.225 5.993 33.179 C 6.023 33.341 6.051 33.496 6.085 33.681 C 5.677 33.642 5.429 33.424 5.268 33.06 C 5.125 33.235 5.166 33.428 5.144 33.636 Z M 5.259 23.064 C 5.137 23.266 5.159 23.451 5.149 23.663 C 5.006 23.557 4.923 23.44 4.849 23.317 C 4.723 23.112 4.637 22.89 4.551 22.668 C 4.459 22.431 4.363 22.196 4.231 21.978 C 4.077 21.724 3.883 21.507 3.634 21.345 C 3.563 21.344 3.569 21.405 3.545 21.44 C 3.419 21.626 3.24 21.702 3.018 21.638 C 2.922 21.61 2.843 21.615 2.749 21.642 C 2.473 21.719 2.261 21.609 2.119 21.321 C 2.241 21.349 2.351 21.406 2.467 21.354 C 2.516 21.332 2.583 21.32 2.572 21.251 C 2.547 21.084 2.625 20.936 2.652 20.779 C 2.673 20.657 2.675 20.536 2.64 20.414 C 2.581 20.206 2.433 20.096 2.232 20.043 C 2.046 19.993 1.881 19.912 1.755 19.766 C 1.64 19.633 1.571 19.485 1.581 19.304 C 1.589 19.145 1.544 19.108 1.384 19.104 C 1.272 19.102 1.184 19.16 1.083 19.232 C 1.157 18.881 1.362 18.727 1.682 18.754 C 1.735 18.759 1.785 18.783 1.843 18.771 C 1.922 18.754 1.994 18.747 1.979 18.635 C 1.973 18.585 1.996 18.53 2.014 18.48 C 2.076 18.311 2.026 18.207 1.85 18.163 C 1.778 18.145 1.7 18.148 1.622 18.142 C 1.809 17.901 2.098 17.833 2.309 18.024 C 2.457 18.158 2.655 18.142 2.802 18.262 C 2.868 18.317 2.921 18.192 2.989 18.164 C 3.056 18.136 3.041 18.08 3.025 18.026 C 2.991 17.91 2.907 17.833 2.796 17.767 C 3.086 17.701 3.303 17.804 3.409 18.052 C 3.439 18.122 3.452 18.197 3.508 18.257 C 3.662 18.422 3.672 18.615 3.602 18.817 C 3.567 18.918 3.524 19.017 3.489 19.119 C 3.344 19.533 3.429 19.904 3.72 20.232 C 3.912 20.449 4.15 20.61 4.399 20.757 C 4.761 20.971 5.146 21.142 5.53 21.313 C 5.687 21.383 5.68 21.384 5.649 21.552 C 5.629 21.661 5.571 21.766 5.594 21.882 C 5.665 21.893 5.695 21.826 5.781 21.826 C 5.654 22.354 5.648 22.878 5.808 23.403 C 5.908 23.359 5.903 23.248 5.996 23.201 C 6.025 23.368 6.051 23.523 6.082 23.701 C 5.669 23.66 5.422 23.436 5.258 23.065 Z M 3.616 41.296 C 3.438 41.594 3.251 41.689 2.943 41.577 C 2.884 41.555 2.839 41.584 2.787 41.599 C 2.483 41.683 2.283 41.596 2.121 41.301 C 2.225 41.302 2.316 41.354 2.412 41.334 C 2.511 41.314 2.595 41.288 2.571 41.157 C 2.557 41.081 2.584 41.007 2.604 40.932 C 2.632 40.828 2.658 40.722 2.665 40.616 C 2.684 40.3 2.547 40.102 2.241 40.009 C 2.089 39.964 1.944 39.911 1.827 39.803 C 1.673 39.662 1.571 39.497 1.58 39.278 C 1.587 39.102 1.529 39.058 1.348 39.068 C 1.249 39.073 1.182 39.14 1.098 39.177 C 1.135 38.871 1.373 38.678 1.671 38.715 C 1.739 38.724 1.803 38.757 1.877 38.731 C 1.941 38.708 1.993 38.695 1.977 38.609 C 1.966 38.547 1.995 38.489 2.018 38.431 C 2.076 38.286 2.055 38.231 1.925 38.156 C 1.832 38.102 1.731 38.109 1.627 38.114 C 1.763 37.896 2.015 37.809 2.237 37.941 C 2.395 38.036 2.552 38.123 2.727 38.183 C 2.761 38.195 2.789 38.227 2.817 38.248 C 2.838 38.238 2.854 38.234 2.865 38.225 C 3.087 38.06 3.089 37.97 2.873 37.785 C 2.851 37.765 2.818 37.756 2.812 37.722 C 3.084 37.666 3.306 37.769 3.406 38.015 C 3.445 38.109 3.49 38.193 3.55 38.275 C 3.639 38.398 3.674 38.539 3.625 38.689 C 3.584 38.813 3.544 38.938 3.499 39.06 C 3.338 39.491 3.428 39.874 3.734 40.213 C 3.912 40.41 4.129 40.56 4.357 40.697 C 4.731 40.922 5.13 41.099 5.528 41.278 C 5.686 41.349 5.682 41.349 5.65 41.513 C 5.628 41.624 5.578 41.732 5.59 41.85 C 5.663 41.876 5.689 41.78 5.781 41.796 C 5.656 42.319 5.644 42.842 5.813 43.367 C 5.906 43.318 5.904 43.221 5.994 43.168 C 6.023 43.333 6.052 43.49 6.084 43.669 C 5.671 43.628 5.427 43.397 5.259 43.041 C 5.134 43.232 5.161 43.417 5.147 43.615 C 4.997 43.528 4.924 43.402 4.848 43.282 C 4.72 43.078 4.637 42.854 4.55 42.632 C 4.458 42.396 4.363 42.161 4.23 41.943 C 4.077 41.688 3.878 41.476 3.616 41.296 Z M 11.122 1.575 C 11.115 1.271 11.191 0.954 11.358 0.659 C 11.412 0.564 11.474 0.476 11.546 0.395 C 12.029 -0.137 12.723 -0.131 13.195 0.411 C 13.743 1.041 13.748 2.146 13.205 2.779 C 12.719 3.345 11.984 3.34 11.51 2.764 C 11.234 2.428 11.118 2.036 11.121 1.575 Z M 22.376 4.12 C 22.375 4.633 21.979 5.026 21.462 5.026 C 20.944 5.026 20.541 4.633 20.536 4.127 C 20.532 3.613 20.946 3.189 21.455 3.185 C 21.962 3.18 22.377 3.601 22.376 4.119 Z M 22.232 4.118 C 22.232 3.68 21.89 3.328 21.463 3.326 C 21.028 3.325 20.67 3.689 20.675 4.128 C 20.679 4.548 21.019 4.882 21.449 4.886 C 21.891 4.892 22.232 4.557 22.232 4.118 Z M 7.515 41.025 C 7.594 41.081 7.642 41.169 7.658 41.289 C 7.759 41.149 7.91 41.06 8.04 41.102 C 8.157 41.139 8.285 41.255 8.268 41.445 C 8.307 41.412 8.329 41.401 8.34 41.384 C 8.377 41.327 8.405 41.23 8.487 41.277 C 8.59 41.334 8.468 41.388 8.449 41.44 C 8.4 41.576 8.333 41.706 8.268 41.837 C 8.229 41.918 8.224 41.913 8.05 41.987 C 8.013 42.003 7.994 42.055 7.962 42.086 C 7.876 42.169 7.723 42.176 7.68 42.079 C 7.604 41.909 7.431 41.777 7.484 41.554 C 7.522 41.391 7.523 41.22 7.514 41.025 Z M 8.283 31.453 C 8.376 31.424 8.36 31.221 8.525 31.308 C 8.445 31.481 8.366 31.654 8.283 31.826 C 8.239 31.918 8.235 31.913 8.052 31.992 C 8.015 32.008 7.998 32.062 7.966 32.093 C 7.881 32.177 7.724 32.184 7.683 32.09 C 7.613 31.927 7.442 31.806 7.484 31.594 C 7.518 31.422 7.526 31.245 7.515 31.067 C 7.709 31.057 7.591 31.227 7.665 31.278 C 7.933 31.018 8.194 31.074 8.282 31.453 Z M 8.536 21.324 C 8.408 21.533 8.344 21.775 8.2 21.977 C 8.181 22.004 8.157 22.15 8.069 22.011 C 8.046 21.976 8.027 22.032 8.013 22.052 C 7.962 22.122 7.916 22.192 7.808 22.176 C 7.697 22.16 7.645 22.093 7.63 21.993 C 7.615 21.895 7.466 21.887 7.486 21.756 C 7.502 21.652 7.494 21.543 7.504 21.435 C 7.515 21.321 7.517 21.206 7.524 21.086 C 7.713 21.078 7.591 21.253 7.677 21.32 C 7.75 21.163 7.912 21.098 8.048 21.142 C 8.158 21.177 8.294 21.286 8.256 21.466 C 8.384 21.456 8.36 21.217 8.537 21.325 Z" fill="var(--token-bb9eb254-5702-404a-9d47-07d085d7a077, rgb(0, 0, 0)) /* {&quot;name&quot;:&quot;Black&quot;} */"></path><path d="M 21.186 4.501 C 21.186 4.47 21.184 4.44 21.186 4.409 C 21.199 4.29 21.128 4.105 21.227 4.064 C 21.401 3.993 21.613 4.007 21.799 4.076 C 21.929 4.123 21.987 4.295 21.91 4.427 C 21.857 4.518 21.86 4.581 21.901 4.672 C 21.93 4.738 21.913 4.823 21.922 4.899 C 21.928 4.945 21.947 4.994 21.873 4.996 C 21.814 4.997 21.741 5.016 21.728 4.926 C 21.722 4.888 21.724 4.849 21.721 4.811 C 21.704 4.647 21.679 4.628 21.523 4.621 C 21.423 4.616 21.376 4.648 21.386 4.75 C 21.39 4.795 21.385 4.842 21.386 4.887 C 21.389 4.963 21.358 5.001 21.276 4.998 C 21.202 4.995 21.186 4.953 21.186 4.892 L 21.186 4.501 Z M 21.529 4.467 C 21.686 4.465 21.741 4.428 21.738 4.335 C 21.736 4.236 21.674 4.206 21.516 4.203 C 21.412 4.202 21.386 4.242 21.385 4.337 C 21.382 4.453 21.44 4.481 21.529 4.468 Z" fill="var(--token-bb9eb254-5702-404a-9d47-07d085d7a077, rgb(0, 0, 0)) /* {&quot;name&quot;:&quot;Black&quot;} */"></path></g></svg></defs><use href="#svg11207491829"></use></svg>