<svg xmlns:xlink="http://www.w3.org/1999/xlink" xmlns="http://www.w3.org/2000/svg" style="width:100%;height:100%;" viewBox="0 0 492 67" preserveAspectRatio="none" width="492" height="67"><defs><svg id="svg-909892693_1495" version="1.1" viewBox="0 0 491.8 66.7"><defs><style>.cls-1{fill:#000;stroke-width:0}</style></defs><path class="cls-1" d="M362.3 33.3c0-4.1.8-7.3 2.5-9.7L379.9.2c-1.5-.1-3-.2-4.6-.2-18.8 0-29.6 6.9-33.2 21.3V2.4h-20.8v21.9h-21.5V2.4H279v18c-2.9-10.5-9.8-16.8-20.9-19.3C252.7 0 247.6 0 246 0c-17.3 0-27.8 5.8-32.2 18-.7-4.3-2-8-3.9-10.2-3-3.5-8-5.3-15-5.3h-43.1v57.9l-21.9-58h-29L79.1 61V2.4H53L39.6 33.2 26.3 2.4H0v61.9h20.9V37.7l10.8 26.6h15.7l10.8-26.6v26.6h41.6l2.9-7.8h25.4l2.9 7.8h41.6V46.7h12.1l9 17.6h21.7l-10.7-20.7c3-1 5.1-3.1 6.8-5.7 1.1 15.5 8.4 24.6 22.3 27.6l1.9.4c2.5.4 4 .6 5.5.7 1.5.1 3 .2 4.7.2 18.4 0 29.2-6.6 33-20.4v18h20.8V42.5h21.5v21.9H342V45.6c2.7 11 9.7 17.5 21.1 20.1l11.5-17.9c-8.6-.2-12.4-5.3-12.4-14.2Zm-253.8 7 6.8-18.3 7.1 18.3h-13.9ZM189 29.6h-16.4V19.4H189c3 0 4.5 1.7 4.5 5.1s-1.5 5.1-4.5 5.1Zm69.5 8.2c-1.2 6.1-5 9.5-11.9 9.7h-1.1c-7.6-.2-11.5-4.3-12.2-11.5v-4.1c0-.4 0-.9.1-1.3v-.2c0-.4.1-.8.2-1.2v-.1c0-.4.2-.8.2-1.2.4-1.6 1-3 1.8-4.2 2-2.8 5.2-4.4 9.9-4.5h1.1c4.7.1 7.9 1.7 9.9 4.5.8 1.2 1.4 2.6 1.8 4.2 0 .3.1.6.2.9H279v9h-20.5Z" stroke-width="0px"></path><path class="cls-1" d="M448.6 28.8v.5L429.2 2.4h-21v18.2c-2.8-10.6-9.7-17-21-19.4l-11.5 17.9c8.6.2 12.4 5.3 12.4 14.2s-.7 6.7-2 9c-.1.3-.3.5-.4.7l-15.1 23.4c1.5.1 3 .2 4.7.2 18.5 0 29.3-6.7 33-20.6v18.2h21V37.6l19.4 26.6h20.9V2.4h-20.9v26.4Zm26.1-25h2.8v5.3h1.7V3.8h2.8V2.4h-7.3v1.4zM489 2.4 487.3 7h-.1l-1.8-4.6h-2.7v6.7h1.6V3.9h.1l2.1 5.2h1.5l2.1-5.1v5.1h1.7V2.4H489z" stroke-width="0px"></path></svg></defs><use href="#svg-909892693_1495"></use></svg>