<svg xmlns:xlink="http://www.w3.org/1999/xlink" xmlns="http://www.w3.org/2000/svg" id="Layer_2" data-name="Layer 2" viewBox="0 0 1032.53 255.05" width="1032.53"  height="255.05" ><defs><style>.cls-1{fill:#000;stroke-width:0}</style></defs><g id="Layer_1-2" data-name="Layer 1"><path d="M21.17 42.59c-3.19 0-6.38-.02-9.57.05-.88.02-1.03-.29-1.02-1.07.04-2.83-.02-5.66.04-8.48.02-.88-.23-1.14-1.12-1.13-2.79.05-5.57-.03-8.36.02-.88.01-1.15-.24-1.13-1.13.05-2.78.06-5.57 0-8.35-.02-.91.19-1.23 1.17-1.21 3.14.07 6.29.03 9.44.03l-.03-.02c.02 3.1.1 6.19.03 9.29-.02 1.11.35 1.34 1.37 1.31 2.38-.07 4.76-.02 7.15-.02 2.11 0 2.07 0 2.12-2.13.06-2.81-.22-5.63.17-8.44l-.02.02c3.09 0 6.18-.06 9.26 0 1.05.02 1.25-.31 1.23-1.28-.05-3.08.01-6.17.03-9.25l.02-.02c3.32-.28 6.64-.06 9.96-.12.89-.02.69.65.69 1.15.01 2.78.05 5.57-.02 8.35-.02.96.29 1.2 1.21 1.18 2.74-.06 5.49-.06 8.23 0 .91.02 1.11-.28 1.11-1.14-.03-6.2 0-12.4-.04-18.59 0-1.17.2-1.65 1.51-1.59 2.6.12 5.22.09 7.82 0 1.09-.03 1.48.22 1.44 1.38-.09 2.69 0 5.39-.04 8.08-.01.85.18 1.17 1.11 1.17 6.29-.04 12.59-.03 18.88.02.99 0 1.19-.34 1.18-1.24-.05-2.74 0-5.48-.03-8.22-.01-.81.12-1.2 1.09-1.18 2.88.07 5.75.04 8.63.01.72 0 1.04.14 1.03.95-.06 3.27-.05 6.55-.07 9.82l.02-.03c-3.19-.01-6.37 0-9.56-.05-.85-.02-1.06.25-1.04 1.06.05 2.82.05 5.65 0 8.48-.01.82.2 1.07 1.04 1.05 3.19-.05 6.37 0 9.56 0l-.02-.03c.02 5.64.05 11.28.07 16.91 0 1.48-.02 2.95-.04 4.43H74.6v-9.87c-.25 2.91-.25 5.82-.24 8.74 0 .39-.11.82.24 1.14-.04.17-.12.34-.12.51 0 6.55 0 13.1-.03 19.65 0 .9.4 1.01 1.14 1 2.74-.03 5.48-.05 8.22.01.99.02 1.19-.35 1.17-1.24-.05-2.74.03-5.47-.04-8.21-.03-1.04.3-1.27 1.29-1.25 2.78.07 5.57-.01 8.35.05.9.02 1.11-.26 1.1-1.12-.05-3.14-.03-6.28-.03-9.42 7.11 0 14.23.02 21.34.02.01 3.52.02 7.04.04 10.56l-.06 10.47c-.08.07-.16.13-.24.2-4.76 0-9.53 0-14.29.03-2.24 0-4.49.06-6.73.09-3.3-.7-6.62-.07-9.93-.33v.33h9.93c0 3.39-.01 6.78-.02 10.17 0 3.1-.06 6.2 0 9.3.02 1.13-.21 1.56-1.46 1.55-6.07-.07-12.15-.05-18.22 0-1.14.01-1.43-.35-1.42-1.45.05-5.98.02-11.96 0-17.93 0-.46.13-.95-.24-1.64 0 3.11-.04 5.98.02 8.85.02 1.04-.25 1.42-1.35 1.39-2.61-.08-5.22-.03-7.83-.02-.47 0-1-.18-1.39.28-3.19 0-6.37.01-9.55-.05-.87-.02-1.04.28-1.02 1.07.04 2.78.06 5.56 0 8.34-.02.95.24 1.2 1.19 1.19 3.14-.04 6.28.02 9.42.04a.15.15 0 0 0 0 .18v10.21c-.04.06-.05.13 0 .19-3.28.02-6.56.02-9.84.07-.8.01-.85-.39-.85-1 .01-2.79-.04-5.57.03-8.36.02-1.01-.28-1.3-1.28-1.28-2.74.07-5.49 0-8.23.04-.87.01-1.16-.22-1.14-1.13.06-2.83.06-5.66 0-8.49-.02-.89.25-1.14 1.14-1.13 2.79.05 5.58-.02 8.36.04.91.02 1.13-.28 1.13-1.15-.03-6.29-.02-12.58.01-18.87 0-.89-.18-1.27-1.17-1.24-2.74.07-5.49.06-8.23 0-.9-.02-1.15.26-1.14 1.15.05 2.78-.01 5.57.04 8.36.02.89-.16 1.27-1.17 1.24-2.83-.07-5.67-.05-8.5 0-.8.01-1.11-.16-1.09-1.03.06-3.14.03-6.29.04-9.43.04-.08.04-.16.01-.24 3.18-.02 6.37-.07 9.55-.04.83 0 1.07-.21 1.05-1.04-.05-2.82-.05-5.65 0-8.47.01-.83-.21-1.06-1.05-1.05-3.18.04-6.37 0-9.55 0l.02.03c-.02-3.1-.08-6.19-.04-9.29.01-1.03-.22-1.41-1.33-1.37-2.61.08-5.22.08-7.82 0-1.09-.03-1.45.22-1.44 1.38.03 3.09.16 6.19-.07 9.28l-.08-.03Zm53.17-15.94c0-1.48-.02-2.96.01-4.44.01-.63-.19-.86-.84-.86-2.92.03-5.84.03-8.76 0-.7 0-.94.21-.93.92.03 2.92.03 5.84 0 8.76 0 .66.23.84.86.84 2.92-.02 5.84-.03 8.76 0 .7 0 .94-.19.92-.91-.05-1.44-.02-2.87-.02-4.31ZM63.77 37.32c0-1.48-.03-2.97.01-4.45.02-.71-.22-.92-.92-.91-2.92.03-5.85.03-8.77 0-.73 0-.9.27-.9.95.03 2.92.03 5.84 0 8.76 0 .71.24.92.93.91 2.92-.03 5.85-.04 8.77 0 .75.01.9-.29.88-.95-.04-1.44-.01-2.88-.01-4.31ZM53.89 63.7l-.06.12h19.85v-.12H53.89Zm20.63-52.51s-.08-.08-.11-.12v9.62h.11v-9.5ZM53.17 21.93s-.08-.03-.12-.04v9.36h.12v-9.33Zm.02 21.35-.12-.12v9.37h.12v-9.25Zm537.85 177.1c0-12.22.02-24.08-.02-35.94 0-1.16.19-1.59 1.49-1.57 5.31.09 10.61.06 15.92.02.94 0 1.31.13 1.31 1.22-.04 22.78-.03 45.57 0 68.35 0 .9-.26 1.1-1.12 1.1-4.45-.04-8.91-.05-13.36 0-.9 0-1.46-.27-2.02-.98-9.35-11.91-18.72-23.79-28.09-35.69-.13-.16-.26-.33-.61-.77v1.74c0 11.46-.02 22.92.03 34.38 0 1.07-.29 1.33-1.33 1.32-5.44-.05-10.89-.05-16.33 0-.9 0-1.1-.26-1.1-1.12.02-22.78.02-45.57 0-68.35 0-.95.28-1.2 1.21-1.19 4.5.05 9 .04 13.49 0 .77 0 1.21.27 1.66.85 9.18 11.69 18.39 23.37 27.59 35.05.35.45.71.89 1.28 1.6Zm52.23-93.08c0-19.6 12.8-34.4 31.76-36.83 12.46-1.6 23.7 1.42 32.75 10.54 7.17 7.23 10.32 16.23 10.1 26.29-.31 14.11-6.31 25.09-18.95 31.87-13.98 7.5-34.82 5.8-46.74-7.82-5.3-6.06-8.09-13.16-8.77-21.13-.1-1.16-.12-2.33-.15-2.92Zm37.5-20.64c-6.48-.03-12.01 2.79-15.48 8.99-3.34 5.96-3.65 12.36-1.57 18.76 2.18 6.71 6.78 11.09 13.86 12.24 7.06 1.15 12.99-1.15 17.24-6.99 3.47-4.76 4.32-10.25 3.65-16-1.06-9.17-7.35-16.48-17.71-17Zm109.57 55.44h-6.01c-4.36 0-8.73-.03-13.09.02-.82 0-1.28-.25-1.72-.93-3.61-5.62-7.27-11.22-10.88-16.84-.46-.72-.94-1.04-1.83-1.02-2.61.07-5.22.07-7.82 0-1.04-.03-1.37.24-1.36 1.33.06 5.39 0 10.78.05 16.18 0 .93-.11 1.31-1.2 1.29-5.53-.07-11.06-.05-16.6-.01-.86 0-1.24-.09-1.23-1.12.03-22.78.03-45.56 0-68.35 0-.93.24-1.2 1.19-1.2 10.21.03 20.42-.09 30.63.06 7.67.11 14.89 1.89 20.83 7.12 5.22 4.6 7.55 10.6 7.86 17.41.34 7.43-1.49 14.14-6.95 19.54-1.48 1.46-3.1 2.76-4.96 3.67-1.1.54-.99.97-.4 1.86 4.4 6.66 8.76 13.36 13.12 20.05.16.25.45.45.38.93Zm-42.67-44.58c0 3.1.01 6.2-.01 9.29 0 .68.05 1.06.91 1.05 3.73-.05 7.46.07 11.19-.06 2.68-.09 5.28-.76 7.29-2.7 3.16-3.05 3.46-6.85 2.47-10.84-.95-3.83-3.69-5.89-7.39-6.57-4.58-.84-9.23-.24-13.85-.38-.85-.03-.59.63-.59 1.06-.02 3.05 0 6.11 0 9.16ZM608.53 29.18c2.25-2.53 4.3-4.83 6.34-7.13 6.28-7.1 12.56-14.19 18.84-21.3.4-.46.8-.73 1.47-.73 6.61.03 13.22.02 19.84.02.16.53-.3.73-.54 1-8.55 9.77-17.1 19.54-25.69 29.27-.71.8-.72 1.25-.09 2.1 9.12 12.36 18.2 24.75 27.29 37.13.21.29.42.59.63.88-.24.44-.65.22-.96.22-6.66.02-13.32 0-19.97.03-.83 0-1.28-.3-1.75-.93-5.79-7.78-11.62-15.54-17.43-23.31-.32-.43-.65-.84-1.01-1.31-2.23 2.49-4.37 4.9-6.55 7.29-.48.53-.5 1.11-.5 1.75 0 5.08-.02 10.16.03 15.24 0 .97-.18 1.29-1.24 1.28-5.49-.06-10.98-.06-16.46 0-.99 0-1.15-.31-1.15-1.21.03-22.74.03-45.48 0-68.23 0-1.05.32-1.24 1.29-1.24 5.44.05 10.89.06 16.33 0 1.07-.01 1.24.35 1.24 1.3-.03 8.72-.02 17.44-.02 26.16 0 .47.04.94.08 1.71Zm296.08 177.53c-.1 5.6.24 12.52-.15 19.44-.29 5.21-1.55 10.2-4.09 14.79-3.36 6.06-8.42 10.12-14.98 12.2-7.59 2.4-15.32 2.52-23 .46-10.8-2.9-17.12-10.16-19.72-20.86-.84-3.46-1.15-6.99-1.14-10.55.02-12.63.02-25.26-.02-37.89 0-1.1.23-1.43 1.38-1.42 5.44.07 10.89.06 16.33 0 1.08-.01 1.32.3 1.32 1.34-.04 12.5-.04 24.99-.01 37.49 0 2.83.29 5.64 1.15 8.37 1.98 6.25 6.69 8.83 12.99 8.2 6.06-.6 9.39-3.95 10.61-10.23.39-1.99.58-3.99.58-6.02-.02-12.59 0-25.17-.04-37.76 0-1.13.28-1.4 1.4-1.39 5.35.06 10.71.06 16.06 0 1.05-.01 1.36.25 1.35 1.33-.05 7.06-.03 14.11-.03 22.49ZM511.8 22.33c0-7.01.02-14.02-.02-21.03 0-.99.23-1.29 1.26-1.28 5.53.05 11.07.06 16.6 0 1.09-.01 1.21.36 1.21 1.3-.03 12.67-.03 25.35-.01 38.02 0 2.8.36 5.55 1.25 8.21 1.97 5.88 6.47 8.29 12.29 7.9 6.5-.44 10.08-4 11.27-10.78.34-1.95.52-3.91.51-5.89 0-12.45.01-24.9-.03-37.35 0-1.1.25-1.43 1.39-1.41 5.4.07 10.8.04 16.19.02.79 0 1.19.08 1.19 1.06-.05 13.66.11 27.32-.13 40.98-.14 7.89-2.39 15.23-7.94 21.2-4.13 4.44-9.33 6.92-15.21 8.03-7.14 1.34-14.25 1.19-21.14-1.23-9.97-3.5-15.49-10.89-17.71-20.98-.69-3.12-.96-6.29-.96-9.49V22.35Zm466.79 195.95c0-11.33.02-22.65-.02-33.98 0-1.1.26-1.43 1.4-1.42 16.65.04 33.29.04 49.94 0 1.05 0 1.37.25 1.36 1.33-.06 4.31-.06 8.63 0 12.94.02 1.08-.31 1.33-1.36 1.33-10.35-.04-20.69 0-31.04-.05-1.14 0-1.54.2-1.5 1.45.11 3.01.08 6.02.01 9.03-.02 1.04.24 1.36 1.32 1.35 9-.04 18 0 26.99-.06 1.31 0 1.65.32 1.62 1.62-.09 4.04-.07 8.09 0 12.13.01.99-.21 1.27-1.24 1.27-9.09-.04-18.18 0-27.26-.05-1.08 0-1.46.19-1.43 1.36.09 3.41.07 6.83 0 10.25-.02 1.06.26 1.35 1.33 1.34 10.75-.04 21.5 0 32.26-.05 1.15 0 1.6.18 1.57 1.49-.1 4.27-.07 8.54-.01 12.81.01.96-.25 1.17-1.19 1.17-17.19-.03-34.37-.03-51.56 0-1.09 0-1.2-.38-1.2-1.3.03-11.33.02-22.65.02-33.98Zm-402.54-91.53c0-11.28.02-22.56-.03-33.84 0-1.21.32-1.47 1.49-1.46 10.03.05 20.06-.02 30.09.05 5.49.04 10.83.98 15.76 3.52 8.8 4.53 12.92 12.01 13.23 21.69.22 6.93-1.55 13.26-6.43 18.43-4.17 4.42-9.46 6.7-15.32 7.82-2.92.56-5.88.73-8.85.76l-10.77.09c-.31 3.62-.07 7.25-.13 10.88-.04 2.11-.05 4.23.01 6.34.03.88-.22 1.12-1.1 1.11-5.58-.04-11.16-.05-16.73 0-1.05.01-1.25-.29-1.24-1.27.03-11.37.02-22.74.02-34.11Zm19.04-9.21c0 3.1.02 6.2-.01 9.3 0 .68.03 1.04.9 1.03 3.69-.05 7.37.06 11.06-.05 2.73-.09 5.36-.75 7.42-2.72 3.24-3.1 3.43-7 2.43-10.99-.96-3.8-3.79-5.81-7.51-6.45-4.54-.78-9.15-.21-13.73-.36-.78-.02-.55.55-.55.94-.01 3.1 0 6.2 0 9.3ZM138.26 63.91c0 6.68 0 13.36-.03 20.03 0 .81.2 1.07 1.04 1.06 2.91-.04 5.83 0 8.75.01.39.32.86.17 1.29.17 3.39.03 6.78.05 10.17.07v19.95c0 .35-.08.7-.13 1.05-3.19.02-6.38.06-9.57.04-.77 0-1 .22-.99.98.04 2.87.04 5.75 0 8.62 0 .69.17.93.9.92 2.92-.04 5.84-.03 8.76 0 .68 0 .94-.16.93-.89-.05-3.23-.05-6.46-.07-9.69l21.35.03c.02.12.05.23.07.35v10.06c0 3.65-.02 7.3-.03 10.96-.01 3.49-.02 6.98-.04 10.47l-10.53.03v-10.25c-.27 3-.3 6-.25 9 .02.94-.29 1.24-1.23 1.22-2.51-.05-5.03-.09-7.55.01-1.28.05-1.59-.39-1.55-1.59.08-2.88.03-5.76.03-8.64h-.25v20.98c-.49-.04-.97-.11-1.46-.11-6.54-.02-13.08-.02-19.62-.03.02-.08 0-.16-.07-.21-.01-3.43-.03-6.85-.04-10.28.27-3.57.03-7.14.13-10.71 3.1 0 6.2-.04 9.3.02.97.02 1.2-.3 1.19-1.22-.06-2.74-.06-5.47 0-8.21.02-.94-.26-1.23-1.2-1.21-3.1.05-6.2 0-9.3 0V96.37c-.25 2.91-.27 5.83-.23 8.74.01.87-.26 1.18-1.15 1.16-3.14-.05-6.29-.02-9.43-.03 0-3.19.05-6.37 0-9.56-.01-.91.28-1.13 1.14-1.12 2.74.05 5.48-.04 8.22.04 1.1.03 1.35-.35 1.32-1.37-.07-2.6-.07-5.21 0-7.81.03-1.04-.24-1.37-1.33-1.36-6.16.06-12.31.06-18.47.01-1.1 0-1.43.23-1.42 1.38.06 6.6.02 13.2.01 19.8l.03-.02H95.6l.02.02c0-3.5-.01-7.01-.02-10.51 0-3.09.05-6.19 0-9.28-.02-1.03.32-1.3 1.31-1.27 2.15.07 4.31.06 6.46 0 1.01-.02 2.05.27 3.04-.2 3.05 0 6.1-.05 9.15 0 1.03.02 1.38-.22 1.36-1.31-.06-3.09 0-6.18.03-9.27 3.09 0 6.18-.05 9.27.01 1.03.02 1.3-.32 1.28-1.3-.06-2.64.03-5.28-.05-7.92-.03-1.1.36-1.36 1.38-1.34 3.14.06 6.27.02 9.41.03Zm726.4 77.06c3.87 2.56 7.97 4.44 12.39 5.59 5.19 1.35 10.41 1.92 15.72.72.97-.22 1.88-.58 2.72-1.13 2.9-1.88 3.03-5.47.27-7.54-2.17-1.63-4.76-2.27-7.32-2.93-5.25-1.36-10.62-2.31-15.67-4.37-5.41-2.21-10.04-5.37-12.01-11.2-3.08-9.1-.49-20.56 10.62-26.24 5.92-3.03 12.28-3.9 18.83-3.78 7.78.15 15.23 1.7 22.18 5.34 1.08.56 1.33 1.01.82 2.21-1.74 4.13-3.34 8.31-4.93 12.5-.33.87-.62.89-1.38.49-6.07-3.26-12.46-5.31-19.46-4.91-2.03.12-4.02.44-5.85 1.38-1.95 1-3.1 2.57-3.13 4.81-.02 2.13 1.35 3.36 3.06 4.23 3.24 1.64 6.8 2.25 10.29 3.07 4.5 1.05 9.01 2.09 13.23 4.05 5.87 2.73 10.01 6.87 11.13 13.53 1.7 10.06-3.15 19.14-12.52 23.42-5.73 2.62-11.78 3.4-18 3.28-8.23-.17-16.14-1.74-23.53-5.47-3.82-1.92-3.81-1.95-2.18-5.83 1.56-3.71 3.13-7.42 4.74-11.21Zm-195.09 61.61c-4.95-2.75-10.03-4.73-15.56-5.29-3.37-.34-6.73-.33-9.97.93-1.2.46-2.22 1.17-2.97 2.22-1.65 2.31-1.13 5.07 1.33 6.66 2.65 1.71 5.72 2.3 8.73 3.02 5.1 1.21 10.27 2.22 15.1 4.36 5.35 2.38 9.57 5.87 11.2 11.77 3.04 10.97-2.35 21.45-13.27 25.95-6.44 2.65-13.18 3.08-20 2.62-6.9-.47-13.58-1.99-19.82-5.09-1.2-.6-2.32-1.37-3.49-2.02-.58-.33-.66-.65-.39-1.29 1.88-4.36 3.74-8.73 5.56-13.12.31-.75.52-.83 1.2-.38 4.72 3.09 9.91 5.03 15.47 5.96 3.97.66 7.95.82 11.91-.15 1.14-.28 2.22-.72 3.14-1.47 2.19-1.78 2.33-4.79.29-6.73-1.44-1.37-3.25-2.08-5.11-2.59-4.8-1.3-9.65-2.46-14.44-3.8-4.09-1.15-7.97-2.8-11.21-5.63-5.02-4.38-6.52-10.1-5.79-16.44 1.18-10.31 7.61-16.23 17.12-18.84 12.11-3.32 23.94-1.98 35.25 3.55 1.66.81 1.64.86.97 2.56-1.72 4.37-3.44 8.75-5.21 13.26Zm-155.6-61.57c4.47 2.98 9.32 5.02 14.56 6.09 4.48.92 8.99 1.25 13.5.16.69-.17 1.38-.41 2.02-.73 3.72-1.86 3.96-5.99.48-8.26-2.1-1.37-4.5-1.99-6.9-2.61-5.04-1.29-10.18-2.23-15.04-4.13-4.03-1.57-7.72-3.65-10.36-7.21-5.21-7.01-4.42-18.56 1.71-25.35 3.98-4.41 9.08-6.84 14.81-7.92 11.42-2.16 22.42-.89 32.88 4.38 1.16.58 1.26 1.12.79 2.24-1.69 4.1-3.3 8.23-4.89 12.37-.32.84-.57 1.04-1.48.55-6.06-3.27-12.46-5.3-19.46-4.88-1.94.12-3.84.43-5.61 1.29-2.03.98-3.26 2.55-3.32 4.83-.06 2.18 1.36 3.44 3.13 4.33 3.2 1.6 6.72 2.22 10.17 3.02 4.5 1.05 9.01 2.08 13.23 4.03 5.43 2.51 9.52 6.24 10.94 12.3 2.43 10.35-2.44 20.14-12.2 24.65-5.71 2.64-11.76 3.44-17.98 3.3-8.6-.19-16.85-1.82-24.48-5.96-2.9-1.57-2.89-1.61-1.61-4.63 1.62-3.84 3.25-7.67 4.89-11.5.05-.12.14-.23.24-.38Zm-141.89-13.48c-.01 3.14-.05 6.29 0 9.43.01.91-.2 1.23-1.17 1.21-2.7-.07-5.4.04-8.09-.05-1.17-.04-1.42.36-1.4 1.45.07 2.69-.01 5.39.04 8.08.02.9-.26 1.13-1.14 1.13-3.19.01-6.38-.16-9.56.08-.16-.08-.31-.23-.47-.23-3.41.02-6.81-.15-10.22.08l-.1-.1c.19-3.5.2-7-.01-10.5 0-3.14-.02-6.27.02-9.41.01-.88-.28-1.17-1.16-1.15-2.65.05-5.29.05-7.94 0-.97-.02-1.21.34-1.2 1.25.04 3.09 0 6.18 0 9.27-.43-.41-.24-.93-.24-1.4-.02-3.05-.02-6.1-.02-9.15.02-6.77.02-13.54.07-20.31 0-1.01-.57-.9-1.2-.9h-18.85c-.39 0-.82-.14-1.15.2-.06-.07-.12-.15-.18-.22.26-3.72.06-7.44.11-11.16.04-3.01 0-6.01 0-9.02 0-.48.1-1.03-.69-1.01-3.32.07-6.64-.16-9.96.12-.03-.06-.03-.11.01-.16 0-3.23 0-6.47-.03-9.7 0-.73.16-1 .95-.99 6.47.03 12.95.04 19.42 0 .92 0 .99.36.98 1.1-.04 2.83.01 5.66-.03 8.49-.01.8.17 1.09 1.03 1.07 2.83-.06 5.67-.06 8.5 0 .95.02 1.09-.35 1.08-1.17-.02-3.14.02-6.29.04-9.43 3 0 6.01-.04 9.01.03 1.09.03 1.48-.26 1.45-1.41-.08-3.09-.03-6.18-.03-9.27.49 0 .98 0 1.47-.02 3.11-.07 6.23.16 9.33-.12.03.06.03.11-.01.16 0 3.15.03 6.29 0 9.44 0 .8.1 1.19 1.07 1.16 2.83-.07 5.67-.06 8.5 0 .87.02 1.04-.3 1.03-1.08-.05-3.14-.04-6.29-.05-9.44.37-.38.85-.23 1.28-.23 2.56-.01 5.12-.07 7.68.02 1.21.04 1.61-.27 1.6-1.55-.07-5.88-.03-11.76-.03-17.63v-1.28c.27 2.89.3 5.76.25 8.62-.02.97.23 1.35 1.27 1.32 3.1-.07 6.2-.04 9.3-.04 0 6.65-.03 13.29 0 19.94 0 1-.18 1.44-1.32 1.41-3.14-.08-6.29-.03-9.44-.04-3.14 0-6.28 0-9.42.02-.45 0-1.04-.18-1.02.64.07 3.31-.14 6.63.11 9.94-.38.35-.85.2-1.29.2h-20.15c-3.27-.26-6.54-.05-9.81-.12-.51-.01-.73.21-.72.72.07 3.27-.15 6.54.12 9.8 0 3.14.04 6.29 0 9.43-.01.94.27 1.25 1.22 1.23 2.56-.06 5.13-.06 7.69 0 1.04.03 1.41-.25 1.39-1.35-.06-3.14 0-6.28.02-9.43 3.22-.01 6.45 0 9.67-.06.95-.02 1.1.4 1.09 1.21-.02 3.22 0 6.44.01 9.67 0 3.48-.01 6.97-.02 10.45v10.79c-3.1 0-6.2.02-9.29-.02-.9-.01-1.28.21-1.26 1.19.06 2.73.05 5.47 0 8.21-.01.88.27 1.17 1.15 1.16 2.69-.05 5.39-.07 8.08.01 1.13.03 1.35-.39 1.33-1.4-.05-3.05-.02-6.1-.02-9.15 2.71 0 5.42.02 8.14-.01.83 0 1.69.21 2.49-.19 2.82.35 5.65.08 8.48.14.7.01 1.44.21 2.1-.2.08.05.12.13.11.23Zm-26.59-42.57c1.44 0 2.87-.02 4.31 0 .67.01.97-.21.97-.92-.02-2.91-.02-5.83 0-8.74 0-.64-.26-.87-.88-.86-2.92.02-5.84.02-8.75 0-.74 0-.9.35-.89.99.02 2.87.02 5.74 0 8.61 0 .7.27.95.95.94 1.44-.03 2.87 0 4.31 0Zm459.26 97.95c9.49 0 18.98.03 28.47-.04 1.35 0 1.61.39 1.59 1.64-.08 4.4-.06 8.81-.01 13.21 0 .9-.25 1.12-1.13 1.12-5.98-.04-11.96.01-17.95-.05-1.15-.01-1.5.22-1.49 1.45.05 17.26.02 34.51.06 51.77 0 1.18-.23 1.58-1.51 1.56-5.4-.08-10.8-.08-16.19 0-1.25.02-1.44-.37-1.43-1.5.04-17.26 0-34.51.06-51.77 0-1.28-.39-1.52-1.57-1.51-5.94.06-11.87 0-17.81.05-1.02 0-1.25-.26-1.24-1.26.06-4.49.06-8.99 0-13.48-.02-1.06.32-1.23 1.29-1.23 9.63.04 19.25.02 28.88.02Zm-93.03 0c9.54 0 19.07.02 28.61-.03 1.15 0 1.4.31 1.38 1.41-.07 4.4-.08 8.81 0 13.21.02 1.19-.37 1.36-1.43 1.35-5.89-.05-11.79 0-17.68-.05-1.17-.01-1.48.24-1.48 1.45.05 17.3.02 34.61.06 51.91 0 1.08-.19 1.42-1.36 1.41-5.44-.07-10.89-.07-16.33 0-1.11.01-1.4-.24-1.4-1.38.04-17.26.01-34.52.06-51.77 0-1.3-.3-1.63-1.61-1.62-5.89.08-11.79 0-17.68.06-1.15.01-1.39-.33-1.38-1.43.07-4.4.06-8.81 0-13.21-.02-1.08.29-1.33 1.34-1.33 9.63.04 19.25.02 28.88.02Zm229.81 0c9.54 0 19.07.02 28.61-.03 1.09 0 1.46.22 1.44 1.38-.07 4.45-.07 8.9 0 13.35.02 1.05-.31 1.24-1.28 1.24-5.94-.05-11.88.01-17.81-.05-1.2-.01-1.48.29-1.48 1.48.04 17.26.01 34.52.06 51.78 0 1.24-.33 1.53-1.54 1.52-5.4-.07-10.8-.07-16.19 0-1.17.02-1.36-.34-1.35-1.41.04-17.3 0-34.61.06-51.91 0-1.22-.33-1.46-1.48-1.45-5.98.06-11.97 0-17.95.05-.94 0-1.2-.23-1.19-1.18.05-4.49.07-8.99 0-13.48-.02-1.12.36-1.3 1.37-1.3 9.58.04 19.16.02 28.75.02ZM824.39 91.47c9.54 0 19.07.02 28.61-.03 1.07 0 1.34.27 1.33 1.33-.06 4.45-.07 8.9 0 13.35.02 1.12-.37 1.29-1.36 1.28-5.94-.04-11.88 0-17.81-.05-1.12-.01-1.4.3-1.4 1.41.04 17.3.01 34.6.06 51.91 0 1.19-.29 1.47-1.46 1.45-5.4-.07-10.8-.07-16.19 0-1.11.01-1.4-.25-1.39-1.38.04-17.26.01-34.51.06-51.77 0-1.29-.29-1.64-1.61-1.62-5.94.08-11.88 0-17.81.06-1.05.01-1.25-.3-1.24-1.28.05-4.45.06-8.9 0-13.35-.01-1.06.28-1.35 1.34-1.34 9.63.04 19.25.02 28.88.02ZM308.31 201.99c0 3.1-.02 6.2.04 9.3.02.93-.22 1.23-1.19 1.22-3.19-.04-6.38.02-9.58.05-.2-.32-.52-.3-.84-.3h-8.89c-.31 0-.64-.01-.83.31-3.19-.03-6.38-.09-9.57-.06-.96.01-1.21-.27-1.19-1.21.07-3.1.04-6.2.06-9.29 3.16 0 6.32.01 9.48 0 .42 0 .91.18 1.22-.31l-.04-10.45c3.05 0 6.1-.06 9.15 0 1.09.02 1.49-.25 1.46-1.41-.07-3.09-.02-6.18-.02-9.28v-.09c3.27.03 6.54.05 9.8.09.64 0 .86-.23.85-.86-.02-2.95-.03-5.91 0-8.86 0-.72-.26-.91-.95-.9-3.22.04-6.45.04-9.67.06-3.52-.03-7.05-.07-10.57-.1h-.05l-.03-10.49c.12-3.5.12-7.01 0-10.51l.07-.29h10.54c.26.34.64.26.99.27 2.78 0 5.56.04 8.33-.02.94-.02 1.24.28 1.22 1.22-.05 2.64-.03 5.28 0 7.92 0 .47-.19 1 .26 1.39-.01 3.22-.01 6.45-.05 9.67 0 .61.12.87.81.86 3.23-.05 6.46-.05 9.68-.07 3.1.02 6.2.09 9.3.03 1.11-.02 1.37.36 1.35 1.39-.06 2.86-.02 5.73-.02 8.8.4-.61.26-1.06.26-1.47.02-2.47.05-4.94-.01-7.41-.03-1 .27-1.33 1.29-1.31 3.1.06 6.2.03 9.3.04-.03 3.18-.09 6.36-.06 9.54 0 .93-.23 1.23-1.19 1.21-2.78-.06-5.56.01-8.35-.04-.89-.02-1.14.25-1.12 1.13.05 2.73-.02 5.47.04 8.2.02.97-.18 1.31-1.24 1.28-3.14-.08-6.28-.02-9.42-.01-3.05 0-6.1-.06-9.15 0-1.12.02-1.46-.31-1.43-1.43.07-2.85.02-5.71.02-8.57-.22.21-.26.42-.26.64v19.09c0 .35-.09.73.21 1.02Z" class="cls-1"/><path d="M371.88 74.43c3.15 0 6.29-.04 9.44.04 1.14.03 1.33-.41 1.32-1.41-.03-6.65 0-13.29 0-19.94l.03-.02c3.5.02 6.99.03 10.49.05 0 10.11-.02 20.22.02 30.33 0 1.16-.27 1.53-1.49 1.52-5.98-.06-11.96-.03-17.94-.03h-1.33c2.93.27 5.84.33 8.75.24 1.23-.04 1.51.37 1.48 1.53-.08 3.01-.03 6.02-.03 9.03-3.23-.02-6.46-.02-9.69-.07-.73-.01-.9.25-.89.93.03 2.92.03 5.83 0 8.75 0 .68.16.93.89.92 2.92-.04 5.84-.04 8.76 0 .78.01.97-.23.96-.98-.04-3.18-.02-6.37-.02-9.56 3.09 0 6.17.04 9.26-.02.99-.02 1.33.25 1.3 1.28-.07 2.63-.03 5.27-.01 7.91 0 .47-.18 1 .28 1.38-.34 3-.17 6.01-.11 9.01.03 1.43-.42 1.71-1.73 1.66-2.6-.1-5.22 0-7.82-.05-.89-.02-1.15.25-1.14 1.14.05 2.87 0 5.75.03 8.62 0 .68-.16.93-.89.92-3.24-.05-6.47-.04-9.71-.06 0-.1-.03-.17-.11-.23 0-6.56-.04-13.12 0-19.68 0-1.07-.3-1.35-1.35-1.34-6.61.05-13.22.04-19.84.04 0-3.22-.03-6.44-.01-9.67 0-.81-.15-1.23-1.09-1.21-3.22.06-6.45.05-9.67.06l-.03-.03c.29-3.42.02-6.85.14-10.27h20.15c.43 0 .9.14 1.29-.2 3.13 0 6.26-.02 9.4-.01.57 0 1.03.04 1.02-.8-.06-3.26-.06-6.52-.08-9.78Zm.76 42.43v.1h9.38v-.1h-9.38Zm-.62-31.02h-.13v9.1h.13v-9.1Zm159.35 132.5c0 11.28-.02 22.55.03 33.83 0 1.11-.25 1.4-1.38 1.39-5.49-.07-10.97-.06-16.46 0-1.02.01-1.25-.26-1.24-1.26.03-22.69.03-45.38 0-68.07 0-1.04.25-1.36 1.33-1.35 5.49.06 10.97.06 16.46 0 1.13-.01 1.29.38 1.28 1.37-.03 11.37-.02 22.73-.02 34.1Zm236.36-.01c0 11.28-.02 22.55.03 33.83 0 1.11-.24 1.41-1.38 1.4-5.53-.07-11.06-.05-16.59 0-.89 0-1.1-.23-1.1-1.11.02-22.78.03-45.56 0-68.34 0-1.06.33-1.23 1.29-1.22 5.49.05 10.97.05 16.46 0 1.08-.01 1.34.31 1.33 1.35-.04 11.37-.02 22.73-.02 34.1Zm-618.96-27.07c-3.1-.01-6.2-.06-9.29 0-1.01.02-1.39-.2-1.36-1.3.08-3.09.03-6.19.02-9.28.25-.32.15-.69.16-1.04v-9.7c3.1 0 6.19-.04 9.29.01.92.02 1.23-.21 1.21-1.18-.07-2.73.03-5.47-.05-8.2-.03-1.05.31-1.26 1.28-1.24 2.74.07 5.48 0 8.21.04.8.01 1.21-.1 1.18-1.07-.07-3.14-.04-6.28-.06-9.41h9.78c.35 0 .72.09 1-.23l10.53-.06c0 3.18.04 6.35-.01 9.53-.02 1 .28 1.31 1.29 1.3 3.13-.05 6.27 0 9.4.01.04 3.5.08 6.99.11 10.49-3.19 0-6.39.03-9.58-.01-.95-.01-1.24.29-1.22 1.23.05 2.65-.03 5.3.04 7.95.03 1.07-.29 1.38-1.36 1.37-3.01-.05-6.02.02-9.03.04a.35.35 0 0 1-.14.06c-.26-.46-.15-.97-.15-1.45-.01-2.7-.03-5.39 0-8.09.01-.82-.23-1.09-1.07-1.08-2.56.05-5.13.02-7.69.02q-1.76 0-1.76 1.7l-.06 19.27c-1.75.01-3.5-.01-5.25.05-1.69.06-3.4-.23-5.08.16-.11.04-.23.08-.34.12Z" class="cls-1"/><path d="M350.74 63.81c.04-.05.04-.11.01-.16V42.62c6.6-.02 13.2-.06 19.8-.02 1.13 0 1.42-.3 1.41-1.42-.04-6.55 0-13.1.03-19.65.07-.04.1-.1.08-.18 3.17-.01 6.35-.06 9.52-.02.83.01 1.05-.21 1.04-1.04-.04-3.17 0-6.34.02-9.51.08.02.14 0 .18-.08 3.43-.07 6.85-.14 10.28.04 0 .58 0 1.16.02 1.74.08 3.03-.16 6.07.13 9.09v20.77a.23.23 0 0 0-.11.23c-3.13.01-6.26.06-9.39.02-.88-.01-1.14.22-1.12 1.11.05 3.13.02 6.26.02 9.39l-.03.02c-3.1 0-6.2-.03-9.3.04-1.04.02-1.29-.35-1.27-1.32.06-2.86.02-5.73-.25-8.62v1.28c0 5.88-.04 11.76.03 17.63.02 1.28-.39 1.59-1.6 1.55-2.56-.08-5.12-.03-7.68-.02-.43 0-.91-.15-1.28.23-3.52-.03-7.04-.05-10.55-.08ZM170.31 180.49c3.01-.02 6.02-.09 9.03-.04 1.07.02 1.39-.3 1.36-1.37-.07-2.65.01-5.3-.04-7.95-.02-.94.27-1.24 1.22-1.23 3.19.05 6.39.02 9.58.01 3.05 0 6.1-.04 9.15.02 1.05.02 1.35-.28 1.34-1.34-.05-6.19-.02-12.37-.03-18.56 0-.44.08-.9-.15-1.32.04-.09.1-.14.2-.15 3.53.22 7.07.12 10.6.05 3.1 0 6.21-.03 9.31.05 1.06.03 1.26-.35 1.24-1.31-.05-3.05-.01-6.11 0-9.16v-10.62c.08-.06.14-.06.21 0v10.45c-.03 3.28-.04 6.55-.08 9.83 0 .68.32.83.91.82 3.24-.03 6.47-.05 9.71-.07l10.64.03c-.04.09-.07.18-.11.28-6.7-.01-13.4-.01-20.1-.05-.8 0-.99.32-.98 1.05.03 2.7.04 5.39 0 8.09-.02.89.29 1.16 1.17 1.15 2.61-.05 5.22-.03 7.82 0 .51 0 1.09-.21 1.54.24-6.74 0-13.48 0-20.21-.04-.91 0-1.13.29-1.11 1.15.05 2.56 0 5.12.02 7.67.01 2.06-.28 1.73 1.78 1.79 2.94.08 5.89-.2 8.82.15-3.51-.11-7.03-.11-10.54 0-3.23-.03-6.47-.04-9.7-.09-.71-.01-.94.26-.93.95.04 3.23.05 6.47.07 9.7v10.51l-.02.08c-3.28-.02-6.56-.03-9.84-.07-.64 0-.87.24-.87.87.02 2.96.02 5.93 0 8.89 0 .63.25.88.88.87 3.28-.04 6.55-.06 9.83-.09.03.09.02.17-.04.25-3.57.01-7.14.02-10.71.04-3.52-.17-7.04-.23-10.57.04-.01-3.61-.03-7.23-.04-10.84.01-3.04-.03-6.08.06-9.11.03-1.15-.24-1.52-1.46-1.51-2.99.03-5.98.21-8.97-.1Zm169.96-10.56c-3.1 0-6.2.03-9.3-.04-1.02-.02-1.31.31-1.29 1.31.06 2.47.03 4.94.01 7.41 0 .42.14.87-.26 1.47 0-3.08-.04-5.94.02-8.8.02-1.03-.24-1.41-1.35-1.39-3.1.06-6.2-.01-9.3-.03 0-3.09-.04-6.19.02-9.28.02-.91-.2-1.23-1.17-1.22-3.09.06-6.19.02-9.29.02-.44-.4-.25-.92-.26-1.39-.02-2.64-.04-5.28 0-7.92.02-.94-.28-1.24-1.22-1.22-2.78.05-5.56.02-8.33.02-.35 0-.73.08-.99-.27 0-3.48-.01-6.97-.02-10.45 0-3.53.02-7.06.02-10.59h7.29q3.25 0 3.25-3.22v-6.71c.27.45.27.89.27 1.33 0 9.35.03 18.69-.02 28.04 0 1.33.39 1.63 1.66 1.62 6.52-.06 13.04-.02 19.56-.01h10.39l.1.1c-.23 3.3-.04 6.6-.1 9.9-.02.82.54.78 1.09.78h9.66c.01 3.23 0 6.46.06 9.7.01.74-.26.89-.93.89-3.19-.04-6.38-.03-9.57-.04Z" class="cls-1"/><path d="M393.16 42.57c0-.1.03-.17.11-.23.34.32.76.21 1.16.21h19.02c.35 0 .72.09 1.04-.15.43.36.94.2 1.42.2 3.13.02 6.25.01 9.38.02 0 3.52-.01 7.03-.02 10.55.02.08 0 .14-.08.17-3.34-.36-6.69-.08-10.03-.15-.78-.01-.62.62-.62 1.08-.01 2.77 0 5.54 0 8.31 0 .44-.05.89-.07 1.33-6.6 0-13.19.02-19.79 0-.89 0-1.29.19-1.27 1.18.06 2.73.05 5.47 0 8.2-.01.88.27 1.17 1.15 1.16 3.14-.04 6.28 0 9.42 0-.02 3.54-.03 7.08-.05 10.62.04.05.04.1.01.15-3.31-.27-6.63-.05-9.94-.12-.52-.01-.72.22-.71.72.07 3.26-.15 6.53.11 9.8 0 3.56.01 7.11.02 10.67h.01c-.46-.38-.28-.91-.28-1.38-.02-2.64-.05-5.27.01-7.91.03-1.02-.32-1.29-1.3-1.28-3.08.06-6.17.02-9.26.02 0-3-.05-6.01.03-9.02.03-1.16-.25-1.57-1.48-1.53-2.91.09-5.83.03-8.75-.24h1.33c5.98 0 11.96-.04 17.94.03 1.22.01 1.49-.36 1.49-1.52-.04-10.11-.02-20.22-.02-30.33V42.57ZM138.29 169.93v9.7c0 .35.1.72-.16 1.04-3.1 0-6.2-.05-9.29.03-1.16.03-1.41-.36-1.38-1.44.08-2.69-.03-5.38.05-8.07.03-1.05-.32-1.27-1.29-1.25-2.74.06-5.48 0-8.22.04-.77.01-1.11-.15-1.1-1.02.04-6.68.04-13.37.05-20.05.39-.45.91-.26 1.38-.26 3.07-.03 6.14-.03 9.21-.04 3.56.05 7.12.19 10.67-.08.06.06.09.13.07.21v21.2Z" class="cls-1"/><path d="M127.55 148.59c-3.07.01-6.14.01-9.21.04-.47 0-.99-.19-1.38.26-3.14-.28-6.29-.13-9.43-.12-1.05 0-1.39-.26-1.36-1.35.08-2.65-.03-5.3.05-7.95.04-1.16-.35-1.41-1.44-1.38-2.65.08-5.31-.01-7.96.05-.91.02-1.24-.18-1.22-1.16.07-3.14.03-6.29.03-9.43l-.02.02c3.1-.02 6.19-.09 9.29-.03 1.11.02 1.33-.35 1.31-1.37-.06-2.74.02-5.47-.04-8.21-.02-.97.29-1.2 1.22-1.19 3.19.03 6.37-.03 9.56-.05.01 3.62.02 7.24.04 10.86 0 3.14.02 6.27-.05 9.41-.02.92.3 1.09 1.14 1.08 3.14-.04 6.28 0 9.42 0l-.02-.02c.02 3.5.05 7.01.07 10.51Zm-21.12-63.58c-.98.47-2.03.18-3.04.2-2.15.05-4.31.06-6.46 0-.99-.03-1.33.25-1.31 1.27.06 3.09.01 6.18 0 9.28-3.52 0-7.03-.01-10.55-.02-3.04 0-6.09.03-9.13-.03-1.02-.02-1.44.22-1.39 1.33.09 2.01.06 4.03.01 6.04-.03 1.14.25 2.31-.2 3.43-2.31-.39-4.64-.08-6.96-.17-1.16-.05-2.68.36-3.39-.23-.74-.61-.21-2.19-.23-3.34-.03-2.38 0-4.76 0-7.13a.165.165 0 0 1 0-.19c3.52.22 7.05.17 10.58.03 3.05 0 6.11-.03 9.16.02.95.02 1.37-.19 1.34-1.25-.07-2.6-.07-5.2 0-7.8.03-1.06-.39-1.27-1.34-1.25-3.05.05-6.11.02-9.16.02-3.53-.14-7.05-.19-10.58.03a.15.15 0 0 1 0-.18c0-3.53-.01-7.06-.02-10.59.39-.46.92-.28 1.39-.28 2.61-.02 5.22-.06 7.83.02 1.1.03 1.37-.35 1.35-1.39-.06-2.87-.02-5.73-.02-8.85.37.69.24 1.17.24 1.64.02 5.98.04 11.96 0 17.93 0 1.1.28 1.46 1.42 1.45 6.07-.06 12.15-.07 18.22 0 1.26.01 1.49-.42 1.46-1.55-.06-3.1-.01-6.2 0-9.3.44.32.95.22 1.44.22 2.61 0 5.22.06 7.82-.02 1.09-.03 1.46.24 1.44 1.39-.05 3.09.04 6.19.07 9.29Zm31.83-21.1c-3.14 0-6.27.03-9.41-.03-1.03-.02-1.42.24-1.38 1.34.08 2.64-.02 5.28.05 7.92.02.99-.25 1.32-1.28 1.3-3.09-.06-6.18-.02-9.27-.01-.03-2.11-.02-4.21-.09-6.32-.05-1.42.24-2.86-.17-4.27.08-.07.16-.13.24-.2 3.52.17 7.04.17 10.56 0 3.15 0 6.29-.01 9.44.02.8 0 1.12-.23 1.1-1.07-.04-2.78-.05-5.57 0-8.35.02-.9-.31-1.15-1.17-1.14-3.14.04-6.29.02-9.44.03-3.48.01-6.96.03-10.44.04-.01-3.52-.02-7.04-.04-10.56 3.95-.03 7.91-.07 11.86-.09 2.74-.01 5.49.03 8.23-.02.92-.02 1.24.22 1.22 1.19-.06 2.69.02 5.39-.04 8.09-.02 1.01.19 1.4 1.31 1.37 2.74-.09 5.49 0 8.23-.05.8-.01 1.09.17 1.08 1.03-.06 2.87-.06 5.75 0 8.62.02.9-.26 1.14-1.14 1.13-3.15-.04-6.29 0-9.44.02Zm287.03-21.29c-3.13 0-6.25 0-9.38-.02-.47 0-.99.16-1.42-.2-.03-3.49-.05-6.98-.08-10.47.02-3.07.03-6.13.07-9.2 0-.47-.17-.99.22-1.4 3.48-.02 6.97-.05 10.45-.07 3.53.03 7.06.07 10.59.1.02 3.57.04 7.15.05 10.72 0 3.52 0 7.03-.01 10.55l.03-.03c-3.51 0-7.02.02-10.53.02Zm-159.58 95.45c.02-3.5.04-7 .05-10.49 3.1 0 6.2-.05 9.29.03 1.04.02 1.27-.31 1.25-1.29-.04-3 .02-6.01.04-9.01.25.41.16.87.16 1.31 0 2.46.06 4.93-.02 7.39-.04 1.19.25 1.64 1.54 1.6 3-.1 6.01-.03 9.01-.03 0 3.53.02 7.06.02 10.59l-.03 10.46c-2.27.02-4.55.01-6.82.07-1.28.03-2.58-.23-3.84.18l-.05-.05c-3.5-.04-7-.09-10.5-.13-.28-3.54-.03-7.08-.13-10.62Zm-74.44 63.95c3.57-.01 7.14-.02 10.71-.04v.02c.02 3.46.02 6.93.02 10.39l-.04.07c-3.14.01-6.29.06-9.43.01-.93-.01-1.22.23-1.21 1.19.04 3.05-.02 6.1-.04 9.15v10.14h.19v-9.91c3.49 0 6.97-.01 10.46-.02l.06 10.54c-.67 0-1.34-.02-2.01 0-2.76.08-5.52-.19-8.28.15-.14.02-.28.05-.42.07-3.17-.02-6.34-.08-9.52-.05-.87 0-1.13-.23-1.12-1.12.05-3.17 0-6.34 0-9.51.04-.11.08-.23.12-.34.31-.45.16-.96.17-1.44.03-2.96.03-5.92.04-8.88 3.05-.02 6.1-.07 9.14-.04.86 0 1.15-.21 1.14-1.11-.04-3.09 0-6.18.02-9.27Zm-10.6-10.8c.01 3.61.03 7.23.04 10.84 0 3.4 0 6.8-.01 10.19-3.41.07-6.83-.14-10.24.11l-.42.15c-3.18 0-6.35-.05-9.53 0-.88.01-1.15-.24-1.13-1.12.05-3.17.01-6.35 0-9.52.05-.14.1-.28.14-.43.24-3.41.04-6.82.11-10.23l10.38-.06c3.55.02 7.11.05 10.66.07Z" class="cls-1"/><path d="M74.37 106.52c.45-1.12.17-2.29.2-3.43.05-2.01.08-4.03-.01-6.04-.05-1.11.37-1.35 1.39-1.33 3.04.06 6.09.02 9.13.03 0 3.13.03 6.26-.04 9.39-.02.99.31 1.16 1.21 1.15 3.13-.05 6.26 0 9.39 0l-.02-.02c0 3.51.02 7.03.03 10.54h-9.93v.26h9.92c0 3.51-.01 7.03-.02 10.54l.02-.02c-3.14 0-6.29-.03-9.43.03-.98.02-1.32-.2-1.29-1.24.08-2.64-.03-5.29.05-7.94.04-1.14-.22-1.57-1.46-1.52-2.64.1-5.3-.02-7.94.06-1.03.03-1.28-.3-1.25-1.29.07-3.05.03-6.1.04-9.15Zm10.55 9.92h.11v-9.61h-.11v9.61Zm287.16-95.1c.02.08 0 .14-.08.18-.59-.31-1.24-.18-1.85-.16-2.86.09-5.72-.24-8.57.17-.32 2.81-.06 5.64-.14 8.46 0 .31-.04.63 0 .94.11.85-.26 1.07-1.07 1.05-2.88-.04-5.75-.05-8.63 0-.85.01-1.06-.27-1.05-1.08.05-2.87.06-5.75 0-8.62-.02-.91.34-1.01 1.1-1 2.79.04 5.57-.02 8.36.04.92.02 1.23-.19 1.21-1.17-.07-2.78.02-5.57-.05-8.35-.02-.96.29-1.21 1.22-1.19 2.79.06 5.57 0 8.36.04.82.01 1.09-.24 1.07-1.07-.04-2.83 0-5.66-.03-8.49-.01-.8.19-1.1 1.05-1.08 2.92.05 5.84.05 8.76 0 .82-.01.95.3.95 1.01-.03 2.74-.02 5.48 0 8.22 0 .49-.11.99.17 1.45-.04.07-.1.09-.18.08-3.24-.01-6.48 0-9.71-.05-.71 0-.93.2-.92.91.04 3.23.04 6.47.05 9.7Zm-191.33 85.28c-.02-.12-.05-.23-.07-.35V95.68a.257.257 0 0 1 .03-.24c3.04.32 6.09.13 9.14.1 1.24 0 1.6.33 1.55 1.56-.1 2.6.03 5.2-.06 7.8-.04 1.17.36 1.41 1.44 1.38 2.69-.08 5.39 0 8.08-.04.82-.01 1.19.13 1.17 1.08-.07 3.18-.03 6.37-.04 9.55l-.03.07c-3.14 0-6.28 0-9.41.01-.49 0-1.18-.21-1.16.67.05 3.31-.16 6.62.11 9.93a.15.15 0 0 1-.18 0c-3.53.03-7.06.05-10.59.08 0-3.65.02-7.3.03-10.96 3.27.32 6.55.05 9.82.14.68.02.67-.41.67-.88 0-2.87-.02-5.75.01-8.62 0-.76-.26-1-1.01-.99-2.74.03-5.48.01-8.22.01-.44 0-.91-.07-1.28.28ZM414.7 21.33c-.38.42-.21.93-.22 1.4-.04 3.07-.05 6.13-.07 9.2-3.14 0-6.28-.02-9.42.04-.9.02-1.14-.26-1.12-1.14.05-2.78 0-5.56.04-8.34.01-.87-.25-1.17-1.14-1.16-2.87.05-5.74.02-8.61.02-.31 0-.63-.04-.89.21-.29-3.03-.05-6.06-.13-9.09-.01-.58-.01-1.16-.02-1.74 3.03-.03 6.05-.06 9.08-.1.58 0 1.15-.08 1.72-.12 3.51 0 7.02 0 10.53.01.02 3.12.04 6.25.08 9.37 0 .48-.16.99.17 1.43ZM287.04 223.04c0 3.22-.02 6.44.03 9.65.01.84-.25 1.05-1.06 1.05-3.22-.01-6.44.05-9.65.08-3.18 0-6.36.04-9.54.01-.79 0-1.12.22-1.11 1.06.05 3.18.04 6.36.05 9.53l.03-.03c-3.14-.01-6.28 0-9.42-.06-.98-.02-1.21.35-1.19 1.25.04 3.09.01 6.18.01 9.27h-.26v-10.53c.08-.12.15-.24.23-.36v-.03c-.03-.48-.09-.97-.1-1.45-.03-2.89-.04-5.78-.06-8.68.07-.09.15-.17.22-.26 3.13 0 6.26-.01 9.39.02.76 0 1.15-.15 1.13-1.03-.05-3.13-.04-6.25-.06-9.38.05-.06.11-.11.16-.17.49.02.98.05 1.47.05 6.58 0 13.17.01 19.75.02l-.02-.03Zm-10.78-116.73c.01-3.14.08-6.28 0-9.42-.03-1.11.35-1.31 1.37-1.32 3.14 0 6.28.18 9.41-.1.03.06.03.11-.01.16 0 3.14.06 6.28-.01 9.42-.02 1.05.3 1.25 1.27 1.23 3.1-.05 6.19 0 9.29.02v21.26h-10.53v-9.16c0-.53.08-1.08-.26-1.56.06-.07.16-.14.16-.21.02-3.19.02-6.38.04-9.57 0-.73-.43-.76-.97-.76-2.02 0-4.05-.04-6.07.02-1.19.03-2.41-.27-3.59.2a.23.23 0 0 1-.11-.23Zm117.17-.02c0-3.56-.01-7.11-.02-10.67 3.09 0 6.18-.06 9.26 0 1.03.02 1.27-.3 1.25-1.29-.05-3.04 0-6.08.02-9.12.03-.05.03-.11-.01-.15 3.13-.02 6.27-.09 9.4-.04.97.01 1.18-.28 1.16-1.2-.05-3.13-.01-6.27 0-9.4l-.03.02c3.28-.02 6.56-.02 9.84-.07.67 0 .95.15.95.89-.04 2.97-.04 5.93 0 8.9.01.84-.36.94-1.05.94-2.83-.03-5.67.03-8.5-.03-.95-.02-1.22.27-1.2 1.21.06 2.74-.02 5.48.04 8.22.02.92-.21 1.24-1.18 1.22-2.74-.07-5.49.01-8.23-.04-.91-.02-1.23.18-1.21 1.16.07 2.78 0 5.57.04 8.36.01.85-.17 1.16-1.09 1.14-3.15-.07-6.3-.03-9.44-.04ZM10.6 21.31c0-3.01-.09-6.02.03-9.02.05-1.36-.4-1.62-1.65-1.58-2.6.1-5.21 0-7.82.05-.85.01-1.18-.19-1.16-1.11.06-2.87.05-5.75.01-8.62C0 .29.21 0 1 .02c2.87.04 5.75.05 8.62 0 .84-.01 1.08.25 1.07 1.07-.04 2.74.02 5.48-.03 8.21-.02.94.17 1.37 1.24 1.35 3.14-.08 6.29-.06 9.43-.08l.07.04v10.72l.02-.02H10.59l.03.02Zm425.15.04c-3.53-.03-7.06-.07-10.59-.1 0-3.18.02-6.37-.02-9.55-.01-.83.25-1.09 1.07-1.07 2.78.04 5.57-.02 8.35.04.92.02 1.24-.23 1.22-1.19-.06-2.73 0-5.47-.04-8.21-.02-.88.15-1.27 1.15-1.24 2.83.07 5.66.07 8.49 0 .94-.02 1.12.31 1.11 1.15-.02 3.18.03 6.37.05 9.55-.01.06-.05.07-.11.05-3.23 0-6.47 0-9.7-.05-.8-.01-.96.27-.95 1 .04 3.18.03 6.37.04 9.55l-.08.07Z" class="cls-1"/><path d="M276.26 106.31c0 .1.03.17.11.23 0 3.04.05 6.07 0 9.11-.01.91.2 1.23 1.17 1.21 3.08-.06 6.17 0 9.25 0 .34.48.26 1.03.26 1.56v9.16c-3 0-6.01-.07-9.01.03-1.29.04-1.58-.41-1.54-1.6.08-2.46.03-4.93.02-7.39 0-.44.09-.9-.16-1.31-.17-.72-.76-.48-1.2-.49-3.12-.01-6.25 0-9.37 0-.02-3.26-.02-6.53-.08-9.79-.01-.73.32-.77.89-.77 3.22.03 6.45.04 9.67.05Zm127.72-31.86c-3.14 0-6.28-.04-9.42 0-.88.01-1.17-.28-1.15-1.16.04-2.73.06-5.47 0-8.2-.02-.99.38-1.19 1.27-1.18 6.6.03 13.19 0 19.79 0v10.54l.03-.02c-3.5 0-7.01.02-10.51.03ZM234.29 127.5c6.65 0 13.3 0 19.95-.02.84 0 .93.38.92 1.07-.03 3.19-.02 6.38-.03 9.57 0 .08-.03.15-.1.21-2.17-.35-4.36-.12-6.54-.14-1.33-.01-2.67-.23-3.98.17l-10.59-.02c-.02-.09-.04-.17-.05-.26l-.02.02c3.14 0 6.28-.02 9.41.03.93.02 1.24-.24 1.22-1.2-.06-2.73-.07-5.46 0-8.19.03-1.07-.38-1.25-1.33-1.23-2.96.04-5.92 0-8.87-.01Zm-42.58 106.22c2.75-.34 5.52-.06 8.28-.15.67-.02 1.34 0 2.01 0 1.29 0 2.58-.01 3.87.03 2.26.08 4.52-.21 6.78.15l-.07.05c-3.14 0-6.28.04-9.41.01-.86 0-1.18.24-1.17 1.14.05 2.78.04 5.55 0 8.33-.01.82.27 1.09 1.09 1.08 3.18-.05 6.37-.04 9.55-.05l.03-.03v10.59c-3.32.03-6.64.04-9.96.09-.96.02-.81-.61-.81-1.18-.03-3.14-.05-6.28-.07-9.42.02-3.1 0-6.2.09-9.3.03-1-.26-1.32-1.28-1.3-2.97.04-5.93-.03-8.9-.06ZM159.48 85.27c-3.39-.02-6.78-.04-10.17-.07-.43 0-.9.15-1.29-.17.24-.03.48-.05.72-.08 3.1.01 6.19-.03 9.29.06 1.12.03 1.35-.39 1.33-1.4-.05-3.05-.02-6.1-.02-9.15 3.28-.02 6.57-.02 9.85-.07.85-.02.93.39.93 1.07-.01 3.19.01 6.38.02 9.57.01.1-.03.17-.12.2-3.51-.14-7.03-.22-10.54.04Zm191.28-42.65v10.8c-.42-.37-.94-.22-1.41-.23-3.12-.04-6.24-.05-9.37-.08V42.63c3.6-.13 7.19-.1 10.79-.01Zm-21.22 21.27c-3.19 0-6.38-.04-9.57 0-.85.01-1.16-.17-1.15-1.09.06-2.87.06-5.74 0-8.62-.02-.94.32-1.09 1.15-1.08 3.19.05 6.38.03 9.57.03l.08-.03.08.02c-.21 3.55-.2 7.11 0 10.66-.02.08-.08.11-.15.09Zm-21.23 138.1c-.3-.29-.21-.67-.21-1.02v-19.09c0-.21.04-.43.26-.64 0 2.86.05 5.71-.02 8.57-.03 1.12.31 1.46 1.43 1.43 3.05-.07 6.1-.01 9.15 0-.01 3.04-.07 6.08 0 9.12.03 1.17-.21 1.59-1.5 1.57-3.04-.06-6.08-.17-9.11.06Zm148.7-180.67c3.19 0 6.38.02 9.57-.03.84-.01 1.16.17 1.14 1.09-.06 2.83-.06 5.66 0 8.48.02.9-.26 1.13-1.14 1.13-3.19-.02-6.37.05-9.56.08-.09 0-.15-.05-.16-.15.18-3.54.2-7.08-.01-10.61l.08-.02.07.03ZM350.72 159.39h-9.66c-.55 0-1.11.05-1.09-.78.07-3.3-.13-6.6.1-9.9 3.4-.23 6.81-.06 10.22-.08.15 0 .31.15.47.23-.01 3.51-.02 7.02-.04 10.53ZM456.93 10.73c.02-3.14.08-6.29.03-9.43-.01-.99.23-1.31 1.27-1.29 2.83.08 5.66.05 8.5.01.76-.01 1.01.22 1 .99-.04 2.92-.04 5.84 0 8.76.01.77-.23 1-.99.99-3.24-.03-6.47 0-9.71 0l-.09-.03ZM106.16 21.31c3.23 0 6.47.03 9.7-.02.9-.01 1.13.26 1.12 1.13-.05 2.83-.06 5.66 0 8.49.02.95-.34 1.11-1.17 1.1-2.83-.04-5.66-.04-8.49 0-.87.01-1.16-.23-1.14-1.14.04-3.19 0-6.38-.02-9.56Zm319.02 32.03c.07-.04.1-.09.08-.17 3.52 0 7.03-.02 10.55-.03v-.03c-.01 3.22-.05 6.45 0 9.67.02.9-.26 1.12-1.13 1.11-2.82-.05-5.65-.04-8.47 0-.77.01-1.13-.12-1.11-1.01.07-3.18.05-6.36.07-9.54Zm-393.27-.15c.03.08.03.16-.01.24-1.26-.46-2.57-.17-3.86-.21-1.88-.05-3.77-.07-5.65 0-.98.04-1.19-.32-1.18-1.23.03-3.14-.02-6.27-.04-9.41l.08.03h10.69l-.02-.03v10.59ZM21.38 10.68v-.08l-.06-.04c-.03-3.23-.04-6.46-.09-9.69 0-.66.25-.84.88-.84 2.97.03 5.93.04 8.9 0 .85-.01.92.37.92 1.05-.02 3.23 0 6.47 0 9.7l-.02.02c-3.51-.04-7.02-.07-10.54-.11Z" class="cls-1"/><path d="m456.93 10.73.09.03c.12 3.52.12 7.04 0 10.56l-.07-.03-.08.02h-10.26c-.06-.03-.11-.03-.16.01V10.77c.06.02.09 0 .11-.05 3.46-.12 6.92-.14 10.38 0Zm-.06 21.19c.01.09.07.14.16.15.02 3.22.02 6.44.07 9.65.01.71-.22.91-.91.9-3.22-.04-6.44-.03-9.67-.04l-.04.04c-.21-3.51-.1-7.03-.05-10.54.09-.01.15-.07.16-.16h10.29Zm-286.85 53.3c.09-.04.13-.1.12-.2 3.18-.01 6.37 0 9.55-.05.83-.01 1.07.24 1.06 1.06-.05 3.14-.03 6.27-.04 9.41a.26.26 0 0 0-.03.24c-3.23.01-6.46 0-9.68.05-.73 0-1.04-.18-1.03-.97.05-3.18.04-6.36.05-9.54Zm74.64 169.65c-3.6 0-7.2 0-10.8.01 0-3.51-.02-7.01-.02-10.52 3.61 0 7.22.01 10.82.02v10.49Zm-42.7-137.93.03-.07c3.24-.02 6.47-.02 9.71-.06.6 0 .9.12.89.8-.04 3.32-.05 6.64-.07 9.96l.02-.03h-10.55l.02.03-.06-10.64Zm63.82-.13c3.12 0 6.25-.01 9.37 0 .44 0 1.03-.23 1.2.49-.02 3-.09 6.01-.04 9.01.01.98-.21 1.31-1.25 1.29-3.1-.07-6.2-.03-9.29-.03 0-3.59.01-7.17.02-10.76Zm-.02 127.61c-.01-3.18 0-6.36-.05-9.53-.01-.85.31-1.07 1.11-1.06 3.18.02 6.36 0 9.54-.01.01 3.18 0 6.37.06 9.55.02.89-.32 1.01-1.1 1.01-3.19-.02-6.37.02-9.56.05Zm21.27-31.85c.19-.33.52-.31.83-.31h8.89c.31 0 .64-.02.84.3.01 3.18 0 6.35.04 9.53 0 .7-.1 1.04-.93 1.03-3.22-.06-6.44-.06-9.67-.07l.02.03c0-3.5-.02-7-.03-10.49Zm0-116.93c.04-.05.04-.11.01-.16-.01-3.19-.01-6.37-.05-9.56 0-.68.18-.94.9-.93 3.23.05 6.46.06 9.7.08-.04.05-.04.11-.01.16.01 3.19.01 6.37.05 9.56 0 .68-.18.94-.9.93-3.23-.05-6.46-.06-9.7-.08Z" class="cls-1"/><path d="m446.48 42.62.04-.04c-.01 3.13-.06 6.26-.02 9.39.01.9-.19 1.25-1.17 1.22-3.17-.08-6.35-.06-9.53-.08l.01.03V42.59l-.03.03h10.69ZM329.54 63.89c.08.01.13-.02.15-.09h10.26c0 3.09-.04 6.18.03 9.27.03 1.15-.36 1.43-1.45 1.41-3-.07-6-.03-9.01-.03 0-3.51 0-7.02.01-10.54Zm-74.5 74.44c.06-.06.09-.13.1-.21 3.52-.02 7.05-.03 10.57-.05.1 3.54-.15 7.09.13 10.62 0 0-.02.12-.02.11-3.44-.34-6.89-.13-10.33-.11-.18-.02-.36-.04-.55-.07.27-3.43.05-6.87.11-10.3Zm-95.52 63.11c-.05.14-.1.28-.14.43-3.19 0-6.38-.02-9.57.02-.84.01-1.06-.25-1.05-1.07.04-3.19.01-6.37.01-9.56.11-.04.23-.08.34-.12 2.92.02 5.84.1 8.76.03 1.19-.03 1.61.24 1.59 1.53-.05 2.91-.17 5.83.07 8.74ZM106.17 21.3c-3.51 0-7.03-.01-10.54-.02l.02.03V10.77l-.02.03c3.31-.3 6.62-.11 9.93-.15.49 0 .74.2.73.72-.08 3.31.16 6.63-.12 9.94Zm53.18 53.16c0 3.05-.04 6.1.02 9.15.02 1.01-.2 1.43-1.33 1.4-3.09-.09-6.19-.05-9.29-.06.01-3.13.06-6.26.01-9.39-.02-.96.27-1.2 1.2-1.18 3.13.08 6.26.06 9.39.08Zm74.94 53.04c2.96.01 5.92.05 8.87.01.94-.01 1.36.16 1.33 1.23-.08 2.73-.06 5.46 0 8.19.02.96-.29 1.21-1.22 1.2-3.14-.06-6.27-.03-9.41-.03 0-3.52 0-7.03.01-10.55.14-.02.28-.03.42-.05ZM414.46 10.52c-3.51 0-7.02 0-10.53-.01 0-3.14 0-6.27-.04-9.41-.01-.79.15-1.1 1.03-1.08 2.87.06 5.74.03 8.61.01.59 0 1.02 0 1.01.82-.06 3.22-.06 6.45-.08 9.67ZM233.83 244.36c0 3.51.02 7.01.02 10.52-3.51.12-7.02.12-10.52 0 .01-3.5.03-7 .04-10.5l.12-.05.13.02h10.22Zm-42.12-10.64c2.97.03 5.93.1 8.9.06 1.02-.01 1.31.3 1.28 1.3-.08 3.1-.06 6.2-.09 9.3-3.13 0-6.27-.05-9.4.01-.96.02-1.2-.28-1.18-1.2.07-3.13.05-6.26.06-9.39.14-.02.28-.05.42-.07Zm31.42-106.13v10.62c-3.53-.04-7.07-.09-10.6-.13l.03.03v-10.54l-.02.03h10.61Zm-53.09 84.92.42-.15c2.96.03 5.92.13 8.88.07 1.16-.02 1.41.36 1.39 1.45-.06 2.96.01 5.92.03 8.88-.04.11-.08.23-.12.34-3.14 0-6.29-.04-9.43.01-.92.02-1.23-.22-1.21-1.18.06-3.14.03-6.28.04-9.42ZM329.7 53.13l-.08-.02-.08.03c-.02-3.28-.03-6.55-.07-9.83 0-.61.24-.76.8-.76 3.23.04 6.47.05 9.7.07V53.1c-3.42 0-6.84.02-10.26.02Zm-74.51 201.74c0-3.09.03-6.18-.01-9.27-.01-.9.21-1.27 1.19-1.25 3.14.07 6.28.04 9.42.06 0 3.13-.04 6.26 0 9.39 0 .8-.1 1.19-1.06 1.16-3.17-.08-6.35-.06-9.53-.08Zm-10.53 0v-10.49l-.04-.1 10.3.06v10.53h-10.27Zm-32.01 0v-10.59c3.47.02 6.94.05 10.41.07.03 3.51.05 7.02.08 10.53h-10.49Zm10.68-116.84v-10.45c3.42 0 6.84 0 10.26-.01 0 3.48.01 6.97.02 10.45h-10.28Z" class="cls-1"/><path d="M223.15 254.88c-.03-3.51-.05-7.02-.08-10.53l-.02.01c.11 0 .22 0 .32.01-.01 3.5-.03 7-.04 10.5l-.09.04-.09-.04Zm10.46-116.85c0-3.48-.01-6.97-.02-10.45.09 0 .18-.02.27-.02 0 3.52 0 7.03-.01 10.55l.02-.02c-.09-.01-.17-.03-.26-.05ZM53.89 63.7h19.79v.12H53.83l.06-.12Zm20.7-21.08c-.35-.32-.24-.75-.24-1.14 0-2.91 0-5.82.24-8.74v9.87Zm-.07-31.43v9.5h-.11v-9.62s.08.08.11.12Zm21.15 52.78h-9.93v-.33c3.31.26 6.63-.37 9.93.33Zm-42.5-42.04v9.33h-.12V21.9s.08.03.12.04Zm.02 21.35v9.25h-.12v-9.37l.12.12Zm63.8 84.33c-.01-3.62-.02-7.24-.04-10.86 0-3.5.02-7 .02-10.5l-.03.02c3.51 0 7.01 0 10.52-.01 3.15 0 6.29-.02 9.43.03.89.01 1.17-.29 1.15-1.16-.04-2.91-.02-5.83.23-8.74v20.53c0 3.54.01 7.07.02 10.61-.1 3.57.14 7.14-.13 10.71-.49-.03-.98-.09-1.46-.1-3.08-.03-6.16-.04-9.24-.06l.02.02c0-3.18-.02-6.37.01-9.55 0-.74-.18-1.01-.97-1-3.18.05-6.37.04-9.55.05Zm53.15 21.04c-.28.32-.65.23-1 .23-3.26 0-6.52 0-9.78-.01v-20.98h.25c0 2.88.05 5.76-.03 8.64-.03 1.21.27 1.65 1.55 1.59 2.51-.1 5.03-.07 7.55-.01.94.02 1.24-.28 1.23-1.22-.05-3-.02-6 .25-9v10.25c0 3.5-.01 7-.02 10.51Zm127.43-21.07v-21.26c3.51 0 7.02 0 10.53-.01.06.07.12.15.18.22.01 3.09.05 6.18.02 9.28 0 .82.21 1.07 1.04 1.05 2.74-.05 5.48.05 8.21-.05 1.18-.04 1.4.35 1.36 1.43-.08 2.73 0 5.47-.05 8.2-.02.88.23 1.14 1.12 1.12 3.14-.05 6.28-.02 9.42-.02 0 3.05 0 6.1.02 9.15 0 .47-.19 1 .24 1.4l.02.02c-.3 3.51-.06 7.02-.13 10.52-6.52 0-13.04-.04-19.56.01-1.27.01-1.67-.29-1.66-1.62.06-9.35.03-18.69.02-28.04 0-.44 0-.88-.27-1.33v6.71q0 3.22-3.25 3.22h-7.29Zm53.19-10.8c3.19.02 6.37.05 9.56.03.75 0 1.14.08 1.13 1-.07 3.18-.05 6.37-.06 9.55-.8.41-1.66.18-2.49.19-2.71.03-5.42.01-8.14.01v-10.79Zm0 10.79c0 3.05-.03 6.1.02 9.15.02 1.01-.2 1.44-1.33 1.4-2.69-.08-5.39-.06-8.08-.01-.88.02-1.17-.28-1.15-1.16.04-2.74.05-5.47 0-8.21-.02-.99.36-1.2 1.26-1.19 3.1.04 6.2.02 9.29.02Zm-5.27-42.61c-1.44 0-2.87-.02-4.31 0-.69.01-.96-.23-.95-.94.02-2.87.02-5.74 0-8.61 0-.64.15-1 .89-.99 2.92.03 5.83.02 8.75 0 .62 0 .89.23.88.86-.02 2.91-.02 5.83 0 8.74 0 .72-.29.94-.97.92-1.44-.03-2.87 0-4.31 0Zm-5.48 10.56c-.02 3.14-.08 6.29-.02 9.43.02 1.1-.35 1.37-1.39 1.35-2.56-.06-5.13-.06-7.69 0-.95.02-1.24-.29-1.22-1.23.05-3.14.01-6.29 0-9.43 3.42-.12 6.85.15 10.28-.14l.03.03Zm-10.33 42.56c0-3.09.04-6.18 0-9.27-.01-.91.23-1.27 1.2-1.25 2.64.06 5.29.05 7.94 0 .88-.02 1.17.27 1.16 1.15-.04 3.14-.02 6.27-.02 9.41-3.42 0-6.83-.01-10.25-.02l-.02-.02Zm-32.09 42.49c0 3.09-.06 6.19.02 9.28.03 1.16-.37 1.43-1.46 1.41-3.05-.06-6.1 0-9.15 0-3.55 0-7.1.02-10.65.03h-10.51a.502.502 0 0 1-.14-.15v-10.45c.01-.17.02-.35.04-.52.27-3.41.06-6.82.11-10.24 7.05 0 14.11-.01 21.16-.02h.05c0 3.15.04 6.28-.04 9.41-.02 1.03.3 1.28 1.29 1.26 3.09-.06 6.18-.01 9.27 0Zm-10.62-21.15c-3.22 0-6.45-.03-9.67 0-.7 0-1.05-.1-1.03-.93.06-3.22.05-6.44.06-9.66l.05.05 10.59.03c.12 3.5.12 7.01 0 10.51Z" class="cls-1"/><path d="M276.34 191.28c3.55 0 7.1-.02 10.65-.03.01 3.48.02 6.97.04 10.45-3.59.16-7.19.09-10.79.04.03-3.49.07-6.97.1-10.46Zm21.25-10.71c-3.09 0-6.18-.05-9.27 0-.99.02-1.31-.24-1.29-1.26.07-3.13.03-6.26.04-9.4 3.52.03 7.05.07 10.57.1-.01 3.49-.03 6.98-.04 10.47v.09Z" class="cls-1"/><path d="M276.24 201.74c3.6.05 7.19.13 10.79-.04-.31.48-.8.3-1.22.31-3.16.01-6.32 0-9.48 0l-.09-.05.02-.1-.02-.12Zm10.74-52.83-10.59-.03c1.26-.41 2.56-.15 3.84-.18 2.27-.06 4.55-.05 6.82-.07-.02.1-.05.19-.07.29Zm85.66-32.05h9.38v.1h-9.38v-.1Zm-.62-31.02v9.1h-.13v-9.1h.13Zm-180.6 62.91c-.03 3.56-.05 7.12-.08 10.68-3.13-.01-6.27-.06-9.4-.01-1.01.02-1.3-.3-1.29-1.3.06-3.18.02-6.35.01-9.53v.01c.67 0 1.35-.01 2.02 0 2.91.08 5.83-.18 8.74.13Zm-21.41 42.4V182c0-.48-.13-.99.15-1.45.05-.01.1-.03.14-.06 2.98.31 5.98.13 8.97.1 1.22-.01 1.5.36 1.46 1.51-.09 3.04-.05 6.07-.06 9.11-3.55-.02-7.11-.05-10.66-.07Zm-10.57-.22.19.28c-.07 3.41.14 6.82-.11 10.23-.23-2.91-.12-5.83-.06-8.74.02-1.29-.41-1.55-1.59-1.53-2.92.06-5.84-.01-8.76-.03 1.68-.4 3.39-.1 5.08-.16 1.75-.06 3.5-.04 5.25-.05Z" class="cls-1"/><path d="M191.42 148.75c-2.91-.32-5.83-.05-8.74-.13-.67-.02-1.35 0-2.02 0v-10.53c3.13 0 6.27-.02 9.4.04.91.02 1.22-.19 1.21-1.16-.05-3.13.02-6.26.04-9.39.06.04.12.04.18 0 3.51 0 7.02.02 10.53.02l-.02-.03c.02 3.51.04 7.02.05 10.53l-.07 10.48c-.1.01-.17.06-.2.15-3.45 0-6.9.02-10.35.02Zm31.72 21.36c-2.94-.35-5.88-.07-8.82-.15-2.05-.05-1.76.27-1.78-1.79-.02-2.56.03-5.12-.02-7.67-.02-.86.21-1.15 1.11-1.15 6.74.04 13.48.03 20.21.04l.02.04c0 7.01-.01 14.02-.02 21.03-3.42.03-6.83.07-10.25.1-.09-.01-.18-.02-.27-.04-.25-.46-.14-.96-.14-1.44-.03-2.99-.04-5.98-.05-8.97Zm-21.15 31.88c.06-.07.08-.16.04-.25 0-3.49 0-6.99-.01-10.48l.02-.08c7 0 14 .01 21 .02 0 3.05-.03 6.1.05 9.15.03 1.12-.31 1.46-1.43 1.43-2.85-.07-5.71-.02-8.56-.02 2.91.25 5.82.29 8.72.23 1.03-.02 1.3.33 1.28 1.31-.06 2.55-.08 5.11 0 7.67.04 1.13-.4 1.34-1.4 1.33-3.05-.05-6.1-.01-9.16 0l-.01.01v-9.43c0-.5.08-.99-.71-.97-3.28.09-6.56-.14-9.83.13v-.02Z" class="cls-1"/><path d="M233.85 159.39c-.45-.45-1.02-.24-1.54-.24-2.61-.02-5.22-.04-7.82 0-.87.02-1.18-.26-1.17-1.15.05-2.69.03-5.39 0-8.09 0-.72.18-1.05.98-1.05 6.7.03 13.4.04 20.1.05.03.08.03.16-.01.23 0 3.42-.01 6.84-.02 10.27-3.5 0-7 0-10.5.01l-.02-.04Zm-31.87-10.82c.02-3.49.05-6.99.07-10.48 3.5 0 7 0 10.5.01l-.03-.03.06 10.55c-3.53.07-7.07.17-10.6-.05Zm31.63-10.54c.09.02.17.04.26.05.02.09.03.17.05.26l-.06 10.27c-3.24.02-6.47.04-9.71.07-.59 0-.92-.15-.91-.82.04-3.28.06-6.55.08-9.83h10.28Zm-21.01 32.09c0 3.14-.05 6.29 0 9.43.01.88-.22 1.15-1.12 1.14-3.15-.05-6.29-.01-9.44-.01-.02-3.23-.03-6.47-.07-9.7 0-.69.22-.96.93-.95 3.23.05 6.47.06 9.7.09Zm-10.58 21.14c0 3.49 0 6.99.01 10.48-3.28.03-6.55.05-9.83.09-.62 0-.88-.24-.88-.87.02-2.96.02-5.93 0-8.89 0-.63.23-.88.87-.87 3.28.04 6.56.05 9.84.07Zm31.85-42.65.06-10.27c3.53 0 7.06.01 10.59.02 0 3.42.01 6.85.02 10.27h-.02c-3.55 0-7.09-.01-10.64-.02Z" class="cls-1"/><path d="m244.51 148.65.02-.01c3.47 0 6.93 0 10.4-.01.05.2.1.4.16.6-.03 2.87-.13 5.74-.07 8.6.03 1.22-.37 1.52-1.53 1.48-2.47-.08-4.94-.08-7.41 0-1.2.04-1.63-.27-1.62-1.56.04-2.86.19-5.73-.08-8.6.04-.08.04-.15.01-.23.04-.09.07-.18.11-.27Zm53.05-10.49h-10.49c0-3.53-.02-7.06-.02-10.59h10.53c0 3.53-.02 7.06-.02 10.59ZM74.37 95.49V85.22c3.05 0 6.11.03 9.16-.02.95-.02 1.37.19 1.34 1.25-.07 2.6-.07 5.2 0 7.8.03 1.06-.39 1.27-1.34 1.25-3.05-.05-6.11-.02-9.16-.02Zm53.13-31.84c-.02-3.5-.04-7.01-.07-10.51 3.15 0 6.29.01 9.44-.03.86-.01 1.19.24 1.17 1.14-.05 2.78-.04 5.57 0 8.35.01.84-.3 1.08-1.1 1.07-3.15-.04-6.29-.02-9.44-.02Zm319.09-31.73c-.01.09-.07.15-.16.16-3.54-.18-7.09-.18-10.63 0-.02-3.57-.04-7.15-.05-10.72l.08-.07c3.54.01 7.07.03 10.61.04.05-.04.11-.04.16-.01-.21 3.54-.19 7.07-.01 10.61ZM212.64 233.75c-2.25-.36-4.52-.08-6.78-.15-1.29-.04-2.58-.02-3.87-.03l-.06-10.54c.01-3.52.03-7.04.04-10.56l.04-.07c3.51-.08 7.01.13 10.52-.11l.01-.01c.34.46.83.23 1.24.23 2.51.02 5.02 0 7.53.02 2.04.01 1.76-.26 1.81 1.76.08 2.86-.2 5.72.15 8.57-.03.09-.02.18.04.26-.03 3.49-.07 6.98-.1 10.48a.32.32 0 0 0-.25.05l-10.33.12Zm-31.94-21.5.28.19c-.01 2.96-.02 5.92-.04 8.88 0 .48.14.99-.17 1.44-.02-2.96-.09-5.92-.03-8.88.02-1.09-.23-1.47-1.39-1.45-2.96.06-5.92-.04-8.88-.07 3.41-.24 6.83-.04 10.24-.11Zm10.59 10.57c.06.08.12.16.19.24v9.91h-.19v-10.14ZM84.92 116.44v-9.61h.11v9.61h-.11Zm10.73.35v.26h-9.92v-.26h9.93Z" class="cls-1"/><path d="M223.28 222.86c-.35-2.85-.07-5.71-.15-8.57-.05-2.02.22-1.75-1.81-1.76-2.51-.02-5.02 0-7.53-.02-.41 0-.9.23-1.24-.23 3.05 0 6.11-.04 9.16 0 1.01.02 1.44-.2 1.4-1.33-.09-2.55-.07-5.11 0-7.67.02-.99-.25-1.33-1.28-1.31-2.91.06-5.81.02-8.72-.23 2.85 0 5.71-.05 8.56.02 1.12.03 1.46-.31 1.43-1.43-.08-3.05-.04-6.1-.05-9.15v.02c.1 0 .21-.02.31-.02 0 3.18 0 6.36-.04 9.54 0 .77.14 1.12 1.02 1.11 6.77-.05 13.53-.05 20.3-.07 0 3.04.05 6.09 0 9.13-.02 1.03.23 1.42 1.34 1.38 2.33-.08 4.66-.02 6.99-.03 2.17 0 1.9.23 1.95-1.93.07-2.76-.21-5.54.15-8.29.02 3.06.03 6.11.05 9.17 0 .65-.07 1.26.92 1.24 3.24-.06 6.47-.06 9.71-.08.25 3.54.08 7.09.09 10.63-.06.05-.11.11-.16.17-3.13 0-6.27.02-9.4 0-.75 0-1.15.12-1.13 1.01.06 3.13.05 6.26.07 9.39-.07.09-.15.17-.22.26-3.01 0-6.03.04-9.04-.02-1.02-.02-1.4.21-1.37 1.32.08 3.05.03 6.11.03 9.16l.04.1c-3.61 0-7.22-.01-10.82-.02h-10.22c2.9-.28 5.81-.1 8.72-.09 1.14 0 1.44-.38 1.42-1.47-.06-3.04-.01-6.09 0-9.14 3.09-.02 6.19-.11 9.28-.04 1.17.03 1.39-.35 1.37-1.43-.05-3.05.02-6.09.05-9.14.08-.01.15 0 .22.05 0 3.05.04 6.11-.04 9.16-.03 1.13.4 1.34 1.4 1.32 2.51-.06 5.03-.06 7.55 0 1.04.03 1.41-.25 1.38-1.34-.07-3.05-.02-6.1-.02-9.16.02-3.23.02-6.47.07-9.7.01-.77-.35-.87-.99-.87-3.19.03-6.39.03-9.58.04h-10.56c0-3.14-.04-6.28 0-9.41.01-.89-.28-1.16-1.16-1.15-2.6.05-5.21.09-7.81-.01-1.31-.05-1.64.36-1.63 1.64.06 6.41 0 12.82 0 19.23Z" class="cls-1"/><path d="M255.21 233.56c-.02-3.13 0-6.26-.07-9.39-.02-.9.39-1.02 1.13-1.01 3.13.03 6.27 0 9.4 0 .01 3.13 0 6.25.06 9.38.01.87-.37 1.04-1.13 1.03-3.13-.03-6.26-.01-9.39-.02Zm-.06 10.42v-.03.03Zm-42.58-10.17v.26c-.12 3.26-.12 6.53 0 9.79l.06.45c-3.18.01-6.37 0-9.55.05-.82.01-1.1-.26-1.09-1.08.04-2.78.04-5.55 0-8.33-.02-.9.3-1.15 1.17-1.14 3.14.03 6.28 0 9.41-.01Zm42.53-84.59c-.05-.2-.1-.4-.16-.6.18.02.36.04.55.07.31.25.68.17 1.03.17 3.09 0 6.17 0 9.26-.01.03.09.02.17-.02.25-.13 3.36-.13 6.72 0 10.08.04.08.02.15-.04.21-3.52 0-7.03 0-10.55-.01-.03-3.38-.05-6.77-.08-10.15Z" class="cls-1"/><path d="M265.78 148.85c-3.09 0-6.17.01-9.26.01-.35 0-.72.08-1.03-.17 3.44-.02 6.89-.23 10.33.11l-.04.05Zm-42.73 95.52c.18-3.58.32-7.16-.08-10.73.08-.05.16-.07.25-.05 3.51.02 7.02.05 10.53.07 0 3.05-.05 6.09 0 9.14.02 1.09-.28 1.47-1.42 1.47-2.91 0-5.82-.19-8.72.09l-.13-.02-.12.05c-.11 0-.22 0-.32-.01Zm42.68-64.22c-.01.17-.02.35-.04.52-3.53-.09-7.06.13-10.59-.12l.04.03c-.03-.58-.09-1.15-.1-1.73-.04-2.95-.07-5.89-.1-8.84l-.04-.09h.01c.08.02.17.03.25.02l.29.06c.41.27.87.16 1.31.16 2.55 0 5.11.05 7.66-.02.99-.02 1.32.26 1.3 1.28-.06 2.91-.01 5.81 0 8.72Zm10.51 21.59.02.12c-3.03 0-6.06 0-9.1.03-.49 0-.97.07-1.46.12h.01c0-.1-.01-.21-.02-.31.05-.08.06-.16.02-.25.25-3.39.05-6.78.1-10.17h10.51c-.03 3.49-.07 6.97-.1 10.46Z" class="cls-1"/><path d="M265.73 180.15c0-2.91-.05-5.82 0-8.72.02-1.02-.31-1.3-1.3-1.28-2.55.06-5.1.03-7.66.02-.44 0-.9.11-1.31-.16 3.46-.02 6.93-.05 10.39-.07l-.02-.02c-.05 3.41.16 6.83-.11 10.24Zm.1 11.13c-.05 3.39.14 6.78-.1 10.17 0-3.41-.02-6.82-.03-10.23l-.01-.09c.04.06.09.11.14.15Z" class="cls-1"/><path d="M265.86 169.94c-3.46.02-6.93.05-10.39.07l-.29-.06v-10.57c3.52 0 7.03 0 10.55.01.05 3.51.09 7.03.14 10.54Zm-.1-10.76c-.13-3.36-.13-6.72 0-10.08.2 3.36.2 6.72 0 10.08Zm-.01 53.19c-3.24.02-6.47.02-9.71.08-.99.02-.92-.6-.92-1.24-.01-3.06-.03-6.11-.05-9.17.13-.05.26-.1.39-.14 3.42.04 6.85.07 10.27.11h-.01c.01 3.45.02 6.91.04 10.36Zm-42.41-21.17c-.1 0-.21.02-.31.02.34-2.36.05-4.73.16-7.1.05-1.2-.17-2.41.14-3.6.09.01.18.03.27.04.42.26.88.15 1.32.15 2.47 0 4.95.05 7.42-.02 1.03-.03 1.31.32 1.28 1.31-.07 2.24 0 4.49-.02 6.74-.02 2.54.32 2.17-2.21 2.23-2.6.07-5.2-.22-7.79.17-.08.04-.17.05-.26.06Z" class="cls-1"/><path d="M223.6 191.14c2.59-.39 5.19-.1 7.79-.17 2.53-.07 2.19.31 2.21-2.23.02-2.25-.04-4.49.02-6.74.03-.99-.25-1.34-1.28-1.31-2.47.07-4.95.03-7.42.02-.44 0-.9.11-1.32-.15 3.41-.03 6.83-.07 10.25-.1v-.03c0 3.22-.02 6.43 0 9.65 0 .73-.09 1.16-.99 1.14-3.08-.07-6.17-.06-9.25-.08Zm31.35-21.13c-3.23.02-6.47.02-9.7.08-.89.02-.88-.48-.88-1.12.01-3.19 0-6.37 0-9.56 0-3.42.01-6.84.02-10.27.27 2.86.12 5.73.08 8.6-.02 1.29.41 1.6 1.62 1.56 2.47-.08 4.94-.08 7.41 0 1.16.04 1.56-.26 1.53-1.48-.06-2.87.03-5.74.07-8.6.03 3.38.05 6.77.08 10.15v10.57c-.09 0-.17 0-.25-.03 0-3.05-.03-6.1.03-9.15.02-1.01-.21-1.44-1.33-1.4-2.56.08-5.12.07-7.68 0-.98-.02-1.34.24-1.32 1.28.07 2.64.08 5.29 0 7.94-.04 1.14.4 1.33 1.4 1.31 2.96-.04 5.92.01 8.89.03l.04.09Zm-21.07 42.55c0 3.17-.03 6.35.01 9.52.01.82-.2 1.06-1.04 1.05-3.18-.05-6.35-.02-9.53-.02-.06-.08-.07-.16-.04-.26.01-6.41.06-12.82 0-19.23-.01-1.29.32-1.7 1.63-1.64 2.6.1 5.2.06 7.81.01.88-.02 1.17.26 1.16 1.15-.04 3.14 0 6.27 0 9.41Z" class="cls-1"/><path d="M223.6 191.14c3.08.02 6.17.01 9.25.08.91.02 1-.4.99-1.14-.02-3.22 0-6.43 0-9.65.47.23.97.12 1.46.13 6.61.02 13.22.02 19.83.03l-.04-.03c.03 3.55.14 7.11-.05 10.66h.01c-3.19 0-6.38.01-9.57.01-.5 0-.99-.08-.97.71.09 3.27-.13 6.54.12 9.81l-.02.03c-6.77.02-13.53.02-20.3.07-.88 0-1.03-.34-1.02-1.11.04-3.18.03-6.36.04-9.54.09 0 .17-.02.26-.06Z" class="cls-1"/><path d="M255.06 191.21h-.01 10.64c0 3.41.02 6.82.03 10.23.04.09.03.17-.02.25-1.11.01-2.23 0-3.34.05-2.3.08-4.62-.2-6.92.15-.13.05-.26.1-.39.14-.36 2.76-.08 5.53-.15 8.3-.06 2.17.22 1.92-1.95 1.93-2.33.01-4.66-.06-6.99.03-1.11.04-1.36-.36-1.34-1.38.05-3.04 0-6.09 0-9.13l.02-.03c3.15.01 6.3 0 9.45.06.8.01.97-.29.97-1.02-.03-3.19 0-6.38 0-9.57Zm-10.61 31.84c0-3.5 0-7-.01-10.5 3.19-.01 6.39-.01 9.58-.04.63 0 1 .1.99.87-.05 3.23-.05 6.47-.07 9.7-3.42 0-6.84.01-10.27.02a.342.342 0 0 0-.22-.05Z" class="cls-1"/><path d="M244.67 223.1c3.42 0 6.84-.01 10.27-.02 0 3.05-.05 6.11.02 9.16.03 1.1-.34 1.37-1.38 1.34-2.51-.07-5.03-.06-7.55 0-1 .02-1.44-.19-1.4-1.32.09-3.05.04-6.1.04-9.16Zm-32.1 20.76c-.12-3.26-.12-6.53 0-9.79.19 3.26.19 6.53 0 9.79Zm42.89-41.97c2.3-.35 4.61-.07 6.92-.15 1.11-.04 2.22-.03 3.34-.05 0 .1.01.21.02.31-3.42-.04-6.85-.07-10.27-.11Zm-.55-31.96c-2.96-.02-5.92-.07-8.89-.03-1 .01-1.44-.18-1.4-1.31.09-2.64.07-5.29 0-7.94-.03-1.03.33-1.3 1.32-1.28 2.56.06 5.12.08 7.68 0 1.12-.04 1.35.39 1.33 1.4-.06 3.05-.03 6.1-.03 9.15l-.01.01Z" class="cls-1"/></g></svg>