<svg width="98" height="98" viewBox="0 0 98 98" fill="none" xmlns="http://www.w3.org/2000/svg">
<path d="M11.3215 68.5397C9.82211 69.1407 8.47951 68.4155 7.76411 66.6221L7.00624 64.7307L4.78164 65.6193L4.48438 64.8745L11.5306 62.0586L12.5857 64.6948C13.3011 66.4849 12.8307 67.9353 11.3215 68.5397ZM11.0242 67.7949C12.1512 67.3441 12.4975 66.3412 11.9356 64.9333L11.1876 63.0615L7.66284 64.4694L8.41091 66.3412C8.97278 67.7491 9.91684 68.2391 11.0242 67.7949Z" fill="white"/>
<path d="M12.6474 78.5611L12.0758 78.9564L9.03125 74.5398L15.2738 70.2344L18.2269 74.517L17.6553 74.9122L15.1562 71.2895L12.9349 72.8216L15.1628 76.0523L14.6009 76.441L12.373 73.2136L10.0537 74.8142L12.6442 78.5709L12.6474 78.5611Z" fill="white"/>
<path d="M19.1436 86.1491L19.516 83.1797C19.3559 83.0654 19.2057 82.9412 19.0456 82.7942L17.5462 81.4157L15.9194 83.1862L15.3281 82.644L20.4601 77.0547L22.5507 78.9755C23.9717 80.2822 24.1743 81.7914 23.0734 82.9902C22.2665 83.869 21.2375 84.0584 20.1824 83.5717L19.7871 86.7404L19.1403 86.1458L19.1436 86.1491ZM22.4854 82.448C23.3053 81.5529 23.1845 80.501 22.0673 79.472L20.5809 78.1098L18.0068 80.9126L19.4931 82.2781C20.6103 83.3038 21.6785 83.3267 22.4854 82.4512V82.448Z" fill="white"/>
<path d="M27.8667 83.8941L26.3804 86.4781L29.781 88.4348L29.4347 89.0359L26.0341 87.0791L24.4302 89.8689L23.7344 89.4703L27.5172 82.8945L32.0252 85.4883L31.6789 86.0893L27.8634 83.8974L27.8667 83.8941Z" fill="white"/>
<path d="M32.9275 90.0957C33.5514 87.9757 35.6388 86.8715 37.8438 87.5216C40.0259 88.1651 41.1987 90.2166 40.5682 92.3497C39.941 94.4796 37.8438 95.5707 35.6617 94.9271C33.4567 94.2771 32.3003 92.2191 32.9275 90.099V90.0957ZM39.8005 92.1211C40.3134 90.3832 39.3889 88.7237 37.6413 88.2076C35.8838 87.6882 34.1982 88.5833 33.6853 90.3179C33.1725 92.0557 34.1067 93.7185 35.8642 94.2379C37.6119 94.754 39.2877 93.8589 39.8005 92.1211Z" fill="white"/>
<path d="M49.5572 96.8248L47.9173 94.3225C47.7213 94.3356 47.5253 94.3389 47.3097 94.3323L45.2746 94.2539L45.1831 96.6582L44.3828 96.6255L44.6768 89.0469L47.5123 89.158C49.4396 89.2331 50.5699 90.2523 50.5078 91.8758C50.4621 93.0681 49.8022 93.875 48.6817 94.1919L50.4327 96.8607L49.5572 96.8281V96.8248ZM49.7075 91.8432C49.7532 90.6312 48.979 89.906 47.4633 89.8472L45.4477 89.7688L45.3007 93.5712L47.3163 93.6496C48.832 93.7084 49.6617 93.0355 49.7075 91.8432Z" fill="white"/>
<path d="M61.413 87.3548L63.079 94.7571L62.3277 94.927L60.9949 89.0045L59.208 94.6395L58.8389 94.7212L54.8176 90.4255L56.1439 96.3153L55.3926 96.4852L53.7266 89.0829L54.3701 88.9359L58.8193 93.6987L60.7662 87.4953L61.4098 87.3516L61.413 87.3548Z" fill="white"/>
<path d="M71.5878 88.646L67.8475 90.6125L67.9847 92.8306L67.2464 93.2193L66.7891 84.8926L67.4881 84.5234L74.0868 89.626L73.3387 90.018L71.5911 88.646H71.5878ZM71.0259 88.205L67.5208 85.4446L67.805 89.8971L71.0292 88.205H71.0259Z" fill="white"/>
<path d="M77.3337 77.1751L82.3741 82.8493L81.8809 83.2871L74.1454 81.9249L78.2353 86.5276L77.6342 87.0601L72.5938 81.3859L73.087 80.9449L80.8323 82.3005L76.7424 77.6978L77.3337 77.1719V77.1751Z" fill="white"/>
<path d="M82.5002 77.0354C80.6709 75.7777 80.2789 73.4584 81.5692 71.5768C82.1931 70.6654 83.0621 70.0513 84.0486 69.9141L84.1793 70.6229C83.3136 70.7765 82.6603 71.2469 82.1703 71.9623C81.1347 73.4715 81.4647 75.3661 82.9445 76.3821C84.4275 77.4013 86.3124 77.0256 87.3479 75.5164C87.8379 74.801 88.0437 74.0235 87.8673 73.1546L88.5762 73.0239C88.8049 73.9941 88.5533 75.0297 87.9196 75.9509C86.6325 77.8259 84.3263 78.2931 82.4969 77.0354H82.5002Z" fill="white"/>
<path d="M92.909 64.1119L93.5558 64.3667L91.586 69.3614L84.5234 66.5749L86.4344 61.7305L87.0812 61.9853L85.4642 66.0817L87.9763 67.0715L89.4169 63.4193L90.0539 63.6709L88.6133 67.323L91.2364 68.3585L92.9122 64.1119H92.909Z" fill="white"/>
<path d="M6.02415 52.4116C7.36642 52.4116 8.45455 51.3235 8.45455 49.9812C8.45455 48.6389 7.36642 47.5508 6.02415 47.5508C4.68188 47.5508 3.59375 48.6389 3.59375 49.9812C3.59375 51.3235 4.68188 52.4116 6.02415 52.4116Z" fill="white"/>
<path d="M91.9851 52.4116C93.3274 52.4116 94.4155 51.3235 94.4155 49.9812C94.4155 48.6389 93.3274 47.5508 91.9851 47.5508C90.6428 47.5508 89.5547 48.6389 89.5547 49.9812C89.5547 51.3235 90.6428 52.4116 91.9851 52.4116Z" fill="white"/>
<path d="M14.0444 32.389L13.1297 31.8892L10.3858 30.3898L10.2159 30.2951L5.09375 27.4956L5.49555 29.9194L9.28815 31.9905L9.45802 32.0852L12.2053 33.5846L14.8121 35.0122L15.6418 33.4932L16.5793 31.7782L17.2555 30.5434L17.8076 29.5307L16.8407 27.2734L14.0444 32.389Z" fill="white"/>
<path d="M20.397 16.0846L13.0078 16.3427L16.624 20.6579L20.495 25.2803L21.0046 22.8793L18.1038 19.4166L17.1205 18.2439L22.0499 18.0675L23.0953 13.2393L26.9793 17.8715L29.4326 17.7931L21.9454 8.85547L20.397 16.0846Z" fill="white"/>
<path d="M39.3098 1.75781L42.7627 12.8612L33.0509 8.44795L34.7071 13.7791L33.3122 15.8012L29.8594 4.69781L39.6365 9.31688L37.915 3.77988L39.3098 1.75781Z" fill="white"/>
<path d="M67.6367 17.448L66.4542 16.9874L65.6179 6.99139L58.245 13.7926L57.0625 13.332L66.6142 4.43359L67.64 17.448H67.6367Z" fill="white"/>
<path d="M82.9543 19.1752C82.6963 19.4627 82.4349 19.6881 82.1736 19.8547C81.9123 20.0213 81.6575 20.1421 81.4059 20.2173C81.1544 20.2924 80.9094 20.3316 80.6677 20.3349C80.4259 20.3349 80.2071 20.3185 80.0045 20.2761C79.5178 20.1911 79.0539 19.9919 78.6064 19.675L77.1919 25.5223L76.2119 24.6436L77.6395 18.8061L73.8828 15.4349L74.6472 14.5823L79.2205 18.6852C79.3447 18.7963 79.5178 18.8975 79.7367 18.989C79.9555 19.0805 80.1973 19.1327 80.4619 19.1458C80.7265 19.1556 81.0009 19.1099 81.2883 19.0021C81.5758 18.8943 81.8437 18.7015 82.0952 18.4206C82.3533 18.1331 82.5231 17.8489 82.6048 17.5713C82.6865 17.2936 82.7093 17.0323 82.6799 16.784C82.6473 16.539 82.5721 16.3103 82.448 16.1013C82.3239 15.8922 82.1834 15.7158 82.0201 15.5688L77.4467 11.4659L78.2111 10.6133L82.9347 14.8534C83.3235 15.2323 83.5979 15.6472 83.7547 16.0947C83.8233 16.2842 83.8723 16.4965 83.8984 16.7317C83.9278 16.9669 83.9147 17.2152 83.8657 17.4733C83.8167 17.7313 83.722 18.0025 83.5783 18.2867C83.4345 18.5709 83.2255 18.8649 82.9543 19.1687V19.1752Z" fill="white"/>
<path d="M86.3099 30.0005L81.6712 32.5616L81.1094 31.5457L85.7448 28.9846L89.1062 21.6836L89.8281 22.987L87.2017 28.8637L93.5521 29.7229L94.2871 31.0524L86.3099 30.0005Z" fill="white"/>
<path d="M50.3966 1.20397L49.9393 1.19744L49.4428 1.19417H49.4395H49.4297L48.4758 1.18437L44.9968 1.14844L43.4844 3.06597L48.4562 3.11497L48.3942 9.3249L48.3582 12.7941L50.315 10.3082L50.3248 9.3445L50.3868 3.13457L53.8691 3.1705L55.3783 1.25297L50.3966 1.20397Z" fill="white"/>
<path d="M67.6083 67.0767C66.5303 66.4756 65.4457 66.162 64.3873 66.1489C63.1427 66.1326 61.9014 66.5311 60.696 67.3282C60.1537 67.6875 59.6115 68.0861 59.0365 68.5434C57.7593 69.5593 57.1255 70.0657 56.4232 70.0559C55.7078 70.0461 55.0806 69.5005 53.8295 68.416C52.1602 66.9656 50.6967 66.2829 49.2202 66.2633C47.9331 66.2469 46.5873 66.7206 44.9801 67.7561C44.3692 68.1481 43.7681 68.5859 43.1867 69.0073C42.9188 69.2033 42.6509 69.396 42.3798 69.5887C41.5305 70.1898 40.998 70.4936 40.4459 70.4871C39.8318 70.4805 39.3059 70.082 38.548 69.3503C37.0682 67.926 35.4741 67.2204 33.6709 67.1975C32.2662 67.1812 30.6949 67.5797 28.8656 68.4225C28.7709 68.4683 28.6696 68.563 28.5781 68.6675V72.7051C28.7153 72.6431 28.8591 72.581 28.993 72.5222C29.7737 72.1727 30.4499 71.8689 31.1653 71.6337C31.8742 71.4017 32.7105 71.1633 33.5304 71.1763C34.4843 71.1894 35.2585 71.5259 35.8955 72.2053C37.1727 73.5643 38.6885 74.296 40.2793 74.3156C41.7689 74.3352 43.3435 73.7341 44.8298 72.5777C46.7637 71.0751 47.9429 70.4969 49.0373 70.5099C50.3047 70.5263 51.386 71.3593 52.9377 72.8946C53.8589 73.806 54.9009 74.2927 55.9495 74.3058C56.4591 74.3123 56.9687 74.2045 57.4653 73.9857C58.8046 73.3911 60.0557 72.4993 61.2677 71.6337C61.529 71.4475 61.7903 71.2613 62.0517 71.0751C62.9467 70.4479 63.6556 70.0624 64.4363 70.0722C65.0439 70.0787 65.6515 70.3139 66.5368 70.8791C67.1542 71.2743 67.7716 71.6892 68.3694 72.091C68.8333 72.4046 69.3069 72.7215 69.7839 73.0318V68.4225C69.1501 67.9815 68.4445 67.5438 67.6115 67.0767H67.6083Z" fill="#00DFBF"/>
<path d="M46.4533 30.2029L53.5028 35.521L57.2235 33.4467L64.4135 38.1376H69.7806V33.9595H65.6548L57.3934 28.5695L53.8458 30.5459L47.0936 25.4531L28.5781 32.826V37.3209L46.4533 30.2029Z" fill="#00DFBF"/>
<path d="M53.64 44.7639C54.0549 43.6434 54.1267 42.5948 53.8523 41.6279C53.4244 40.122 52.2353 39.2138 51.3403 38.8904C46.5611 37.1787 36.8167 39.9586 28.5781 43.0097V47.485C37.1727 44.2118 46.2377 41.5985 49.8376 42.7908C49.8605 42.9966 49.6939 43.7643 48.6257 45.1004C48.2304 45.5969 47.0315 47.0996 48.0115 48.6218C49.0503 50.2323 50.7294 49.8076 53.7805 49.0367C57.3869 48.1253 63.4955 46.5867 69.7806 47.583V43.3527C63.4367 42.487 57.511 43.8002 53.64 44.7639Z" fill="#00DFBF"/>
<path d="M57.0328 52.75L54.965 51.2931L53.9262 53.5993C52.9266 55.8174 49.5717 57.5128 46.8898 58.5059C47.2132 51.6981 43.6329 49.9178 43.1658 49.7153L41.6076 49.0391L40.6276 50.4241C37.864 54.3343 32.9803 56.7027 28.5703 58.1171V62.4945C33.1632 61.1551 38.5532 58.8456 42.323 54.906C42.7248 56.0134 42.9763 57.9081 42.3687 61.0441L41.7578 64.1866L44.8808 63.4777C45.766 63.2785 52.5476 61.6353 56.1508 57.6696C56.7453 58.4242 57.3137 59.4173 57.4313 60.5508L57.6894 63.0531L60.1002 62.3409C60.172 62.3181 64.7552 60.9787 69.7728 60.296V56.0918C66.2938 56.523 63.0238 57.258 60.9952 57.7709C59.767 54.6969 57.1602 52.8349 57.0262 52.7402L57.0328 52.75Z" fill="#00DFBF"/>
<path d="M67.0379 67.0767C65.9599 66.4756 64.8754 66.162 63.817 66.1489C62.5724 66.1326 61.3311 66.5311 60.1257 67.3282C59.5834 67.6875 59.0411 68.0861 58.4662 68.5434C57.1889 69.5593 56.5552 70.0657 55.8529 70.0559C55.1375 70.0461 54.5103 69.5005 53.2591 68.416C51.5899 66.9656 50.1264 66.2829 48.6499 66.2633C47.3628 66.2469 46.0169 66.7206 44.4097 67.7561C43.7989 68.1481 43.1978 68.5859 42.6163 69.0073C42.3485 69.2033 42.0806 69.396 41.8095 69.5887C40.9601 70.1898 40.4277 70.4936 39.8756 70.4871C39.2615 70.4805 38.7355 70.082 37.9777 69.3503C36.4979 67.926 34.9037 67.2204 33.1005 67.1975C31.6959 67.1812 30.1246 67.5797 28.2953 68.4225C28.2005 68.4683 28.0993 68.563 28.0078 68.6675V72.7051C28.145 72.6431 28.2887 72.581 28.4227 72.5222C29.2034 72.1727 29.8796 71.8689 30.595 71.6337C31.3039 71.4017 32.1401 71.1633 32.9601 71.1763C33.9139 71.1894 34.6881 71.5259 35.3251 72.2053C36.6024 73.5643 38.1181 74.296 39.709 74.3156C41.1986 74.3352 42.7731 73.7341 44.2595 72.5777C46.1933 71.0751 47.3726 70.4969 48.4669 70.5099C49.7344 70.5263 50.8157 71.3593 52.3673 72.8946C53.2885 73.806 54.3306 74.2927 55.3792 74.3058C55.8888 74.3123 56.3984 74.2045 56.8949 73.9857C58.2343 73.3911 59.4854 72.4993 60.6973 71.6337C60.9587 71.4475 61.22 71.2613 61.4813 71.0751C62.3764 70.4479 63.0853 70.0624 63.866 70.0722C64.4736 70.0787 65.0812 70.3139 65.9665 70.8791C66.5839 71.2743 67.2013 71.6892 67.7991 72.091C68.2629 72.4046 68.7366 72.7215 69.2135 73.0318V68.4225C68.5798 67.9815 67.8742 67.5438 67.0412 67.0767H67.0379Z" fill="#00DFBF"/>
<path d="M45.883 30.2029L52.9325 35.521L56.6532 33.4467L63.8431 38.1376H69.2103V33.9595H65.0845L56.8231 28.5695L53.2755 30.5459L46.5233 25.4531L28.0078 32.826V37.3209L45.883 30.2029Z" fill="#00DFBF"/>
<path d="M53.0697 44.7639C53.4845 43.6434 53.5564 42.5948 53.282 41.6279C52.8541 40.122 51.665 39.2138 50.7699 38.8904C45.9908 37.1787 36.2463 39.9586 28.0078 43.0097V47.485C36.6024 44.2118 45.6674 41.5985 49.2673 42.7908C49.2901 42.9966 49.1235 43.7643 48.0553 45.1004C47.6601 45.5969 46.4612 47.0996 47.4412 48.6218C48.48 50.2323 50.1591 49.8076 53.2101 49.0367C56.8165 48.1253 62.9252 46.5867 69.2103 47.583V43.3527C62.8664 42.487 56.9407 43.8002 53.0697 44.7639Z" fill="#00DFBF"/>
<path d="M56.4625 52.75L54.3947 51.2931L53.3559 53.5993C52.3563 55.8174 49.0014 57.5128 46.3195 58.5059C46.6429 51.6981 43.0626 49.9178 42.5955 49.7153L41.0373 49.0391L40.0573 50.4241C37.2937 54.3343 32.41 56.7027 28 58.1171V62.4945C32.5929 61.1551 37.9829 58.8456 41.7527 54.906C42.1545 56.0134 42.406 57.9081 41.7984 61.0441L41.1875 64.1866L44.3105 63.4777C45.1957 63.2785 51.9773 61.6353 55.5805 57.6696C56.175 58.4242 56.7434 59.4173 56.861 60.5508L57.1191 63.0531L59.5299 62.3409C59.6017 62.3181 64.1849 60.9787 69.2025 60.296V56.0918C65.7235 56.523 62.4535 57.258 60.4249 57.7709C59.1967 54.6969 56.5899 52.8349 56.4559 52.7402L56.4625 52.75Z" fill="#00DFBF"/>
<path d="M67.0379 67.0767C65.9599 66.4756 64.8754 66.162 63.817 66.1489C62.5724 66.1326 61.3311 66.5311 60.1257 67.3282C59.5834 67.6875 59.0411 68.0861 58.4662 68.5434C57.1889 69.5593 56.5552 70.0657 55.8529 70.0559C55.1375 70.0461 54.5103 69.5005 53.2591 68.416C51.5899 66.9656 50.1264 66.2829 48.6499 66.2633C47.3628 66.2469 46.0169 66.7206 44.4097 67.7561C43.7989 68.1481 43.1978 68.5859 42.6163 69.0073C42.3485 69.2033 42.0806 69.396 41.8095 69.5887C40.9601 70.1898 40.4277 70.4936 39.8756 70.4871C39.2615 70.4805 38.7355 70.082 37.9777 69.3503C36.4979 67.926 34.9037 67.2204 33.1005 67.1975C31.6959 67.1812 30.1246 67.5797 28.2953 68.4225C28.2005 68.4683 28.0993 68.563 28.0078 68.6675V72.7051C28.145 72.6431 28.2887 72.581 28.4227 72.5222C29.2034 72.1727 29.8796 71.8689 30.595 71.6337C31.3039 71.4017 32.1401 71.1633 32.9601 71.1763C33.9139 71.1894 34.6881 71.5259 35.3251 72.2053C36.6024 73.5643 38.1181 74.296 39.709 74.3156C41.1986 74.3352 42.7731 73.7341 44.2595 72.5777C46.1933 71.0751 47.3726 70.4969 48.4669 70.5099C49.7344 70.5263 50.8157 71.3593 52.3673 72.8946C53.2885 73.806 54.3306 74.2927 55.3792 74.3058C55.8888 74.3123 56.3984 74.2045 56.8949 73.9857C58.2343 73.3911 59.4854 72.4993 60.6973 71.6337C60.9587 71.4475 61.22 71.2613 61.4813 71.0751C62.3764 70.4479 63.0853 70.0624 63.866 70.0722C64.4736 70.0787 65.0812 70.3139 65.9665 70.8791C66.5839 71.2743 67.2013 71.6892 67.7991 72.091C68.2629 72.4046 68.7366 72.7215 69.2135 73.0318V68.4225C68.5798 67.9815 67.8742 67.5438 67.0412 67.0767H67.0379Z" fill="#00DFBF"/>
<path d="M45.883 30.2029L52.9325 35.521L56.6532 33.4467L63.8431 38.1376H69.2103V33.9595H65.0845L56.8231 28.5695L53.2755 30.5459L46.5233 25.4531L28.0078 32.826V37.3209L45.883 30.2029Z" fill="#00DFBF"/>
<path d="M53.0697 44.7639C53.4845 43.6434 53.5564 42.5948 53.282 41.6279C52.8541 40.122 51.665 39.2138 50.7699 38.8904C45.9908 37.1787 36.2463 39.9586 28.0078 43.0097V47.485C36.6024 44.2118 45.6674 41.5985 49.2673 42.7908C49.2901 42.9966 49.1235 43.7643 48.0553 45.1004C47.6601 45.5969 46.4612 47.0996 47.4412 48.6218C48.48 50.2323 50.1591 49.8076 53.2101 49.0367C56.8165 48.1253 62.9252 46.5867 69.2103 47.583V43.3527C62.8664 42.487 56.9407 43.8002 53.0697 44.7639Z" fill="#00DFBF"/>
<path d="M56.4625 52.75L54.3947 51.2931L53.3559 53.5993C52.3563 55.8174 49.0014 57.5128 46.3195 58.5059C46.6429 51.6981 43.0626 49.9178 42.5955 49.7153L41.0373 49.0391L40.0573 50.4241C37.2937 54.3343 32.41 56.7027 28 58.1171V62.4945C32.5929 61.1551 37.9829 58.8456 41.7527 54.906C42.1545 56.0134 42.406 57.9081 41.7984 61.0441L41.1875 64.1866L44.3105 63.4777C45.1957 63.2785 51.9773 61.6353 55.5805 57.6696C56.175 58.4242 56.7434 59.4173 56.861 60.5508L57.1191 63.0531L59.5299 62.3409C59.6017 62.3181 64.1849 60.9787 69.2025 60.296V56.0918C65.7235 56.523 62.4535 57.258 60.4249 57.7709C59.1967 54.6969 56.5899 52.8349 56.4559 52.7402L56.4625 52.75Z" fill="#00DFBF"/>
</svg>
